G04 #@! TF.FileFunction,Copper,L4,Bot,Signal*
%FSLAX46Y46*%
G04 Gerber Fmt 4.6, Leading zero omitted, Abs format (unit mm)*
G04 Created by KiCad (PCBNEW 4.0.2-stable) date 2017年05月12日 星期五 07:52:48*
%MOMM*%
G01*
G04 APERTURE LIST*
%ADD10C,0.100000*%
%ADD11C,1.524000*%
%ADD12C,0.600000*%
%ADD13C,0.250000*%
%ADD14C,0.254000*%
G04 APERTURE END LIST*
D10*
D11*
X169950000Y-99850000D03*
X159125000Y-103550000D03*
X169950000Y-96975000D03*
X156575000Y-103550000D03*
X164200000Y-103550000D03*
X173400000Y-96975000D03*
X161675000Y-103550000D03*
X173400000Y-99850000D03*
D12*
X169575000Y-102125000D03*
X176100000Y-93800000D03*
X182850000Y-95200000D03*
X182650000Y-91700000D03*
X186625000Y-101875000D03*
X184150000Y-96200000D03*
X185250000Y-94100000D03*
X176000000Y-102200000D03*
X160225000Y-104650000D03*
X178775000Y-98325010D03*
X167400000Y-100450000D03*
X178775000Y-102375000D03*
X167725000Y-93349998D03*
X167350004Y-94475000D03*
X162700000Y-97650000D03*
X168500000Y-101700000D03*
X176100000Y-94774998D03*
X185800000Y-98025010D03*
X181650000Y-96200000D03*
X181650002Y-102475000D03*
X174475000Y-102200000D03*
X178874990Y-96175000D03*
X157725000Y-102400000D03*
X188675000Y-100850000D03*
X188675000Y-98350000D03*
X188525000Y-99600000D03*
X190350000Y-95150000D03*
X162100000Y-93100000D03*
X167400000Y-99275000D03*
X166925000Y-104975000D03*
X171725000Y-105025000D03*
X176600000Y-104000000D03*
X185250000Y-92200000D03*
X190125000Y-94100000D03*
X189850000Y-92750000D03*
X181550000Y-91775000D03*
X181350000Y-95200000D03*
X179975000Y-93125000D03*
X168825004Y-93350000D03*
X165950000Y-91625000D03*
X162550000Y-100100000D03*
X162550000Y-98900000D03*
X176250008Y-96600000D03*
X190349998Y-97125000D03*
X176250004Y-97500000D03*
X190349999Y-98349999D03*
X170250004Y-101250000D03*
X171175000Y-98350000D03*
X166825000Y-102375000D03*
X172275000Y-98099992D03*
X164925000Y-101600000D03*
X173250000Y-101825000D03*
D13*
X159125000Y-103550000D02*
X160225000Y-104650000D01*
X156575000Y-103550000D02*
X157725000Y-102400000D01*
X169950005Y-100950001D02*
X170250004Y-101250000D01*
X169950000Y-100949996D02*
X169950005Y-100950001D01*
X169950000Y-99850000D02*
X169950000Y-100949996D01*
X169950000Y-96975000D02*
X171175000Y-98200000D01*
X171175000Y-98200000D02*
X171175000Y-98350000D01*
X165650000Y-103550000D02*
X166525001Y-102674999D01*
X164200000Y-103550000D02*
X165650000Y-103550000D01*
X166525001Y-102674999D02*
X166825000Y-102375000D01*
X172275008Y-98099992D02*
X172275000Y-98099992D01*
X173400000Y-96975000D02*
X172275008Y-98099992D01*
X164925000Y-101600000D02*
X163625000Y-101600000D01*
X163625000Y-101600000D02*
X161675000Y-103550000D01*
X173400000Y-101675000D02*
X173250000Y-101825000D01*
X173400000Y-99850000D02*
X173400000Y-101675000D01*
D14*
G36*
X193204761Y-90005663D02*
X193378349Y-90121651D01*
X193494337Y-90295239D01*
X193544000Y-90544911D01*
X193544000Y-105455089D01*
X193494337Y-105704761D01*
X193378349Y-105878349D01*
X193204761Y-105994337D01*
X192955089Y-106044000D01*
X156044911Y-106044000D01*
X155795239Y-105994337D01*
X155621651Y-105878349D01*
X155505663Y-105704761D01*
X155456000Y-105455089D01*
X155456000Y-104530213D01*
X155774392Y-104530213D01*
X155843857Y-104772397D01*
X156367302Y-104959144D01*
X156922368Y-104931362D01*
X157306143Y-104772397D01*
X157375608Y-104530213D01*
X156575000Y-103729605D01*
X155774392Y-104530213D01*
X155456000Y-104530213D01*
X155456000Y-104310800D01*
X155594787Y-104350608D01*
X156395395Y-103550000D01*
X156754605Y-103550000D01*
X157555213Y-104350608D01*
X157797397Y-104281143D01*
X157981813Y-103764233D01*
X157981802Y-103776359D01*
X158155446Y-104196612D01*
X158476697Y-104518423D01*
X158896646Y-104692801D01*
X159351359Y-104693198D01*
X159493765Y-104634357D01*
X159543969Y-104684561D01*
X159543882Y-104784865D01*
X159647339Y-105035252D01*
X159838741Y-105226987D01*
X160088946Y-105330882D01*
X160359865Y-105331118D01*
X160610252Y-105227661D01*
X160801987Y-105036259D01*
X160905882Y-104786054D01*
X160906118Y-104515135D01*
X160823281Y-104314652D01*
X161026697Y-104518423D01*
X161446646Y-104692801D01*
X161901359Y-104693198D01*
X162321612Y-104519554D01*
X162643423Y-104198303D01*
X162817801Y-103778354D01*
X162817802Y-103776359D01*
X163056802Y-103776359D01*
X163230446Y-104196612D01*
X163551697Y-104518423D01*
X163971646Y-104692801D01*
X164426359Y-104693198D01*
X164846612Y-104519554D01*
X165168423Y-104198303D01*
X165227512Y-104056000D01*
X165650000Y-104056000D01*
X165843638Y-104017483D01*
X166007796Y-103907796D01*
X166092589Y-103823003D01*
X189368718Y-103823003D01*
X189616499Y-104422680D01*
X190074907Y-104881888D01*
X190674151Y-105130716D01*
X191323003Y-105131282D01*
X191922680Y-104883501D01*
X192381888Y-104425093D01*
X192630716Y-103825849D01*
X192631282Y-103176997D01*
X192383501Y-102577320D01*
X191925093Y-102118112D01*
X191325849Y-101869284D01*
X190676997Y-101868718D01*
X190077320Y-102116499D01*
X189618112Y-102574907D01*
X189369284Y-103174151D01*
X189368718Y-103823003D01*
X166092589Y-103823003D01*
X166859561Y-103056031D01*
X166959865Y-103056118D01*
X167210252Y-102952661D01*
X167401987Y-102761259D01*
X167505882Y-102511054D01*
X167506118Y-102240135D01*
X167402661Y-101989748D01*
X167211259Y-101798013D01*
X166961054Y-101694118D01*
X166690135Y-101693882D01*
X166439748Y-101797339D01*
X166248013Y-101988741D01*
X166144118Y-102238946D01*
X166144030Y-102340378D01*
X165440408Y-103044000D01*
X165227653Y-103044000D01*
X165169554Y-102903388D01*
X164848303Y-102581577D01*
X164428354Y-102407199D01*
X163973641Y-102406802D01*
X163553388Y-102580446D01*
X163231577Y-102901697D01*
X163057199Y-103321646D01*
X163056802Y-103776359D01*
X162817802Y-103776359D01*
X162818198Y-103323641D01*
X162759357Y-103181235D01*
X163834592Y-102106000D01*
X164467877Y-102106000D01*
X164538741Y-102176987D01*
X164788946Y-102280882D01*
X165059865Y-102281118D01*
X165310252Y-102177661D01*
X165501987Y-101986259D01*
X165605882Y-101736054D01*
X165606118Y-101465135D01*
X165502661Y-101214748D01*
X165311259Y-101023013D01*
X165061054Y-100919118D01*
X164790135Y-100918882D01*
X164539748Y-101022339D01*
X164467962Y-101094000D01*
X163625000Y-101094000D01*
X163431362Y-101132517D01*
X163267204Y-101242204D01*
X162043864Y-102465544D01*
X161903354Y-102407199D01*
X161448641Y-102406802D01*
X161028388Y-102580446D01*
X160706577Y-102901697D01*
X160532199Y-103321646D01*
X160531802Y-103776359D01*
X160684826Y-104146708D01*
X160611259Y-104073013D01*
X160361054Y-103969118D01*
X160259622Y-103969030D01*
X160209456Y-103918864D01*
X160267801Y-103778354D01*
X160268198Y-103323641D01*
X160094554Y-102903388D01*
X159773303Y-102581577D01*
X159353354Y-102407199D01*
X158898641Y-102406802D01*
X158478388Y-102580446D01*
X158156577Y-102901697D01*
X157982199Y-103321646D01*
X157981858Y-103712029D01*
X157956362Y-103202632D01*
X157797397Y-102818857D01*
X157555213Y-102749392D01*
X156754605Y-103550000D01*
X156395395Y-103550000D01*
X155594787Y-102749392D01*
X155456000Y-102789200D01*
X155456000Y-102569787D01*
X155774392Y-102569787D01*
X156575000Y-103370395D01*
X157375608Y-102569787D01*
X157306143Y-102327603D01*
X156782698Y-102140856D01*
X156227632Y-102168638D01*
X155843857Y-102327603D01*
X155774392Y-102569787D01*
X155456000Y-102569787D01*
X155456000Y-99323003D01*
X156368718Y-99323003D01*
X156616499Y-99922680D01*
X157074907Y-100381888D01*
X157674151Y-100630716D01*
X158323003Y-100631282D01*
X158435340Y-100584865D01*
X166718882Y-100584865D01*
X166822339Y-100835252D01*
X167013741Y-101026987D01*
X167263946Y-101130882D01*
X167534865Y-101131118D01*
X167785252Y-101027661D01*
X167976987Y-100836259D01*
X168080882Y-100586054D01*
X168081118Y-100315135D01*
X167982459Y-100076359D01*
X168806802Y-100076359D01*
X168980446Y-100496612D01*
X169301697Y-100818423D01*
X169444000Y-100877512D01*
X169444000Y-100949996D01*
X169482517Y-101143634D01*
X169568983Y-101273040D01*
X169568886Y-101384865D01*
X169593326Y-101444015D01*
X169440135Y-101443882D01*
X169189748Y-101547339D01*
X168998013Y-101738741D01*
X168894118Y-101988946D01*
X168893882Y-102259865D01*
X168997339Y-102510252D01*
X169188741Y-102701987D01*
X169438946Y-102805882D01*
X169709865Y-102806118D01*
X169960252Y-102702661D01*
X170151987Y-102511259D01*
X170255882Y-102261054D01*
X170256118Y-101990135D01*
X170231678Y-101930985D01*
X170384869Y-101931118D01*
X170635256Y-101827661D01*
X170826991Y-101636259D01*
X170930886Y-101386054D01*
X170931122Y-101115135D01*
X170827665Y-100864748D01*
X170689743Y-100726586D01*
X170918423Y-100498303D01*
X171092801Y-100078354D01*
X171092802Y-100076359D01*
X172256802Y-100076359D01*
X172430446Y-100496612D01*
X172751697Y-100818423D01*
X172894000Y-100877512D01*
X172894000Y-101235252D01*
X172864748Y-101247339D01*
X172673013Y-101438741D01*
X172569118Y-101688946D01*
X172568882Y-101959865D01*
X172672339Y-102210252D01*
X172863741Y-102401987D01*
X173113946Y-102505882D01*
X173384865Y-102506118D01*
X173635252Y-102402661D01*
X173703165Y-102334865D01*
X175318882Y-102334865D01*
X175422339Y-102585252D01*
X175613741Y-102776987D01*
X175863946Y-102880882D01*
X176134865Y-102881118D01*
X176385252Y-102777661D01*
X176576987Y-102586259D01*
X176608708Y-102509865D01*
X178093882Y-102509865D01*
X178197339Y-102760252D01*
X178388741Y-102951987D01*
X178638946Y-103055882D01*
X178909865Y-103056118D01*
X179160252Y-102952661D01*
X179351987Y-102761259D01*
X179455882Y-102511054D01*
X179456118Y-102240135D01*
X179360974Y-102009865D01*
X185943882Y-102009865D01*
X186047339Y-102260252D01*
X186238741Y-102451987D01*
X186488946Y-102555882D01*
X186759865Y-102556118D01*
X187010252Y-102452661D01*
X187201987Y-102261259D01*
X187305882Y-102011054D01*
X187306118Y-101740135D01*
X187202661Y-101489748D01*
X187011259Y-101298013D01*
X186761054Y-101194118D01*
X186490135Y-101193882D01*
X186239748Y-101297339D01*
X186048013Y-101488741D01*
X185944118Y-101738946D01*
X185943882Y-102009865D01*
X179360974Y-102009865D01*
X179352661Y-101989748D01*
X179161259Y-101798013D01*
X178911054Y-101694118D01*
X178640135Y-101693882D01*
X178389748Y-101797339D01*
X178198013Y-101988741D01*
X178094118Y-102238946D01*
X178093882Y-102509865D01*
X176608708Y-102509865D01*
X176680882Y-102336054D01*
X176681118Y-102065135D01*
X176577661Y-101814748D01*
X176386259Y-101623013D01*
X176136054Y-101519118D01*
X175865135Y-101518882D01*
X175614748Y-101622339D01*
X175423013Y-101813741D01*
X175319118Y-102063946D01*
X175318882Y-102334865D01*
X173703165Y-102334865D01*
X173826987Y-102211259D01*
X173930882Y-101961054D01*
X173931118Y-101690135D01*
X173906000Y-101629344D01*
X173906000Y-100877653D01*
X174046612Y-100819554D01*
X174368423Y-100498303D01*
X174542801Y-100078354D01*
X174543198Y-99623641D01*
X174369554Y-99203388D01*
X174048303Y-98881577D01*
X173628354Y-98707199D01*
X173173641Y-98706802D01*
X172753388Y-98880446D01*
X172431577Y-99201697D01*
X172257199Y-99621646D01*
X172256802Y-100076359D01*
X171092802Y-100076359D01*
X171093198Y-99623641D01*
X170919554Y-99203388D01*
X170598303Y-98881577D01*
X170178354Y-98707199D01*
X169723641Y-98706802D01*
X169303388Y-98880446D01*
X168981577Y-99201697D01*
X168807199Y-99621646D01*
X168806802Y-100076359D01*
X167982459Y-100076359D01*
X167977661Y-100064748D01*
X167786259Y-99873013D01*
X167536054Y-99769118D01*
X167265135Y-99768882D01*
X167014748Y-99872339D01*
X166823013Y-100063741D01*
X166719118Y-100313946D01*
X166718882Y-100584865D01*
X158435340Y-100584865D01*
X158922680Y-100383501D01*
X159381888Y-99925093D01*
X159630716Y-99325849D01*
X159631282Y-98676997D01*
X159383501Y-98077320D01*
X159091556Y-97784865D01*
X162018882Y-97784865D01*
X162122339Y-98035252D01*
X162313741Y-98226987D01*
X162563946Y-98330882D01*
X162834865Y-98331118D01*
X163085252Y-98227661D01*
X163276987Y-98036259D01*
X163380882Y-97786054D01*
X163381118Y-97515135D01*
X163277661Y-97264748D01*
X163214383Y-97201359D01*
X168806802Y-97201359D01*
X168980446Y-97621612D01*
X169301697Y-97943423D01*
X169721646Y-98117801D01*
X170176359Y-98118198D01*
X170318765Y-98059357D01*
X170494100Y-98234692D01*
X170493882Y-98484865D01*
X170597339Y-98735252D01*
X170788741Y-98926987D01*
X171038946Y-99030882D01*
X171309865Y-99031118D01*
X171560252Y-98927661D01*
X171751987Y-98736259D01*
X171809545Y-98597645D01*
X171888741Y-98676979D01*
X172138946Y-98780874D01*
X172409865Y-98781110D01*
X172660252Y-98677653D01*
X172851987Y-98486251D01*
X172862939Y-98459875D01*
X178093882Y-98459875D01*
X178197339Y-98710262D01*
X178388741Y-98901997D01*
X178638946Y-99005892D01*
X178909865Y-99006128D01*
X179160252Y-98902671D01*
X179351987Y-98711269D01*
X179455882Y-98461064D01*
X179456118Y-98190145D01*
X179352661Y-97939758D01*
X179161259Y-97748023D01*
X178911054Y-97644128D01*
X178640135Y-97643892D01*
X178389748Y-97747349D01*
X178198013Y-97938751D01*
X178094118Y-98188956D01*
X178093882Y-98459875D01*
X172862939Y-98459875D01*
X172955882Y-98236046D01*
X172955970Y-98134622D01*
X173031136Y-98059456D01*
X173171646Y-98117801D01*
X173626359Y-98118198D01*
X174046612Y-97944554D01*
X174356840Y-97634865D01*
X175568886Y-97634865D01*
X175672343Y-97885252D01*
X175863745Y-98076987D01*
X176113950Y-98180882D01*
X176384869Y-98181118D01*
X176635256Y-98077661D01*
X176826991Y-97886259D01*
X176930886Y-97636054D01*
X176931122Y-97365135D01*
X176887626Y-97259865D01*
X189668880Y-97259865D01*
X189772337Y-97510252D01*
X189963739Y-97701987D01*
X190049163Y-97737458D01*
X189964747Y-97772338D01*
X189773012Y-97963740D01*
X189669117Y-98213945D01*
X189668881Y-98484864D01*
X189772338Y-98735251D01*
X189963740Y-98926986D01*
X190213945Y-99030881D01*
X190484864Y-99031117D01*
X190735251Y-98927660D01*
X190926986Y-98736258D01*
X191030881Y-98486053D01*
X191031117Y-98215134D01*
X190927660Y-97964747D01*
X190736258Y-97773012D01*
X190650834Y-97737541D01*
X190735250Y-97702661D01*
X190926985Y-97511259D01*
X191030880Y-97261054D01*
X191031116Y-96990135D01*
X190927659Y-96739748D01*
X190736257Y-96548013D01*
X190486052Y-96444118D01*
X190215133Y-96443882D01*
X189964746Y-96547339D01*
X189773011Y-96738741D01*
X189669116Y-96988946D01*
X189668880Y-97259865D01*
X176887626Y-97259865D01*
X176827665Y-97114748D01*
X176763086Y-97050057D01*
X176826995Y-96986259D01*
X176930890Y-96736054D01*
X176931126Y-96465135D01*
X176877300Y-96334865D01*
X183468882Y-96334865D01*
X183572339Y-96585252D01*
X183763741Y-96776987D01*
X184013946Y-96880882D01*
X184284865Y-96881118D01*
X184535252Y-96777661D01*
X184726987Y-96586259D01*
X184830882Y-96336054D01*
X184831118Y-96065135D01*
X184727661Y-95814748D01*
X184536259Y-95623013D01*
X184286054Y-95519118D01*
X184015135Y-95518882D01*
X183764748Y-95622339D01*
X183573013Y-95813741D01*
X183469118Y-96063946D01*
X183468882Y-96334865D01*
X176877300Y-96334865D01*
X176827669Y-96214748D01*
X176636267Y-96023013D01*
X176386062Y-95919118D01*
X176115143Y-95918882D01*
X175864756Y-96022339D01*
X175673021Y-96213741D01*
X175569126Y-96463946D01*
X175568890Y-96734865D01*
X175672347Y-96985252D01*
X175736926Y-97049943D01*
X175673017Y-97113741D01*
X175569122Y-97363946D01*
X175568886Y-97634865D01*
X174356840Y-97634865D01*
X174368423Y-97623303D01*
X174542801Y-97203354D01*
X174543198Y-96748641D01*
X174369554Y-96328388D01*
X174048303Y-96006577D01*
X173628354Y-95832199D01*
X173173641Y-95831802D01*
X172753388Y-96005446D01*
X172431577Y-96326697D01*
X172257199Y-96746646D01*
X172256802Y-97201359D01*
X172315643Y-97343765D01*
X172240447Y-97418961D01*
X172140135Y-97418874D01*
X171889748Y-97522331D01*
X171698013Y-97713733D01*
X171640455Y-97852347D01*
X171561259Y-97773013D01*
X171394261Y-97703669D01*
X171034456Y-97343864D01*
X171092801Y-97203354D01*
X171093198Y-96748641D01*
X170919554Y-96328388D01*
X170598303Y-96006577D01*
X170178354Y-95832199D01*
X169723641Y-95831802D01*
X169303388Y-96005446D01*
X168981577Y-96326697D01*
X168807199Y-96746646D01*
X168806802Y-97201359D01*
X163214383Y-97201359D01*
X163086259Y-97073013D01*
X162836054Y-96969118D01*
X162565135Y-96968882D01*
X162314748Y-97072339D01*
X162123013Y-97263741D01*
X162019118Y-97513946D01*
X162018882Y-97784865D01*
X159091556Y-97784865D01*
X158925093Y-97618112D01*
X158325849Y-97369284D01*
X157676997Y-97368718D01*
X157077320Y-97616499D01*
X156618112Y-98074907D01*
X156369284Y-98674151D01*
X156368718Y-99323003D01*
X155456000Y-99323003D01*
X155456000Y-95334865D01*
X182168882Y-95334865D01*
X182272339Y-95585252D01*
X182463741Y-95776987D01*
X182713946Y-95880882D01*
X182984865Y-95881118D01*
X183235252Y-95777661D01*
X183426987Y-95586259D01*
X183530882Y-95336054D01*
X183531118Y-95065135D01*
X183427661Y-94814748D01*
X183236259Y-94623013D01*
X182986054Y-94519118D01*
X182715135Y-94518882D01*
X182464748Y-94622339D01*
X182273013Y-94813741D01*
X182169118Y-95063946D01*
X182168882Y-95334865D01*
X155456000Y-95334865D01*
X155456000Y-94609865D01*
X166668886Y-94609865D01*
X166772343Y-94860252D01*
X166963745Y-95051987D01*
X167213950Y-95155882D01*
X167484869Y-95156118D01*
X167735256Y-95052661D01*
X167926991Y-94861259D01*
X168030886Y-94611054D01*
X168031122Y-94340135D01*
X167927665Y-94089748D01*
X167866428Y-94028404D01*
X168092811Y-93934865D01*
X175418882Y-93934865D01*
X175522339Y-94185252D01*
X175713741Y-94376987D01*
X175963946Y-94480882D01*
X176234865Y-94481118D01*
X176485252Y-94377661D01*
X176628296Y-94234865D01*
X184568882Y-94234865D01*
X184672339Y-94485252D01*
X184863741Y-94676987D01*
X185113946Y-94780882D01*
X185384865Y-94781118D01*
X185635252Y-94677661D01*
X185826987Y-94486259D01*
X185930882Y-94236054D01*
X185931118Y-93965135D01*
X185827661Y-93714748D01*
X185636259Y-93523013D01*
X185386054Y-93419118D01*
X185115135Y-93418882D01*
X184864748Y-93522339D01*
X184673013Y-93713741D01*
X184569118Y-93963946D01*
X184568882Y-94234865D01*
X176628296Y-94234865D01*
X176676987Y-94186259D01*
X176780882Y-93936054D01*
X176781118Y-93665135D01*
X176677661Y-93414748D01*
X176486259Y-93223013D01*
X176236054Y-93119118D01*
X175965135Y-93118882D01*
X175714748Y-93222339D01*
X175523013Y-93413741D01*
X175419118Y-93663946D01*
X175418882Y-93934865D01*
X168092811Y-93934865D01*
X168110252Y-93927659D01*
X168301987Y-93736257D01*
X168405882Y-93486052D01*
X168406118Y-93215133D01*
X168302661Y-92964746D01*
X168111259Y-92773011D01*
X167861054Y-92669116D01*
X167590135Y-92668880D01*
X167339748Y-92772337D01*
X167148013Y-92963739D01*
X167044118Y-93213944D01*
X167043882Y-93484863D01*
X167147339Y-93735250D01*
X167208576Y-93796594D01*
X166964752Y-93897339D01*
X166773017Y-94088741D01*
X166669122Y-94338946D01*
X166668886Y-94609865D01*
X155456000Y-94609865D01*
X155456000Y-91834865D01*
X181968882Y-91834865D01*
X182072339Y-92085252D01*
X182263741Y-92276987D01*
X182513946Y-92380882D01*
X182784865Y-92381118D01*
X183035252Y-92277661D01*
X183226987Y-92086259D01*
X183330882Y-91836054D01*
X183331118Y-91565135D01*
X183227661Y-91314748D01*
X183036259Y-91123013D01*
X182786054Y-91019118D01*
X182515135Y-91018882D01*
X182264748Y-91122339D01*
X182073013Y-91313741D01*
X181969118Y-91563946D01*
X181968882Y-91834865D01*
X155456000Y-91834865D01*
X155456000Y-90544911D01*
X155505663Y-90295239D01*
X155621651Y-90121651D01*
X155795239Y-90005663D01*
X156044911Y-89956000D01*
X192955089Y-89956000D01*
X193204761Y-90005663D01*
X193204761Y-90005663D01*
G37*
X193204761Y-90005663D02*
X193378349Y-90121651D01*
X193494337Y-90295239D01*
X193544000Y-90544911D01*
X193544000Y-105455089D01*
X193494337Y-105704761D01*
X193378349Y-105878349D01*
X193204761Y-105994337D01*
X192955089Y-106044000D01*
X156044911Y-106044000D01*
X155795239Y-105994337D01*
X155621651Y-105878349D01*
X155505663Y-105704761D01*
X155456000Y-105455089D01*
X155456000Y-104530213D01*
X155774392Y-104530213D01*
X155843857Y-104772397D01*
X156367302Y-104959144D01*
X156922368Y-104931362D01*
X157306143Y-104772397D01*
X157375608Y-104530213D01*
X156575000Y-103729605D01*
X155774392Y-104530213D01*
X155456000Y-104530213D01*
X155456000Y-104310800D01*
X155594787Y-104350608D01*
X156395395Y-103550000D01*
X156754605Y-103550000D01*
X157555213Y-104350608D01*
X157797397Y-104281143D01*
X157981813Y-103764233D01*
X157981802Y-103776359D01*
X158155446Y-104196612D01*
X158476697Y-104518423D01*
X158896646Y-104692801D01*
X159351359Y-104693198D01*
X159493765Y-104634357D01*
X159543969Y-104684561D01*
X159543882Y-104784865D01*
X159647339Y-105035252D01*
X159838741Y-105226987D01*
X160088946Y-105330882D01*
X160359865Y-105331118D01*
X160610252Y-105227661D01*
X160801987Y-105036259D01*
X160905882Y-104786054D01*
X160906118Y-104515135D01*
X160823281Y-104314652D01*
X161026697Y-104518423D01*
X161446646Y-104692801D01*
X161901359Y-104693198D01*
X162321612Y-104519554D01*
X162643423Y-104198303D01*
X162817801Y-103778354D01*
X162817802Y-103776359D01*
X163056802Y-103776359D01*
X163230446Y-104196612D01*
X163551697Y-104518423D01*
X163971646Y-104692801D01*
X164426359Y-104693198D01*
X164846612Y-104519554D01*
X165168423Y-104198303D01*
X165227512Y-104056000D01*
X165650000Y-104056000D01*
X165843638Y-104017483D01*
X166007796Y-103907796D01*
X166092589Y-103823003D01*
X189368718Y-103823003D01*
X189616499Y-104422680D01*
X190074907Y-104881888D01*
X190674151Y-105130716D01*
X191323003Y-105131282D01*
X191922680Y-104883501D01*
X192381888Y-104425093D01*
X192630716Y-103825849D01*
X192631282Y-103176997D01*
X192383501Y-102577320D01*
X191925093Y-102118112D01*
X191325849Y-101869284D01*
X190676997Y-101868718D01*
X190077320Y-102116499D01*
X189618112Y-102574907D01*
X189369284Y-103174151D01*
X189368718Y-103823003D01*
X166092589Y-103823003D01*
X166859561Y-103056031D01*
X166959865Y-103056118D01*
X167210252Y-102952661D01*
X167401987Y-102761259D01*
X167505882Y-102511054D01*
X167506118Y-102240135D01*
X167402661Y-101989748D01*
X167211259Y-101798013D01*
X166961054Y-101694118D01*
X166690135Y-101693882D01*
X166439748Y-101797339D01*
X166248013Y-101988741D01*
X166144118Y-102238946D01*
X166144030Y-102340378D01*
X165440408Y-103044000D01*
X165227653Y-103044000D01*
X165169554Y-102903388D01*
X164848303Y-102581577D01*
X164428354Y-102407199D01*
X163973641Y-102406802D01*
X163553388Y-102580446D01*
X163231577Y-102901697D01*
X163057199Y-103321646D01*
X163056802Y-103776359D01*
X162817802Y-103776359D01*
X162818198Y-103323641D01*
X162759357Y-103181235D01*
X163834592Y-102106000D01*
X164467877Y-102106000D01*
X164538741Y-102176987D01*
X164788946Y-102280882D01*
X165059865Y-102281118D01*
X165310252Y-102177661D01*
X165501987Y-101986259D01*
X165605882Y-101736054D01*
X165606118Y-101465135D01*
X165502661Y-101214748D01*
X165311259Y-101023013D01*
X165061054Y-100919118D01*
X164790135Y-100918882D01*
X164539748Y-101022339D01*
X164467962Y-101094000D01*
X163625000Y-101094000D01*
X163431362Y-101132517D01*
X163267204Y-101242204D01*
X162043864Y-102465544D01*
X161903354Y-102407199D01*
X161448641Y-102406802D01*
X161028388Y-102580446D01*
X160706577Y-102901697D01*
X160532199Y-103321646D01*
X160531802Y-103776359D01*
X160684826Y-104146708D01*
X160611259Y-104073013D01*
X160361054Y-103969118D01*
X160259622Y-103969030D01*
X160209456Y-103918864D01*
X160267801Y-103778354D01*
X160268198Y-103323641D01*
X160094554Y-102903388D01*
X159773303Y-102581577D01*
X159353354Y-102407199D01*
X158898641Y-102406802D01*
X158478388Y-102580446D01*
X158156577Y-102901697D01*
X157982199Y-103321646D01*
X157981858Y-103712029D01*
X157956362Y-103202632D01*
X157797397Y-102818857D01*
X157555213Y-102749392D01*
X156754605Y-103550000D01*
X156395395Y-103550000D01*
X155594787Y-102749392D01*
X155456000Y-102789200D01*
X155456000Y-102569787D01*
X155774392Y-102569787D01*
X156575000Y-103370395D01*
X157375608Y-102569787D01*
X157306143Y-102327603D01*
X156782698Y-102140856D01*
X156227632Y-102168638D01*
X155843857Y-102327603D01*
X155774392Y-102569787D01*
X155456000Y-102569787D01*
X155456000Y-99323003D01*
X156368718Y-99323003D01*
X156616499Y-99922680D01*
X157074907Y-100381888D01*
X157674151Y-100630716D01*
X158323003Y-100631282D01*
X158435340Y-100584865D01*
X166718882Y-100584865D01*
X166822339Y-100835252D01*
X167013741Y-101026987D01*
X167263946Y-101130882D01*
X167534865Y-101131118D01*
X167785252Y-101027661D01*
X167976987Y-100836259D01*
X168080882Y-100586054D01*
X168081118Y-100315135D01*
X167982459Y-100076359D01*
X168806802Y-100076359D01*
X168980446Y-100496612D01*
X169301697Y-100818423D01*
X169444000Y-100877512D01*
X169444000Y-100949996D01*
X169482517Y-101143634D01*
X169568983Y-101273040D01*
X169568886Y-101384865D01*
X169593326Y-101444015D01*
X169440135Y-101443882D01*
X169189748Y-101547339D01*
X168998013Y-101738741D01*
X168894118Y-101988946D01*
X168893882Y-102259865D01*
X168997339Y-102510252D01*
X169188741Y-102701987D01*
X169438946Y-102805882D01*
X169709865Y-102806118D01*
X169960252Y-102702661D01*
X170151987Y-102511259D01*
X170255882Y-102261054D01*
X170256118Y-101990135D01*
X170231678Y-101930985D01*
X170384869Y-101931118D01*
X170635256Y-101827661D01*
X170826991Y-101636259D01*
X170930886Y-101386054D01*
X170931122Y-101115135D01*
X170827665Y-100864748D01*
X170689743Y-100726586D01*
X170918423Y-100498303D01*
X171092801Y-100078354D01*
X171092802Y-100076359D01*
X172256802Y-100076359D01*
X172430446Y-100496612D01*
X172751697Y-100818423D01*
X172894000Y-100877512D01*
X172894000Y-101235252D01*
X172864748Y-101247339D01*
X172673013Y-101438741D01*
X172569118Y-101688946D01*
X172568882Y-101959865D01*
X172672339Y-102210252D01*
X172863741Y-102401987D01*
X173113946Y-102505882D01*
X173384865Y-102506118D01*
X173635252Y-102402661D01*
X173703165Y-102334865D01*
X175318882Y-102334865D01*
X175422339Y-102585252D01*
X175613741Y-102776987D01*
X175863946Y-102880882D01*
X176134865Y-102881118D01*
X176385252Y-102777661D01*
X176576987Y-102586259D01*
X176608708Y-102509865D01*
X178093882Y-102509865D01*
X178197339Y-102760252D01*
X178388741Y-102951987D01*
X178638946Y-103055882D01*
X178909865Y-103056118D01*
X179160252Y-102952661D01*
X179351987Y-102761259D01*
X179455882Y-102511054D01*
X179456118Y-102240135D01*
X179360974Y-102009865D01*
X185943882Y-102009865D01*
X186047339Y-102260252D01*
X186238741Y-102451987D01*
X186488946Y-102555882D01*
X186759865Y-102556118D01*
X187010252Y-102452661D01*
X187201987Y-102261259D01*
X187305882Y-102011054D01*
X187306118Y-101740135D01*
X187202661Y-101489748D01*
X187011259Y-101298013D01*
X186761054Y-101194118D01*
X186490135Y-101193882D01*
X186239748Y-101297339D01*
X186048013Y-101488741D01*
X185944118Y-101738946D01*
X185943882Y-102009865D01*
X179360974Y-102009865D01*
X179352661Y-101989748D01*
X179161259Y-101798013D01*
X178911054Y-101694118D01*
X178640135Y-101693882D01*
X178389748Y-101797339D01*
X178198013Y-101988741D01*
X178094118Y-102238946D01*
X178093882Y-102509865D01*
X176608708Y-102509865D01*
X176680882Y-102336054D01*
X176681118Y-102065135D01*
X176577661Y-101814748D01*
X176386259Y-101623013D01*
X176136054Y-101519118D01*
X175865135Y-101518882D01*
X175614748Y-101622339D01*
X175423013Y-101813741D01*
X175319118Y-102063946D01*
X175318882Y-102334865D01*
X173703165Y-102334865D01*
X173826987Y-102211259D01*
X173930882Y-101961054D01*
X173931118Y-101690135D01*
X173906000Y-101629344D01*
X173906000Y-100877653D01*
X174046612Y-100819554D01*
X174368423Y-100498303D01*
X174542801Y-100078354D01*
X174543198Y-99623641D01*
X174369554Y-99203388D01*
X174048303Y-98881577D01*
X173628354Y-98707199D01*
X173173641Y-98706802D01*
X172753388Y-98880446D01*
X172431577Y-99201697D01*
X172257199Y-99621646D01*
X172256802Y-100076359D01*
X171092802Y-100076359D01*
X171093198Y-99623641D01*
X170919554Y-99203388D01*
X170598303Y-98881577D01*
X170178354Y-98707199D01*
X169723641Y-98706802D01*
X169303388Y-98880446D01*
X168981577Y-99201697D01*
X168807199Y-99621646D01*
X168806802Y-100076359D01*
X167982459Y-100076359D01*
X167977661Y-100064748D01*
X167786259Y-99873013D01*
X167536054Y-99769118D01*
X167265135Y-99768882D01*
X167014748Y-99872339D01*
X166823013Y-100063741D01*
X166719118Y-100313946D01*
X166718882Y-100584865D01*
X158435340Y-100584865D01*
X158922680Y-100383501D01*
X159381888Y-99925093D01*
X159630716Y-99325849D01*
X159631282Y-98676997D01*
X159383501Y-98077320D01*
X159091556Y-97784865D01*
X162018882Y-97784865D01*
X162122339Y-98035252D01*
X162313741Y-98226987D01*
X162563946Y-98330882D01*
X162834865Y-98331118D01*
X163085252Y-98227661D01*
X163276987Y-98036259D01*
X163380882Y-97786054D01*
X163381118Y-97515135D01*
X163277661Y-97264748D01*
X163214383Y-97201359D01*
X168806802Y-97201359D01*
X168980446Y-97621612D01*
X169301697Y-97943423D01*
X169721646Y-98117801D01*
X170176359Y-98118198D01*
X170318765Y-98059357D01*
X170494100Y-98234692D01*
X170493882Y-98484865D01*
X170597339Y-98735252D01*
X170788741Y-98926987D01*
X171038946Y-99030882D01*
X171309865Y-99031118D01*
X171560252Y-98927661D01*
X171751987Y-98736259D01*
X171809545Y-98597645D01*
X171888741Y-98676979D01*
X172138946Y-98780874D01*
X172409865Y-98781110D01*
X172660252Y-98677653D01*
X172851987Y-98486251D01*
X172862939Y-98459875D01*
X178093882Y-98459875D01*
X178197339Y-98710262D01*
X178388741Y-98901997D01*
X178638946Y-99005892D01*
X178909865Y-99006128D01*
X179160252Y-98902671D01*
X179351987Y-98711269D01*
X179455882Y-98461064D01*
X179456118Y-98190145D01*
X179352661Y-97939758D01*
X179161259Y-97748023D01*
X178911054Y-97644128D01*
X178640135Y-97643892D01*
X178389748Y-97747349D01*
X178198013Y-97938751D01*
X178094118Y-98188956D01*
X178093882Y-98459875D01*
X172862939Y-98459875D01*
X172955882Y-98236046D01*
X172955970Y-98134622D01*
X173031136Y-98059456D01*
X173171646Y-98117801D01*
X173626359Y-98118198D01*
X174046612Y-97944554D01*
X174356840Y-97634865D01*
X175568886Y-97634865D01*
X175672343Y-97885252D01*
X175863745Y-98076987D01*
X176113950Y-98180882D01*
X176384869Y-98181118D01*
X176635256Y-98077661D01*
X176826991Y-97886259D01*
X176930886Y-97636054D01*
X176931122Y-97365135D01*
X176887626Y-97259865D01*
X189668880Y-97259865D01*
X189772337Y-97510252D01*
X189963739Y-97701987D01*
X190049163Y-97737458D01*
X189964747Y-97772338D01*
X189773012Y-97963740D01*
X189669117Y-98213945D01*
X189668881Y-98484864D01*
X189772338Y-98735251D01*
X189963740Y-98926986D01*
X190213945Y-99030881D01*
X190484864Y-99031117D01*
X190735251Y-98927660D01*
X190926986Y-98736258D01*
X191030881Y-98486053D01*
X191031117Y-98215134D01*
X190927660Y-97964747D01*
X190736258Y-97773012D01*
X190650834Y-97737541D01*
X190735250Y-97702661D01*
X190926985Y-97511259D01*
X191030880Y-97261054D01*
X191031116Y-96990135D01*
X190927659Y-96739748D01*
X190736257Y-96548013D01*
X190486052Y-96444118D01*
X190215133Y-96443882D01*
X189964746Y-96547339D01*
X189773011Y-96738741D01*
X189669116Y-96988946D01*
X189668880Y-97259865D01*
X176887626Y-97259865D01*
X176827665Y-97114748D01*
X176763086Y-97050057D01*
X176826995Y-96986259D01*
X176930890Y-96736054D01*
X176931126Y-96465135D01*
X176877300Y-96334865D01*
X183468882Y-96334865D01*
X183572339Y-96585252D01*
X183763741Y-96776987D01*
X184013946Y-96880882D01*
X184284865Y-96881118D01*
X184535252Y-96777661D01*
X184726987Y-96586259D01*
X184830882Y-96336054D01*
X184831118Y-96065135D01*
X184727661Y-95814748D01*
X184536259Y-95623013D01*
X184286054Y-95519118D01*
X184015135Y-95518882D01*
X183764748Y-95622339D01*
X183573013Y-95813741D01*
X183469118Y-96063946D01*
X183468882Y-96334865D01*
X176877300Y-96334865D01*
X176827669Y-96214748D01*
X176636267Y-96023013D01*
X176386062Y-95919118D01*
X176115143Y-95918882D01*
X175864756Y-96022339D01*
X175673021Y-96213741D01*
X175569126Y-96463946D01*
X175568890Y-96734865D01*
X175672347Y-96985252D01*
X175736926Y-97049943D01*
X175673017Y-97113741D01*
X175569122Y-97363946D01*
X175568886Y-97634865D01*
X174356840Y-97634865D01*
X174368423Y-97623303D01*
X174542801Y-97203354D01*
X174543198Y-96748641D01*
X174369554Y-96328388D01*
X174048303Y-96006577D01*
X173628354Y-95832199D01*
X173173641Y-95831802D01*
X172753388Y-96005446D01*
X172431577Y-96326697D01*
X172257199Y-96746646D01*
X172256802Y-97201359D01*
X172315643Y-97343765D01*
X172240447Y-97418961D01*
X172140135Y-97418874D01*
X171889748Y-97522331D01*
X171698013Y-97713733D01*
X171640455Y-97852347D01*
X171561259Y-97773013D01*
X171394261Y-97703669D01*
X171034456Y-97343864D01*
X171092801Y-97203354D01*
X171093198Y-96748641D01*
X170919554Y-96328388D01*
X170598303Y-96006577D01*
X170178354Y-95832199D01*
X169723641Y-95831802D01*
X169303388Y-96005446D01*
X168981577Y-96326697D01*
X168807199Y-96746646D01*
X168806802Y-97201359D01*
X163214383Y-97201359D01*
X163086259Y-97073013D01*
X162836054Y-96969118D01*
X162565135Y-96968882D01*
X162314748Y-97072339D01*
X162123013Y-97263741D01*
X162019118Y-97513946D01*
X162018882Y-97784865D01*
X159091556Y-97784865D01*
X158925093Y-97618112D01*
X158325849Y-97369284D01*
X157676997Y-97368718D01*
X157077320Y-97616499D01*
X156618112Y-98074907D01*
X156369284Y-98674151D01*
X156368718Y-99323003D01*
X155456000Y-99323003D01*
X155456000Y-95334865D01*
X182168882Y-95334865D01*
X182272339Y-95585252D01*
X182463741Y-95776987D01*
X182713946Y-95880882D01*
X182984865Y-95881118D01*
X183235252Y-95777661D01*
X183426987Y-95586259D01*
X183530882Y-95336054D01*
X183531118Y-95065135D01*
X183427661Y-94814748D01*
X183236259Y-94623013D01*
X182986054Y-94519118D01*
X182715135Y-94518882D01*
X182464748Y-94622339D01*
X182273013Y-94813741D01*
X182169118Y-95063946D01*
X182168882Y-95334865D01*
X155456000Y-95334865D01*
X155456000Y-94609865D01*
X166668886Y-94609865D01*
X166772343Y-94860252D01*
X166963745Y-95051987D01*
X167213950Y-95155882D01*
X167484869Y-95156118D01*
X167735256Y-95052661D01*
X167926991Y-94861259D01*
X168030886Y-94611054D01*
X168031122Y-94340135D01*
X167927665Y-94089748D01*
X167866428Y-94028404D01*
X168092811Y-93934865D01*
X175418882Y-93934865D01*
X175522339Y-94185252D01*
X175713741Y-94376987D01*
X175963946Y-94480882D01*
X176234865Y-94481118D01*
X176485252Y-94377661D01*
X176628296Y-94234865D01*
X184568882Y-94234865D01*
X184672339Y-94485252D01*
X184863741Y-94676987D01*
X185113946Y-94780882D01*
X185384865Y-94781118D01*
X185635252Y-94677661D01*
X185826987Y-94486259D01*
X185930882Y-94236054D01*
X185931118Y-93965135D01*
X185827661Y-93714748D01*
X185636259Y-93523013D01*
X185386054Y-93419118D01*
X185115135Y-93418882D01*
X184864748Y-93522339D01*
X184673013Y-93713741D01*
X184569118Y-93963946D01*
X184568882Y-94234865D01*
X176628296Y-94234865D01*
X176676987Y-94186259D01*
X176780882Y-93936054D01*
X176781118Y-93665135D01*
X176677661Y-93414748D01*
X176486259Y-93223013D01*
X176236054Y-93119118D01*
X175965135Y-93118882D01*
X175714748Y-93222339D01*
X175523013Y-93413741D01*
X175419118Y-93663946D01*
X175418882Y-93934865D01*
X168092811Y-93934865D01*
X168110252Y-93927659D01*
X168301987Y-93736257D01*
X168405882Y-93486052D01*
X168406118Y-93215133D01*
X168302661Y-92964746D01*
X168111259Y-92773011D01*
X167861054Y-92669116D01*
X167590135Y-92668880D01*
X167339748Y-92772337D01*
X167148013Y-92963739D01*
X167044118Y-93213944D01*
X167043882Y-93484863D01*
X167147339Y-93735250D01*
X167208576Y-93796594D01*
X166964752Y-93897339D01*
X166773017Y-94088741D01*
X166669122Y-94338946D01*
X166668886Y-94609865D01*
X155456000Y-94609865D01*
X155456000Y-91834865D01*
X181968882Y-91834865D01*
X182072339Y-92085252D01*
X182263741Y-92276987D01*
X182513946Y-92380882D01*
X182784865Y-92381118D01*
X183035252Y-92277661D01*
X183226987Y-92086259D01*
X183330882Y-91836054D01*
X183331118Y-91565135D01*
X183227661Y-91314748D01*
X183036259Y-91123013D01*
X182786054Y-91019118D01*
X182515135Y-91018882D01*
X182264748Y-91122339D01*
X182073013Y-91313741D01*
X181969118Y-91563946D01*
X181968882Y-91834865D01*
X155456000Y-91834865D01*
X155456000Y-90544911D01*
X155505663Y-90295239D01*
X155621651Y-90121651D01*
X155795239Y-90005663D01*
X156044911Y-89956000D01*
X192955089Y-89956000D01*
X193204761Y-90005663D01*
M02*
