G04 #@! TF.FileFunction,Legend,Top*
%FSLAX46Y46*%
G04 Gerber Fmt 4.6, Leading zero omitted, Abs format (unit mm)*
G04 Created by KiCad (PCBNEW 4.0.2-stable) date 2017年05月12日 星期五 07:52:48*
%MOMM*%
G01*
G04 APERTURE LIST*
%ADD10C,0.100000*%
%ADD11C,0.200000*%
%ADD12C,0.150000*%
G04 APERTURE END LIST*
D10*
D11*
X158296428Y-103283333D02*
X159248809Y-103283333D01*
X158105952Y-103854762D02*
X158772619Y-101854762D01*
X159439286Y-103854762D01*
X159915476Y-102521429D02*
X160391667Y-103854762D01*
X160867857Y-102521429D01*
X162391667Y-103759524D02*
X162201191Y-103854762D01*
X161820239Y-103854762D01*
X161629762Y-103759524D01*
X161534524Y-103569048D01*
X161534524Y-102807143D01*
X161629762Y-102616667D01*
X161820239Y-102521429D01*
X162201191Y-102521429D01*
X162391667Y-102616667D01*
X162486905Y-102807143D01*
X162486905Y-102997619D01*
X161534524Y-103188095D01*
X163344048Y-103854762D02*
X163344048Y-102521429D01*
X163344048Y-102711905D02*
X163439287Y-102616667D01*
X163629763Y-102521429D01*
X163915477Y-102521429D01*
X164105953Y-102616667D01*
X164201191Y-102807143D01*
X164201191Y-103854762D01*
X164201191Y-102807143D02*
X164296429Y-102616667D01*
X164486906Y-102521429D01*
X164772620Y-102521429D01*
X164963096Y-102616667D01*
X165058334Y-102807143D01*
X165058334Y-103854762D01*
D12*
X166250000Y-91200000D02*
X166750000Y-91200000D01*
X166750000Y-90250000D02*
X166250000Y-90250000D01*
X188000000Y-93500000D02*
X188700000Y-93500000D01*
X188700000Y-94700000D02*
X188000000Y-94700000D01*
X188600000Y-92275000D02*
X188100000Y-92275000D01*
X188100000Y-93225000D02*
X188600000Y-93225000D01*
X181850000Y-93225000D02*
X182350000Y-93225000D01*
X182350000Y-92275000D02*
X181850000Y-92275000D01*
X182450000Y-94700000D02*
X181750000Y-94700000D01*
X181750000Y-93500000D02*
X182450000Y-93500000D01*
X163825000Y-100575000D02*
X164325000Y-100575000D01*
X164325000Y-99625000D02*
X163825000Y-99625000D01*
X168200000Y-105450000D02*
X168700000Y-105450000D01*
X168700000Y-104500000D02*
X168200000Y-104500000D01*
X179675000Y-93625000D02*
X179175000Y-93625000D01*
X179175000Y-94575000D02*
X179675000Y-94575000D01*
X163825000Y-99375000D02*
X164325000Y-99375000D01*
X164325000Y-98425000D02*
X163825000Y-98425000D01*
X176300000Y-104500000D02*
X175800000Y-104500000D01*
X175800000Y-105450000D02*
X176300000Y-105450000D01*
X163150000Y-92600000D02*
X163650000Y-92600000D01*
X163650000Y-91650000D02*
X163150000Y-91650000D01*
X161050000Y-91650000D02*
X160550000Y-91650000D01*
X160550000Y-92600000D02*
X161050000Y-92600000D01*
X186925000Y-101325000D02*
X187425000Y-101325000D01*
X187425000Y-100375000D02*
X186925000Y-100375000D01*
X179175000Y-95775000D02*
X179675000Y-95775000D01*
X179675000Y-94825000D02*
X179175000Y-94825000D01*
X187425000Y-97875000D02*
X186925000Y-97875000D01*
X186925000Y-98825000D02*
X187425000Y-98825000D01*
X169800000Y-90150000D02*
X169300000Y-90150000D01*
X169300000Y-91200000D02*
X169800000Y-91200000D01*
X173300000Y-104500000D02*
X172800000Y-104500000D01*
X172800000Y-105550000D02*
X173300000Y-105550000D01*
X164325000Y-97125000D02*
X163825000Y-97125000D01*
X163825000Y-98175000D02*
X164325000Y-98175000D01*
X162350000Y-90275000D02*
X161850000Y-90275000D01*
X161850000Y-91325000D02*
X162350000Y-91325000D01*
X179475000Y-100825000D02*
X178975000Y-100825000D01*
X178975000Y-101875000D02*
X179475000Y-101875000D01*
X179475000Y-98825000D02*
X178975000Y-98825000D01*
X178975000Y-99875000D02*
X179475000Y-99875000D01*
X186925000Y-100125000D02*
X187425000Y-100125000D01*
X187425000Y-99075000D02*
X186925000Y-99075000D01*
X185875240Y-94449160D02*
X185875240Y-94400900D01*
X185174200Y-91650180D02*
X185875240Y-91650180D01*
X185875240Y-91650180D02*
X185875240Y-91899100D01*
X185875240Y-94449160D02*
X185875240Y-94649820D01*
X185875240Y-94649820D02*
X185174200Y-94649820D01*
X166575000Y-92675000D02*
X166575000Y-93750000D01*
X176925000Y-92675000D02*
X176925000Y-93750000D01*
X176925000Y-103025000D02*
X176925000Y-101950000D01*
X166575000Y-103025000D02*
X166575000Y-101950000D01*
X166575000Y-92675000D02*
X167650000Y-92675000D01*
X166575000Y-103025000D02*
X167650000Y-103025000D01*
X176925000Y-103025000D02*
X175850000Y-103025000D01*
X176925000Y-92675000D02*
X175850000Y-92675000D01*
X166575000Y-93750000D02*
X165550000Y-93750000D01*
X180750000Y-97200000D02*
X181275000Y-97200000D01*
X185050000Y-101500000D02*
X184525000Y-101500000D01*
X185050000Y-97200000D02*
X184525000Y-97200000D01*
X180750000Y-101500000D02*
X180750000Y-100975000D01*
X185050000Y-101500000D02*
X185050000Y-100975000D01*
X185050000Y-97200000D02*
X185050000Y-97725000D01*
X180750000Y-97200000D02*
X180750000Y-97725000D01*
X159100000Y-95850000D02*
X165100000Y-95850000D01*
X159100000Y-92900000D02*
X159100000Y-95850000D01*
X165100000Y-92900000D02*
X159100000Y-92900000D01*
X165100000Y-95850000D02*
X165100000Y-92900000D01*
X164283334Y-91082143D02*
X164235715Y-91129762D01*
X164092858Y-91177381D01*
X163997620Y-91177381D01*
X163854762Y-91129762D01*
X163759524Y-91034524D01*
X163711905Y-90939286D01*
X163664286Y-90748810D01*
X163664286Y-90605952D01*
X163711905Y-90415476D01*
X163759524Y-90320238D01*
X163854762Y-90225000D01*
X163997620Y-90177381D01*
X164092858Y-90177381D01*
X164235715Y-90225000D01*
X164283334Y-90272619D01*
X165235715Y-91177381D02*
X164664286Y-91177381D01*
X164950000Y-91177381D02*
X164950000Y-90177381D01*
X164854762Y-90320238D01*
X164759524Y-90415476D01*
X164664286Y-90463095D01*
X188183334Y-95857143D02*
X188135715Y-95904762D01*
X187992858Y-95952381D01*
X187897620Y-95952381D01*
X187754762Y-95904762D01*
X187659524Y-95809524D01*
X187611905Y-95714286D01*
X187564286Y-95523810D01*
X187564286Y-95380952D01*
X187611905Y-95190476D01*
X187659524Y-95095238D01*
X187754762Y-95000000D01*
X187897620Y-94952381D01*
X187992858Y-94952381D01*
X188135715Y-95000000D01*
X188183334Y-95047619D01*
X188564286Y-95047619D02*
X188611905Y-95000000D01*
X188707143Y-94952381D01*
X188945239Y-94952381D01*
X189040477Y-95000000D01*
X189088096Y-95047619D01*
X189135715Y-95142857D01*
X189135715Y-95238095D01*
X189088096Y-95380952D01*
X188516667Y-95952381D01*
X189135715Y-95952381D01*
X188183334Y-91932143D02*
X188135715Y-91979762D01*
X187992858Y-92027381D01*
X187897620Y-92027381D01*
X187754762Y-91979762D01*
X187659524Y-91884524D01*
X187611905Y-91789286D01*
X187564286Y-91598810D01*
X187564286Y-91455952D01*
X187611905Y-91265476D01*
X187659524Y-91170238D01*
X187754762Y-91075000D01*
X187897620Y-91027381D01*
X187992858Y-91027381D01*
X188135715Y-91075000D01*
X188183334Y-91122619D01*
X188516667Y-91027381D02*
X189135715Y-91027381D01*
X188802381Y-91408333D01*
X188945239Y-91408333D01*
X189040477Y-91455952D01*
X189088096Y-91503571D01*
X189135715Y-91598810D01*
X189135715Y-91836905D01*
X189088096Y-91932143D01*
X189040477Y-91979762D01*
X188945239Y-92027381D01*
X188659524Y-92027381D01*
X188564286Y-91979762D01*
X188516667Y-91932143D01*
X181933334Y-91907143D02*
X181885715Y-91954762D01*
X181742858Y-92002381D01*
X181647620Y-92002381D01*
X181504762Y-91954762D01*
X181409524Y-91859524D01*
X181361905Y-91764286D01*
X181314286Y-91573810D01*
X181314286Y-91430952D01*
X181361905Y-91240476D01*
X181409524Y-91145238D01*
X181504762Y-91050000D01*
X181647620Y-91002381D01*
X181742858Y-91002381D01*
X181885715Y-91050000D01*
X181933334Y-91097619D01*
X182790477Y-91335714D02*
X182790477Y-92002381D01*
X182552381Y-90954762D02*
X182314286Y-91669048D01*
X182933334Y-91669048D01*
X181333334Y-95857143D02*
X181285715Y-95904762D01*
X181142858Y-95952381D01*
X181047620Y-95952381D01*
X180904762Y-95904762D01*
X180809524Y-95809524D01*
X180761905Y-95714286D01*
X180714286Y-95523810D01*
X180714286Y-95380952D01*
X180761905Y-95190476D01*
X180809524Y-95095238D01*
X180904762Y-95000000D01*
X181047620Y-94952381D01*
X181142858Y-94952381D01*
X181285715Y-95000000D01*
X181333334Y-95047619D01*
X182238096Y-94952381D02*
X181761905Y-94952381D01*
X181714286Y-95428571D01*
X181761905Y-95380952D01*
X181857143Y-95333333D01*
X182095239Y-95333333D01*
X182190477Y-95380952D01*
X182238096Y-95428571D01*
X182285715Y-95523810D01*
X182285715Y-95761905D01*
X182238096Y-95857143D01*
X182190477Y-95904762D01*
X182095239Y-95952381D01*
X181857143Y-95952381D01*
X181761905Y-95904762D01*
X181714286Y-95857143D01*
X161783334Y-100457143D02*
X161735715Y-100504762D01*
X161592858Y-100552381D01*
X161497620Y-100552381D01*
X161354762Y-100504762D01*
X161259524Y-100409524D01*
X161211905Y-100314286D01*
X161164286Y-100123810D01*
X161164286Y-99980952D01*
X161211905Y-99790476D01*
X161259524Y-99695238D01*
X161354762Y-99600000D01*
X161497620Y-99552381D01*
X161592858Y-99552381D01*
X161735715Y-99600000D01*
X161783334Y-99647619D01*
X162640477Y-99552381D02*
X162450000Y-99552381D01*
X162354762Y-99600000D01*
X162307143Y-99647619D01*
X162211905Y-99790476D01*
X162164286Y-99980952D01*
X162164286Y-100361905D01*
X162211905Y-100457143D01*
X162259524Y-100504762D01*
X162354762Y-100552381D01*
X162545239Y-100552381D01*
X162640477Y-100504762D01*
X162688096Y-100457143D01*
X162735715Y-100361905D01*
X162735715Y-100123810D01*
X162688096Y-100028571D01*
X162640477Y-99980952D01*
X162545239Y-99933333D01*
X162354762Y-99933333D01*
X162259524Y-99980952D01*
X162211905Y-100028571D01*
X162164286Y-100123810D01*
X166158334Y-105332143D02*
X166110715Y-105379762D01*
X165967858Y-105427381D01*
X165872620Y-105427381D01*
X165729762Y-105379762D01*
X165634524Y-105284524D01*
X165586905Y-105189286D01*
X165539286Y-104998810D01*
X165539286Y-104855952D01*
X165586905Y-104665476D01*
X165634524Y-104570238D01*
X165729762Y-104475000D01*
X165872620Y-104427381D01*
X165967858Y-104427381D01*
X166110715Y-104475000D01*
X166158334Y-104522619D01*
X166491667Y-104427381D02*
X167158334Y-104427381D01*
X166729762Y-105427381D01*
X179258334Y-93257143D02*
X179210715Y-93304762D01*
X179067858Y-93352381D01*
X178972620Y-93352381D01*
X178829762Y-93304762D01*
X178734524Y-93209524D01*
X178686905Y-93114286D01*
X178639286Y-92923810D01*
X178639286Y-92780952D01*
X178686905Y-92590476D01*
X178734524Y-92495238D01*
X178829762Y-92400000D01*
X178972620Y-92352381D01*
X179067858Y-92352381D01*
X179210715Y-92400000D01*
X179258334Y-92447619D01*
X179829762Y-92780952D02*
X179734524Y-92733333D01*
X179686905Y-92685714D01*
X179639286Y-92590476D01*
X179639286Y-92542857D01*
X179686905Y-92447619D01*
X179734524Y-92400000D01*
X179829762Y-92352381D01*
X180020239Y-92352381D01*
X180115477Y-92400000D01*
X180163096Y-92447619D01*
X180210715Y-92542857D01*
X180210715Y-92590476D01*
X180163096Y-92685714D01*
X180115477Y-92733333D01*
X180020239Y-92780952D01*
X179829762Y-92780952D01*
X179734524Y-92828571D01*
X179686905Y-92876190D01*
X179639286Y-92971429D01*
X179639286Y-93161905D01*
X179686905Y-93257143D01*
X179734524Y-93304762D01*
X179829762Y-93352381D01*
X180020239Y-93352381D01*
X180115477Y-93304762D01*
X180163096Y-93257143D01*
X180210715Y-93161905D01*
X180210715Y-92971429D01*
X180163096Y-92876190D01*
X180115477Y-92828571D01*
X180020239Y-92780952D01*
X161783334Y-99257143D02*
X161735715Y-99304762D01*
X161592858Y-99352381D01*
X161497620Y-99352381D01*
X161354762Y-99304762D01*
X161259524Y-99209524D01*
X161211905Y-99114286D01*
X161164286Y-98923810D01*
X161164286Y-98780952D01*
X161211905Y-98590476D01*
X161259524Y-98495238D01*
X161354762Y-98400000D01*
X161497620Y-98352381D01*
X161592858Y-98352381D01*
X161735715Y-98400000D01*
X161783334Y-98447619D01*
X162259524Y-99352381D02*
X162450000Y-99352381D01*
X162545239Y-99304762D01*
X162592858Y-99257143D01*
X162688096Y-99114286D01*
X162735715Y-98923810D01*
X162735715Y-98542857D01*
X162688096Y-98447619D01*
X162640477Y-98400000D01*
X162545239Y-98352381D01*
X162354762Y-98352381D01*
X162259524Y-98400000D01*
X162211905Y-98447619D01*
X162164286Y-98542857D01*
X162164286Y-98780952D01*
X162211905Y-98876190D01*
X162259524Y-98923810D01*
X162354762Y-98971429D01*
X162545239Y-98971429D01*
X162640477Y-98923810D01*
X162688096Y-98876190D01*
X162735715Y-98780952D01*
X177957143Y-105332143D02*
X177909524Y-105379762D01*
X177766667Y-105427381D01*
X177671429Y-105427381D01*
X177528571Y-105379762D01*
X177433333Y-105284524D01*
X177385714Y-105189286D01*
X177338095Y-104998810D01*
X177338095Y-104855952D01*
X177385714Y-104665476D01*
X177433333Y-104570238D01*
X177528571Y-104475000D01*
X177671429Y-104427381D01*
X177766667Y-104427381D01*
X177909524Y-104475000D01*
X177957143Y-104522619D01*
X178909524Y-105427381D02*
X178338095Y-105427381D01*
X178623809Y-105427381D02*
X178623809Y-104427381D01*
X178528571Y-104570238D01*
X178433333Y-104665476D01*
X178338095Y-104713095D01*
X179528571Y-104427381D02*
X179623810Y-104427381D01*
X179719048Y-104475000D01*
X179766667Y-104522619D01*
X179814286Y-104617857D01*
X179861905Y-104808333D01*
X179861905Y-105046429D01*
X179814286Y-105236905D01*
X179766667Y-105332143D01*
X179719048Y-105379762D01*
X179623810Y-105427381D01*
X179528571Y-105427381D01*
X179433333Y-105379762D01*
X179385714Y-105332143D01*
X179338095Y-105236905D01*
X179290476Y-105046429D01*
X179290476Y-104808333D01*
X179338095Y-104617857D01*
X179385714Y-104522619D01*
X179433333Y-104475000D01*
X179528571Y-104427381D01*
X162707143Y-92457143D02*
X162659524Y-92504762D01*
X162516667Y-92552381D01*
X162421429Y-92552381D01*
X162278571Y-92504762D01*
X162183333Y-92409524D01*
X162135714Y-92314286D01*
X162088095Y-92123810D01*
X162088095Y-91980952D01*
X162135714Y-91790476D01*
X162183333Y-91695238D01*
X162278571Y-91600000D01*
X162421429Y-91552381D01*
X162516667Y-91552381D01*
X162659524Y-91600000D01*
X162707143Y-91647619D01*
X163659524Y-92552381D02*
X163088095Y-92552381D01*
X163373809Y-92552381D02*
X163373809Y-91552381D01*
X163278571Y-91695238D01*
X163183333Y-91790476D01*
X163088095Y-91838095D01*
X164611905Y-92552381D02*
X164040476Y-92552381D01*
X164326190Y-92552381D02*
X164326190Y-91552381D01*
X164230952Y-91695238D01*
X164135714Y-91790476D01*
X164040476Y-91838095D01*
X157607143Y-92457143D02*
X157559524Y-92504762D01*
X157416667Y-92552381D01*
X157321429Y-92552381D01*
X157178571Y-92504762D01*
X157083333Y-92409524D01*
X157035714Y-92314286D01*
X156988095Y-92123810D01*
X156988095Y-91980952D01*
X157035714Y-91790476D01*
X157083333Y-91695238D01*
X157178571Y-91600000D01*
X157321429Y-91552381D01*
X157416667Y-91552381D01*
X157559524Y-91600000D01*
X157607143Y-91647619D01*
X158559524Y-92552381D02*
X157988095Y-92552381D01*
X158273809Y-92552381D02*
X158273809Y-91552381D01*
X158178571Y-91695238D01*
X158083333Y-91790476D01*
X157988095Y-91838095D01*
X158940476Y-91647619D02*
X158988095Y-91600000D01*
X159083333Y-91552381D01*
X159321429Y-91552381D01*
X159416667Y-91600000D01*
X159464286Y-91647619D01*
X159511905Y-91742857D01*
X159511905Y-91838095D01*
X159464286Y-91980952D01*
X158892857Y-92552381D01*
X159511905Y-92552381D01*
X186532143Y-102507143D02*
X186484524Y-102554762D01*
X186341667Y-102602381D01*
X186246429Y-102602381D01*
X186103571Y-102554762D01*
X186008333Y-102459524D01*
X185960714Y-102364286D01*
X185913095Y-102173810D01*
X185913095Y-102030952D01*
X185960714Y-101840476D01*
X186008333Y-101745238D01*
X186103571Y-101650000D01*
X186246429Y-101602381D01*
X186341667Y-101602381D01*
X186484524Y-101650000D01*
X186532143Y-101697619D01*
X187484524Y-102602381D02*
X186913095Y-102602381D01*
X187198809Y-102602381D02*
X187198809Y-101602381D01*
X187103571Y-101745238D01*
X187008333Y-101840476D01*
X186913095Y-101888095D01*
X187817857Y-101602381D02*
X188436905Y-101602381D01*
X188103571Y-101983333D01*
X188246429Y-101983333D01*
X188341667Y-102030952D01*
X188389286Y-102078571D01*
X188436905Y-102173810D01*
X188436905Y-102411905D01*
X188389286Y-102507143D01*
X188341667Y-102554762D01*
X188246429Y-102602381D01*
X187960714Y-102602381D01*
X187865476Y-102554762D01*
X187817857Y-102507143D01*
X178907143Y-96932143D02*
X178859524Y-96979762D01*
X178716667Y-97027381D01*
X178621429Y-97027381D01*
X178478571Y-96979762D01*
X178383333Y-96884524D01*
X178335714Y-96789286D01*
X178288095Y-96598810D01*
X178288095Y-96455952D01*
X178335714Y-96265476D01*
X178383333Y-96170238D01*
X178478571Y-96075000D01*
X178621429Y-96027381D01*
X178716667Y-96027381D01*
X178859524Y-96075000D01*
X178907143Y-96122619D01*
X179859524Y-97027381D02*
X179288095Y-97027381D01*
X179573809Y-97027381D02*
X179573809Y-96027381D01*
X179478571Y-96170238D01*
X179383333Y-96265476D01*
X179288095Y-96313095D01*
X180716667Y-96360714D02*
X180716667Y-97027381D01*
X180478571Y-95979762D02*
X180240476Y-96694048D01*
X180859524Y-96694048D01*
X186532143Y-97532143D02*
X186484524Y-97579762D01*
X186341667Y-97627381D01*
X186246429Y-97627381D01*
X186103571Y-97579762D01*
X186008333Y-97484524D01*
X185960714Y-97389286D01*
X185913095Y-97198810D01*
X185913095Y-97055952D01*
X185960714Y-96865476D01*
X186008333Y-96770238D01*
X186103571Y-96675000D01*
X186246429Y-96627381D01*
X186341667Y-96627381D01*
X186484524Y-96675000D01*
X186532143Y-96722619D01*
X187484524Y-97627381D02*
X186913095Y-97627381D01*
X187198809Y-97627381D02*
X187198809Y-96627381D01*
X187103571Y-96770238D01*
X187008333Y-96865476D01*
X186913095Y-96913095D01*
X188389286Y-96627381D02*
X187913095Y-96627381D01*
X187865476Y-97103571D01*
X187913095Y-97055952D01*
X188008333Y-97008333D01*
X188246429Y-97008333D01*
X188341667Y-97055952D01*
X188389286Y-97103571D01*
X188436905Y-97198810D01*
X188436905Y-97436905D01*
X188389286Y-97532143D01*
X188341667Y-97579762D01*
X188246429Y-97627381D01*
X188008333Y-97627381D01*
X187913095Y-97579762D01*
X187865476Y-97532143D01*
X190877381Y-93013095D02*
X189877381Y-93013095D01*
X189877381Y-92632142D01*
X189925000Y-92536904D01*
X189972619Y-92489285D01*
X190067857Y-92441666D01*
X190210714Y-92441666D01*
X190305952Y-92489285D01*
X190353571Y-92536904D01*
X190401190Y-92632142D01*
X190401190Y-93013095D01*
X190877381Y-91489285D02*
X190877381Y-92060714D01*
X190877381Y-91775000D02*
X189877381Y-91775000D01*
X190020238Y-91870238D01*
X190115476Y-91965476D01*
X190163095Y-92060714D01*
X193371429Y-92655952D02*
X193371429Y-91894047D01*
X193752381Y-92274999D02*
X192990476Y-92274999D01*
X190877381Y-95538095D02*
X189877381Y-95538095D01*
X189877381Y-95157142D01*
X189925000Y-95061904D01*
X189972619Y-95014285D01*
X190067857Y-94966666D01*
X190210714Y-94966666D01*
X190305952Y-95014285D01*
X190353571Y-95061904D01*
X190401190Y-95157142D01*
X190401190Y-95538095D01*
X189972619Y-94585714D02*
X189925000Y-94538095D01*
X189877381Y-94442857D01*
X189877381Y-94204761D01*
X189925000Y-94109523D01*
X189972619Y-94061904D01*
X190067857Y-94014285D01*
X190163095Y-94014285D01*
X190305952Y-94061904D01*
X190877381Y-94633333D01*
X190877381Y-94014285D01*
X193371429Y-95175952D02*
X193371429Y-94414047D01*
X190877381Y-98088095D02*
X189877381Y-98088095D01*
X189877381Y-97707142D01*
X189925000Y-97611904D01*
X189972619Y-97564285D01*
X190067857Y-97516666D01*
X190210714Y-97516666D01*
X190305952Y-97564285D01*
X190353571Y-97611904D01*
X190401190Y-97707142D01*
X190401190Y-98088095D01*
X189877381Y-97183333D02*
X189877381Y-96564285D01*
X190258333Y-96897619D01*
X190258333Y-96754761D01*
X190305952Y-96659523D01*
X190353571Y-96611904D01*
X190448810Y-96564285D01*
X190686905Y-96564285D01*
X190782143Y-96611904D01*
X190829762Y-96659523D01*
X190877381Y-96754761D01*
X190877381Y-97040476D01*
X190829762Y-97135714D01*
X190782143Y-97183333D01*
X193852381Y-97045476D02*
X193376190Y-97378810D01*
X193852381Y-97616905D02*
X192852381Y-97616905D01*
X192852381Y-97235952D01*
X192900000Y-97140714D01*
X192947619Y-97093095D01*
X193042857Y-97045476D01*
X193185714Y-97045476D01*
X193280952Y-97093095D01*
X193328571Y-97140714D01*
X193376190Y-97235952D01*
X193376190Y-97616905D01*
X190952381Y-100633095D02*
X189952381Y-100633095D01*
X189952381Y-100252142D01*
X190000000Y-100156904D01*
X190047619Y-100109285D01*
X190142857Y-100061666D01*
X190285714Y-100061666D01*
X190380952Y-100109285D01*
X190428571Y-100156904D01*
X190476190Y-100252142D01*
X190476190Y-100633095D01*
X190285714Y-99204523D02*
X190952381Y-99204523D01*
X189904762Y-99442619D02*
X190619048Y-99680714D01*
X190619048Y-99061666D01*
X192852381Y-100180714D02*
X192852381Y-99609285D01*
X193852381Y-99895000D02*
X192852381Y-99895000D01*
X171208334Y-91127381D02*
X170875000Y-90651190D01*
X170636905Y-91127381D02*
X170636905Y-90127381D01*
X171017858Y-90127381D01*
X171113096Y-90175000D01*
X171160715Y-90222619D01*
X171208334Y-90317857D01*
X171208334Y-90460714D01*
X171160715Y-90555952D01*
X171113096Y-90603571D01*
X171017858Y-90651190D01*
X170636905Y-90651190D01*
X172160715Y-91127381D02*
X171589286Y-91127381D01*
X171875000Y-91127381D02*
X171875000Y-90127381D01*
X171779762Y-90270238D01*
X171684524Y-90365476D01*
X171589286Y-90413095D01*
X171033334Y-105477381D02*
X170700000Y-105001190D01*
X170461905Y-105477381D02*
X170461905Y-104477381D01*
X170842858Y-104477381D01*
X170938096Y-104525000D01*
X170985715Y-104572619D01*
X171033334Y-104667857D01*
X171033334Y-104810714D01*
X170985715Y-104905952D01*
X170938096Y-104953571D01*
X170842858Y-105001190D01*
X170461905Y-105001190D01*
X171414286Y-104572619D02*
X171461905Y-104525000D01*
X171557143Y-104477381D01*
X171795239Y-104477381D01*
X171890477Y-104525000D01*
X171938096Y-104572619D01*
X171985715Y-104667857D01*
X171985715Y-104763095D01*
X171938096Y-104905952D01*
X171366667Y-105477381D01*
X171985715Y-105477381D01*
X161833334Y-98102381D02*
X161500000Y-97626190D01*
X161261905Y-98102381D02*
X161261905Y-97102381D01*
X161642858Y-97102381D01*
X161738096Y-97150000D01*
X161785715Y-97197619D01*
X161833334Y-97292857D01*
X161833334Y-97435714D01*
X161785715Y-97530952D01*
X161738096Y-97578571D01*
X161642858Y-97626190D01*
X161261905Y-97626190D01*
X162166667Y-97102381D02*
X162785715Y-97102381D01*
X162452381Y-97483333D01*
X162595239Y-97483333D01*
X162690477Y-97530952D01*
X162738096Y-97578571D01*
X162785715Y-97673810D01*
X162785715Y-97911905D01*
X162738096Y-98007143D01*
X162690477Y-98054762D01*
X162595239Y-98102381D01*
X162309524Y-98102381D01*
X162214286Y-98054762D01*
X162166667Y-98007143D01*
X161933334Y-89452381D02*
X161600000Y-88976190D01*
X161361905Y-89452381D02*
X161361905Y-88452381D01*
X161742858Y-88452381D01*
X161838096Y-88500000D01*
X161885715Y-88547619D01*
X161933334Y-88642857D01*
X161933334Y-88785714D01*
X161885715Y-88880952D01*
X161838096Y-88928571D01*
X161742858Y-88976190D01*
X161361905Y-88976190D01*
X162790477Y-88785714D02*
X162790477Y-89452381D01*
X162552381Y-88404762D02*
X162314286Y-89119048D01*
X162933334Y-89119048D01*
X179058334Y-103052381D02*
X178725000Y-102576190D01*
X178486905Y-103052381D02*
X178486905Y-102052381D01*
X178867858Y-102052381D01*
X178963096Y-102100000D01*
X179010715Y-102147619D01*
X179058334Y-102242857D01*
X179058334Y-102385714D01*
X179010715Y-102480952D01*
X178963096Y-102528571D01*
X178867858Y-102576190D01*
X178486905Y-102576190D01*
X179963096Y-102052381D02*
X179486905Y-102052381D01*
X179439286Y-102528571D01*
X179486905Y-102480952D01*
X179582143Y-102433333D01*
X179820239Y-102433333D01*
X179915477Y-102480952D01*
X179963096Y-102528571D01*
X180010715Y-102623810D01*
X180010715Y-102861905D01*
X179963096Y-102957143D01*
X179915477Y-103004762D01*
X179820239Y-103052381D01*
X179582143Y-103052381D01*
X179486905Y-103004762D01*
X179439286Y-102957143D01*
X179058334Y-98627381D02*
X178725000Y-98151190D01*
X178486905Y-98627381D02*
X178486905Y-97627381D01*
X178867858Y-97627381D01*
X178963096Y-97675000D01*
X179010715Y-97722619D01*
X179058334Y-97817857D01*
X179058334Y-97960714D01*
X179010715Y-98055952D01*
X178963096Y-98103571D01*
X178867858Y-98151190D01*
X178486905Y-98151190D01*
X179915477Y-97627381D02*
X179725000Y-97627381D01*
X179629762Y-97675000D01*
X179582143Y-97722619D01*
X179486905Y-97865476D01*
X179439286Y-98055952D01*
X179439286Y-98436905D01*
X179486905Y-98532143D01*
X179534524Y-98579762D01*
X179629762Y-98627381D01*
X179820239Y-98627381D01*
X179915477Y-98579762D01*
X179963096Y-98532143D01*
X180010715Y-98436905D01*
X180010715Y-98198810D01*
X179963096Y-98103571D01*
X179915477Y-98055952D01*
X179820239Y-98008333D01*
X179629762Y-98008333D01*
X179534524Y-98055952D01*
X179486905Y-98103571D01*
X179439286Y-98198810D01*
X188833334Y-100052381D02*
X188500000Y-99576190D01*
X188261905Y-100052381D02*
X188261905Y-99052381D01*
X188642858Y-99052381D01*
X188738096Y-99100000D01*
X188785715Y-99147619D01*
X188833334Y-99242857D01*
X188833334Y-99385714D01*
X188785715Y-99480952D01*
X188738096Y-99528571D01*
X188642858Y-99576190D01*
X188261905Y-99576190D01*
X189166667Y-99052381D02*
X189833334Y-99052381D01*
X189404762Y-100052381D01*
X184738095Y-94902381D02*
X184738095Y-95711905D01*
X184785714Y-95807143D01*
X184833333Y-95854762D01*
X184928571Y-95902381D01*
X185119048Y-95902381D01*
X185214286Y-95854762D01*
X185261905Y-95807143D01*
X185309524Y-95711905D01*
X185309524Y-94902381D01*
X186309524Y-95902381D02*
X185738095Y-95902381D01*
X186023809Y-95902381D02*
X186023809Y-94902381D01*
X185928571Y-95045238D01*
X185833333Y-95140476D01*
X185738095Y-95188095D01*
X184510715Y-91377381D02*
X184034524Y-91377381D01*
X184034524Y-90377381D01*
X184844048Y-91377381D02*
X184844048Y-90377381D01*
X185082143Y-90377381D01*
X185225001Y-90425000D01*
X185320239Y-90520238D01*
X185367858Y-90615476D01*
X185415477Y-90805952D01*
X185415477Y-90948810D01*
X185367858Y-91139286D01*
X185320239Y-91234524D01*
X185225001Y-91329762D01*
X185082143Y-91377381D01*
X184844048Y-91377381D01*
X186034524Y-90377381D02*
X186225001Y-90377381D01*
X186320239Y-90425000D01*
X186415477Y-90520238D01*
X186463096Y-90710714D01*
X186463096Y-91044048D01*
X186415477Y-91234524D01*
X186320239Y-91329762D01*
X186225001Y-91377381D01*
X186034524Y-91377381D01*
X185939286Y-91329762D01*
X185844048Y-91234524D01*
X185796429Y-91044048D01*
X185796429Y-90710714D01*
X185844048Y-90520238D01*
X185939286Y-90425000D01*
X186034524Y-90377381D01*
X165463095Y-91527381D02*
X165463095Y-92336905D01*
X165510714Y-92432143D01*
X165558333Y-92479762D01*
X165653571Y-92527381D01*
X165844048Y-92527381D01*
X165939286Y-92479762D01*
X165986905Y-92432143D01*
X166034524Y-92336905D01*
X166034524Y-91527381D01*
X166463095Y-91622619D02*
X166510714Y-91575000D01*
X166605952Y-91527381D01*
X166844048Y-91527381D01*
X166939286Y-91575000D01*
X166986905Y-91622619D01*
X167034524Y-91717857D01*
X167034524Y-91813095D01*
X166986905Y-91955952D01*
X166415476Y-92527381D01*
X167034524Y-92527381D01*
X182513095Y-95577381D02*
X182513095Y-96386905D01*
X182560714Y-96482143D01*
X182608333Y-96529762D01*
X182703571Y-96577381D01*
X182894048Y-96577381D01*
X182989286Y-96529762D01*
X183036905Y-96482143D01*
X183084524Y-96386905D01*
X183084524Y-95577381D01*
X183465476Y-95577381D02*
X184084524Y-95577381D01*
X183751190Y-95958333D01*
X183894048Y-95958333D01*
X183989286Y-96005952D01*
X184036905Y-96053571D01*
X184084524Y-96148810D01*
X184084524Y-96386905D01*
X184036905Y-96482143D01*
X183989286Y-96529762D01*
X183894048Y-96577381D01*
X183608333Y-96577381D01*
X183513095Y-96529762D01*
X183465476Y-96482143D01*
X157598809Y-94326190D02*
X157598809Y-94802381D01*
X157265476Y-93802381D02*
X157598809Y-94326190D01*
X157932143Y-93802381D01*
X158789286Y-94802381D02*
X158217857Y-94802381D01*
X158503571Y-94802381D02*
X158503571Y-93802381D01*
X158408333Y-93945238D01*
X158313095Y-94040476D01*
X158217857Y-94088095D01*
M02*
