G04 #@! TF.FileFunction,Copper,L3,Inr,Signal*
%FSLAX46Y46*%
G04 Gerber Fmt 4.6, Leading zero omitted, Abs format (unit mm)*
G04 Created by KiCad (PCBNEW 4.0.2-stable) date 2017年05月12日 星期五 07:52:48*
%MOMM*%
G01*
G04 APERTURE LIST*
%ADD10C,0.100000*%
%ADD11C,0.600000*%
%ADD12C,0.254000*%
G04 APERTURE END LIST*
D10*
D11*
X169575000Y-102125000D03*
X176100000Y-93800000D03*
X182850000Y-95200000D03*
X182650000Y-91700000D03*
X186625000Y-101875000D03*
X184150000Y-96200000D03*
X185250000Y-94100000D03*
X176000000Y-102200000D03*
X160225000Y-104650000D03*
X178775000Y-98325010D03*
X167400000Y-100450000D03*
X178775000Y-102375000D03*
X167725000Y-93349998D03*
X167350004Y-94475000D03*
X162700000Y-97650000D03*
X168500000Y-101700000D03*
X176100000Y-94774998D03*
X185800000Y-98025010D03*
X181650000Y-96200000D03*
X181650002Y-102475000D03*
X174475000Y-102200000D03*
X178874990Y-96175000D03*
X157725000Y-102400000D03*
X188675000Y-100850000D03*
X188675000Y-98350000D03*
X188525000Y-99600000D03*
X190350000Y-95150000D03*
X162100000Y-93100000D03*
X167400000Y-99275000D03*
X166925000Y-104975000D03*
X171725000Y-105025000D03*
X176600000Y-104000000D03*
X185250000Y-92200000D03*
X190125000Y-94100000D03*
X189850000Y-92750000D03*
X181550000Y-91775000D03*
X181350000Y-95200000D03*
X179975000Y-93125000D03*
X168825004Y-93350000D03*
X165950000Y-91625000D03*
X162550000Y-100100000D03*
X162550000Y-98900000D03*
X176250008Y-96600000D03*
X190349998Y-97125000D03*
X176250004Y-97500000D03*
X190349999Y-98349999D03*
X170250004Y-101250000D03*
X171175000Y-98350000D03*
X166825000Y-102375000D03*
X172275000Y-98099992D03*
X164925000Y-101600000D03*
X173250000Y-101825000D03*
D12*
G36*
X193155208Y-90125294D02*
X193286788Y-90213213D01*
X193374706Y-90344792D01*
X193417000Y-90557420D01*
X193417000Y-105442580D01*
X193374706Y-105655208D01*
X193286788Y-105786787D01*
X193155208Y-105874706D01*
X192942580Y-105917000D01*
X156057420Y-105917000D01*
X155844792Y-105874706D01*
X155713213Y-105786788D01*
X155625294Y-105655208D01*
X155583000Y-105442580D01*
X155583000Y-105135016D01*
X166116860Y-105135016D01*
X166239611Y-105432097D01*
X166466707Y-105659590D01*
X166763574Y-105782860D01*
X167085016Y-105783140D01*
X167382097Y-105660389D01*
X167609590Y-105433293D01*
X167712683Y-105185016D01*
X170916860Y-105185016D01*
X171039611Y-105482097D01*
X171266707Y-105709590D01*
X171563574Y-105832860D01*
X171885016Y-105833140D01*
X172182097Y-105710389D01*
X172409590Y-105483293D01*
X172532860Y-105186426D01*
X172533140Y-104864984D01*
X172410389Y-104567903D01*
X172183293Y-104340410D01*
X171886426Y-104217140D01*
X171564984Y-104216860D01*
X171267903Y-104339611D01*
X171040410Y-104566707D01*
X170917140Y-104863574D01*
X170916860Y-105185016D01*
X167712683Y-105185016D01*
X167732860Y-105136426D01*
X167733140Y-104814984D01*
X167610389Y-104517903D01*
X167383293Y-104290410D01*
X167086426Y-104167140D01*
X166764984Y-104166860D01*
X166467903Y-104289611D01*
X166240410Y-104516707D01*
X166117140Y-104813574D01*
X166116860Y-105135016D01*
X155583000Y-105135016D01*
X155583000Y-104160016D01*
X175791860Y-104160016D01*
X175914611Y-104457097D01*
X176141707Y-104684590D01*
X176438574Y-104807860D01*
X176760016Y-104808140D01*
X177057097Y-104685389D01*
X177284590Y-104458293D01*
X177407860Y-104161426D01*
X177408132Y-103848154D01*
X189241696Y-103848154D01*
X189508771Y-104494526D01*
X190002873Y-104989491D01*
X190648778Y-105257694D01*
X191348154Y-105258304D01*
X191994526Y-104991229D01*
X192489491Y-104497127D01*
X192757694Y-103851222D01*
X192758304Y-103151846D01*
X192491229Y-102505474D01*
X191997127Y-102010509D01*
X191351222Y-101742306D01*
X190651846Y-101741696D01*
X190005474Y-102008771D01*
X189510509Y-102502873D01*
X189242306Y-103148778D01*
X189241696Y-103848154D01*
X177408132Y-103848154D01*
X177408140Y-103839984D01*
X177285389Y-103542903D01*
X177058293Y-103315410D01*
X176761426Y-103192140D01*
X176439984Y-103191860D01*
X176142903Y-103314611D01*
X175915410Y-103541707D01*
X175792140Y-103838574D01*
X175791860Y-104160016D01*
X155583000Y-104160016D01*
X155583000Y-102560016D01*
X156916860Y-102560016D01*
X157039611Y-102857097D01*
X157266707Y-103084590D01*
X157563574Y-103207860D01*
X157885016Y-103208140D01*
X158182097Y-103085389D01*
X158409590Y-102858293D01*
X158532860Y-102561426D01*
X158532883Y-102535016D01*
X166016860Y-102535016D01*
X166139611Y-102832097D01*
X166366707Y-103059590D01*
X166663574Y-103182860D01*
X166985016Y-103183140D01*
X167282097Y-103060389D01*
X167509590Y-102833293D01*
X167632860Y-102536426D01*
X167633140Y-102214984D01*
X167510389Y-101917903D01*
X167452604Y-101860016D01*
X167691860Y-101860016D01*
X167814611Y-102157097D01*
X168041707Y-102384590D01*
X168338574Y-102507860D01*
X168660016Y-102508140D01*
X168957097Y-102385389D01*
X169184590Y-102158293D01*
X169307860Y-101861426D01*
X169308140Y-101539984D01*
X169254439Y-101410016D01*
X169441864Y-101410016D01*
X169564615Y-101707097D01*
X169791711Y-101934590D01*
X170088578Y-102057860D01*
X170410020Y-102058140D01*
X170586994Y-101985016D01*
X172441860Y-101985016D01*
X172564611Y-102282097D01*
X172791707Y-102509590D01*
X173088574Y-102632860D01*
X173410016Y-102633140D01*
X173707097Y-102510389D01*
X173722599Y-102494914D01*
X173789611Y-102657097D01*
X174016707Y-102884590D01*
X174313574Y-103007860D01*
X174635016Y-103008140D01*
X174932097Y-102885389D01*
X175159590Y-102658293D01*
X175169255Y-102635016D01*
X180841862Y-102635016D01*
X180964613Y-102932097D01*
X181191709Y-103159590D01*
X181488576Y-103282860D01*
X181810018Y-103283140D01*
X182107099Y-103160389D01*
X182334592Y-102933293D01*
X182457862Y-102636426D01*
X182458142Y-102314984D01*
X182335391Y-102017903D01*
X182108295Y-101790410D01*
X181811428Y-101667140D01*
X181489986Y-101666860D01*
X181192905Y-101789611D01*
X180965412Y-102016707D01*
X180842142Y-102313574D01*
X180841862Y-102635016D01*
X175169255Y-102635016D01*
X175282860Y-102361426D01*
X175283140Y-102039984D01*
X175160389Y-101742903D01*
X174933293Y-101515410D01*
X174636426Y-101392140D01*
X174314984Y-101391860D01*
X174017903Y-101514611D01*
X174002401Y-101530086D01*
X173935389Y-101367903D01*
X173708293Y-101140410D01*
X173411426Y-101017140D01*
X173089984Y-101016860D01*
X172792903Y-101139611D01*
X172565410Y-101366707D01*
X172442140Y-101663574D01*
X172441860Y-101985016D01*
X170586994Y-101985016D01*
X170707101Y-101935389D01*
X170934594Y-101708293D01*
X171057864Y-101411426D01*
X171058144Y-101089984D01*
X170935393Y-100792903D01*
X170708297Y-100565410D01*
X170411430Y-100442140D01*
X170089988Y-100441860D01*
X169792907Y-100564611D01*
X169565414Y-100791707D01*
X169442144Y-101088574D01*
X169441864Y-101410016D01*
X169254439Y-101410016D01*
X169185389Y-101242903D01*
X168958293Y-101015410D01*
X168661426Y-100892140D01*
X168339984Y-100891860D01*
X168042903Y-101014611D01*
X167815410Y-101241707D01*
X167692140Y-101538574D01*
X167691860Y-101860016D01*
X167452604Y-101860016D01*
X167283293Y-101690410D01*
X166986426Y-101567140D01*
X166664984Y-101566860D01*
X166367903Y-101689611D01*
X166140410Y-101916707D01*
X166017140Y-102213574D01*
X166016860Y-102535016D01*
X158532883Y-102535016D01*
X158533140Y-102239984D01*
X158410389Y-101942903D01*
X158227822Y-101760016D01*
X164116860Y-101760016D01*
X164239611Y-102057097D01*
X164466707Y-102284590D01*
X164763574Y-102407860D01*
X165085016Y-102408140D01*
X165382097Y-102285389D01*
X165609590Y-102058293D01*
X165732860Y-101761426D01*
X165733140Y-101439984D01*
X165610389Y-101142903D01*
X165383293Y-100915410D01*
X165086426Y-100792140D01*
X164764984Y-100791860D01*
X164467903Y-100914611D01*
X164240410Y-101141707D01*
X164117140Y-101438574D01*
X164116860Y-101760016D01*
X158227822Y-101760016D01*
X158183293Y-101715410D01*
X157886426Y-101592140D01*
X157564984Y-101591860D01*
X157267903Y-101714611D01*
X157040410Y-101941707D01*
X156917140Y-102238574D01*
X156916860Y-102560016D01*
X155583000Y-102560016D01*
X155583000Y-99348154D01*
X156241696Y-99348154D01*
X156508771Y-99994526D01*
X157002873Y-100489491D01*
X157648778Y-100757694D01*
X158348154Y-100758304D01*
X158994526Y-100491229D01*
X159489491Y-99997127D01*
X159757694Y-99351222D01*
X159757947Y-99060016D01*
X161741860Y-99060016D01*
X161864611Y-99357097D01*
X162007315Y-99500050D01*
X161865410Y-99641707D01*
X161742140Y-99938574D01*
X161741860Y-100260016D01*
X161864611Y-100557097D01*
X162091707Y-100784590D01*
X162388574Y-100907860D01*
X162710016Y-100908140D01*
X163007097Y-100785389D01*
X163234590Y-100558293D01*
X163357860Y-100261426D01*
X163358140Y-99939984D01*
X163235389Y-99642903D01*
X163092685Y-99499950D01*
X163157732Y-99435016D01*
X166591860Y-99435016D01*
X166714611Y-99732097D01*
X166941707Y-99959590D01*
X167238574Y-100082860D01*
X167560016Y-100083140D01*
X167857097Y-99960389D01*
X168057820Y-99760016D01*
X187716860Y-99760016D01*
X187839611Y-100057097D01*
X188066707Y-100284590D01*
X188088605Y-100293683D01*
X187990410Y-100391707D01*
X187867140Y-100688574D01*
X187866860Y-101010016D01*
X187989611Y-101307097D01*
X188216707Y-101534590D01*
X188513574Y-101657860D01*
X188835016Y-101658140D01*
X189132097Y-101535389D01*
X189359590Y-101308293D01*
X189482860Y-101011426D01*
X189483140Y-100689984D01*
X189360389Y-100392903D01*
X189133293Y-100165410D01*
X189111395Y-100156317D01*
X189209590Y-100058293D01*
X189332860Y-99761426D01*
X189333140Y-99439984D01*
X189210389Y-99142903D01*
X189111541Y-99043882D01*
X189132097Y-99035389D01*
X189359590Y-98808293D01*
X189482860Y-98511426D01*
X189483140Y-98189984D01*
X189360389Y-97892903D01*
X189133293Y-97665410D01*
X188836426Y-97542140D01*
X188514984Y-97541860D01*
X188217903Y-97664611D01*
X187990410Y-97891707D01*
X187867140Y-98188574D01*
X187866860Y-98510016D01*
X187989611Y-98807097D01*
X188088459Y-98906118D01*
X188067903Y-98914611D01*
X187840410Y-99141707D01*
X187717140Y-99438574D01*
X187716860Y-99760016D01*
X168057820Y-99760016D01*
X168084590Y-99733293D01*
X168207860Y-99436426D01*
X168208140Y-99114984D01*
X168085389Y-98817903D01*
X167858293Y-98590410D01*
X167664683Y-98510016D01*
X170366860Y-98510016D01*
X170489611Y-98807097D01*
X170716707Y-99034590D01*
X171013574Y-99157860D01*
X171335016Y-99158140D01*
X171632097Y-99035389D01*
X171859590Y-98808293D01*
X171861681Y-98803257D01*
X172113574Y-98907852D01*
X172435016Y-98908132D01*
X172732097Y-98785381D01*
X172959590Y-98558285D01*
X173082860Y-98261418D01*
X173083140Y-97939976D01*
X172967464Y-97660016D01*
X175441864Y-97660016D01*
X175564615Y-97957097D01*
X175791711Y-98184590D01*
X176088578Y-98307860D01*
X176410020Y-98308140D01*
X176707101Y-98185389D01*
X176707464Y-98185026D01*
X184991860Y-98185026D01*
X185114611Y-98482107D01*
X185341707Y-98709600D01*
X185638574Y-98832870D01*
X185960016Y-98833150D01*
X186257097Y-98710399D01*
X186484590Y-98483303D01*
X186607860Y-98186436D01*
X186608140Y-97864994D01*
X186485389Y-97567913D01*
X186258293Y-97340420D01*
X186124866Y-97285016D01*
X189541858Y-97285016D01*
X189664609Y-97582097D01*
X189819813Y-97737572D01*
X189665409Y-97891706D01*
X189542139Y-98188573D01*
X189541859Y-98510015D01*
X189664610Y-98807096D01*
X189891706Y-99034589D01*
X190188573Y-99157859D01*
X190510015Y-99158139D01*
X190807096Y-99035388D01*
X191034589Y-98808292D01*
X191157859Y-98511425D01*
X191158139Y-98189983D01*
X191035388Y-97892902D01*
X190880184Y-97737427D01*
X191034588Y-97583293D01*
X191157858Y-97286426D01*
X191158138Y-96964984D01*
X191035387Y-96667903D01*
X190808291Y-96440410D01*
X190511424Y-96317140D01*
X190189982Y-96316860D01*
X189892901Y-96439611D01*
X189665408Y-96666707D01*
X189542138Y-96963574D01*
X189541858Y-97285016D01*
X186124866Y-97285016D01*
X185961426Y-97217150D01*
X185639984Y-97216870D01*
X185342903Y-97339621D01*
X185115410Y-97566717D01*
X184992140Y-97863584D01*
X184991860Y-98185026D01*
X176707464Y-98185026D01*
X176934594Y-97958293D01*
X177057864Y-97661426D01*
X177058144Y-97339984D01*
X176938184Y-97049657D01*
X177057868Y-96761426D01*
X177058148Y-96439984D01*
X177014777Y-96335016D01*
X178066850Y-96335016D01*
X178189601Y-96632097D01*
X178416697Y-96859590D01*
X178713564Y-96982860D01*
X179035006Y-96983140D01*
X179332087Y-96860389D01*
X179559580Y-96633293D01*
X179682850Y-96336426D01*
X179683130Y-96014984D01*
X179560379Y-95717903D01*
X179333283Y-95490410D01*
X179036416Y-95367140D01*
X178714974Y-95366860D01*
X178417893Y-95489611D01*
X178190400Y-95716707D01*
X178067130Y-96013574D01*
X178066850Y-96335016D01*
X177014777Y-96335016D01*
X176935397Y-96142903D01*
X176708301Y-95915410D01*
X176411434Y-95792140D01*
X176089992Y-95791860D01*
X175792911Y-95914611D01*
X175565418Y-96141707D01*
X175442148Y-96438574D01*
X175441868Y-96760016D01*
X175561828Y-97050343D01*
X175442144Y-97338574D01*
X175441864Y-97660016D01*
X172967464Y-97660016D01*
X172960389Y-97642895D01*
X172733293Y-97415402D01*
X172436426Y-97292132D01*
X172114984Y-97291852D01*
X171817903Y-97414603D01*
X171590410Y-97641699D01*
X171588319Y-97646735D01*
X171336426Y-97542140D01*
X171014984Y-97541860D01*
X170717903Y-97664611D01*
X170490410Y-97891707D01*
X170367140Y-98188574D01*
X170366860Y-98510016D01*
X167664683Y-98510016D01*
X167561426Y-98467140D01*
X167239984Y-98466860D01*
X166942903Y-98589611D01*
X166715410Y-98816707D01*
X166592140Y-99113574D01*
X166591860Y-99435016D01*
X163157732Y-99435016D01*
X163234590Y-99358293D01*
X163357860Y-99061426D01*
X163358140Y-98739984D01*
X163235389Y-98442903D01*
X163008293Y-98215410D01*
X162711426Y-98092140D01*
X162389984Y-98091860D01*
X162092903Y-98214611D01*
X161865410Y-98441707D01*
X161742140Y-98738574D01*
X161741860Y-99060016D01*
X159757947Y-99060016D01*
X159758304Y-98651846D01*
X159491229Y-98005474D01*
X158997127Y-97510509D01*
X158351222Y-97242306D01*
X157651846Y-97241696D01*
X157005474Y-97508771D01*
X156510509Y-98002873D01*
X156242306Y-98648778D01*
X156241696Y-99348154D01*
X155583000Y-99348154D01*
X155583000Y-94935014D01*
X175291860Y-94935014D01*
X175414611Y-95232095D01*
X175641707Y-95459588D01*
X175938574Y-95582858D01*
X176260016Y-95583138D01*
X176557097Y-95460387D01*
X176657643Y-95360016D01*
X180541860Y-95360016D01*
X180664611Y-95657097D01*
X180891707Y-95884590D01*
X180903966Y-95889680D01*
X180842140Y-96038574D01*
X180841860Y-96360016D01*
X180964611Y-96657097D01*
X181191707Y-96884590D01*
X181488574Y-97007860D01*
X181810016Y-97008140D01*
X182107097Y-96885389D01*
X182334590Y-96658293D01*
X182457860Y-96361426D01*
X182458140Y-96039984D01*
X182335389Y-95742903D01*
X182108293Y-95515410D01*
X182096034Y-95510320D01*
X182157860Y-95361426D01*
X182158140Y-95039984D01*
X182035389Y-94742903D01*
X181808293Y-94515410D01*
X181511426Y-94392140D01*
X181189984Y-94391860D01*
X180892903Y-94514611D01*
X180665410Y-94741707D01*
X180542140Y-95038574D01*
X180541860Y-95360016D01*
X176657643Y-95360016D01*
X176784590Y-95233291D01*
X176907860Y-94936424D01*
X176908140Y-94614982D01*
X176785389Y-94317901D01*
X176558293Y-94090408D01*
X176261426Y-93967138D01*
X175939984Y-93966858D01*
X175642903Y-94089609D01*
X175415410Y-94316705D01*
X175292140Y-94613572D01*
X175291860Y-94935014D01*
X155583000Y-94935014D01*
X155583000Y-93260016D01*
X161291860Y-93260016D01*
X161414611Y-93557097D01*
X161641707Y-93784590D01*
X161938574Y-93907860D01*
X162260016Y-93908140D01*
X162557097Y-93785389D01*
X162784590Y-93558293D01*
X162804636Y-93510016D01*
X168016864Y-93510016D01*
X168139615Y-93807097D01*
X168366711Y-94034590D01*
X168663578Y-94157860D01*
X168985020Y-94158140D01*
X169282101Y-94035389D01*
X169509594Y-93808293D01*
X169632864Y-93511426D01*
X169633061Y-93285016D01*
X179166860Y-93285016D01*
X179289611Y-93582097D01*
X179516707Y-93809590D01*
X179813574Y-93932860D01*
X180135016Y-93933140D01*
X180432097Y-93810389D01*
X180659590Y-93583293D01*
X180782860Y-93286426D01*
X180783140Y-92964984D01*
X180660389Y-92667903D01*
X180433293Y-92440410D01*
X180136426Y-92317140D01*
X179814984Y-92316860D01*
X179517903Y-92439611D01*
X179290410Y-92666707D01*
X179167140Y-92963574D01*
X179166860Y-93285016D01*
X169633061Y-93285016D01*
X169633144Y-93189984D01*
X169510393Y-92892903D01*
X169283297Y-92665410D01*
X168986430Y-92542140D01*
X168664988Y-92541860D01*
X168367907Y-92664611D01*
X168140414Y-92891707D01*
X168017144Y-93188574D01*
X168016864Y-93510016D01*
X162804636Y-93510016D01*
X162907860Y-93261426D01*
X162908140Y-92939984D01*
X162785389Y-92642903D01*
X162558293Y-92415410D01*
X162261426Y-92292140D01*
X161939984Y-92291860D01*
X161642903Y-92414611D01*
X161415410Y-92641707D01*
X161292140Y-92938574D01*
X161291860Y-93260016D01*
X155583000Y-93260016D01*
X155583000Y-91785016D01*
X165141860Y-91785016D01*
X165264611Y-92082097D01*
X165491707Y-92309590D01*
X165788574Y-92432860D01*
X166110016Y-92433140D01*
X166407097Y-92310389D01*
X166634590Y-92083293D01*
X166696160Y-91935016D01*
X180741860Y-91935016D01*
X180864611Y-92232097D01*
X181091707Y-92459590D01*
X181388574Y-92582860D01*
X181710016Y-92583140D01*
X182007097Y-92460389D01*
X182107645Y-92360016D01*
X184441860Y-92360016D01*
X184564611Y-92657097D01*
X184791707Y-92884590D01*
X185088574Y-93007860D01*
X185410016Y-93008140D01*
X185647494Y-92910016D01*
X189041860Y-92910016D01*
X189164611Y-93207097D01*
X189391707Y-93434590D01*
X189572631Y-93509716D01*
X189440410Y-93641707D01*
X189317140Y-93938574D01*
X189316860Y-94260016D01*
X189439611Y-94557097D01*
X189638553Y-94756386D01*
X189542140Y-94988574D01*
X189541860Y-95310016D01*
X189664611Y-95607097D01*
X189891707Y-95834590D01*
X190188574Y-95957860D01*
X190510016Y-95958140D01*
X190807097Y-95835389D01*
X191034590Y-95608293D01*
X191157860Y-95311426D01*
X191158140Y-94989984D01*
X191035389Y-94692903D01*
X190836447Y-94493614D01*
X190932860Y-94261426D01*
X190933140Y-93939984D01*
X190810389Y-93642903D01*
X190583293Y-93415410D01*
X190402369Y-93340284D01*
X190534590Y-93208293D01*
X190657860Y-92911426D01*
X190658140Y-92589984D01*
X190535389Y-92292903D01*
X190308293Y-92065410D01*
X190011426Y-91942140D01*
X189689984Y-91941860D01*
X189392903Y-92064611D01*
X189165410Y-92291707D01*
X189042140Y-92588574D01*
X189041860Y-92910016D01*
X185647494Y-92910016D01*
X185707097Y-92885389D01*
X185934590Y-92658293D01*
X186057860Y-92361426D01*
X186058140Y-92039984D01*
X185935389Y-91742903D01*
X185708293Y-91515410D01*
X185411426Y-91392140D01*
X185089984Y-91391860D01*
X184792903Y-91514611D01*
X184565410Y-91741707D01*
X184442140Y-92038574D01*
X184441860Y-92360016D01*
X182107645Y-92360016D01*
X182234590Y-92233293D01*
X182357860Y-91936426D01*
X182358140Y-91614984D01*
X182235389Y-91317903D01*
X182008293Y-91090410D01*
X181711426Y-90967140D01*
X181389984Y-90966860D01*
X181092903Y-91089611D01*
X180865410Y-91316707D01*
X180742140Y-91613574D01*
X180741860Y-91935016D01*
X166696160Y-91935016D01*
X166757860Y-91786426D01*
X166758140Y-91464984D01*
X166635389Y-91167903D01*
X166408293Y-90940410D01*
X166111426Y-90817140D01*
X165789984Y-90816860D01*
X165492903Y-90939611D01*
X165265410Y-91166707D01*
X165142140Y-91463574D01*
X165141860Y-91785016D01*
X155583000Y-91785016D01*
X155583000Y-90557420D01*
X155625294Y-90344792D01*
X155713213Y-90213212D01*
X155844792Y-90125294D01*
X156057420Y-90083000D01*
X192942580Y-90083000D01*
X193155208Y-90125294D01*
X193155208Y-90125294D01*
G37*
X193155208Y-90125294D02*
X193286788Y-90213213D01*
X193374706Y-90344792D01*
X193417000Y-90557420D01*
X193417000Y-105442580D01*
X193374706Y-105655208D01*
X193286788Y-105786787D01*
X193155208Y-105874706D01*
X192942580Y-105917000D01*
X156057420Y-105917000D01*
X155844792Y-105874706D01*
X155713213Y-105786788D01*
X155625294Y-105655208D01*
X155583000Y-105442580D01*
X155583000Y-105135016D01*
X166116860Y-105135016D01*
X166239611Y-105432097D01*
X166466707Y-105659590D01*
X166763574Y-105782860D01*
X167085016Y-105783140D01*
X167382097Y-105660389D01*
X167609590Y-105433293D01*
X167712683Y-105185016D01*
X170916860Y-105185016D01*
X171039611Y-105482097D01*
X171266707Y-105709590D01*
X171563574Y-105832860D01*
X171885016Y-105833140D01*
X172182097Y-105710389D01*
X172409590Y-105483293D01*
X172532860Y-105186426D01*
X172533140Y-104864984D01*
X172410389Y-104567903D01*
X172183293Y-104340410D01*
X171886426Y-104217140D01*
X171564984Y-104216860D01*
X171267903Y-104339611D01*
X171040410Y-104566707D01*
X170917140Y-104863574D01*
X170916860Y-105185016D01*
X167712683Y-105185016D01*
X167732860Y-105136426D01*
X167733140Y-104814984D01*
X167610389Y-104517903D01*
X167383293Y-104290410D01*
X167086426Y-104167140D01*
X166764984Y-104166860D01*
X166467903Y-104289611D01*
X166240410Y-104516707D01*
X166117140Y-104813574D01*
X166116860Y-105135016D01*
X155583000Y-105135016D01*
X155583000Y-104160016D01*
X175791860Y-104160016D01*
X175914611Y-104457097D01*
X176141707Y-104684590D01*
X176438574Y-104807860D01*
X176760016Y-104808140D01*
X177057097Y-104685389D01*
X177284590Y-104458293D01*
X177407860Y-104161426D01*
X177408132Y-103848154D01*
X189241696Y-103848154D01*
X189508771Y-104494526D01*
X190002873Y-104989491D01*
X190648778Y-105257694D01*
X191348154Y-105258304D01*
X191994526Y-104991229D01*
X192489491Y-104497127D01*
X192757694Y-103851222D01*
X192758304Y-103151846D01*
X192491229Y-102505474D01*
X191997127Y-102010509D01*
X191351222Y-101742306D01*
X190651846Y-101741696D01*
X190005474Y-102008771D01*
X189510509Y-102502873D01*
X189242306Y-103148778D01*
X189241696Y-103848154D01*
X177408132Y-103848154D01*
X177408140Y-103839984D01*
X177285389Y-103542903D01*
X177058293Y-103315410D01*
X176761426Y-103192140D01*
X176439984Y-103191860D01*
X176142903Y-103314611D01*
X175915410Y-103541707D01*
X175792140Y-103838574D01*
X175791860Y-104160016D01*
X155583000Y-104160016D01*
X155583000Y-102560016D01*
X156916860Y-102560016D01*
X157039611Y-102857097D01*
X157266707Y-103084590D01*
X157563574Y-103207860D01*
X157885016Y-103208140D01*
X158182097Y-103085389D01*
X158409590Y-102858293D01*
X158532860Y-102561426D01*
X158532883Y-102535016D01*
X166016860Y-102535016D01*
X166139611Y-102832097D01*
X166366707Y-103059590D01*
X166663574Y-103182860D01*
X166985016Y-103183140D01*
X167282097Y-103060389D01*
X167509590Y-102833293D01*
X167632860Y-102536426D01*
X167633140Y-102214984D01*
X167510389Y-101917903D01*
X167452604Y-101860016D01*
X167691860Y-101860016D01*
X167814611Y-102157097D01*
X168041707Y-102384590D01*
X168338574Y-102507860D01*
X168660016Y-102508140D01*
X168957097Y-102385389D01*
X169184590Y-102158293D01*
X169307860Y-101861426D01*
X169308140Y-101539984D01*
X169254439Y-101410016D01*
X169441864Y-101410016D01*
X169564615Y-101707097D01*
X169791711Y-101934590D01*
X170088578Y-102057860D01*
X170410020Y-102058140D01*
X170586994Y-101985016D01*
X172441860Y-101985016D01*
X172564611Y-102282097D01*
X172791707Y-102509590D01*
X173088574Y-102632860D01*
X173410016Y-102633140D01*
X173707097Y-102510389D01*
X173722599Y-102494914D01*
X173789611Y-102657097D01*
X174016707Y-102884590D01*
X174313574Y-103007860D01*
X174635016Y-103008140D01*
X174932097Y-102885389D01*
X175159590Y-102658293D01*
X175169255Y-102635016D01*
X180841862Y-102635016D01*
X180964613Y-102932097D01*
X181191709Y-103159590D01*
X181488576Y-103282860D01*
X181810018Y-103283140D01*
X182107099Y-103160389D01*
X182334592Y-102933293D01*
X182457862Y-102636426D01*
X182458142Y-102314984D01*
X182335391Y-102017903D01*
X182108295Y-101790410D01*
X181811428Y-101667140D01*
X181489986Y-101666860D01*
X181192905Y-101789611D01*
X180965412Y-102016707D01*
X180842142Y-102313574D01*
X180841862Y-102635016D01*
X175169255Y-102635016D01*
X175282860Y-102361426D01*
X175283140Y-102039984D01*
X175160389Y-101742903D01*
X174933293Y-101515410D01*
X174636426Y-101392140D01*
X174314984Y-101391860D01*
X174017903Y-101514611D01*
X174002401Y-101530086D01*
X173935389Y-101367903D01*
X173708293Y-101140410D01*
X173411426Y-101017140D01*
X173089984Y-101016860D01*
X172792903Y-101139611D01*
X172565410Y-101366707D01*
X172442140Y-101663574D01*
X172441860Y-101985016D01*
X170586994Y-101985016D01*
X170707101Y-101935389D01*
X170934594Y-101708293D01*
X171057864Y-101411426D01*
X171058144Y-101089984D01*
X170935393Y-100792903D01*
X170708297Y-100565410D01*
X170411430Y-100442140D01*
X170089988Y-100441860D01*
X169792907Y-100564611D01*
X169565414Y-100791707D01*
X169442144Y-101088574D01*
X169441864Y-101410016D01*
X169254439Y-101410016D01*
X169185389Y-101242903D01*
X168958293Y-101015410D01*
X168661426Y-100892140D01*
X168339984Y-100891860D01*
X168042903Y-101014611D01*
X167815410Y-101241707D01*
X167692140Y-101538574D01*
X167691860Y-101860016D01*
X167452604Y-101860016D01*
X167283293Y-101690410D01*
X166986426Y-101567140D01*
X166664984Y-101566860D01*
X166367903Y-101689611D01*
X166140410Y-101916707D01*
X166017140Y-102213574D01*
X166016860Y-102535016D01*
X158532883Y-102535016D01*
X158533140Y-102239984D01*
X158410389Y-101942903D01*
X158227822Y-101760016D01*
X164116860Y-101760016D01*
X164239611Y-102057097D01*
X164466707Y-102284590D01*
X164763574Y-102407860D01*
X165085016Y-102408140D01*
X165382097Y-102285389D01*
X165609590Y-102058293D01*
X165732860Y-101761426D01*
X165733140Y-101439984D01*
X165610389Y-101142903D01*
X165383293Y-100915410D01*
X165086426Y-100792140D01*
X164764984Y-100791860D01*
X164467903Y-100914611D01*
X164240410Y-101141707D01*
X164117140Y-101438574D01*
X164116860Y-101760016D01*
X158227822Y-101760016D01*
X158183293Y-101715410D01*
X157886426Y-101592140D01*
X157564984Y-101591860D01*
X157267903Y-101714611D01*
X157040410Y-101941707D01*
X156917140Y-102238574D01*
X156916860Y-102560016D01*
X155583000Y-102560016D01*
X155583000Y-99348154D01*
X156241696Y-99348154D01*
X156508771Y-99994526D01*
X157002873Y-100489491D01*
X157648778Y-100757694D01*
X158348154Y-100758304D01*
X158994526Y-100491229D01*
X159489491Y-99997127D01*
X159757694Y-99351222D01*
X159757947Y-99060016D01*
X161741860Y-99060016D01*
X161864611Y-99357097D01*
X162007315Y-99500050D01*
X161865410Y-99641707D01*
X161742140Y-99938574D01*
X161741860Y-100260016D01*
X161864611Y-100557097D01*
X162091707Y-100784590D01*
X162388574Y-100907860D01*
X162710016Y-100908140D01*
X163007097Y-100785389D01*
X163234590Y-100558293D01*
X163357860Y-100261426D01*
X163358140Y-99939984D01*
X163235389Y-99642903D01*
X163092685Y-99499950D01*
X163157732Y-99435016D01*
X166591860Y-99435016D01*
X166714611Y-99732097D01*
X166941707Y-99959590D01*
X167238574Y-100082860D01*
X167560016Y-100083140D01*
X167857097Y-99960389D01*
X168057820Y-99760016D01*
X187716860Y-99760016D01*
X187839611Y-100057097D01*
X188066707Y-100284590D01*
X188088605Y-100293683D01*
X187990410Y-100391707D01*
X187867140Y-100688574D01*
X187866860Y-101010016D01*
X187989611Y-101307097D01*
X188216707Y-101534590D01*
X188513574Y-101657860D01*
X188835016Y-101658140D01*
X189132097Y-101535389D01*
X189359590Y-101308293D01*
X189482860Y-101011426D01*
X189483140Y-100689984D01*
X189360389Y-100392903D01*
X189133293Y-100165410D01*
X189111395Y-100156317D01*
X189209590Y-100058293D01*
X189332860Y-99761426D01*
X189333140Y-99439984D01*
X189210389Y-99142903D01*
X189111541Y-99043882D01*
X189132097Y-99035389D01*
X189359590Y-98808293D01*
X189482860Y-98511426D01*
X189483140Y-98189984D01*
X189360389Y-97892903D01*
X189133293Y-97665410D01*
X188836426Y-97542140D01*
X188514984Y-97541860D01*
X188217903Y-97664611D01*
X187990410Y-97891707D01*
X187867140Y-98188574D01*
X187866860Y-98510016D01*
X187989611Y-98807097D01*
X188088459Y-98906118D01*
X188067903Y-98914611D01*
X187840410Y-99141707D01*
X187717140Y-99438574D01*
X187716860Y-99760016D01*
X168057820Y-99760016D01*
X168084590Y-99733293D01*
X168207860Y-99436426D01*
X168208140Y-99114984D01*
X168085389Y-98817903D01*
X167858293Y-98590410D01*
X167664683Y-98510016D01*
X170366860Y-98510016D01*
X170489611Y-98807097D01*
X170716707Y-99034590D01*
X171013574Y-99157860D01*
X171335016Y-99158140D01*
X171632097Y-99035389D01*
X171859590Y-98808293D01*
X171861681Y-98803257D01*
X172113574Y-98907852D01*
X172435016Y-98908132D01*
X172732097Y-98785381D01*
X172959590Y-98558285D01*
X173082860Y-98261418D01*
X173083140Y-97939976D01*
X172967464Y-97660016D01*
X175441864Y-97660016D01*
X175564615Y-97957097D01*
X175791711Y-98184590D01*
X176088578Y-98307860D01*
X176410020Y-98308140D01*
X176707101Y-98185389D01*
X176707464Y-98185026D01*
X184991860Y-98185026D01*
X185114611Y-98482107D01*
X185341707Y-98709600D01*
X185638574Y-98832870D01*
X185960016Y-98833150D01*
X186257097Y-98710399D01*
X186484590Y-98483303D01*
X186607860Y-98186436D01*
X186608140Y-97864994D01*
X186485389Y-97567913D01*
X186258293Y-97340420D01*
X186124866Y-97285016D01*
X189541858Y-97285016D01*
X189664609Y-97582097D01*
X189819813Y-97737572D01*
X189665409Y-97891706D01*
X189542139Y-98188573D01*
X189541859Y-98510015D01*
X189664610Y-98807096D01*
X189891706Y-99034589D01*
X190188573Y-99157859D01*
X190510015Y-99158139D01*
X190807096Y-99035388D01*
X191034589Y-98808292D01*
X191157859Y-98511425D01*
X191158139Y-98189983D01*
X191035388Y-97892902D01*
X190880184Y-97737427D01*
X191034588Y-97583293D01*
X191157858Y-97286426D01*
X191158138Y-96964984D01*
X191035387Y-96667903D01*
X190808291Y-96440410D01*
X190511424Y-96317140D01*
X190189982Y-96316860D01*
X189892901Y-96439611D01*
X189665408Y-96666707D01*
X189542138Y-96963574D01*
X189541858Y-97285016D01*
X186124866Y-97285016D01*
X185961426Y-97217150D01*
X185639984Y-97216870D01*
X185342903Y-97339621D01*
X185115410Y-97566717D01*
X184992140Y-97863584D01*
X184991860Y-98185026D01*
X176707464Y-98185026D01*
X176934594Y-97958293D01*
X177057864Y-97661426D01*
X177058144Y-97339984D01*
X176938184Y-97049657D01*
X177057868Y-96761426D01*
X177058148Y-96439984D01*
X177014777Y-96335016D01*
X178066850Y-96335016D01*
X178189601Y-96632097D01*
X178416697Y-96859590D01*
X178713564Y-96982860D01*
X179035006Y-96983140D01*
X179332087Y-96860389D01*
X179559580Y-96633293D01*
X179682850Y-96336426D01*
X179683130Y-96014984D01*
X179560379Y-95717903D01*
X179333283Y-95490410D01*
X179036416Y-95367140D01*
X178714974Y-95366860D01*
X178417893Y-95489611D01*
X178190400Y-95716707D01*
X178067130Y-96013574D01*
X178066850Y-96335016D01*
X177014777Y-96335016D01*
X176935397Y-96142903D01*
X176708301Y-95915410D01*
X176411434Y-95792140D01*
X176089992Y-95791860D01*
X175792911Y-95914611D01*
X175565418Y-96141707D01*
X175442148Y-96438574D01*
X175441868Y-96760016D01*
X175561828Y-97050343D01*
X175442144Y-97338574D01*
X175441864Y-97660016D01*
X172967464Y-97660016D01*
X172960389Y-97642895D01*
X172733293Y-97415402D01*
X172436426Y-97292132D01*
X172114984Y-97291852D01*
X171817903Y-97414603D01*
X171590410Y-97641699D01*
X171588319Y-97646735D01*
X171336426Y-97542140D01*
X171014984Y-97541860D01*
X170717903Y-97664611D01*
X170490410Y-97891707D01*
X170367140Y-98188574D01*
X170366860Y-98510016D01*
X167664683Y-98510016D01*
X167561426Y-98467140D01*
X167239984Y-98466860D01*
X166942903Y-98589611D01*
X166715410Y-98816707D01*
X166592140Y-99113574D01*
X166591860Y-99435016D01*
X163157732Y-99435016D01*
X163234590Y-99358293D01*
X163357860Y-99061426D01*
X163358140Y-98739984D01*
X163235389Y-98442903D01*
X163008293Y-98215410D01*
X162711426Y-98092140D01*
X162389984Y-98091860D01*
X162092903Y-98214611D01*
X161865410Y-98441707D01*
X161742140Y-98738574D01*
X161741860Y-99060016D01*
X159757947Y-99060016D01*
X159758304Y-98651846D01*
X159491229Y-98005474D01*
X158997127Y-97510509D01*
X158351222Y-97242306D01*
X157651846Y-97241696D01*
X157005474Y-97508771D01*
X156510509Y-98002873D01*
X156242306Y-98648778D01*
X156241696Y-99348154D01*
X155583000Y-99348154D01*
X155583000Y-94935014D01*
X175291860Y-94935014D01*
X175414611Y-95232095D01*
X175641707Y-95459588D01*
X175938574Y-95582858D01*
X176260016Y-95583138D01*
X176557097Y-95460387D01*
X176657643Y-95360016D01*
X180541860Y-95360016D01*
X180664611Y-95657097D01*
X180891707Y-95884590D01*
X180903966Y-95889680D01*
X180842140Y-96038574D01*
X180841860Y-96360016D01*
X180964611Y-96657097D01*
X181191707Y-96884590D01*
X181488574Y-97007860D01*
X181810016Y-97008140D01*
X182107097Y-96885389D01*
X182334590Y-96658293D01*
X182457860Y-96361426D01*
X182458140Y-96039984D01*
X182335389Y-95742903D01*
X182108293Y-95515410D01*
X182096034Y-95510320D01*
X182157860Y-95361426D01*
X182158140Y-95039984D01*
X182035389Y-94742903D01*
X181808293Y-94515410D01*
X181511426Y-94392140D01*
X181189984Y-94391860D01*
X180892903Y-94514611D01*
X180665410Y-94741707D01*
X180542140Y-95038574D01*
X180541860Y-95360016D01*
X176657643Y-95360016D01*
X176784590Y-95233291D01*
X176907860Y-94936424D01*
X176908140Y-94614982D01*
X176785389Y-94317901D01*
X176558293Y-94090408D01*
X176261426Y-93967138D01*
X175939984Y-93966858D01*
X175642903Y-94089609D01*
X175415410Y-94316705D01*
X175292140Y-94613572D01*
X175291860Y-94935014D01*
X155583000Y-94935014D01*
X155583000Y-93260016D01*
X161291860Y-93260016D01*
X161414611Y-93557097D01*
X161641707Y-93784590D01*
X161938574Y-93907860D01*
X162260016Y-93908140D01*
X162557097Y-93785389D01*
X162784590Y-93558293D01*
X162804636Y-93510016D01*
X168016864Y-93510016D01*
X168139615Y-93807097D01*
X168366711Y-94034590D01*
X168663578Y-94157860D01*
X168985020Y-94158140D01*
X169282101Y-94035389D01*
X169509594Y-93808293D01*
X169632864Y-93511426D01*
X169633061Y-93285016D01*
X179166860Y-93285016D01*
X179289611Y-93582097D01*
X179516707Y-93809590D01*
X179813574Y-93932860D01*
X180135016Y-93933140D01*
X180432097Y-93810389D01*
X180659590Y-93583293D01*
X180782860Y-93286426D01*
X180783140Y-92964984D01*
X180660389Y-92667903D01*
X180433293Y-92440410D01*
X180136426Y-92317140D01*
X179814984Y-92316860D01*
X179517903Y-92439611D01*
X179290410Y-92666707D01*
X179167140Y-92963574D01*
X179166860Y-93285016D01*
X169633061Y-93285016D01*
X169633144Y-93189984D01*
X169510393Y-92892903D01*
X169283297Y-92665410D01*
X168986430Y-92542140D01*
X168664988Y-92541860D01*
X168367907Y-92664611D01*
X168140414Y-92891707D01*
X168017144Y-93188574D01*
X168016864Y-93510016D01*
X162804636Y-93510016D01*
X162907860Y-93261426D01*
X162908140Y-92939984D01*
X162785389Y-92642903D01*
X162558293Y-92415410D01*
X162261426Y-92292140D01*
X161939984Y-92291860D01*
X161642903Y-92414611D01*
X161415410Y-92641707D01*
X161292140Y-92938574D01*
X161291860Y-93260016D01*
X155583000Y-93260016D01*
X155583000Y-91785016D01*
X165141860Y-91785016D01*
X165264611Y-92082097D01*
X165491707Y-92309590D01*
X165788574Y-92432860D01*
X166110016Y-92433140D01*
X166407097Y-92310389D01*
X166634590Y-92083293D01*
X166696160Y-91935016D01*
X180741860Y-91935016D01*
X180864611Y-92232097D01*
X181091707Y-92459590D01*
X181388574Y-92582860D01*
X181710016Y-92583140D01*
X182007097Y-92460389D01*
X182107645Y-92360016D01*
X184441860Y-92360016D01*
X184564611Y-92657097D01*
X184791707Y-92884590D01*
X185088574Y-93007860D01*
X185410016Y-93008140D01*
X185647494Y-92910016D01*
X189041860Y-92910016D01*
X189164611Y-93207097D01*
X189391707Y-93434590D01*
X189572631Y-93509716D01*
X189440410Y-93641707D01*
X189317140Y-93938574D01*
X189316860Y-94260016D01*
X189439611Y-94557097D01*
X189638553Y-94756386D01*
X189542140Y-94988574D01*
X189541860Y-95310016D01*
X189664611Y-95607097D01*
X189891707Y-95834590D01*
X190188574Y-95957860D01*
X190510016Y-95958140D01*
X190807097Y-95835389D01*
X191034590Y-95608293D01*
X191157860Y-95311426D01*
X191158140Y-94989984D01*
X191035389Y-94692903D01*
X190836447Y-94493614D01*
X190932860Y-94261426D01*
X190933140Y-93939984D01*
X190810389Y-93642903D01*
X190583293Y-93415410D01*
X190402369Y-93340284D01*
X190534590Y-93208293D01*
X190657860Y-92911426D01*
X190658140Y-92589984D01*
X190535389Y-92292903D01*
X190308293Y-92065410D01*
X190011426Y-91942140D01*
X189689984Y-91941860D01*
X189392903Y-92064611D01*
X189165410Y-92291707D01*
X189042140Y-92588574D01*
X189041860Y-92910016D01*
X185647494Y-92910016D01*
X185707097Y-92885389D01*
X185934590Y-92658293D01*
X186057860Y-92361426D01*
X186058140Y-92039984D01*
X185935389Y-91742903D01*
X185708293Y-91515410D01*
X185411426Y-91392140D01*
X185089984Y-91391860D01*
X184792903Y-91514611D01*
X184565410Y-91741707D01*
X184442140Y-92038574D01*
X184441860Y-92360016D01*
X182107645Y-92360016D01*
X182234590Y-92233293D01*
X182357860Y-91936426D01*
X182358140Y-91614984D01*
X182235389Y-91317903D01*
X182008293Y-91090410D01*
X181711426Y-90967140D01*
X181389984Y-90966860D01*
X181092903Y-91089611D01*
X180865410Y-91316707D01*
X180742140Y-91613574D01*
X180741860Y-91935016D01*
X166696160Y-91935016D01*
X166757860Y-91786426D01*
X166758140Y-91464984D01*
X166635389Y-91167903D01*
X166408293Y-90940410D01*
X166111426Y-90817140D01*
X165789984Y-90816860D01*
X165492903Y-90939611D01*
X165265410Y-91166707D01*
X165142140Y-91463574D01*
X165141860Y-91785016D01*
X155583000Y-91785016D01*
X155583000Y-90557420D01*
X155625294Y-90344792D01*
X155713213Y-90213212D01*
X155844792Y-90125294D01*
X156057420Y-90083000D01*
X192942580Y-90083000D01*
X193155208Y-90125294D01*
M02*
