G04 #@! TF.FileFunction,Soldermask,Top*
%FSLAX46Y46*%
G04 Gerber Fmt 4.6, Leading zero omitted, Abs format (unit mm)*
G04 Created by KiCad (PCBNEW 4.0.2-stable) date 2017年05月12日 星期五 07:52:48*
%MOMM*%
G01*
G04 APERTURE LIST*
%ADD10C,0.100000*%
%ADD11R,1.000000X0.900000*%
%ADD12R,1.200000X1.150000*%
%ADD13C,1.924000*%
%ADD14R,0.800000X1.000000*%
%ADD15R,1.200100X1.200100*%
%ADD16R,1.400000X0.650000*%
%ADD17R,0.650000X1.400000*%
%ADD18R,0.700000X1.250000*%
%ADD19R,1.250000X0.700000*%
%ADD20R,1.700000X1.700000*%
%ADD21R,2.100000X2.800000*%
G04 APERTURE END LIST*
D10*
D11*
X167050000Y-90725000D03*
X165950000Y-90725000D03*
D12*
X187600000Y-94100000D03*
X189100000Y-94100000D03*
D11*
X187800000Y-92750000D03*
X188900000Y-92750000D03*
X182650000Y-92750000D03*
X181550000Y-92750000D03*
D12*
X182850000Y-94100000D03*
X181350000Y-94100000D03*
D11*
X164625000Y-100100000D03*
X163525000Y-100100000D03*
X169000000Y-104975000D03*
X167900000Y-104975000D03*
X178875000Y-94100000D03*
X179975000Y-94100000D03*
X164625000Y-98900000D03*
X163525000Y-98900000D03*
X175500000Y-104975000D03*
X176600000Y-104975000D03*
X163950000Y-92125000D03*
X162850000Y-92125000D03*
X160250000Y-92125000D03*
X161350000Y-92125000D03*
X187725000Y-100850000D03*
X186625000Y-100850000D03*
X179975000Y-95300000D03*
X178875000Y-95300000D03*
X186625000Y-98350000D03*
X187725000Y-98350000D03*
D13*
X191900000Y-92275000D03*
X191900000Y-94800000D03*
X191900000Y-97355000D03*
X191900000Y-99895000D03*
D14*
X169100000Y-90675000D03*
X170000000Y-90675000D03*
X172600000Y-105025000D03*
X173500000Y-105025000D03*
X163625000Y-97650000D03*
X164525000Y-97650000D03*
X161650000Y-90800000D03*
X162550000Y-90800000D03*
X178775000Y-101350000D03*
X179675000Y-101350000D03*
X178775000Y-99350000D03*
X179675000Y-99350000D03*
X187625000Y-99600000D03*
X186725000Y-99600000D03*
D15*
X184224240Y-92200000D03*
X184224240Y-94100000D03*
X186223220Y-93150000D03*
D16*
X166050000Y-94100000D03*
X166050000Y-94600000D03*
X166050000Y-95100000D03*
X166050000Y-95600000D03*
X166050000Y-96100000D03*
X166050000Y-96600000D03*
X166050000Y-97100000D03*
X166050000Y-97600000D03*
X166050000Y-98100000D03*
X166050000Y-98600000D03*
X166050000Y-99100000D03*
X166050000Y-99600000D03*
X166050000Y-100100000D03*
X166050000Y-100600000D03*
X166050000Y-101100000D03*
X166050000Y-101600000D03*
D17*
X168000000Y-103550000D03*
X168500000Y-103550000D03*
X169000000Y-103550000D03*
X169500000Y-103550000D03*
X170000000Y-103550000D03*
X170500000Y-103550000D03*
X171000000Y-103550000D03*
X171500000Y-103550000D03*
X172000000Y-103550000D03*
X172500000Y-103550000D03*
X173000000Y-103550000D03*
X173500000Y-103550000D03*
X174000000Y-103550000D03*
X174500000Y-103550000D03*
X175000000Y-103550000D03*
X175500000Y-103550000D03*
D16*
X177450000Y-101600000D03*
X177450000Y-101100000D03*
X177450000Y-100600000D03*
X177450000Y-100100000D03*
X177450000Y-99600000D03*
X177450000Y-99100000D03*
X177450000Y-98600000D03*
X177450000Y-98100000D03*
X177450000Y-97600000D03*
X177450000Y-97100000D03*
X177450000Y-96600000D03*
X177450000Y-96100000D03*
X177450000Y-95600000D03*
X177450000Y-95100000D03*
X177450000Y-94600000D03*
X177450000Y-94100000D03*
D17*
X175500000Y-92150000D03*
X175000000Y-92150000D03*
X174500000Y-92150000D03*
X174000000Y-92150000D03*
X173500000Y-92150000D03*
X173000000Y-92150000D03*
X172500000Y-92150000D03*
X172000000Y-92150000D03*
X171500000Y-92150000D03*
X171000000Y-92150000D03*
X170500000Y-92150000D03*
X170000000Y-92150000D03*
X169500000Y-92150000D03*
X169000000Y-92150000D03*
X168500000Y-92150000D03*
X168000000Y-92150000D03*
D18*
X181650000Y-101300000D03*
X182150000Y-101300000D03*
X182650000Y-101300000D03*
X183150000Y-101300000D03*
X183650000Y-101300000D03*
X184150000Y-101300000D03*
D19*
X184850000Y-100600000D03*
X184850000Y-100100000D03*
X184850000Y-99600000D03*
X184850000Y-99100000D03*
X184850000Y-98600000D03*
X184850000Y-98100000D03*
D18*
X184150000Y-97400000D03*
X183650000Y-97400000D03*
X183150000Y-97400000D03*
X182650000Y-97400000D03*
X182150000Y-97400000D03*
X181650000Y-97400000D03*
D19*
X180950000Y-98100000D03*
X180950000Y-98600000D03*
X180950000Y-99100000D03*
X180950000Y-99600000D03*
X180950000Y-100100000D03*
X180950000Y-100600000D03*
D20*
X183550000Y-98700000D03*
X182250000Y-98700000D03*
X183550000Y-100000000D03*
X182250000Y-100000000D03*
D21*
X163950000Y-94350000D03*
X160250000Y-94350000D03*
M02*
