M48
;DRILL file {KiCad 4.0.2-stable} date 2017年05月12日 星期五 07:52:54
;FORMAT={-:-/ absolute / metric / decimal}
FMAT,2
METRIC,TZ
T1C0.400
T2C2.500
%
G90
G05
M71
T1
X157.725Y-102.4
X160.225Y-104.65
X162.1Y-93.1
X162.55Y-98.9
X162.55Y-100.1
X162.7Y-97.65
X164.925Y-101.6
X165.95Y-91.625
X166.825Y-102.375
X166.925Y-104.975
X167.35Y-94.475
X167.4Y-99.275
X167.4Y-100.45
X167.725Y-93.35
X168.5Y-101.7
X168.825Y-93.35
X169.575Y-102.125
X170.25Y-101.25
X171.175Y-98.35
X171.725Y-105.025
X172.275Y-98.1
X173.25Y-101.825
X174.475Y-102.2
X176.Y-102.2
X176.1Y-93.8
X176.1Y-94.775
X176.25Y-97.5
X176.25Y-96.6
X176.6Y-104.
X178.775Y-98.325
X178.775Y-102.375
X178.875Y-96.175
X179.975Y-93.125
X181.35Y-95.2
X181.55Y-91.775
X181.65Y-96.2
X181.65Y-102.475
X182.65Y-91.7
X182.85Y-95.2
X184.15Y-96.2
X185.25Y-92.2
X185.25Y-94.1
X185.8Y-98.025
X186.625Y-101.875
X188.525Y-99.6
X188.675Y-98.35
X188.675Y-100.85
X189.85Y-92.75
X190.125Y-94.1
X190.35Y-97.125
X190.35Y-98.35
X190.35Y-95.15
T2
X158.Y-99.
X191.Y-103.5
T0
M30
