G04 #@! TF.FileFunction,Copper,L2,Inr,Signal*
%FSLAX46Y46*%
G04 Gerber Fmt 4.6, Leading zero omitted, Abs format (unit mm)*
G04 Created by KiCad (PCBNEW 4.0.2-stable) date 2017年05月12日 星期五 07:52:48*
%MOMM*%
G01*
G04 APERTURE LIST*
%ADD10C,0.100000*%
%ADD11C,0.600000*%
%ADD12C,0.250000*%
%ADD13C,0.254000*%
G04 APERTURE END LIST*
D10*
D11*
X169575000Y-102125000D03*
X176100000Y-93800000D03*
X182850000Y-95200000D03*
X182650000Y-91700000D03*
X186625000Y-101875000D03*
X184150000Y-96200000D03*
X185250000Y-94100000D03*
X176000000Y-102200000D03*
X160225000Y-104650000D03*
X178775000Y-98325010D03*
X167400000Y-100450000D03*
X178775000Y-102375000D03*
X167725000Y-93349998D03*
X167350004Y-94475000D03*
X162700000Y-97650000D03*
X168500000Y-101700000D03*
X176100000Y-94774998D03*
X185800000Y-98025010D03*
X181650000Y-96200000D03*
X181650002Y-102475000D03*
X174475000Y-102200000D03*
X178874990Y-96175000D03*
X157725000Y-102400000D03*
X188675000Y-100850000D03*
X188675000Y-98350000D03*
X188525000Y-99600000D03*
X190350000Y-95150000D03*
X162100000Y-93100000D03*
X167400000Y-99275000D03*
X166925000Y-104975000D03*
X171725000Y-105025000D03*
X176600000Y-104000000D03*
X185250000Y-92200000D03*
X190125000Y-94100000D03*
X189850000Y-92750000D03*
X181550000Y-91775000D03*
X181350000Y-95200000D03*
X179975000Y-93125000D03*
X168825004Y-93350000D03*
X165950000Y-91625000D03*
X162550000Y-100100000D03*
X162550000Y-98900000D03*
X176250008Y-96600000D03*
X190349998Y-97125000D03*
X176250004Y-97500000D03*
X190349999Y-98349999D03*
X170250004Y-101250000D03*
X171175000Y-98350000D03*
X166825000Y-102375000D03*
X172275000Y-98099992D03*
X164925000Y-101600000D03*
X173250000Y-101825000D03*
D12*
X190349998Y-97125000D02*
X190074998Y-96850000D01*
X190074998Y-96850000D02*
X176500008Y-96850000D01*
X176500008Y-96850000D02*
X176250008Y-96600000D01*
X190349999Y-98349999D02*
X189400000Y-97400000D01*
X189400000Y-97400000D02*
X176774268Y-97400000D01*
X176774268Y-97400000D02*
X176674268Y-97500000D01*
X176674268Y-97500000D02*
X176250004Y-97500000D01*
D13*
G36*
X193155208Y-90125294D02*
X193286788Y-90213213D01*
X193374706Y-90344792D01*
X193417000Y-90557420D01*
X193417000Y-105442580D01*
X193374706Y-105655208D01*
X193286788Y-105786787D01*
X193155208Y-105874706D01*
X192942580Y-105917000D01*
X156057420Y-105917000D01*
X155844792Y-105874706D01*
X155713213Y-105786788D01*
X155625294Y-105655208D01*
X155583000Y-105442580D01*
X155583000Y-104810016D01*
X159416860Y-104810016D01*
X159539611Y-105107097D01*
X159766707Y-105334590D01*
X160063574Y-105457860D01*
X160385016Y-105458140D01*
X160682097Y-105335389D01*
X160909590Y-105108293D01*
X161032860Y-104811426D01*
X161033140Y-104489984D01*
X160910389Y-104192903D01*
X160683293Y-103965410D01*
X160400910Y-103848154D01*
X189241696Y-103848154D01*
X189508771Y-104494526D01*
X190002873Y-104989491D01*
X190648778Y-105257694D01*
X191348154Y-105258304D01*
X191994526Y-104991229D01*
X192489491Y-104497127D01*
X192757694Y-103851222D01*
X192758304Y-103151846D01*
X192491229Y-102505474D01*
X191997127Y-102010509D01*
X191351222Y-101742306D01*
X190651846Y-101741696D01*
X190005474Y-102008771D01*
X189510509Y-102502873D01*
X189242306Y-103148778D01*
X189241696Y-103848154D01*
X160400910Y-103848154D01*
X160386426Y-103842140D01*
X160064984Y-103841860D01*
X159767903Y-103964611D01*
X159540410Y-104191707D01*
X159417140Y-104488574D01*
X159416860Y-104810016D01*
X155583000Y-104810016D01*
X155583000Y-102535016D01*
X166016860Y-102535016D01*
X166139611Y-102832097D01*
X166366707Y-103059590D01*
X166663574Y-103182860D01*
X166985016Y-103183140D01*
X167282097Y-103060389D01*
X167509590Y-102833293D01*
X167632860Y-102536426D01*
X167633078Y-102285016D01*
X168766860Y-102285016D01*
X168889611Y-102582097D01*
X169116707Y-102809590D01*
X169413574Y-102932860D01*
X169735016Y-102933140D01*
X170032097Y-102810389D01*
X170259590Y-102583293D01*
X170382860Y-102286426D01*
X170383059Y-102058117D01*
X170410020Y-102058140D01*
X170586994Y-101985016D01*
X172441860Y-101985016D01*
X172564611Y-102282097D01*
X172791707Y-102509590D01*
X173088574Y-102632860D01*
X173410016Y-102633140D01*
X173707097Y-102510389D01*
X173857732Y-102360016D01*
X175191860Y-102360016D01*
X175314611Y-102657097D01*
X175541707Y-102884590D01*
X175838574Y-103007860D01*
X176160016Y-103008140D01*
X176457097Y-102885389D01*
X176684590Y-102658293D01*
X176735779Y-102535016D01*
X177966860Y-102535016D01*
X178089611Y-102832097D01*
X178316707Y-103059590D01*
X178613574Y-103182860D01*
X178935016Y-103183140D01*
X179232097Y-103060389D01*
X179459590Y-102833293D01*
X179582860Y-102536426D01*
X179583140Y-102214984D01*
X179508779Y-102035016D01*
X185816860Y-102035016D01*
X185939611Y-102332097D01*
X186166707Y-102559590D01*
X186463574Y-102682860D01*
X186785016Y-102683140D01*
X187082097Y-102560389D01*
X187309590Y-102333293D01*
X187432860Y-102036426D01*
X187433140Y-101714984D01*
X187310389Y-101417903D01*
X187083293Y-101190410D01*
X186786426Y-101067140D01*
X186464984Y-101066860D01*
X186167903Y-101189611D01*
X185940410Y-101416707D01*
X185817140Y-101713574D01*
X185816860Y-102035016D01*
X179508779Y-102035016D01*
X179460389Y-101917903D01*
X179233293Y-101690410D01*
X178936426Y-101567140D01*
X178614984Y-101566860D01*
X178317903Y-101689611D01*
X178090410Y-101916707D01*
X177967140Y-102213574D01*
X177966860Y-102535016D01*
X176735779Y-102535016D01*
X176807860Y-102361426D01*
X176808140Y-102039984D01*
X176685389Y-101742903D01*
X176458293Y-101515410D01*
X176161426Y-101392140D01*
X175839984Y-101391860D01*
X175542903Y-101514611D01*
X175315410Y-101741707D01*
X175192140Y-102038574D01*
X175191860Y-102360016D01*
X173857732Y-102360016D01*
X173934590Y-102283293D01*
X174057860Y-101986426D01*
X174058140Y-101664984D01*
X173935389Y-101367903D01*
X173708293Y-101140410D01*
X173411426Y-101017140D01*
X173089984Y-101016860D01*
X172792903Y-101139611D01*
X172565410Y-101366707D01*
X172442140Y-101663574D01*
X172441860Y-101985016D01*
X170586994Y-101985016D01*
X170707101Y-101935389D01*
X170934594Y-101708293D01*
X171057864Y-101411426D01*
X171058144Y-101089984D01*
X170935393Y-100792903D01*
X170708297Y-100565410D01*
X170411430Y-100442140D01*
X170089988Y-100441860D01*
X169792907Y-100564611D01*
X169565414Y-100791707D01*
X169442144Y-101088574D01*
X169441945Y-101316883D01*
X169414984Y-101316860D01*
X169117903Y-101439611D01*
X168890410Y-101666707D01*
X168767140Y-101963574D01*
X168766860Y-102285016D01*
X167633078Y-102285016D01*
X167633140Y-102214984D01*
X167510389Y-101917903D01*
X167283293Y-101690410D01*
X166986426Y-101567140D01*
X166664984Y-101566860D01*
X166367903Y-101689611D01*
X166140410Y-101916707D01*
X166017140Y-102213574D01*
X166016860Y-102535016D01*
X155583000Y-102535016D01*
X155583000Y-101760016D01*
X164116860Y-101760016D01*
X164239611Y-102057097D01*
X164466707Y-102284590D01*
X164763574Y-102407860D01*
X165085016Y-102408140D01*
X165382097Y-102285389D01*
X165609590Y-102058293D01*
X165732860Y-101761426D01*
X165733140Y-101439984D01*
X165610389Y-101142903D01*
X165383293Y-100915410D01*
X165086426Y-100792140D01*
X164764984Y-100791860D01*
X164467903Y-100914611D01*
X164240410Y-101141707D01*
X164117140Y-101438574D01*
X164116860Y-101760016D01*
X155583000Y-101760016D01*
X155583000Y-99348154D01*
X156241696Y-99348154D01*
X156508771Y-99994526D01*
X157002873Y-100489491D01*
X157648778Y-100757694D01*
X158348154Y-100758304D01*
X158707038Y-100610016D01*
X166591860Y-100610016D01*
X166714611Y-100907097D01*
X166941707Y-101134590D01*
X167238574Y-101257860D01*
X167560016Y-101258140D01*
X167857097Y-101135389D01*
X168084590Y-100908293D01*
X168207860Y-100611426D01*
X168208140Y-100289984D01*
X168085389Y-99992903D01*
X167858293Y-99765410D01*
X167561426Y-99642140D01*
X167239984Y-99641860D01*
X166942903Y-99764611D01*
X166715410Y-99991707D01*
X166592140Y-100288574D01*
X166591860Y-100610016D01*
X158707038Y-100610016D01*
X158994526Y-100491229D01*
X159489491Y-99997127D01*
X159757694Y-99351222D01*
X159758304Y-98651846D01*
X159699702Y-98510016D01*
X170366860Y-98510016D01*
X170489611Y-98807097D01*
X170716707Y-99034590D01*
X171013574Y-99157860D01*
X171335016Y-99158140D01*
X171632097Y-99035389D01*
X171859590Y-98808293D01*
X171861681Y-98803257D01*
X172113574Y-98907852D01*
X172435016Y-98908132D01*
X172732097Y-98785381D01*
X172959590Y-98558285D01*
X173082860Y-98261418D01*
X173083140Y-97939976D01*
X172967464Y-97660016D01*
X175441864Y-97660016D01*
X175564615Y-97957097D01*
X175791711Y-98184590D01*
X176088578Y-98307860D01*
X176410020Y-98308140D01*
X176707101Y-98185389D01*
X176780811Y-98111808D01*
X176916507Y-98084816D01*
X176994055Y-98033000D01*
X178021363Y-98033000D01*
X177967140Y-98163584D01*
X177966860Y-98485026D01*
X178089611Y-98782107D01*
X178316707Y-99009600D01*
X178613574Y-99132870D01*
X178935016Y-99133150D01*
X179232097Y-99010399D01*
X179459590Y-98783303D01*
X179582860Y-98486436D01*
X179583140Y-98164994D01*
X179528601Y-98033000D01*
X189137802Y-98033000D01*
X189541922Y-98437120D01*
X189541859Y-98510015D01*
X189664610Y-98807096D01*
X189891706Y-99034589D01*
X190188573Y-99157859D01*
X190510015Y-99158139D01*
X190807096Y-99035388D01*
X191034589Y-98808292D01*
X191157859Y-98511425D01*
X191158139Y-98189983D01*
X191035388Y-97892902D01*
X190880184Y-97737427D01*
X191034588Y-97583293D01*
X191157858Y-97286426D01*
X191158138Y-96964984D01*
X191035387Y-96667903D01*
X190808291Y-96440410D01*
X190511424Y-96317140D01*
X190394843Y-96317038D01*
X190317237Y-96265184D01*
X190074998Y-96216999D01*
X190074993Y-96217000D01*
X184957986Y-96217000D01*
X184958140Y-96039984D01*
X184835389Y-95742903D01*
X184608293Y-95515410D01*
X184311426Y-95392140D01*
X183989984Y-95391860D01*
X183692903Y-95514611D01*
X183465410Y-95741707D01*
X183342140Y-96038574D01*
X183341985Y-96217000D01*
X176966013Y-96217000D01*
X176935397Y-96142903D01*
X176708301Y-95915410D01*
X176411434Y-95792140D01*
X176089992Y-95791860D01*
X175792911Y-95914611D01*
X175565418Y-96141707D01*
X175442148Y-96438574D01*
X175441868Y-96760016D01*
X175561828Y-97050343D01*
X175442144Y-97338574D01*
X175441864Y-97660016D01*
X172967464Y-97660016D01*
X172960389Y-97642895D01*
X172733293Y-97415402D01*
X172436426Y-97292132D01*
X172114984Y-97291852D01*
X171817903Y-97414603D01*
X171590410Y-97641699D01*
X171588319Y-97646735D01*
X171336426Y-97542140D01*
X171014984Y-97541860D01*
X170717903Y-97664611D01*
X170490410Y-97891707D01*
X170367140Y-98188574D01*
X170366860Y-98510016D01*
X159699702Y-98510016D01*
X159491229Y-98005474D01*
X159296112Y-97810016D01*
X161891860Y-97810016D01*
X162014611Y-98107097D01*
X162241707Y-98334590D01*
X162538574Y-98457860D01*
X162860016Y-98458140D01*
X163157097Y-98335389D01*
X163384590Y-98108293D01*
X163507860Y-97811426D01*
X163508140Y-97489984D01*
X163385389Y-97192903D01*
X163158293Y-96965410D01*
X162861426Y-96842140D01*
X162539984Y-96841860D01*
X162242903Y-96964611D01*
X162015410Y-97191707D01*
X161892140Y-97488574D01*
X161891860Y-97810016D01*
X159296112Y-97810016D01*
X158997127Y-97510509D01*
X158351222Y-97242306D01*
X157651846Y-97241696D01*
X157005474Y-97508771D01*
X156510509Y-98002873D01*
X156242306Y-98648778D01*
X156241696Y-99348154D01*
X155583000Y-99348154D01*
X155583000Y-95360016D01*
X182041860Y-95360016D01*
X182164611Y-95657097D01*
X182391707Y-95884590D01*
X182688574Y-96007860D01*
X183010016Y-96008140D01*
X183307097Y-95885389D01*
X183534590Y-95658293D01*
X183657860Y-95361426D01*
X183658140Y-95039984D01*
X183535389Y-94742903D01*
X183308293Y-94515410D01*
X183011426Y-94392140D01*
X182689984Y-94391860D01*
X182392903Y-94514611D01*
X182165410Y-94741707D01*
X182042140Y-95038574D01*
X182041860Y-95360016D01*
X155583000Y-95360016D01*
X155583000Y-94635016D01*
X166541864Y-94635016D01*
X166664615Y-94932097D01*
X166891711Y-95159590D01*
X167188578Y-95282860D01*
X167510020Y-95283140D01*
X167807101Y-95160389D01*
X168034594Y-94933293D01*
X168157864Y-94636426D01*
X168158144Y-94314984D01*
X168062957Y-94084614D01*
X168182097Y-94035387D01*
X168257599Y-93960016D01*
X175291860Y-93960016D01*
X175414611Y-94257097D01*
X175641707Y-94484590D01*
X175938574Y-94607860D01*
X176260016Y-94608140D01*
X176557097Y-94485389D01*
X176782863Y-94260016D01*
X184441860Y-94260016D01*
X184564611Y-94557097D01*
X184791707Y-94784590D01*
X185088574Y-94907860D01*
X185410016Y-94908140D01*
X185707097Y-94785389D01*
X185934590Y-94558293D01*
X186057860Y-94261426D01*
X186058140Y-93939984D01*
X185935389Y-93642903D01*
X185708293Y-93415410D01*
X185411426Y-93292140D01*
X185089984Y-93291860D01*
X184792903Y-93414611D01*
X184565410Y-93641707D01*
X184442140Y-93938574D01*
X184441860Y-94260016D01*
X176782863Y-94260016D01*
X176784590Y-94258293D01*
X176907860Y-93961426D01*
X176908140Y-93639984D01*
X176785389Y-93342903D01*
X176558293Y-93115410D01*
X176261426Y-92992140D01*
X175939984Y-92991860D01*
X175642903Y-93114611D01*
X175415410Y-93341707D01*
X175292140Y-93638574D01*
X175291860Y-93960016D01*
X168257599Y-93960016D01*
X168409590Y-93808291D01*
X168532860Y-93511424D01*
X168533140Y-93189982D01*
X168410389Y-92892901D01*
X168183293Y-92665408D01*
X167886426Y-92542138D01*
X167564984Y-92541858D01*
X167267903Y-92664609D01*
X167040410Y-92891705D01*
X166917140Y-93188572D01*
X166916860Y-93510014D01*
X167012047Y-93740384D01*
X166892907Y-93789611D01*
X166665414Y-94016707D01*
X166542144Y-94313574D01*
X166541864Y-94635016D01*
X155583000Y-94635016D01*
X155583000Y-91860016D01*
X181841860Y-91860016D01*
X181964611Y-92157097D01*
X182191707Y-92384590D01*
X182488574Y-92507860D01*
X182810016Y-92508140D01*
X183107097Y-92385389D01*
X183334590Y-92158293D01*
X183457860Y-91861426D01*
X183458140Y-91539984D01*
X183335389Y-91242903D01*
X183108293Y-91015410D01*
X182811426Y-90892140D01*
X182489984Y-90891860D01*
X182192903Y-91014611D01*
X181965410Y-91241707D01*
X181842140Y-91538574D01*
X181841860Y-91860016D01*
X155583000Y-91860016D01*
X155583000Y-90557420D01*
X155625294Y-90344792D01*
X155713213Y-90213212D01*
X155844792Y-90125294D01*
X156057420Y-90083000D01*
X192942580Y-90083000D01*
X193155208Y-90125294D01*
X193155208Y-90125294D01*
G37*
X193155208Y-90125294D02*
X193286788Y-90213213D01*
X193374706Y-90344792D01*
X193417000Y-90557420D01*
X193417000Y-105442580D01*
X193374706Y-105655208D01*
X193286788Y-105786787D01*
X193155208Y-105874706D01*
X192942580Y-105917000D01*
X156057420Y-105917000D01*
X155844792Y-105874706D01*
X155713213Y-105786788D01*
X155625294Y-105655208D01*
X155583000Y-105442580D01*
X155583000Y-104810016D01*
X159416860Y-104810016D01*
X159539611Y-105107097D01*
X159766707Y-105334590D01*
X160063574Y-105457860D01*
X160385016Y-105458140D01*
X160682097Y-105335389D01*
X160909590Y-105108293D01*
X161032860Y-104811426D01*
X161033140Y-104489984D01*
X160910389Y-104192903D01*
X160683293Y-103965410D01*
X160400910Y-103848154D01*
X189241696Y-103848154D01*
X189508771Y-104494526D01*
X190002873Y-104989491D01*
X190648778Y-105257694D01*
X191348154Y-105258304D01*
X191994526Y-104991229D01*
X192489491Y-104497127D01*
X192757694Y-103851222D01*
X192758304Y-103151846D01*
X192491229Y-102505474D01*
X191997127Y-102010509D01*
X191351222Y-101742306D01*
X190651846Y-101741696D01*
X190005474Y-102008771D01*
X189510509Y-102502873D01*
X189242306Y-103148778D01*
X189241696Y-103848154D01*
X160400910Y-103848154D01*
X160386426Y-103842140D01*
X160064984Y-103841860D01*
X159767903Y-103964611D01*
X159540410Y-104191707D01*
X159417140Y-104488574D01*
X159416860Y-104810016D01*
X155583000Y-104810016D01*
X155583000Y-102535016D01*
X166016860Y-102535016D01*
X166139611Y-102832097D01*
X166366707Y-103059590D01*
X166663574Y-103182860D01*
X166985016Y-103183140D01*
X167282097Y-103060389D01*
X167509590Y-102833293D01*
X167632860Y-102536426D01*
X167633078Y-102285016D01*
X168766860Y-102285016D01*
X168889611Y-102582097D01*
X169116707Y-102809590D01*
X169413574Y-102932860D01*
X169735016Y-102933140D01*
X170032097Y-102810389D01*
X170259590Y-102583293D01*
X170382860Y-102286426D01*
X170383059Y-102058117D01*
X170410020Y-102058140D01*
X170586994Y-101985016D01*
X172441860Y-101985016D01*
X172564611Y-102282097D01*
X172791707Y-102509590D01*
X173088574Y-102632860D01*
X173410016Y-102633140D01*
X173707097Y-102510389D01*
X173857732Y-102360016D01*
X175191860Y-102360016D01*
X175314611Y-102657097D01*
X175541707Y-102884590D01*
X175838574Y-103007860D01*
X176160016Y-103008140D01*
X176457097Y-102885389D01*
X176684590Y-102658293D01*
X176735779Y-102535016D01*
X177966860Y-102535016D01*
X178089611Y-102832097D01*
X178316707Y-103059590D01*
X178613574Y-103182860D01*
X178935016Y-103183140D01*
X179232097Y-103060389D01*
X179459590Y-102833293D01*
X179582860Y-102536426D01*
X179583140Y-102214984D01*
X179508779Y-102035016D01*
X185816860Y-102035016D01*
X185939611Y-102332097D01*
X186166707Y-102559590D01*
X186463574Y-102682860D01*
X186785016Y-102683140D01*
X187082097Y-102560389D01*
X187309590Y-102333293D01*
X187432860Y-102036426D01*
X187433140Y-101714984D01*
X187310389Y-101417903D01*
X187083293Y-101190410D01*
X186786426Y-101067140D01*
X186464984Y-101066860D01*
X186167903Y-101189611D01*
X185940410Y-101416707D01*
X185817140Y-101713574D01*
X185816860Y-102035016D01*
X179508779Y-102035016D01*
X179460389Y-101917903D01*
X179233293Y-101690410D01*
X178936426Y-101567140D01*
X178614984Y-101566860D01*
X178317903Y-101689611D01*
X178090410Y-101916707D01*
X177967140Y-102213574D01*
X177966860Y-102535016D01*
X176735779Y-102535016D01*
X176807860Y-102361426D01*
X176808140Y-102039984D01*
X176685389Y-101742903D01*
X176458293Y-101515410D01*
X176161426Y-101392140D01*
X175839984Y-101391860D01*
X175542903Y-101514611D01*
X175315410Y-101741707D01*
X175192140Y-102038574D01*
X175191860Y-102360016D01*
X173857732Y-102360016D01*
X173934590Y-102283293D01*
X174057860Y-101986426D01*
X174058140Y-101664984D01*
X173935389Y-101367903D01*
X173708293Y-101140410D01*
X173411426Y-101017140D01*
X173089984Y-101016860D01*
X172792903Y-101139611D01*
X172565410Y-101366707D01*
X172442140Y-101663574D01*
X172441860Y-101985016D01*
X170586994Y-101985016D01*
X170707101Y-101935389D01*
X170934594Y-101708293D01*
X171057864Y-101411426D01*
X171058144Y-101089984D01*
X170935393Y-100792903D01*
X170708297Y-100565410D01*
X170411430Y-100442140D01*
X170089988Y-100441860D01*
X169792907Y-100564611D01*
X169565414Y-100791707D01*
X169442144Y-101088574D01*
X169441945Y-101316883D01*
X169414984Y-101316860D01*
X169117903Y-101439611D01*
X168890410Y-101666707D01*
X168767140Y-101963574D01*
X168766860Y-102285016D01*
X167633078Y-102285016D01*
X167633140Y-102214984D01*
X167510389Y-101917903D01*
X167283293Y-101690410D01*
X166986426Y-101567140D01*
X166664984Y-101566860D01*
X166367903Y-101689611D01*
X166140410Y-101916707D01*
X166017140Y-102213574D01*
X166016860Y-102535016D01*
X155583000Y-102535016D01*
X155583000Y-101760016D01*
X164116860Y-101760016D01*
X164239611Y-102057097D01*
X164466707Y-102284590D01*
X164763574Y-102407860D01*
X165085016Y-102408140D01*
X165382097Y-102285389D01*
X165609590Y-102058293D01*
X165732860Y-101761426D01*
X165733140Y-101439984D01*
X165610389Y-101142903D01*
X165383293Y-100915410D01*
X165086426Y-100792140D01*
X164764984Y-100791860D01*
X164467903Y-100914611D01*
X164240410Y-101141707D01*
X164117140Y-101438574D01*
X164116860Y-101760016D01*
X155583000Y-101760016D01*
X155583000Y-99348154D01*
X156241696Y-99348154D01*
X156508771Y-99994526D01*
X157002873Y-100489491D01*
X157648778Y-100757694D01*
X158348154Y-100758304D01*
X158707038Y-100610016D01*
X166591860Y-100610016D01*
X166714611Y-100907097D01*
X166941707Y-101134590D01*
X167238574Y-101257860D01*
X167560016Y-101258140D01*
X167857097Y-101135389D01*
X168084590Y-100908293D01*
X168207860Y-100611426D01*
X168208140Y-100289984D01*
X168085389Y-99992903D01*
X167858293Y-99765410D01*
X167561426Y-99642140D01*
X167239984Y-99641860D01*
X166942903Y-99764611D01*
X166715410Y-99991707D01*
X166592140Y-100288574D01*
X166591860Y-100610016D01*
X158707038Y-100610016D01*
X158994526Y-100491229D01*
X159489491Y-99997127D01*
X159757694Y-99351222D01*
X159758304Y-98651846D01*
X159699702Y-98510016D01*
X170366860Y-98510016D01*
X170489611Y-98807097D01*
X170716707Y-99034590D01*
X171013574Y-99157860D01*
X171335016Y-99158140D01*
X171632097Y-99035389D01*
X171859590Y-98808293D01*
X171861681Y-98803257D01*
X172113574Y-98907852D01*
X172435016Y-98908132D01*
X172732097Y-98785381D01*
X172959590Y-98558285D01*
X173082860Y-98261418D01*
X173083140Y-97939976D01*
X172967464Y-97660016D01*
X175441864Y-97660016D01*
X175564615Y-97957097D01*
X175791711Y-98184590D01*
X176088578Y-98307860D01*
X176410020Y-98308140D01*
X176707101Y-98185389D01*
X176780811Y-98111808D01*
X176916507Y-98084816D01*
X176994055Y-98033000D01*
X178021363Y-98033000D01*
X177967140Y-98163584D01*
X177966860Y-98485026D01*
X178089611Y-98782107D01*
X178316707Y-99009600D01*
X178613574Y-99132870D01*
X178935016Y-99133150D01*
X179232097Y-99010399D01*
X179459590Y-98783303D01*
X179582860Y-98486436D01*
X179583140Y-98164994D01*
X179528601Y-98033000D01*
X189137802Y-98033000D01*
X189541922Y-98437120D01*
X189541859Y-98510015D01*
X189664610Y-98807096D01*
X189891706Y-99034589D01*
X190188573Y-99157859D01*
X190510015Y-99158139D01*
X190807096Y-99035388D01*
X191034589Y-98808292D01*
X191157859Y-98511425D01*
X191158139Y-98189983D01*
X191035388Y-97892902D01*
X190880184Y-97737427D01*
X191034588Y-97583293D01*
X191157858Y-97286426D01*
X191158138Y-96964984D01*
X191035387Y-96667903D01*
X190808291Y-96440410D01*
X190511424Y-96317140D01*
X190394843Y-96317038D01*
X190317237Y-96265184D01*
X190074998Y-96216999D01*
X190074993Y-96217000D01*
X184957986Y-96217000D01*
X184958140Y-96039984D01*
X184835389Y-95742903D01*
X184608293Y-95515410D01*
X184311426Y-95392140D01*
X183989984Y-95391860D01*
X183692903Y-95514611D01*
X183465410Y-95741707D01*
X183342140Y-96038574D01*
X183341985Y-96217000D01*
X176966013Y-96217000D01*
X176935397Y-96142903D01*
X176708301Y-95915410D01*
X176411434Y-95792140D01*
X176089992Y-95791860D01*
X175792911Y-95914611D01*
X175565418Y-96141707D01*
X175442148Y-96438574D01*
X175441868Y-96760016D01*
X175561828Y-97050343D01*
X175442144Y-97338574D01*
X175441864Y-97660016D01*
X172967464Y-97660016D01*
X172960389Y-97642895D01*
X172733293Y-97415402D01*
X172436426Y-97292132D01*
X172114984Y-97291852D01*
X171817903Y-97414603D01*
X171590410Y-97641699D01*
X171588319Y-97646735D01*
X171336426Y-97542140D01*
X171014984Y-97541860D01*
X170717903Y-97664611D01*
X170490410Y-97891707D01*
X170367140Y-98188574D01*
X170366860Y-98510016D01*
X159699702Y-98510016D01*
X159491229Y-98005474D01*
X159296112Y-97810016D01*
X161891860Y-97810016D01*
X162014611Y-98107097D01*
X162241707Y-98334590D01*
X162538574Y-98457860D01*
X162860016Y-98458140D01*
X163157097Y-98335389D01*
X163384590Y-98108293D01*
X163507860Y-97811426D01*
X163508140Y-97489984D01*
X163385389Y-97192903D01*
X163158293Y-96965410D01*
X162861426Y-96842140D01*
X162539984Y-96841860D01*
X162242903Y-96964611D01*
X162015410Y-97191707D01*
X161892140Y-97488574D01*
X161891860Y-97810016D01*
X159296112Y-97810016D01*
X158997127Y-97510509D01*
X158351222Y-97242306D01*
X157651846Y-97241696D01*
X157005474Y-97508771D01*
X156510509Y-98002873D01*
X156242306Y-98648778D01*
X156241696Y-99348154D01*
X155583000Y-99348154D01*
X155583000Y-95360016D01*
X182041860Y-95360016D01*
X182164611Y-95657097D01*
X182391707Y-95884590D01*
X182688574Y-96007860D01*
X183010016Y-96008140D01*
X183307097Y-95885389D01*
X183534590Y-95658293D01*
X183657860Y-95361426D01*
X183658140Y-95039984D01*
X183535389Y-94742903D01*
X183308293Y-94515410D01*
X183011426Y-94392140D01*
X182689984Y-94391860D01*
X182392903Y-94514611D01*
X182165410Y-94741707D01*
X182042140Y-95038574D01*
X182041860Y-95360016D01*
X155583000Y-95360016D01*
X155583000Y-94635016D01*
X166541864Y-94635016D01*
X166664615Y-94932097D01*
X166891711Y-95159590D01*
X167188578Y-95282860D01*
X167510020Y-95283140D01*
X167807101Y-95160389D01*
X168034594Y-94933293D01*
X168157864Y-94636426D01*
X168158144Y-94314984D01*
X168062957Y-94084614D01*
X168182097Y-94035387D01*
X168257599Y-93960016D01*
X175291860Y-93960016D01*
X175414611Y-94257097D01*
X175641707Y-94484590D01*
X175938574Y-94607860D01*
X176260016Y-94608140D01*
X176557097Y-94485389D01*
X176782863Y-94260016D01*
X184441860Y-94260016D01*
X184564611Y-94557097D01*
X184791707Y-94784590D01*
X185088574Y-94907860D01*
X185410016Y-94908140D01*
X185707097Y-94785389D01*
X185934590Y-94558293D01*
X186057860Y-94261426D01*
X186058140Y-93939984D01*
X185935389Y-93642903D01*
X185708293Y-93415410D01*
X185411426Y-93292140D01*
X185089984Y-93291860D01*
X184792903Y-93414611D01*
X184565410Y-93641707D01*
X184442140Y-93938574D01*
X184441860Y-94260016D01*
X176782863Y-94260016D01*
X176784590Y-94258293D01*
X176907860Y-93961426D01*
X176908140Y-93639984D01*
X176785389Y-93342903D01*
X176558293Y-93115410D01*
X176261426Y-92992140D01*
X175939984Y-92991860D01*
X175642903Y-93114611D01*
X175415410Y-93341707D01*
X175292140Y-93638574D01*
X175291860Y-93960016D01*
X168257599Y-93960016D01*
X168409590Y-93808291D01*
X168532860Y-93511424D01*
X168533140Y-93189982D01*
X168410389Y-92892901D01*
X168183293Y-92665408D01*
X167886426Y-92542138D01*
X167564984Y-92541858D01*
X167267903Y-92664609D01*
X167040410Y-92891705D01*
X166917140Y-93188572D01*
X166916860Y-93510014D01*
X167012047Y-93740384D01*
X166892907Y-93789611D01*
X166665414Y-94016707D01*
X166542144Y-94313574D01*
X166541864Y-94635016D01*
X155583000Y-94635016D01*
X155583000Y-91860016D01*
X181841860Y-91860016D01*
X181964611Y-92157097D01*
X182191707Y-92384590D01*
X182488574Y-92507860D01*
X182810016Y-92508140D01*
X183107097Y-92385389D01*
X183334590Y-92158293D01*
X183457860Y-91861426D01*
X183458140Y-91539984D01*
X183335389Y-91242903D01*
X183108293Y-91015410D01*
X182811426Y-90892140D01*
X182489984Y-90891860D01*
X182192903Y-91014611D01*
X181965410Y-91241707D01*
X181842140Y-91538574D01*
X181841860Y-91860016D01*
X155583000Y-91860016D01*
X155583000Y-90557420D01*
X155625294Y-90344792D01*
X155713213Y-90213212D01*
X155844792Y-90125294D01*
X156057420Y-90083000D01*
X192942580Y-90083000D01*
X193155208Y-90125294D01*
M02*
