G04 #@! TF.FileFunction,Legend,Bot*
%FSLAX46Y46*%
G04 Gerber Fmt 4.6, Leading zero omitted, Abs format (unit mm)*
G04 Created by KiCad (PCBNEW 4.0.2-stable) date 2016年10月18日 星期二 03:38:32*
%MOMM*%
G01*
G04 APERTURE LIST*
%ADD10C,0.100000*%
%ADD11C,0.150000*%
G04 APERTURE END LIST*
D10*
D11*
X181402181Y-98259534D02*
X181402181Y-97688105D01*
X181402181Y-97973819D02*
X180402181Y-97973819D01*
X180545038Y-97878581D01*
X180640276Y-97783343D01*
X180687895Y-97688105D01*
X180402181Y-98878581D02*
X180402181Y-98973820D01*
X180449800Y-99069058D01*
X180497419Y-99116677D01*
X180592657Y-99164296D01*
X180783133Y-99211915D01*
X181021229Y-99211915D01*
X181211705Y-99164296D01*
X181306943Y-99116677D01*
X181354562Y-99069058D01*
X181402181Y-98973820D01*
X181402181Y-98878581D01*
X181354562Y-98783343D01*
X181306943Y-98735724D01*
X181211705Y-98688105D01*
X181021229Y-98640486D01*
X180783133Y-98640486D01*
X180592657Y-98688105D01*
X180497419Y-98735724D01*
X180449800Y-98783343D01*
X180402181Y-98878581D01*
X180402181Y-100069058D02*
X180402181Y-99878581D01*
X180449800Y-99783343D01*
X180497419Y-99735724D01*
X180640276Y-99640486D01*
X180830752Y-99592867D01*
X181211705Y-99592867D01*
X181306943Y-99640486D01*
X181354562Y-99688105D01*
X181402181Y-99783343D01*
X181402181Y-99973820D01*
X181354562Y-100069058D01*
X181306943Y-100116677D01*
X181211705Y-100164296D01*
X180973610Y-100164296D01*
X180878371Y-100116677D01*
X180830752Y-100069058D01*
X180783133Y-99973820D01*
X180783133Y-99783343D01*
X180830752Y-99688105D01*
X180878371Y-99640486D01*
X180973610Y-99592867D01*
X182852381Y-98258334D02*
X182852381Y-97686905D01*
X182852381Y-97972619D02*
X181852381Y-97972619D01*
X181995238Y-97877381D01*
X182090476Y-97782143D01*
X182138095Y-97686905D01*
X181852381Y-98877381D02*
X181852381Y-98972620D01*
X181900000Y-99067858D01*
X181947619Y-99115477D01*
X182042857Y-99163096D01*
X182233333Y-99210715D01*
X182471429Y-99210715D01*
X182661905Y-99163096D01*
X182757143Y-99115477D01*
X182804762Y-99067858D01*
X182852381Y-98972620D01*
X182852381Y-98877381D01*
X182804762Y-98782143D01*
X182757143Y-98734524D01*
X182661905Y-98686905D01*
X182471429Y-98639286D01*
X182233333Y-98639286D01*
X182042857Y-98686905D01*
X181947619Y-98734524D01*
X181900000Y-98782143D01*
X181852381Y-98877381D01*
X182185714Y-100067858D02*
X182852381Y-100067858D01*
X181804762Y-99829762D02*
X182519048Y-99591667D01*
X182519048Y-100210715D01*
X174652381Y-98258334D02*
X174652381Y-97686905D01*
X174652381Y-97972619D02*
X173652381Y-97972619D01*
X173795238Y-97877381D01*
X173890476Y-97782143D01*
X173938095Y-97686905D01*
X173652381Y-98877381D02*
X173652381Y-98972620D01*
X173700000Y-99067858D01*
X173747619Y-99115477D01*
X173842857Y-99163096D01*
X174033333Y-99210715D01*
X174271429Y-99210715D01*
X174461905Y-99163096D01*
X174557143Y-99115477D01*
X174604762Y-99067858D01*
X174652381Y-98972620D01*
X174652381Y-98877381D01*
X174604762Y-98782143D01*
X174557143Y-98734524D01*
X174461905Y-98686905D01*
X174271429Y-98639286D01*
X174033333Y-98639286D01*
X173842857Y-98686905D01*
X173747619Y-98734524D01*
X173700000Y-98782143D01*
X173652381Y-98877381D01*
X173985714Y-100067858D02*
X174652381Y-100067858D01*
X173604762Y-99829762D02*
X174319048Y-99591667D01*
X174319048Y-100210715D01*
X176102381Y-98258334D02*
X176102381Y-97686905D01*
X176102381Y-97972619D02*
X175102381Y-97972619D01*
X175245238Y-97877381D01*
X175340476Y-97782143D01*
X175388095Y-97686905D01*
X175102381Y-98877381D02*
X175102381Y-98972620D01*
X175150000Y-99067858D01*
X175197619Y-99115477D01*
X175292857Y-99163096D01*
X175483333Y-99210715D01*
X175721429Y-99210715D01*
X175911905Y-99163096D01*
X176007143Y-99115477D01*
X176054762Y-99067858D01*
X176102381Y-98972620D01*
X176102381Y-98877381D01*
X176054762Y-98782143D01*
X176007143Y-98734524D01*
X175911905Y-98686905D01*
X175721429Y-98639286D01*
X175483333Y-98639286D01*
X175292857Y-98686905D01*
X175197619Y-98734524D01*
X175150000Y-98782143D01*
X175102381Y-98877381D01*
X175102381Y-100067858D02*
X175102381Y-99877381D01*
X175150000Y-99782143D01*
X175197619Y-99734524D01*
X175340476Y-99639286D01*
X175530952Y-99591667D01*
X175911905Y-99591667D01*
X176007143Y-99639286D01*
X176054762Y-99686905D01*
X176102381Y-99782143D01*
X176102381Y-99972620D01*
X176054762Y-100067858D01*
X176007143Y-100115477D01*
X175911905Y-100163096D01*
X175673810Y-100163096D01*
X175578571Y-100115477D01*
X175530952Y-100067858D01*
X175483333Y-99972620D01*
X175483333Y-99782143D01*
X175530952Y-99686905D01*
X175578571Y-99639286D01*
X175673810Y-99591667D01*
X171648381Y-91750534D02*
X171648381Y-91179105D01*
X171648381Y-91464819D02*
X170648381Y-91464819D01*
X170791238Y-91369581D01*
X170886476Y-91274343D01*
X170934095Y-91179105D01*
X170648381Y-92369581D02*
X170648381Y-92464820D01*
X170696000Y-92560058D01*
X170743619Y-92607677D01*
X170838857Y-92655296D01*
X171029333Y-92702915D01*
X171267429Y-92702915D01*
X171457905Y-92655296D01*
X171553143Y-92607677D01*
X171600762Y-92560058D01*
X171648381Y-92464820D01*
X171648381Y-92369581D01*
X171600762Y-92274343D01*
X171553143Y-92226724D01*
X171457905Y-92179105D01*
X171267429Y-92131486D01*
X171029333Y-92131486D01*
X170838857Y-92179105D01*
X170743619Y-92226724D01*
X170696000Y-92274343D01*
X170648381Y-92369581D01*
X170981714Y-93560058D02*
X171648381Y-93560058D01*
X170600762Y-93321962D02*
X171315048Y-93083867D01*
X171315048Y-93702915D01*
X158167857Y-91772619D02*
X158120238Y-91725000D01*
X158025000Y-91677381D01*
X157786904Y-91677381D01*
X157691666Y-91725000D01*
X157644047Y-91772619D01*
X157596428Y-91867857D01*
X157596428Y-91963095D01*
X157644047Y-92105952D01*
X158215476Y-92677381D01*
X157596428Y-92677381D01*
X156977381Y-91677381D02*
X156882142Y-91677381D01*
X156786904Y-91725000D01*
X156739285Y-91772619D01*
X156691666Y-91867857D01*
X156644047Y-92058333D01*
X156644047Y-92296429D01*
X156691666Y-92486905D01*
X156739285Y-92582143D01*
X156786904Y-92629762D01*
X156882142Y-92677381D01*
X156977381Y-92677381D01*
X157072619Y-92629762D01*
X157120238Y-92582143D01*
X157167857Y-92486905D01*
X157215476Y-92296429D01*
X157215476Y-92058333D01*
X157167857Y-91867857D01*
X157120238Y-91772619D01*
X157072619Y-91725000D01*
X156977381Y-91677381D01*
X156215476Y-92010714D02*
X156215476Y-93010714D01*
X156215476Y-92058333D02*
X156120238Y-92010714D01*
X155929761Y-92010714D01*
X155834523Y-92058333D01*
X155786904Y-92105952D01*
X155739285Y-92201190D01*
X155739285Y-92486905D01*
X155786904Y-92582143D01*
X155834523Y-92629762D01*
X155929761Y-92677381D01*
X156120238Y-92677381D01*
X156215476Y-92629762D01*
X154977380Y-92153571D02*
X155310714Y-92153571D01*
X155310714Y-92677381D02*
X155310714Y-91677381D01*
X154834523Y-91677381D01*
X158474457Y-97744019D02*
X158426838Y-97696400D01*
X158331600Y-97648781D01*
X158093504Y-97648781D01*
X157998266Y-97696400D01*
X157950647Y-97744019D01*
X157903028Y-97839257D01*
X157903028Y-97934495D01*
X157950647Y-98077352D01*
X158522076Y-98648781D01*
X157903028Y-98648781D01*
X157283981Y-97648781D02*
X157188742Y-97648781D01*
X157093504Y-97696400D01*
X157045885Y-97744019D01*
X156998266Y-97839257D01*
X156950647Y-98029733D01*
X156950647Y-98267829D01*
X156998266Y-98458305D01*
X157045885Y-98553543D01*
X157093504Y-98601162D01*
X157188742Y-98648781D01*
X157283981Y-98648781D01*
X157379219Y-98601162D01*
X157426838Y-98553543D01*
X157474457Y-98458305D01*
X157522076Y-98267829D01*
X157522076Y-98029733D01*
X157474457Y-97839257D01*
X157426838Y-97744019D01*
X157379219Y-97696400D01*
X157283981Y-97648781D01*
X156522076Y-97982114D02*
X156522076Y-98982114D01*
X156522076Y-98029733D02*
X156426838Y-97982114D01*
X156236361Y-97982114D01*
X156141123Y-98029733D01*
X156093504Y-98077352D01*
X156045885Y-98172590D01*
X156045885Y-98458305D01*
X156093504Y-98553543D01*
X156141123Y-98601162D01*
X156236361Y-98648781D01*
X156426838Y-98648781D01*
X156522076Y-98601162D01*
X155283980Y-98124971D02*
X155617314Y-98124971D01*
X155617314Y-98648781D02*
X155617314Y-97648781D01*
X155141123Y-97648781D01*
X161945581Y-96830534D02*
X161945581Y-96259105D01*
X161945581Y-96544819D02*
X160945581Y-96544819D01*
X161088438Y-96449581D01*
X161183676Y-96354343D01*
X161231295Y-96259105D01*
X160945581Y-97449581D02*
X160945581Y-97544820D01*
X160993200Y-97640058D01*
X161040819Y-97687677D01*
X161136057Y-97735296D01*
X161326533Y-97782915D01*
X161564629Y-97782915D01*
X161755105Y-97735296D01*
X161850343Y-97687677D01*
X161897962Y-97640058D01*
X161945581Y-97544820D01*
X161945581Y-97449581D01*
X161897962Y-97354343D01*
X161850343Y-97306724D01*
X161755105Y-97259105D01*
X161564629Y-97211486D01*
X161326533Y-97211486D01*
X161136057Y-97259105D01*
X161040819Y-97306724D01*
X160993200Y-97354343D01*
X160945581Y-97449581D01*
X161278914Y-98640058D02*
X161945581Y-98640058D01*
X160897962Y-98401962D02*
X161612248Y-98163867D01*
X161612248Y-98782915D01*
X162044581Y-89197172D02*
X162044581Y-88625743D01*
X162044581Y-88911457D02*
X161044581Y-88911457D01*
X161187438Y-88816219D01*
X161282676Y-88720981D01*
X161330295Y-88625743D01*
X161139819Y-89578124D02*
X161092200Y-89625743D01*
X161044581Y-89720981D01*
X161044581Y-89959077D01*
X161092200Y-90054315D01*
X161139819Y-90101934D01*
X161235057Y-90149553D01*
X161330295Y-90149553D01*
X161473152Y-90101934D01*
X162044581Y-89530505D01*
X162044581Y-90149553D01*
X161377914Y-90578124D02*
X162377914Y-90578124D01*
X161425533Y-90578124D02*
X161377914Y-90673362D01*
X161377914Y-90863839D01*
X161425533Y-90959077D01*
X161473152Y-91006696D01*
X161568390Y-91054315D01*
X161854105Y-91054315D01*
X161949343Y-91006696D01*
X161996962Y-90959077D01*
X162044581Y-90863839D01*
X162044581Y-90673362D01*
X161996962Y-90578124D01*
X161520771Y-91816220D02*
X161520771Y-91482886D01*
X162044581Y-91482886D02*
X161044581Y-91482886D01*
X161044581Y-91959077D01*
X159507181Y-96830534D02*
X159507181Y-96259105D01*
X159507181Y-96544819D02*
X158507181Y-96544819D01*
X158650038Y-96449581D01*
X158745276Y-96354343D01*
X158792895Y-96259105D01*
X158507181Y-97449581D02*
X158507181Y-97544820D01*
X158554800Y-97640058D01*
X158602419Y-97687677D01*
X158697657Y-97735296D01*
X158888133Y-97782915D01*
X159126229Y-97782915D01*
X159316705Y-97735296D01*
X159411943Y-97687677D01*
X159459562Y-97640058D01*
X159507181Y-97544820D01*
X159507181Y-97449581D01*
X159459562Y-97354343D01*
X159411943Y-97306724D01*
X159316705Y-97259105D01*
X159126229Y-97211486D01*
X158888133Y-97211486D01*
X158697657Y-97259105D01*
X158602419Y-97306724D01*
X158554800Y-97354343D01*
X158507181Y-97449581D01*
X158840514Y-98640058D02*
X159507181Y-98640058D01*
X158459562Y-98401962D02*
X159173848Y-98163867D01*
X159173848Y-98782915D01*
X164508666Y-90571581D02*
X165080095Y-90571581D01*
X164794381Y-90571581D02*
X164794381Y-89571581D01*
X164889619Y-89714438D01*
X164984857Y-89809676D01*
X165080095Y-89857295D01*
X163889619Y-89571581D02*
X163794380Y-89571581D01*
X163699142Y-89619200D01*
X163651523Y-89666819D01*
X163603904Y-89762057D01*
X163556285Y-89952533D01*
X163556285Y-90190629D01*
X163603904Y-90381105D01*
X163651523Y-90476343D01*
X163699142Y-90523962D01*
X163794380Y-90571581D01*
X163889619Y-90571581D01*
X163984857Y-90523962D01*
X164032476Y-90476343D01*
X164080095Y-90381105D01*
X164127714Y-90190629D01*
X164127714Y-89952533D01*
X164080095Y-89762057D01*
X164032476Y-89666819D01*
X163984857Y-89619200D01*
X163889619Y-89571581D01*
X162699142Y-89904914D02*
X162699142Y-90571581D01*
X162937238Y-89523962D02*
X163175333Y-90238248D01*
X162556285Y-90238248D01*
X160578181Y-89203572D02*
X160578181Y-88632143D01*
X160578181Y-88917857D02*
X159578181Y-88917857D01*
X159721038Y-88822619D01*
X159816276Y-88727381D01*
X159863895Y-88632143D01*
X159673419Y-89584524D02*
X159625800Y-89632143D01*
X159578181Y-89727381D01*
X159578181Y-89965477D01*
X159625800Y-90060715D01*
X159673419Y-90108334D01*
X159768657Y-90155953D01*
X159863895Y-90155953D01*
X160006752Y-90108334D01*
X160578181Y-89536905D01*
X160578181Y-90155953D01*
X159911514Y-90584524D02*
X160911514Y-90584524D01*
X159959133Y-90584524D02*
X159911514Y-90679762D01*
X159911514Y-90870239D01*
X159959133Y-90965477D01*
X160006752Y-91013096D01*
X160101990Y-91060715D01*
X160387705Y-91060715D01*
X160482943Y-91013096D01*
X160530562Y-90965477D01*
X160578181Y-90870239D01*
X160578181Y-90679762D01*
X160530562Y-90584524D01*
X160054371Y-91822620D02*
X160054371Y-91489286D01*
X160578181Y-91489286D02*
X159578181Y-91489286D01*
X159578181Y-91965477D01*
X172591666Y-100177381D02*
X173163095Y-100177381D01*
X172877381Y-100177381D02*
X172877381Y-99177381D01*
X172972619Y-99320238D01*
X173067857Y-99415476D01*
X173163095Y-99463095D01*
X171972619Y-99177381D02*
X171877380Y-99177381D01*
X171782142Y-99225000D01*
X171734523Y-99272619D01*
X171686904Y-99367857D01*
X171639285Y-99558333D01*
X171639285Y-99796429D01*
X171686904Y-99986905D01*
X171734523Y-100082143D01*
X171782142Y-100129762D01*
X171877380Y-100177381D01*
X171972619Y-100177381D01*
X172067857Y-100129762D01*
X172115476Y-100082143D01*
X172163095Y-99986905D01*
X172210714Y-99796429D01*
X172210714Y-99558333D01*
X172163095Y-99367857D01*
X172115476Y-99272619D01*
X172067857Y-99225000D01*
X171972619Y-99177381D01*
X170782142Y-99510714D02*
X170782142Y-100177381D01*
X171020238Y-99129762D02*
X171258333Y-99844048D01*
X170639285Y-99844048D01*
X157241666Y-91152381D02*
X157813095Y-91152381D01*
X157527381Y-91152381D02*
X157527381Y-90152381D01*
X157622619Y-90295238D01*
X157717857Y-90390476D01*
X157813095Y-90438095D01*
X156622619Y-90152381D02*
X156527380Y-90152381D01*
X156432142Y-90200000D01*
X156384523Y-90247619D01*
X156336904Y-90342857D01*
X156289285Y-90533333D01*
X156289285Y-90771429D01*
X156336904Y-90961905D01*
X156384523Y-91057143D01*
X156432142Y-91104762D01*
X156527380Y-91152381D01*
X156622619Y-91152381D01*
X156717857Y-91104762D01*
X156765476Y-91057143D01*
X156813095Y-90961905D01*
X156860714Y-90771429D01*
X156860714Y-90533333D01*
X156813095Y-90342857D01*
X156765476Y-90247619D01*
X156717857Y-90200000D01*
X156622619Y-90152381D01*
X155432142Y-90485714D02*
X155432142Y-91152381D01*
X155670238Y-90104762D02*
X155908333Y-90819048D01*
X155289285Y-90819048D01*
X148025856Y-95186639D02*
X148597285Y-95186639D01*
X148311571Y-95186639D02*
X148311571Y-94186639D01*
X148406809Y-94329496D01*
X148502047Y-94424734D01*
X148597285Y-94472353D01*
X147406809Y-94186639D02*
X147311570Y-94186639D01*
X147216332Y-94234258D01*
X147168713Y-94281877D01*
X147121094Y-94377115D01*
X147073475Y-94567591D01*
X147073475Y-94805687D01*
X147121094Y-94996163D01*
X147168713Y-95091401D01*
X147216332Y-95139020D01*
X147311570Y-95186639D01*
X147406809Y-95186639D01*
X147502047Y-95139020D01*
X147549666Y-95091401D01*
X147597285Y-94996163D01*
X147644904Y-94805687D01*
X147644904Y-94567591D01*
X147597285Y-94377115D01*
X147549666Y-94281877D01*
X147502047Y-94234258D01*
X147406809Y-94186639D01*
X146168713Y-94186639D02*
X146644904Y-94186639D01*
X146692523Y-94662829D01*
X146644904Y-94615210D01*
X146549666Y-94567591D01*
X146311570Y-94567591D01*
X146216332Y-94615210D01*
X146168713Y-94662829D01*
X146121094Y-94758068D01*
X146121094Y-94996163D01*
X146168713Y-95091401D01*
X146216332Y-95139020D01*
X146311570Y-95186639D01*
X146549666Y-95186639D01*
X146644904Y-95139020D01*
X146692523Y-95091401D01*
X148025856Y-96386639D02*
X148597285Y-96386639D01*
X148311571Y-96386639D02*
X148311571Y-95386639D01*
X148406809Y-95529496D01*
X148502047Y-95624734D01*
X148597285Y-95672353D01*
X147406809Y-95386639D02*
X147311570Y-95386639D01*
X147216332Y-95434258D01*
X147168713Y-95481877D01*
X147121094Y-95577115D01*
X147073475Y-95767591D01*
X147073475Y-96005687D01*
X147121094Y-96196163D01*
X147168713Y-96291401D01*
X147216332Y-96339020D01*
X147311570Y-96386639D01*
X147406809Y-96386639D01*
X147502047Y-96339020D01*
X147549666Y-96291401D01*
X147597285Y-96196163D01*
X147644904Y-96005687D01*
X147644904Y-95767591D01*
X147597285Y-95577115D01*
X147549666Y-95481877D01*
X147502047Y-95434258D01*
X147406809Y-95386639D01*
X146168713Y-95386639D02*
X146644904Y-95386639D01*
X146692523Y-95862829D01*
X146644904Y-95815210D01*
X146549666Y-95767591D01*
X146311570Y-95767591D01*
X146216332Y-95815210D01*
X146168713Y-95862829D01*
X146121094Y-95958068D01*
X146121094Y-96196163D01*
X146168713Y-96291401D01*
X146216332Y-96339020D01*
X146311570Y-96386639D01*
X146549666Y-96386639D01*
X146644904Y-96339020D01*
X146692523Y-96291401D01*
X182455666Y-95995781D02*
X183027095Y-95995781D01*
X182741381Y-95995781D02*
X182741381Y-94995781D01*
X182836619Y-95138638D01*
X182931857Y-95233876D01*
X183027095Y-95281495D01*
X181836619Y-94995781D02*
X181741380Y-94995781D01*
X181646142Y-95043400D01*
X181598523Y-95091019D01*
X181550904Y-95186257D01*
X181503285Y-95376733D01*
X181503285Y-95614829D01*
X181550904Y-95805305D01*
X181598523Y-95900543D01*
X181646142Y-95948162D01*
X181741380Y-95995781D01*
X181836619Y-95995781D01*
X181931857Y-95948162D01*
X181979476Y-95900543D01*
X182027095Y-95805305D01*
X182074714Y-95614829D01*
X182074714Y-95376733D01*
X182027095Y-95186257D01*
X181979476Y-95091019D01*
X181931857Y-95043400D01*
X181836619Y-94995781D01*
X180646142Y-95329114D02*
X180646142Y-95995781D01*
X180884238Y-94948162D02*
X181122333Y-95662448D01*
X180503285Y-95662448D01*
X173751019Y-89831362D02*
X173703400Y-89878981D01*
X173655781Y-89974219D01*
X173655781Y-90212315D01*
X173703400Y-90307553D01*
X173751019Y-90355172D01*
X173846257Y-90402791D01*
X173941495Y-90402791D01*
X174084352Y-90355172D01*
X174655781Y-89783743D01*
X174655781Y-90402791D01*
X173751019Y-90783743D02*
X173703400Y-90831362D01*
X173655781Y-90926600D01*
X173655781Y-91164696D01*
X173703400Y-91259934D01*
X173751019Y-91307553D01*
X173846257Y-91355172D01*
X173941495Y-91355172D01*
X174084352Y-91307553D01*
X174655781Y-90736124D01*
X174655781Y-91355172D01*
X173655781Y-91974219D02*
X173655781Y-92069458D01*
X173703400Y-92164696D01*
X173751019Y-92212315D01*
X173846257Y-92259934D01*
X174036733Y-92307553D01*
X174274829Y-92307553D01*
X174465305Y-92259934D01*
X174560543Y-92212315D01*
X174608162Y-92164696D01*
X174655781Y-92069458D01*
X174655781Y-91974219D01*
X174608162Y-91878981D01*
X174560543Y-91831362D01*
X174465305Y-91783743D01*
X174274829Y-91736124D01*
X174036733Y-91736124D01*
X173846257Y-91783743D01*
X173751019Y-91831362D01*
X173703400Y-91878981D01*
X173655781Y-91974219D01*
X173655781Y-92926600D02*
X173655781Y-93021839D01*
X173703400Y-93117077D01*
X173751019Y-93164696D01*
X173846257Y-93212315D01*
X174036733Y-93259934D01*
X174274829Y-93259934D01*
X174465305Y-93212315D01*
X174560543Y-93164696D01*
X174608162Y-93117077D01*
X174655781Y-93021839D01*
X174655781Y-92926600D01*
X174608162Y-92831362D01*
X174560543Y-92783743D01*
X174465305Y-92736124D01*
X174274829Y-92688505D01*
X174036733Y-92688505D01*
X173846257Y-92736124D01*
X173751019Y-92783743D01*
X173703400Y-92831362D01*
X173655781Y-92926600D01*
X173989114Y-93688505D02*
X174989114Y-93688505D01*
X174036733Y-93688505D02*
X173989114Y-93783743D01*
X173989114Y-93974220D01*
X174036733Y-94069458D01*
X174084352Y-94117077D01*
X174179590Y-94164696D01*
X174465305Y-94164696D01*
X174560543Y-94117077D01*
X174608162Y-94069458D01*
X174655781Y-93974220D01*
X174655781Y-93783743D01*
X174608162Y-93688505D01*
X174131971Y-94926601D02*
X174131971Y-94593267D01*
X174655781Y-94593267D02*
X173655781Y-94593267D01*
X173655781Y-95069458D01*
X182616666Y-93347381D02*
X183188095Y-93347381D01*
X182902381Y-93347381D02*
X182902381Y-92347381D01*
X182997619Y-92490238D01*
X183092857Y-92585476D01*
X183188095Y-92633095D01*
X181997619Y-92347381D02*
X181902380Y-92347381D01*
X181807142Y-92395000D01*
X181759523Y-92442619D01*
X181711904Y-92537857D01*
X181664285Y-92728333D01*
X181664285Y-92966429D01*
X181711904Y-93156905D01*
X181759523Y-93252143D01*
X181807142Y-93299762D01*
X181902380Y-93347381D01*
X181997619Y-93347381D01*
X182092857Y-93299762D01*
X182140476Y-93252143D01*
X182188095Y-93156905D01*
X182235714Y-92966429D01*
X182235714Y-92728333D01*
X182188095Y-92537857D01*
X182140476Y-92442619D01*
X182092857Y-92395000D01*
X181997619Y-92347381D01*
X180807142Y-92680714D02*
X180807142Y-93347381D01*
X181045238Y-92299762D02*
X181283333Y-93014048D01*
X180664285Y-93014048D01*
X170152381Y-99609524D02*
X170152381Y-99038095D01*
X170152381Y-99323809D02*
X169152381Y-99323809D01*
X169295238Y-99228571D01*
X169390476Y-99133333D01*
X169438095Y-99038095D01*
X169152381Y-100228571D02*
X169152381Y-100323810D01*
X169200000Y-100419048D01*
X169247619Y-100466667D01*
X169342857Y-100514286D01*
X169533333Y-100561905D01*
X169771429Y-100561905D01*
X169961905Y-100514286D01*
X170057143Y-100466667D01*
X170104762Y-100419048D01*
X170152381Y-100323810D01*
X170152381Y-100228571D01*
X170104762Y-100133333D01*
X170057143Y-100085714D01*
X169961905Y-100038095D01*
X169771429Y-99990476D01*
X169533333Y-99990476D01*
X169342857Y-100038095D01*
X169247619Y-100085714D01*
X169200000Y-100133333D01*
X169152381Y-100228571D01*
X170152381Y-100990476D02*
X169152381Y-100990476D01*
X170152381Y-101561905D02*
X169580952Y-101133333D01*
X169152381Y-101561905D02*
X169723810Y-100990476D01*
X167340476Y-90527381D02*
X167911905Y-90527381D01*
X167626191Y-90527381D02*
X167626191Y-89527381D01*
X167721429Y-89670238D01*
X167816667Y-89765476D01*
X167911905Y-89813095D01*
X166721429Y-89527381D02*
X166626190Y-89527381D01*
X166530952Y-89575000D01*
X166483333Y-89622619D01*
X166435714Y-89717857D01*
X166388095Y-89908333D01*
X166388095Y-90146429D01*
X166435714Y-90336905D01*
X166483333Y-90432143D01*
X166530952Y-90479762D01*
X166626190Y-90527381D01*
X166721429Y-90527381D01*
X166816667Y-90479762D01*
X166864286Y-90432143D01*
X166911905Y-90336905D01*
X166959524Y-90146429D01*
X166959524Y-89908333D01*
X166911905Y-89717857D01*
X166864286Y-89622619D01*
X166816667Y-89575000D01*
X166721429Y-89527381D01*
X165959524Y-90527381D02*
X165959524Y-89527381D01*
X165388095Y-90527381D02*
X165816667Y-89955952D01*
X165388095Y-89527381D02*
X165959524Y-90098810D01*
X159557981Y-94366686D02*
X159557981Y-93795257D01*
X159557981Y-94080971D02*
X158557981Y-94080971D01*
X158700838Y-93985733D01*
X158796076Y-93890495D01*
X158843695Y-93795257D01*
X159557981Y-94795257D02*
X158557981Y-94795257D01*
X159272267Y-95128591D01*
X158557981Y-95461924D01*
X159557981Y-95461924D01*
X160777181Y-96833524D02*
X160777181Y-96262095D01*
X160777181Y-96547809D02*
X159777181Y-96547809D01*
X159920038Y-96452571D01*
X160015276Y-96357333D01*
X160062895Y-96262095D01*
X159777181Y-97452571D02*
X159777181Y-97547810D01*
X159824800Y-97643048D01*
X159872419Y-97690667D01*
X159967657Y-97738286D01*
X160158133Y-97785905D01*
X160396229Y-97785905D01*
X160586705Y-97738286D01*
X160681943Y-97690667D01*
X160729562Y-97643048D01*
X160777181Y-97547810D01*
X160777181Y-97452571D01*
X160729562Y-97357333D01*
X160681943Y-97309714D01*
X160586705Y-97262095D01*
X160396229Y-97214476D01*
X160158133Y-97214476D01*
X159967657Y-97262095D01*
X159872419Y-97309714D01*
X159824800Y-97357333D01*
X159777181Y-97452571D01*
X160777181Y-98214476D02*
X159777181Y-98214476D01*
X160777181Y-98785905D02*
X160205752Y-98357333D01*
X159777181Y-98785905D02*
X160348610Y-98214476D01*
X147549978Y-92612492D02*
X147549978Y-92707731D01*
X147597597Y-92802969D01*
X147645216Y-92850588D01*
X147740454Y-92898207D01*
X147930930Y-92945826D01*
X148169026Y-92945826D01*
X148359502Y-92898207D01*
X148454740Y-92850588D01*
X148502359Y-92802969D01*
X148549978Y-92707731D01*
X148549978Y-92612492D01*
X148502359Y-92517254D01*
X148454740Y-92469635D01*
X148359502Y-92422016D01*
X148169026Y-92374397D01*
X147930930Y-92374397D01*
X147740454Y-92422016D01*
X147645216Y-92469635D01*
X147597597Y-92517254D01*
X147549978Y-92612492D01*
X171068114Y-96634991D02*
X171734781Y-96634991D01*
X170687162Y-96396895D02*
X171401448Y-96158800D01*
X171401448Y-96777848D01*
X171639543Y-97158800D02*
X171687162Y-97206419D01*
X171734781Y-97158800D01*
X171687162Y-97111181D01*
X171639543Y-97158800D01*
X171734781Y-97158800D01*
X170734781Y-97539752D02*
X170734781Y-98206419D01*
X171734781Y-97777847D01*
X171734781Y-98587371D02*
X170734781Y-98587371D01*
X171734781Y-99158800D02*
X171163352Y-98730228D01*
X170734781Y-99158800D02*
X171306210Y-98587371D01*
X172445314Y-91551191D02*
X173111981Y-91551191D01*
X172064362Y-91313095D02*
X172778648Y-91075000D01*
X172778648Y-91694048D01*
X173016743Y-92075000D02*
X173064362Y-92122619D01*
X173111981Y-92075000D01*
X173064362Y-92027381D01*
X173016743Y-92075000D01*
X173111981Y-92075000D01*
X172111981Y-92455952D02*
X172111981Y-93122619D01*
X173111981Y-92694047D01*
X173111981Y-93503571D02*
X172111981Y-93503571D01*
X173111981Y-94075000D02*
X172540552Y-93646428D01*
X172111981Y-94075000D02*
X172683410Y-93503571D01*
X146199978Y-92637492D02*
X146199978Y-92732731D01*
X146247597Y-92827969D01*
X146295216Y-92875588D01*
X146390454Y-92923207D01*
X146580930Y-92970826D01*
X146819026Y-92970826D01*
X147009502Y-92923207D01*
X147104740Y-92875588D01*
X147152359Y-92827969D01*
X147199978Y-92732731D01*
X147199978Y-92637492D01*
X147152359Y-92542254D01*
X147104740Y-92494635D01*
X147009502Y-92447016D01*
X146819026Y-92399397D01*
X146580930Y-92399397D01*
X146390454Y-92447016D01*
X146295216Y-92494635D01*
X146247597Y-92542254D01*
X146199978Y-92637492D01*
X182801609Y-94042114D02*
X182801609Y-94708781D01*
X183039705Y-93661162D02*
X183277800Y-94375448D01*
X182658752Y-94375448D01*
X182277800Y-94613543D02*
X182230181Y-94661162D01*
X182277800Y-94708781D01*
X182325419Y-94661162D01*
X182277800Y-94613543D01*
X182277800Y-94708781D01*
X181896848Y-93708781D02*
X181230181Y-93708781D01*
X181658753Y-94708781D01*
X180849229Y-94708781D02*
X180849229Y-93708781D01*
X180277800Y-94708781D02*
X180706372Y-94137352D01*
X180277800Y-93708781D02*
X180849229Y-94280210D01*
X156573752Y-93842362D02*
X156526133Y-93747124D01*
X156478514Y-93699505D01*
X156383276Y-93651886D01*
X156335657Y-93651886D01*
X156240419Y-93699505D01*
X156192800Y-93747124D01*
X156145181Y-93842362D01*
X156145181Y-94032839D01*
X156192800Y-94128077D01*
X156240419Y-94175696D01*
X156335657Y-94223315D01*
X156383276Y-94223315D01*
X156478514Y-94175696D01*
X156526133Y-94128077D01*
X156573752Y-94032839D01*
X156573752Y-93842362D01*
X156621371Y-93747124D01*
X156668990Y-93699505D01*
X156764229Y-93651886D01*
X156954705Y-93651886D01*
X157049943Y-93699505D01*
X157097562Y-93747124D01*
X157145181Y-93842362D01*
X157145181Y-94032839D01*
X157097562Y-94128077D01*
X157049943Y-94175696D01*
X156954705Y-94223315D01*
X156764229Y-94223315D01*
X156668990Y-94175696D01*
X156621371Y-94128077D01*
X156573752Y-94032839D01*
X157145181Y-94651886D02*
X156145181Y-94651886D01*
X156859467Y-94985220D01*
X156145181Y-95318553D01*
X157145181Y-95318553D01*
X157145181Y-95794743D02*
X156145181Y-95794743D01*
X156621371Y-95794743D02*
X156621371Y-96366172D01*
X157145181Y-96366172D02*
X156145181Y-96366172D01*
X156478514Y-96747124D02*
X156478514Y-97270934D01*
X157145181Y-96747124D01*
X157145181Y-97270934D01*
M02*
