G04 #@! TF.FileFunction,Copper,L2,Bot,Signal*
%FSLAX46Y46*%
G04 Gerber Fmt 4.6, Leading zero omitted, Abs format (unit mm)*
G04 Created by KiCad (PCBNEW 4.0.2-stable) date 2016年10月18日 星期二 03:38:32*
%MOMM*%
G01*
G04 APERTURE LIST*
%ADD10C,0.100000*%
%ADD11C,1.998980*%
%ADD12C,1.000760*%
%ADD13C,0.600000*%
%ADD14C,0.250000*%
%ADD15C,0.254000*%
G04 APERTURE END LIST*
D10*
D11*
X185000000Y-99000000D03*
X185000000Y-96000000D03*
D12*
X161575000Y-92525000D03*
X160076400Y-92525000D03*
D13*
X162850000Y-98500000D03*
X159050004Y-99325000D03*
X170900000Y-94275000D03*
X168650000Y-99525000D03*
X175225000Y-96100000D03*
X180975000Y-91525000D03*
X183475000Y-97775000D03*
X182550000Y-96675000D03*
X183425000Y-94275000D03*
X176375000Y-90675000D03*
X174200000Y-90675000D03*
X155100000Y-97825000D03*
X154400000Y-96725000D03*
X154400000Y-95950000D03*
X155200000Y-93025000D03*
X173250000Y-98175000D03*
X178300000Y-97625000D03*
X157300000Y-89725000D03*
X161575000Y-88500000D03*
X160075000Y-88500000D03*
X161675000Y-95825000D03*
X164600000Y-89225010D03*
X145600000Y-93425000D03*
X145600000Y-95925000D03*
X145600000Y-94750000D03*
X171200000Y-90400000D03*
X173425000Y-100650000D03*
X165875000Y-100975000D03*
X149225000Y-95934258D03*
X149225000Y-92850000D03*
X178725008Y-96900000D03*
X181050000Y-96725000D03*
X179900000Y-91749998D03*
X154550000Y-91300000D03*
X166625000Y-99800000D03*
X171950002Y-94650000D03*
X183400000Y-90725000D03*
X171963529Y-95474897D03*
X182855079Y-91418667D03*
X150303603Y-96560567D03*
X149667033Y-93815390D03*
X162010155Y-100400021D03*
X150855164Y-93244239D03*
X164296172Y-99319925D03*
X152269431Y-91715395D03*
X163253729Y-100400021D03*
X151644421Y-92482110D03*
X165125000Y-100275000D03*
X151644421Y-93374979D03*
D14*
X178725008Y-96900000D02*
X170900000Y-96900000D01*
X170900001Y-90699999D02*
X171200000Y-90400000D01*
X170900000Y-96900000D02*
X169050000Y-95050000D01*
X169050000Y-95050000D02*
X169050000Y-92550000D01*
X169050000Y-92550000D02*
X170900001Y-90699999D01*
X165875000Y-100975000D02*
X173100000Y-100975000D01*
X173100000Y-100975000D02*
X173425000Y-100650000D01*
X179900000Y-91749998D02*
X179900000Y-91750000D01*
X179900000Y-91750000D02*
X181050000Y-92900000D01*
X181050000Y-92900000D02*
X181050000Y-96725000D01*
X148925001Y-95634259D02*
X149225000Y-95934258D01*
X149225000Y-92850000D02*
X148925001Y-93149999D01*
X148925001Y-93149999D02*
X148925001Y-95634259D01*
X166625000Y-99800000D02*
X166625000Y-99700000D01*
X166625000Y-99700000D02*
X160275381Y-93350381D01*
X160275381Y-93350381D02*
X156600381Y-93350381D01*
X156600381Y-93350381D02*
X154550000Y-91300000D01*
X183400000Y-90725000D02*
X182825000Y-90150000D01*
X182825000Y-90150000D02*
X179100000Y-90150000D01*
X179100000Y-90150000D02*
X174600000Y-94650000D01*
X174600000Y-94650000D02*
X172374266Y-94650000D01*
X172374266Y-94650000D02*
X171950002Y-94650000D01*
X172387793Y-95474897D02*
X171963529Y-95474897D01*
X174886513Y-95474897D02*
X172387793Y-95474897D01*
X182855079Y-91418667D02*
X182311413Y-90875001D01*
X182311413Y-90875001D02*
X179486409Y-90875001D01*
X179486409Y-90875001D02*
X174886513Y-95474897D01*
X150003604Y-96260568D02*
X150303603Y-96560567D01*
X149967032Y-96223996D02*
X150003604Y-96260568D01*
X149967032Y-94115389D02*
X149967032Y-96223996D01*
X149667033Y-93815390D02*
X149967032Y-94115389D01*
X161485154Y-100925022D02*
X161710156Y-100700020D01*
X150855164Y-93532831D02*
X151725011Y-94402678D01*
X161710156Y-100700020D02*
X162010155Y-100400021D01*
X157286400Y-99924989D02*
X158286432Y-100925022D01*
X151725011Y-96622833D02*
X155027167Y-99924989D01*
X155027167Y-99924989D02*
X157286400Y-99924989D01*
X150855164Y-93244239D02*
X150855164Y-93532831D01*
X158286432Y-100925022D02*
X161485154Y-100925022D01*
X151725011Y-94402678D02*
X151725011Y-96622833D01*
X152625033Y-92070997D02*
X152625033Y-96250033D01*
X152625033Y-96250033D02*
X155399967Y-99024967D01*
X152269431Y-91715395D02*
X152625033Y-92070997D01*
X155399967Y-99024967D02*
X157659201Y-99024968D01*
X157659201Y-99024968D02*
X158659231Y-100025000D01*
X158659231Y-100025000D02*
X160750000Y-100025000D01*
X160750000Y-100025000D02*
X161450000Y-99325000D01*
X161450000Y-99325000D02*
X164291097Y-99325000D01*
X164291097Y-99325000D02*
X164296172Y-99319925D01*
X150230163Y-93544240D02*
X151275000Y-94589078D01*
X150230163Y-92944238D02*
X150230163Y-93544240D01*
X162953730Y-100700020D02*
X163253729Y-100400021D01*
X151275000Y-96809233D02*
X154840767Y-100375000D01*
X150692291Y-92482110D02*
X150230163Y-92944238D01*
X151275000Y-94589078D02*
X151275000Y-96809233D01*
X162278717Y-101375033D02*
X162953730Y-100700020D01*
X158100033Y-101375033D02*
X162278717Y-101375033D01*
X157100000Y-100375000D02*
X158100033Y-101375033D01*
X154840767Y-100375000D02*
X157100000Y-100375000D01*
X151644421Y-92482110D02*
X150692291Y-92482110D01*
X164357147Y-100275000D02*
X164700736Y-100275000D01*
X164700736Y-100275000D02*
X165125000Y-100275000D01*
X152175022Y-96436433D02*
X155213567Y-99474978D01*
X163857158Y-99775011D02*
X164357147Y-100275000D01*
X151644421Y-93374979D02*
X152175022Y-93905580D01*
X152175022Y-93905580D02*
X152175022Y-96436433D01*
X160936400Y-100475011D02*
X161636400Y-99775011D01*
X161636400Y-99775011D02*
X163857158Y-99775011D01*
X158472831Y-100475011D02*
X160936400Y-100475011D01*
X157472800Y-99474978D02*
X158472831Y-100475011D01*
X155213567Y-99474978D02*
X157472800Y-99474978D01*
D15*
G36*
X185655208Y-88125294D02*
X185786788Y-88213213D01*
X185874706Y-88344792D01*
X185917000Y-88557420D01*
X185917000Y-94697504D01*
X185873958Y-94581035D01*
X185264418Y-94354599D01*
X184614623Y-94378659D01*
X184126042Y-94581035D01*
X184027443Y-94847837D01*
X185000000Y-95820395D01*
X185014142Y-95806252D01*
X185193748Y-95985858D01*
X185179605Y-96000000D01*
X185193748Y-96014142D01*
X185014142Y-96193748D01*
X185000000Y-96179605D01*
X184027443Y-97152163D01*
X184126042Y-97418965D01*
X184522435Y-97566220D01*
X184147191Y-97721267D01*
X183722758Y-98144961D01*
X183492773Y-98698826D01*
X183492249Y-99298543D01*
X183721267Y-99852809D01*
X184144961Y-100277242D01*
X184698826Y-100507227D01*
X185298543Y-100507751D01*
X185852809Y-100278733D01*
X185917000Y-100214654D01*
X185917000Y-100942580D01*
X185874706Y-101155208D01*
X185786788Y-101286787D01*
X185655208Y-101374706D01*
X185442580Y-101417000D01*
X173684583Y-101417000D01*
X173882097Y-101335389D01*
X174109590Y-101108293D01*
X174232860Y-100811426D01*
X174233140Y-100489984D01*
X174110389Y-100192903D01*
X173883293Y-99965410D01*
X173586426Y-99842140D01*
X173264984Y-99841860D01*
X172967903Y-99964611D01*
X172740410Y-100191707D01*
X172678003Y-100342000D01*
X167225737Y-100342000D01*
X167309590Y-100258293D01*
X167432860Y-99961426D01*
X167433140Y-99639984D01*
X167310389Y-99342903D01*
X167083293Y-99115410D01*
X166830736Y-99010539D01*
X161339101Y-93518903D01*
X161373541Y-93533204D01*
X161774699Y-93533554D01*
X162145455Y-93380361D01*
X162429364Y-93096947D01*
X162583204Y-92726459D01*
X162583357Y-92550000D01*
X168416999Y-92550000D01*
X168417000Y-92550005D01*
X168417000Y-95049995D01*
X168416999Y-95050000D01*
X168465184Y-95292239D01*
X168602401Y-95497599D01*
X170452401Y-97347599D01*
X170657761Y-97484816D01*
X170900000Y-97533001D01*
X170900005Y-97533000D01*
X178215215Y-97533000D01*
X178266715Y-97584590D01*
X178563582Y-97707860D01*
X178885024Y-97708140D01*
X179182105Y-97585389D01*
X179409598Y-97358293D01*
X179532868Y-97061426D01*
X179533148Y-96739984D01*
X179410397Y-96442903D01*
X179183301Y-96215410D01*
X178886434Y-96092140D01*
X178564992Y-96091860D01*
X178267911Y-96214611D01*
X178215430Y-96267000D01*
X172162358Y-96267000D01*
X172420626Y-96160286D01*
X172473107Y-96107897D01*
X174886508Y-96107897D01*
X174886513Y-96107898D01*
X175128752Y-96059713D01*
X175334112Y-95922496D01*
X179166339Y-92090268D01*
X179214611Y-92207095D01*
X179441707Y-92434588D01*
X179738574Y-92557858D01*
X179812725Y-92557923D01*
X180417000Y-93162197D01*
X180417000Y-96215207D01*
X180365410Y-96266707D01*
X180242140Y-96563574D01*
X180241860Y-96885016D01*
X180364611Y-97182097D01*
X180591707Y-97409590D01*
X180888574Y-97532860D01*
X181210016Y-97533140D01*
X181507097Y-97410389D01*
X181734590Y-97183293D01*
X181857860Y-96886426D01*
X181858140Y-96564984D01*
X181735389Y-96267903D01*
X181683000Y-96215422D01*
X181683000Y-95735582D01*
X183354599Y-95735582D01*
X183378659Y-96385377D01*
X183581035Y-96873958D01*
X183847837Y-96972557D01*
X184820395Y-96000000D01*
X183847837Y-95027443D01*
X183581035Y-95126042D01*
X183354599Y-95735582D01*
X181683000Y-95735582D01*
X181683000Y-92900005D01*
X181683001Y-92900000D01*
X181641306Y-92690389D01*
X181634816Y-92657761D01*
X181497599Y-92452401D01*
X181497596Y-92452399D01*
X180708077Y-91662879D01*
X180708140Y-91589982D01*
X180674266Y-91508001D01*
X182047001Y-91508001D01*
X182046939Y-91578683D01*
X182169690Y-91875764D01*
X182396786Y-92103257D01*
X182693653Y-92226527D01*
X183015095Y-92226807D01*
X183312176Y-92104056D01*
X183539669Y-91876960D01*
X183662939Y-91580093D01*
X183663017Y-91490581D01*
X183857097Y-91410389D01*
X184084590Y-91183293D01*
X184207860Y-90886426D01*
X184208140Y-90564984D01*
X184085389Y-90267903D01*
X183858293Y-90040410D01*
X183561426Y-89917140D01*
X183487273Y-89917075D01*
X183272599Y-89702401D01*
X183067239Y-89565184D01*
X182825000Y-89516999D01*
X182824995Y-89517000D01*
X179100005Y-89517000D01*
X179100000Y-89516999D01*
X178857761Y-89565184D01*
X178652401Y-89702401D01*
X174337802Y-94017000D01*
X172459795Y-94017000D01*
X172408295Y-93965410D01*
X172111428Y-93842140D01*
X171789986Y-93841860D01*
X171492905Y-93964611D01*
X171265412Y-94191707D01*
X171142142Y-94488574D01*
X171141862Y-94810016D01*
X171253017Y-95079032D01*
X171155669Y-95313471D01*
X171155389Y-95634913D01*
X171278140Y-95931994D01*
X171505236Y-96159487D01*
X171764156Y-96267000D01*
X171162198Y-96267000D01*
X169683000Y-94787802D01*
X169683000Y-92812198D01*
X171287121Y-91208077D01*
X171360016Y-91208140D01*
X171657097Y-91085389D01*
X171884590Y-90858293D01*
X172007860Y-90561426D01*
X172008140Y-90239984D01*
X171885389Y-89942903D01*
X171658293Y-89715410D01*
X171361426Y-89592140D01*
X171039984Y-89591860D01*
X170742903Y-89714611D01*
X170515410Y-89941707D01*
X170392140Y-90238574D01*
X170392075Y-90312728D01*
X168602401Y-92102401D01*
X168465184Y-92307761D01*
X168416999Y-92550000D01*
X162583357Y-92550000D01*
X162583554Y-92325301D01*
X162430361Y-91954545D01*
X162146947Y-91670636D01*
X161776459Y-91516796D01*
X161375301Y-91516446D01*
X161004545Y-91669639D01*
X160825637Y-91848235D01*
X160648347Y-91670636D01*
X160277859Y-91516796D01*
X159876701Y-91516446D01*
X159505945Y-91669639D01*
X159222036Y-91953053D01*
X159068196Y-92323541D01*
X159067852Y-92717381D01*
X156862578Y-92717381D01*
X155358077Y-91212879D01*
X155358140Y-91139984D01*
X155235389Y-90842903D01*
X155008293Y-90615410D01*
X154711426Y-90492140D01*
X154389984Y-90491860D01*
X154092903Y-90614611D01*
X153865410Y-90841707D01*
X153742140Y-91138574D01*
X153741860Y-91460016D01*
X153864611Y-91757097D01*
X154091707Y-91984590D01*
X154388574Y-92107860D01*
X154462727Y-92107925D01*
X156152780Y-93797977D01*
X156152782Y-93797980D01*
X156358142Y-93935197D01*
X156398333Y-93943191D01*
X156600381Y-93983382D01*
X156600386Y-93983381D01*
X160013183Y-93983381D01*
X164601707Y-98571904D01*
X164457598Y-98512065D01*
X164136156Y-98511785D01*
X163839075Y-98634536D01*
X163781511Y-98692000D01*
X161450000Y-98692000D01*
X161207761Y-98740184D01*
X161002401Y-98877401D01*
X161002399Y-98877404D01*
X160487802Y-99392000D01*
X158921428Y-99392000D01*
X158106802Y-98577372D01*
X158106800Y-98577369D01*
X157901440Y-98440152D01*
X157901435Y-98440151D01*
X157659202Y-98391967D01*
X157659197Y-98391968D01*
X155662164Y-98391967D01*
X153258033Y-95987835D01*
X153258033Y-92070997D01*
X153209849Y-91828758D01*
X153077505Y-91630692D01*
X153077571Y-91555379D01*
X152954820Y-91258298D01*
X152727724Y-91030805D01*
X152430857Y-90907535D01*
X152109415Y-90907255D01*
X151812334Y-91030006D01*
X151584841Y-91257102D01*
X151461571Y-91553969D01*
X151461458Y-91683451D01*
X151187324Y-91796721D01*
X151134843Y-91849110D01*
X150692296Y-91849110D01*
X150692291Y-91849109D01*
X150490243Y-91889300D01*
X150450052Y-91897294D01*
X150244692Y-92034511D01*
X150244690Y-92034514D01*
X149898355Y-92380848D01*
X149683293Y-92165410D01*
X149386426Y-92042140D01*
X149064984Y-92041860D01*
X148767903Y-92164611D01*
X148540410Y-92391707D01*
X148417140Y-92688574D01*
X148417049Y-92792724D01*
X148340185Y-92907760D01*
X148292000Y-93149999D01*
X148292001Y-93150004D01*
X148292001Y-95634254D01*
X148292000Y-95634259D01*
X148340185Y-95876498D01*
X148416950Y-95991385D01*
X148416860Y-96094274D01*
X148539611Y-96391355D01*
X148766707Y-96618848D01*
X149063574Y-96742118D01*
X149385016Y-96742398D01*
X149495484Y-96696754D01*
X149495463Y-96720583D01*
X149618214Y-97017664D01*
X149845310Y-97245157D01*
X150142177Y-97368427D01*
X150463619Y-97368707D01*
X150760700Y-97245956D01*
X150796353Y-97210365D01*
X150827401Y-97256832D01*
X154393168Y-100822599D01*
X154598528Y-100959816D01*
X154840767Y-101008001D01*
X154840772Y-101008000D01*
X156837802Y-101008000D01*
X157246803Y-101417000D01*
X145557420Y-101417000D01*
X145344792Y-101374706D01*
X145213213Y-101286788D01*
X145125294Y-101155208D01*
X145083000Y-100942580D01*
X145083000Y-99662154D01*
X145307696Y-99662154D01*
X145574771Y-100308526D01*
X146068873Y-100803491D01*
X146714778Y-101071694D01*
X147414154Y-101072304D01*
X148060526Y-100805229D01*
X148555491Y-100311127D01*
X148823694Y-99665222D01*
X148824304Y-98965846D01*
X148557229Y-98319474D01*
X148063127Y-97824509D01*
X147417222Y-97556306D01*
X146717846Y-97555696D01*
X146071474Y-97822771D01*
X145576509Y-98316873D01*
X145308306Y-98962778D01*
X145307696Y-99662154D01*
X145083000Y-99662154D01*
X145083000Y-88557420D01*
X145125294Y-88344792D01*
X145213213Y-88213212D01*
X145344792Y-88125294D01*
X145557420Y-88083000D01*
X185442580Y-88083000D01*
X185655208Y-88125294D01*
X185655208Y-88125294D01*
G37*
X185655208Y-88125294D02*
X185786788Y-88213213D01*
X185874706Y-88344792D01*
X185917000Y-88557420D01*
X185917000Y-94697504D01*
X185873958Y-94581035D01*
X185264418Y-94354599D01*
X184614623Y-94378659D01*
X184126042Y-94581035D01*
X184027443Y-94847837D01*
X185000000Y-95820395D01*
X185014142Y-95806252D01*
X185193748Y-95985858D01*
X185179605Y-96000000D01*
X185193748Y-96014142D01*
X185014142Y-96193748D01*
X185000000Y-96179605D01*
X184027443Y-97152163D01*
X184126042Y-97418965D01*
X184522435Y-97566220D01*
X184147191Y-97721267D01*
X183722758Y-98144961D01*
X183492773Y-98698826D01*
X183492249Y-99298543D01*
X183721267Y-99852809D01*
X184144961Y-100277242D01*
X184698826Y-100507227D01*
X185298543Y-100507751D01*
X185852809Y-100278733D01*
X185917000Y-100214654D01*
X185917000Y-100942580D01*
X185874706Y-101155208D01*
X185786788Y-101286787D01*
X185655208Y-101374706D01*
X185442580Y-101417000D01*
X173684583Y-101417000D01*
X173882097Y-101335389D01*
X174109590Y-101108293D01*
X174232860Y-100811426D01*
X174233140Y-100489984D01*
X174110389Y-100192903D01*
X173883293Y-99965410D01*
X173586426Y-99842140D01*
X173264984Y-99841860D01*
X172967903Y-99964611D01*
X172740410Y-100191707D01*
X172678003Y-100342000D01*
X167225737Y-100342000D01*
X167309590Y-100258293D01*
X167432860Y-99961426D01*
X167433140Y-99639984D01*
X167310389Y-99342903D01*
X167083293Y-99115410D01*
X166830736Y-99010539D01*
X161339101Y-93518903D01*
X161373541Y-93533204D01*
X161774699Y-93533554D01*
X162145455Y-93380361D01*
X162429364Y-93096947D01*
X162583204Y-92726459D01*
X162583357Y-92550000D01*
X168416999Y-92550000D01*
X168417000Y-92550005D01*
X168417000Y-95049995D01*
X168416999Y-95050000D01*
X168465184Y-95292239D01*
X168602401Y-95497599D01*
X170452401Y-97347599D01*
X170657761Y-97484816D01*
X170900000Y-97533001D01*
X170900005Y-97533000D01*
X178215215Y-97533000D01*
X178266715Y-97584590D01*
X178563582Y-97707860D01*
X178885024Y-97708140D01*
X179182105Y-97585389D01*
X179409598Y-97358293D01*
X179532868Y-97061426D01*
X179533148Y-96739984D01*
X179410397Y-96442903D01*
X179183301Y-96215410D01*
X178886434Y-96092140D01*
X178564992Y-96091860D01*
X178267911Y-96214611D01*
X178215430Y-96267000D01*
X172162358Y-96267000D01*
X172420626Y-96160286D01*
X172473107Y-96107897D01*
X174886508Y-96107897D01*
X174886513Y-96107898D01*
X175128752Y-96059713D01*
X175334112Y-95922496D01*
X179166339Y-92090268D01*
X179214611Y-92207095D01*
X179441707Y-92434588D01*
X179738574Y-92557858D01*
X179812725Y-92557923D01*
X180417000Y-93162197D01*
X180417000Y-96215207D01*
X180365410Y-96266707D01*
X180242140Y-96563574D01*
X180241860Y-96885016D01*
X180364611Y-97182097D01*
X180591707Y-97409590D01*
X180888574Y-97532860D01*
X181210016Y-97533140D01*
X181507097Y-97410389D01*
X181734590Y-97183293D01*
X181857860Y-96886426D01*
X181858140Y-96564984D01*
X181735389Y-96267903D01*
X181683000Y-96215422D01*
X181683000Y-95735582D01*
X183354599Y-95735582D01*
X183378659Y-96385377D01*
X183581035Y-96873958D01*
X183847837Y-96972557D01*
X184820395Y-96000000D01*
X183847837Y-95027443D01*
X183581035Y-95126042D01*
X183354599Y-95735582D01*
X181683000Y-95735582D01*
X181683000Y-92900005D01*
X181683001Y-92900000D01*
X181641306Y-92690389D01*
X181634816Y-92657761D01*
X181497599Y-92452401D01*
X181497596Y-92452399D01*
X180708077Y-91662879D01*
X180708140Y-91589982D01*
X180674266Y-91508001D01*
X182047001Y-91508001D01*
X182046939Y-91578683D01*
X182169690Y-91875764D01*
X182396786Y-92103257D01*
X182693653Y-92226527D01*
X183015095Y-92226807D01*
X183312176Y-92104056D01*
X183539669Y-91876960D01*
X183662939Y-91580093D01*
X183663017Y-91490581D01*
X183857097Y-91410389D01*
X184084590Y-91183293D01*
X184207860Y-90886426D01*
X184208140Y-90564984D01*
X184085389Y-90267903D01*
X183858293Y-90040410D01*
X183561426Y-89917140D01*
X183487273Y-89917075D01*
X183272599Y-89702401D01*
X183067239Y-89565184D01*
X182825000Y-89516999D01*
X182824995Y-89517000D01*
X179100005Y-89517000D01*
X179100000Y-89516999D01*
X178857761Y-89565184D01*
X178652401Y-89702401D01*
X174337802Y-94017000D01*
X172459795Y-94017000D01*
X172408295Y-93965410D01*
X172111428Y-93842140D01*
X171789986Y-93841860D01*
X171492905Y-93964611D01*
X171265412Y-94191707D01*
X171142142Y-94488574D01*
X171141862Y-94810016D01*
X171253017Y-95079032D01*
X171155669Y-95313471D01*
X171155389Y-95634913D01*
X171278140Y-95931994D01*
X171505236Y-96159487D01*
X171764156Y-96267000D01*
X171162198Y-96267000D01*
X169683000Y-94787802D01*
X169683000Y-92812198D01*
X171287121Y-91208077D01*
X171360016Y-91208140D01*
X171657097Y-91085389D01*
X171884590Y-90858293D01*
X172007860Y-90561426D01*
X172008140Y-90239984D01*
X171885389Y-89942903D01*
X171658293Y-89715410D01*
X171361426Y-89592140D01*
X171039984Y-89591860D01*
X170742903Y-89714611D01*
X170515410Y-89941707D01*
X170392140Y-90238574D01*
X170392075Y-90312728D01*
X168602401Y-92102401D01*
X168465184Y-92307761D01*
X168416999Y-92550000D01*
X162583357Y-92550000D01*
X162583554Y-92325301D01*
X162430361Y-91954545D01*
X162146947Y-91670636D01*
X161776459Y-91516796D01*
X161375301Y-91516446D01*
X161004545Y-91669639D01*
X160825637Y-91848235D01*
X160648347Y-91670636D01*
X160277859Y-91516796D01*
X159876701Y-91516446D01*
X159505945Y-91669639D01*
X159222036Y-91953053D01*
X159068196Y-92323541D01*
X159067852Y-92717381D01*
X156862578Y-92717381D01*
X155358077Y-91212879D01*
X155358140Y-91139984D01*
X155235389Y-90842903D01*
X155008293Y-90615410D01*
X154711426Y-90492140D01*
X154389984Y-90491860D01*
X154092903Y-90614611D01*
X153865410Y-90841707D01*
X153742140Y-91138574D01*
X153741860Y-91460016D01*
X153864611Y-91757097D01*
X154091707Y-91984590D01*
X154388574Y-92107860D01*
X154462727Y-92107925D01*
X156152780Y-93797977D01*
X156152782Y-93797980D01*
X156358142Y-93935197D01*
X156398333Y-93943191D01*
X156600381Y-93983382D01*
X156600386Y-93983381D01*
X160013183Y-93983381D01*
X164601707Y-98571904D01*
X164457598Y-98512065D01*
X164136156Y-98511785D01*
X163839075Y-98634536D01*
X163781511Y-98692000D01*
X161450000Y-98692000D01*
X161207761Y-98740184D01*
X161002401Y-98877401D01*
X161002399Y-98877404D01*
X160487802Y-99392000D01*
X158921428Y-99392000D01*
X158106802Y-98577372D01*
X158106800Y-98577369D01*
X157901440Y-98440152D01*
X157901435Y-98440151D01*
X157659202Y-98391967D01*
X157659197Y-98391968D01*
X155662164Y-98391967D01*
X153258033Y-95987835D01*
X153258033Y-92070997D01*
X153209849Y-91828758D01*
X153077505Y-91630692D01*
X153077571Y-91555379D01*
X152954820Y-91258298D01*
X152727724Y-91030805D01*
X152430857Y-90907535D01*
X152109415Y-90907255D01*
X151812334Y-91030006D01*
X151584841Y-91257102D01*
X151461571Y-91553969D01*
X151461458Y-91683451D01*
X151187324Y-91796721D01*
X151134843Y-91849110D01*
X150692296Y-91849110D01*
X150692291Y-91849109D01*
X150490243Y-91889300D01*
X150450052Y-91897294D01*
X150244692Y-92034511D01*
X150244690Y-92034514D01*
X149898355Y-92380848D01*
X149683293Y-92165410D01*
X149386426Y-92042140D01*
X149064984Y-92041860D01*
X148767903Y-92164611D01*
X148540410Y-92391707D01*
X148417140Y-92688574D01*
X148417049Y-92792724D01*
X148340185Y-92907760D01*
X148292000Y-93149999D01*
X148292001Y-93150004D01*
X148292001Y-95634254D01*
X148292000Y-95634259D01*
X148340185Y-95876498D01*
X148416950Y-95991385D01*
X148416860Y-96094274D01*
X148539611Y-96391355D01*
X148766707Y-96618848D01*
X149063574Y-96742118D01*
X149385016Y-96742398D01*
X149495484Y-96696754D01*
X149495463Y-96720583D01*
X149618214Y-97017664D01*
X149845310Y-97245157D01*
X150142177Y-97368427D01*
X150463619Y-97368707D01*
X150760700Y-97245956D01*
X150796353Y-97210365D01*
X150827401Y-97256832D01*
X154393168Y-100822599D01*
X154598528Y-100959816D01*
X154840767Y-101008001D01*
X154840772Y-101008000D01*
X156837802Y-101008000D01*
X157246803Y-101417000D01*
X145557420Y-101417000D01*
X145344792Y-101374706D01*
X145213213Y-101286788D01*
X145125294Y-101155208D01*
X145083000Y-100942580D01*
X145083000Y-99662154D01*
X145307696Y-99662154D01*
X145574771Y-100308526D01*
X146068873Y-100803491D01*
X146714778Y-101071694D01*
X147414154Y-101072304D01*
X148060526Y-100805229D01*
X148555491Y-100311127D01*
X148823694Y-99665222D01*
X148824304Y-98965846D01*
X148557229Y-98319474D01*
X148063127Y-97824509D01*
X147417222Y-97556306D01*
X146717846Y-97555696D01*
X146071474Y-97822771D01*
X145576509Y-98316873D01*
X145308306Y-98962778D01*
X145307696Y-99662154D01*
X145083000Y-99662154D01*
X145083000Y-88557420D01*
X145125294Y-88344792D01*
X145213213Y-88213212D01*
X145344792Y-88125294D01*
X145557420Y-88083000D01*
X185442580Y-88083000D01*
X185655208Y-88125294D01*
M02*
