G04 #@! TF.FileFunction,Legend,Top*
%FSLAX46Y46*%
G04 Gerber Fmt 4.6, Leading zero omitted, Abs format (unit mm)*
G04 Created by KiCad (PCBNEW 4.0.2-stable) date 2016年10月18日 星期二 03:38:32*
%MOMM*%
G01*
G04 APERTURE LIST*
%ADD10C,0.100000*%
%ADD11C,0.150000*%
%ADD12C,0.010000*%
G04 APERTURE END LIST*
D10*
D11*
X180100000Y-98450000D02*
X180100000Y-99450000D01*
X181800000Y-99450000D02*
X181800000Y-98450000D01*
X181800000Y-99275000D02*
X181800000Y-98575000D01*
X183000000Y-98575000D02*
X183000000Y-99275000D01*
X173600000Y-99275000D02*
X173600000Y-98575000D01*
X174800000Y-98575000D02*
X174800000Y-99275000D01*
X174800000Y-98425000D02*
X174800000Y-99425000D01*
X176500000Y-99425000D02*
X176500000Y-98425000D01*
X171796000Y-92067200D02*
X171796000Y-92767200D01*
X170596000Y-92767200D02*
X170596000Y-92067200D01*
X156875000Y-92825000D02*
X156175000Y-92825000D01*
X156175000Y-91625000D02*
X156875000Y-91625000D01*
X157181600Y-98796400D02*
X156481600Y-98796400D01*
X156481600Y-97596400D02*
X157181600Y-97596400D01*
X162194800Y-97147200D02*
X162194800Y-97847200D01*
X160994800Y-97847200D02*
X160994800Y-97147200D01*
X160975000Y-90625000D02*
X160975000Y-89925000D01*
X162175000Y-89925000D02*
X162175000Y-90625000D01*
X159654800Y-97147200D02*
X159654800Y-97847200D01*
X158454800Y-97847200D02*
X158454800Y-97147200D01*
X163492000Y-89519200D02*
X164192000Y-89519200D01*
X164192000Y-90719200D02*
X163492000Y-90719200D01*
X159475000Y-90625000D02*
X159475000Y-89925000D01*
X160675000Y-89925000D02*
X160675000Y-90625000D01*
X172275000Y-100325000D02*
X171575000Y-100325000D01*
X171575000Y-99125000D02*
X172275000Y-99125000D01*
X156200000Y-90100000D02*
X156900000Y-90100000D01*
X156900000Y-91300000D02*
X156200000Y-91300000D01*
X147709190Y-95334258D02*
X147009190Y-95334258D01*
X147009190Y-94134258D02*
X147709190Y-94134258D01*
X147709190Y-96534258D02*
X147009190Y-96534258D01*
X147009190Y-95334258D02*
X147709190Y-95334258D01*
X182150000Y-96150000D02*
X181450000Y-96150000D01*
X181450000Y-94950000D02*
X182150000Y-94950000D01*
X173600000Y-92775000D02*
X173600000Y-92075000D01*
X174800000Y-92075000D02*
X174800000Y-92775000D01*
X181600000Y-92300000D02*
X182300000Y-92300000D01*
X182300000Y-93500000D02*
X181600000Y-93500000D01*
X169025000Y-100800000D02*
X169025000Y-99800000D01*
X170375000Y-99800000D02*
X170375000Y-100800000D01*
X166150000Y-89400000D02*
X167150000Y-89400000D01*
X167150000Y-90750000D02*
X166150000Y-90750000D01*
X158430600Y-95152400D02*
X158430600Y-94152400D01*
X159780600Y-94152400D02*
X159780600Y-95152400D01*
X160999800Y-97024000D02*
X160999800Y-98024000D01*
X159649800Y-98024000D02*
X159649800Y-97024000D01*
X148772597Y-92160111D02*
X148772597Y-93160111D01*
X147422597Y-93160111D02*
X147422597Y-92160111D01*
X170600000Y-98150000D02*
X170600000Y-97150000D01*
X171950000Y-97150000D02*
X171950000Y-98150000D01*
X171975000Y-93075000D02*
X171975000Y-92075000D01*
X173325000Y-92075000D02*
X173325000Y-93075000D01*
X146072597Y-93160111D02*
X146072597Y-92160111D01*
X147422597Y-92160111D02*
X147422597Y-93160111D01*
X182275000Y-94925000D02*
X181275000Y-94925000D01*
X181275000Y-93575000D02*
X182275000Y-93575000D01*
X178927020Y-100249160D02*
X178927020Y-100200900D01*
X178225980Y-97450180D02*
X178927020Y-97450180D01*
X178927020Y-97450180D02*
X178927020Y-97699100D01*
X178927020Y-100249160D02*
X178927020Y-100449820D01*
X178927020Y-100449820D02*
X178225980Y-100449820D01*
X175475000Y-91500000D02*
X176000000Y-91500000D01*
X179775000Y-95800000D02*
X179250000Y-95800000D01*
X179775000Y-91500000D02*
X179250000Y-91500000D01*
X175475000Y-95800000D02*
X175475000Y-95275000D01*
X179775000Y-95800000D02*
X179775000Y-95275000D01*
X179775000Y-91500000D02*
X179775000Y-92025000D01*
X175475000Y-91500000D02*
X175475000Y-92025000D01*
X157980000Y-93820000D02*
X157980000Y-97020000D01*
X157980000Y-97020000D02*
X155380000Y-97020000D01*
X155380000Y-97020000D02*
X155380000Y-93820000D01*
X155380000Y-93820000D02*
X157980000Y-93820000D01*
X160376120Y-91625840D02*
X160475180Y-91575040D01*
X160475180Y-91575040D02*
X160675840Y-91524240D01*
X160675840Y-91524240D02*
X160876500Y-91524240D01*
X160876500Y-91524240D02*
X161125420Y-91575040D01*
X161125420Y-91575040D02*
X161224480Y-91625840D01*
X160426920Y-93424160D02*
X160576780Y-93525760D01*
X160576780Y-93525760D02*
X160774900Y-93525760D01*
X160774900Y-93525760D02*
X160975560Y-93525760D01*
X160975560Y-93525760D02*
X161125420Y-93474960D01*
X161125420Y-93474960D02*
X161224480Y-93424160D01*
X170039000Y-91323800D02*
X170039000Y-91848800D01*
X162789000Y-98573800D02*
X162789000Y-98048800D01*
X170039000Y-98573800D02*
X170039000Y-98048800D01*
X162789000Y-91323800D02*
X163314000Y-91323800D01*
X162789000Y-98573800D02*
X163314000Y-98573800D01*
X170039000Y-98573800D02*
X169514000Y-98573800D01*
X170039000Y-91323800D02*
X169514000Y-91323800D01*
D12*
G36*
X146652395Y-90089786D02*
X146834636Y-90193955D01*
X147123128Y-90386240D01*
X147428297Y-90593334D01*
X147002412Y-90593334D01*
X146750190Y-90587830D01*
X146620198Y-90551526D01*
X146565338Y-90454729D01*
X146542693Y-90303528D01*
X146531344Y-90148123D01*
X146559604Y-90075692D01*
X146652395Y-90089786D01*
X146652395Y-90089786D01*
G37*
X146652395Y-90089786D02*
X146834636Y-90193955D01*
X147123128Y-90386240D01*
X147428297Y-90593334D01*
X147002412Y-90593334D01*
X146750190Y-90587830D01*
X146620198Y-90551526D01*
X146565338Y-90454729D01*
X146542693Y-90303528D01*
X146531344Y-90148123D01*
X146559604Y-90075692D01*
X146652395Y-90089786D01*
G36*
X146252508Y-89735596D02*
X146308005Y-90021777D01*
X146353061Y-90254667D01*
X146378009Y-90431548D01*
X146370610Y-90508556D01*
X146369670Y-90508667D01*
X146297059Y-90453362D01*
X146151165Y-90313618D01*
X146072750Y-90233500D01*
X145808282Y-89958334D01*
X146004649Y-89714429D01*
X146201016Y-89470525D01*
X146252508Y-89735596D01*
X146252508Y-89735596D01*
G37*
X146252508Y-89735596D02*
X146308005Y-90021777D01*
X146353061Y-90254667D01*
X146378009Y-90431548D01*
X146370610Y-90508556D01*
X146369670Y-90508667D01*
X146297059Y-90453362D01*
X146151165Y-90313618D01*
X146072750Y-90233500D01*
X145808282Y-89958334D01*
X146004649Y-89714429D01*
X146201016Y-89470525D01*
X146252508Y-89735596D01*
G36*
X148046803Y-89967283D02*
X147999038Y-90083081D01*
X147844333Y-90275834D01*
X147651875Y-90406270D01*
X147430350Y-90374648D01*
X147254824Y-90258088D01*
X147153382Y-90163701D01*
X147136358Y-90098835D01*
X147225544Y-90049686D01*
X147442732Y-90002450D01*
X147732882Y-89955266D01*
X147960440Y-89931456D01*
X148046803Y-89967283D01*
X148046803Y-89967283D01*
G37*
X148046803Y-89967283D02*
X147999038Y-90083081D01*
X147844333Y-90275834D01*
X147651875Y-90406270D01*
X147430350Y-90374648D01*
X147254824Y-90258088D01*
X147153382Y-90163701D01*
X147136358Y-90098835D01*
X147225544Y-90049686D01*
X147442732Y-90002450D01*
X147732882Y-89955266D01*
X147960440Y-89931456D01*
X148046803Y-89967283D01*
G36*
X146228651Y-88944644D02*
X146219206Y-89063917D01*
X146093789Y-89281952D01*
X145873495Y-89582926D01*
X145715099Y-89789000D01*
X145713216Y-89396708D01*
X145724072Y-89149000D01*
X145773958Y-89019581D01*
X145884196Y-88958336D01*
X145901834Y-88953364D01*
X146122676Y-88911879D01*
X146228651Y-88944644D01*
X146228651Y-88944644D01*
G37*
X146228651Y-88944644D02*
X146219206Y-89063917D01*
X146093789Y-89281952D01*
X145873495Y-89582926D01*
X145715099Y-89789000D01*
X145713216Y-89396708D01*
X145724072Y-89149000D01*
X145773958Y-89019581D01*
X145884196Y-88958336D01*
X145901834Y-88953364D01*
X146122676Y-88911879D01*
X146228651Y-88944644D01*
G36*
X148405992Y-88888226D02*
X148498168Y-89080863D01*
X148540678Y-89260425D01*
X148567387Y-89487666D01*
X148560349Y-89668556D01*
X148527466Y-89768409D01*
X148476644Y-89752538D01*
X148444353Y-89683167D01*
X148341300Y-89608019D01*
X148156007Y-89579501D01*
X147969853Y-89600615D01*
X147870334Y-89662000D01*
X147765211Y-89743381D01*
X147742339Y-89746667D01*
X147741965Y-89680978D01*
X147814743Y-89509185D01*
X147937836Y-89281039D01*
X147942469Y-89274075D01*
X148115275Y-89274075D01*
X148123135Y-89387273D01*
X148199942Y-89408000D01*
X148313109Y-89337354D01*
X148336000Y-89238667D01*
X148300544Y-89101086D01*
X148251334Y-89069334D01*
X148168862Y-89096740D01*
X148166667Y-89104742D01*
X148140328Y-89204266D01*
X148115275Y-89274075D01*
X147942469Y-89274075D01*
X148132776Y-88988076D01*
X148286511Y-88857217D01*
X148405992Y-88888226D01*
X148405992Y-88888226D01*
G37*
X148405992Y-88888226D02*
X148498168Y-89080863D01*
X148540678Y-89260425D01*
X148567387Y-89487666D01*
X148560349Y-89668556D01*
X148527466Y-89768409D01*
X148476644Y-89752538D01*
X148444353Y-89683167D01*
X148341300Y-89608019D01*
X148156007Y-89579501D01*
X147969853Y-89600615D01*
X147870334Y-89662000D01*
X147765211Y-89743381D01*
X147742339Y-89746667D01*
X147741965Y-89680978D01*
X147814743Y-89509185D01*
X147937836Y-89281039D01*
X147942469Y-89274075D01*
X148115275Y-89274075D01*
X148123135Y-89387273D01*
X148199942Y-89408000D01*
X148313109Y-89337354D01*
X148336000Y-89238667D01*
X148300544Y-89101086D01*
X148251334Y-89069334D01*
X148168862Y-89096740D01*
X148166667Y-89104742D01*
X148140328Y-89204266D01*
X148115275Y-89274075D01*
X147942469Y-89274075D01*
X148132776Y-88988076D01*
X148286511Y-88857217D01*
X148405992Y-88888226D01*
G36*
X149557180Y-88906618D02*
X149734768Y-88932935D01*
X149809139Y-88970869D01*
X149804699Y-89101701D01*
X149695665Y-89252019D01*
X149531273Y-89370532D01*
X149389533Y-89408000D01*
X149225995Y-89449654D01*
X149182667Y-89577334D01*
X149134473Y-89714671D01*
X149067035Y-89746667D01*
X148999467Y-89709638D01*
X148991144Y-89574454D01*
X149021015Y-89386834D01*
X149064707Y-89151472D01*
X149071264Y-89111667D01*
X149267334Y-89111667D01*
X149337920Y-89215095D01*
X149436667Y-89238667D01*
X149574571Y-89185727D01*
X149606000Y-89111667D01*
X149535414Y-89008239D01*
X149436667Y-88984667D01*
X149298763Y-89037606D01*
X149267334Y-89111667D01*
X149071264Y-89111667D01*
X149091188Y-88990735D01*
X149094313Y-88963500D01*
X149170121Y-88921212D01*
X149346688Y-88902481D01*
X149557180Y-88906618D01*
X149557180Y-88906618D01*
G37*
X149557180Y-88906618D02*
X149734768Y-88932935D01*
X149809139Y-88970869D01*
X149804699Y-89101701D01*
X149695665Y-89252019D01*
X149531273Y-89370532D01*
X149389533Y-89408000D01*
X149225995Y-89449654D01*
X149182667Y-89577334D01*
X149134473Y-89714671D01*
X149067035Y-89746667D01*
X148999467Y-89709638D01*
X148991144Y-89574454D01*
X149021015Y-89386834D01*
X149064707Y-89151472D01*
X149071264Y-89111667D01*
X149267334Y-89111667D01*
X149337920Y-89215095D01*
X149436667Y-89238667D01*
X149574571Y-89185727D01*
X149606000Y-89111667D01*
X149535414Y-89008239D01*
X149436667Y-88984667D01*
X149298763Y-89037606D01*
X149267334Y-89111667D01*
X149071264Y-89111667D01*
X149091188Y-88990735D01*
X149094313Y-88963500D01*
X149170121Y-88921212D01*
X149346688Y-88902481D01*
X149557180Y-88906618D01*
G36*
X150759743Y-88833452D02*
X150838849Y-88882302D01*
X150833667Y-88900000D01*
X150716960Y-88965539D01*
X150574670Y-88984667D01*
X150408179Y-89029726D01*
X150368000Y-89111667D01*
X150438586Y-89215095D01*
X150537334Y-89238667D01*
X150674914Y-89274123D01*
X150706667Y-89323334D01*
X150634211Y-89386979D01*
X150495000Y-89408000D01*
X150335885Y-89436983D01*
X150283334Y-89492667D01*
X150355939Y-89555773D01*
X150499997Y-89577334D01*
X150644048Y-89604210D01*
X150664334Y-89662000D01*
X150552122Y-89718513D01*
X150345604Y-89746125D01*
X150311247Y-89746667D01*
X150010488Y-89746667D01*
X150066758Y-89429167D01*
X150127584Y-89114323D01*
X150189532Y-88931098D01*
X150280503Y-88843908D01*
X150428395Y-88817167D01*
X150548036Y-88815334D01*
X150759743Y-88833452D01*
X150759743Y-88833452D01*
G37*
X150759743Y-88833452D02*
X150838849Y-88882302D01*
X150833667Y-88900000D01*
X150716960Y-88965539D01*
X150574670Y-88984667D01*
X150408179Y-89029726D01*
X150368000Y-89111667D01*
X150438586Y-89215095D01*
X150537334Y-89238667D01*
X150674914Y-89274123D01*
X150706667Y-89323334D01*
X150634211Y-89386979D01*
X150495000Y-89408000D01*
X150335885Y-89436983D01*
X150283334Y-89492667D01*
X150355939Y-89555773D01*
X150499997Y-89577334D01*
X150644048Y-89604210D01*
X150664334Y-89662000D01*
X150552122Y-89718513D01*
X150345604Y-89746125D01*
X150311247Y-89746667D01*
X150010488Y-89746667D01*
X150066758Y-89429167D01*
X150127584Y-89114323D01*
X150189532Y-88931098D01*
X150280503Y-88843908D01*
X150428395Y-88817167D01*
X150548036Y-88815334D01*
X150759743Y-88833452D01*
G36*
X151658927Y-88852555D02*
X151816989Y-88940241D01*
X151875232Y-89062792D01*
X151804138Y-89184329D01*
X151718444Y-89339226D01*
X151707124Y-89513834D01*
X151698545Y-89681748D01*
X151643624Y-89746667D01*
X151570285Y-89675808D01*
X151553334Y-89577334D01*
X151493465Y-89435829D01*
X151384000Y-89408000D01*
X151242496Y-89467869D01*
X151214667Y-89577334D01*
X151165550Y-89714651D01*
X151096772Y-89746667D01*
X151033406Y-89720177D01*
X151020561Y-89616084D01*
X151056601Y-89397456D01*
X151077110Y-89302167D01*
X151118062Y-89140919D01*
X151317765Y-89140919D01*
X151342773Y-89225040D01*
X151430733Y-89225586D01*
X151579221Y-89144384D01*
X151619568Y-89082414D01*
X151594561Y-88998294D01*
X151506600Y-88997748D01*
X151358113Y-89078950D01*
X151317765Y-89140919D01*
X151118062Y-89140919D01*
X151143081Y-89042412D01*
X151214847Y-88905714D01*
X151325912Y-88848080D01*
X151435049Y-88832177D01*
X151658927Y-88852555D01*
X151658927Y-88852555D01*
G37*
X151658927Y-88852555D02*
X151816989Y-88940241D01*
X151875232Y-89062792D01*
X151804138Y-89184329D01*
X151718444Y-89339226D01*
X151707124Y-89513834D01*
X151698545Y-89681748D01*
X151643624Y-89746667D01*
X151570285Y-89675808D01*
X151553334Y-89577334D01*
X151493465Y-89435829D01*
X151384000Y-89408000D01*
X151242496Y-89467869D01*
X151214667Y-89577334D01*
X151165550Y-89714651D01*
X151096772Y-89746667D01*
X151033406Y-89720177D01*
X151020561Y-89616084D01*
X151056601Y-89397456D01*
X151077110Y-89302167D01*
X151118062Y-89140919D01*
X151317765Y-89140919D01*
X151342773Y-89225040D01*
X151430733Y-89225586D01*
X151579221Y-89144384D01*
X151619568Y-89082414D01*
X151594561Y-88998294D01*
X151506600Y-88997748D01*
X151358113Y-89078950D01*
X151317765Y-89140919D01*
X151118062Y-89140919D01*
X151143081Y-89042412D01*
X151214847Y-88905714D01*
X151325912Y-88848080D01*
X151435049Y-88832177D01*
X151658927Y-88852555D01*
G36*
X152854823Y-88825841D02*
X152975274Y-88858916D01*
X152933771Y-88916886D01*
X152789331Y-88981499D01*
X152635212Y-89092535D01*
X152546590Y-89308012D01*
X152527889Y-89402737D01*
X152461570Y-89656101D01*
X152392247Y-89747433D01*
X152344026Y-89681850D01*
X152341017Y-89464469D01*
X152353241Y-89365667D01*
X152378821Y-89127269D01*
X152356164Y-89013531D01*
X152278188Y-88984667D01*
X152162226Y-88940518D01*
X152146000Y-88900000D01*
X152222147Y-88851703D01*
X152416842Y-88821047D01*
X152569334Y-88815334D01*
X152854823Y-88825841D01*
X152854823Y-88825841D01*
G37*
X152854823Y-88825841D02*
X152975274Y-88858916D01*
X152933771Y-88916886D01*
X152789331Y-88981499D01*
X152635212Y-89092535D01*
X152546590Y-89308012D01*
X152527889Y-89402737D01*
X152461570Y-89656101D01*
X152392247Y-89747433D01*
X152344026Y-89681850D01*
X152341017Y-89464469D01*
X152353241Y-89365667D01*
X152378821Y-89127269D01*
X152356164Y-89013531D01*
X152278188Y-88984667D01*
X152162226Y-88940518D01*
X152146000Y-88900000D01*
X152222147Y-88851703D01*
X152416842Y-88821047D01*
X152569334Y-88815334D01*
X152854823Y-88825841D01*
G36*
X153394821Y-88891957D02*
X153390489Y-89102462D01*
X153379218Y-89188826D01*
X153374011Y-89473366D01*
X153442554Y-89624779D01*
X153553226Y-89642492D01*
X153674407Y-89525933D01*
X153774476Y-89274531D01*
X153791423Y-89196287D01*
X153860626Y-88971304D01*
X153954133Y-88834894D01*
X154045324Y-88824442D01*
X154051955Y-88830399D01*
X154065598Y-88944104D01*
X154022675Y-89145721D01*
X153943881Y-89372486D01*
X153849912Y-89561631D01*
X153785472Y-89638566D01*
X153588857Y-89723976D01*
X153371687Y-89743797D01*
X153218544Y-89690321D01*
X153218445Y-89690222D01*
X153167975Y-89553926D01*
X153163865Y-89338412D01*
X153197030Y-89103712D01*
X153258389Y-88909859D01*
X153338856Y-88816884D01*
X153350822Y-88815334D01*
X153394821Y-88891957D01*
X153394821Y-88891957D01*
G37*
X153394821Y-88891957D02*
X153390489Y-89102462D01*
X153379218Y-89188826D01*
X153374011Y-89473366D01*
X153442554Y-89624779D01*
X153553226Y-89642492D01*
X153674407Y-89525933D01*
X153774476Y-89274531D01*
X153791423Y-89196287D01*
X153860626Y-88971304D01*
X153954133Y-88834894D01*
X154045324Y-88824442D01*
X154051955Y-88830399D01*
X154065598Y-88944104D01*
X154022675Y-89145721D01*
X153943881Y-89372486D01*
X153849912Y-89561631D01*
X153785472Y-89638566D01*
X153588857Y-89723976D01*
X153371687Y-89743797D01*
X153218544Y-89690321D01*
X153218445Y-89690222D01*
X153167975Y-89553926D01*
X153163865Y-89338412D01*
X153197030Y-89103712D01*
X153258389Y-88909859D01*
X153338856Y-88816884D01*
X153350822Y-88815334D01*
X153394821Y-88891957D01*
G36*
X154944542Y-88855034D02*
X155080279Y-88958035D01*
X155067761Y-89113110D01*
X155054655Y-89136143D01*
X154995980Y-89336993D01*
X155001025Y-89519726D01*
X155007373Y-89690865D01*
X154924296Y-89746109D01*
X154907537Y-89746667D01*
X154793538Y-89676082D01*
X154770667Y-89577334D01*
X154721864Y-89440009D01*
X154653542Y-89408000D01*
X154539818Y-89478936D01*
X154492135Y-89577334D01*
X154413638Y-89714822D01*
X154346081Y-89746667D01*
X154281728Y-89677578D01*
X154299914Y-89525123D01*
X154360584Y-89265305D01*
X154391923Y-89117875D01*
X154601334Y-89117875D01*
X154658989Y-89210475D01*
X154781901Y-89214793D01*
X154894986Y-89137301D01*
X154918873Y-89090500D01*
X154879928Y-89004997D01*
X154777722Y-88984667D01*
X154632175Y-89038452D01*
X154601334Y-89117875D01*
X154391923Y-89117875D01*
X154404342Y-89059456D01*
X154473502Y-88879229D01*
X154614677Y-88818736D01*
X154675417Y-88816630D01*
X154944542Y-88855034D01*
X154944542Y-88855034D01*
G37*
X154944542Y-88855034D02*
X155080279Y-88958035D01*
X155067761Y-89113110D01*
X155054655Y-89136143D01*
X154995980Y-89336993D01*
X155001025Y-89519726D01*
X155007373Y-89690865D01*
X154924296Y-89746109D01*
X154907537Y-89746667D01*
X154793538Y-89676082D01*
X154770667Y-89577334D01*
X154721864Y-89440009D01*
X154653542Y-89408000D01*
X154539818Y-89478936D01*
X154492135Y-89577334D01*
X154413638Y-89714822D01*
X154346081Y-89746667D01*
X154281728Y-89677578D01*
X154299914Y-89525123D01*
X154360584Y-89265305D01*
X154391923Y-89117875D01*
X154601334Y-89117875D01*
X154658989Y-89210475D01*
X154781901Y-89214793D01*
X154894986Y-89137301D01*
X154918873Y-89090500D01*
X154879928Y-89004997D01*
X154777722Y-88984667D01*
X154632175Y-89038452D01*
X154601334Y-89117875D01*
X154391923Y-89117875D01*
X154404342Y-89059456D01*
X154473502Y-88879229D01*
X154614677Y-88818736D01*
X154675417Y-88816630D01*
X154944542Y-88855034D01*
G36*
X156093743Y-88833452D02*
X156172849Y-88882302D01*
X156167667Y-88900000D01*
X156050960Y-88965539D01*
X155908670Y-88984667D01*
X155742179Y-89029726D01*
X155702000Y-89111667D01*
X155772586Y-89215095D01*
X155871334Y-89238667D01*
X156008914Y-89274123D01*
X156040667Y-89323334D01*
X155968211Y-89386979D01*
X155829000Y-89408000D01*
X155669885Y-89436983D01*
X155617334Y-89492667D01*
X155689939Y-89555773D01*
X155833997Y-89577334D01*
X155978048Y-89604210D01*
X155998334Y-89662000D01*
X155886122Y-89718513D01*
X155679604Y-89746125D01*
X155645247Y-89746667D01*
X155344488Y-89746667D01*
X155400758Y-89429167D01*
X155461584Y-89114323D01*
X155523532Y-88931098D01*
X155614503Y-88843908D01*
X155762395Y-88817167D01*
X155882036Y-88815334D01*
X156093743Y-88833452D01*
X156093743Y-88833452D01*
G37*
X156093743Y-88833452D02*
X156172849Y-88882302D01*
X156167667Y-88900000D01*
X156050960Y-88965539D01*
X155908670Y-88984667D01*
X155742179Y-89029726D01*
X155702000Y-89111667D01*
X155772586Y-89215095D01*
X155871334Y-89238667D01*
X156008914Y-89274123D01*
X156040667Y-89323334D01*
X155968211Y-89386979D01*
X155829000Y-89408000D01*
X155669885Y-89436983D01*
X155617334Y-89492667D01*
X155689939Y-89555773D01*
X155833997Y-89577334D01*
X155978048Y-89604210D01*
X155998334Y-89662000D01*
X155886122Y-89718513D01*
X155679604Y-89746125D01*
X155645247Y-89746667D01*
X155344488Y-89746667D01*
X155400758Y-89429167D01*
X155461584Y-89114323D01*
X155523532Y-88931098D01*
X155614503Y-88843908D01*
X155762395Y-88817167D01*
X155882036Y-88815334D01*
X156093743Y-88833452D01*
G36*
X147646502Y-88275644D02*
X147798738Y-88406992D01*
X147841615Y-88447378D01*
X147989630Y-88601230D01*
X148027325Y-88712361D01*
X147968954Y-88852747D01*
X147933827Y-88913044D01*
X147822576Y-89077443D01*
X147743302Y-89153395D01*
X147739236Y-89154000D01*
X147697029Y-89078260D01*
X147642601Y-88882686D01*
X147602575Y-88688334D01*
X147563910Y-88435433D01*
X147551796Y-88266314D01*
X147562619Y-88222667D01*
X147646502Y-88275644D01*
X147646502Y-88275644D01*
G37*
X147646502Y-88275644D02*
X147798738Y-88406992D01*
X147841615Y-88447378D01*
X147989630Y-88601230D01*
X148027325Y-88712361D01*
X147968954Y-88852747D01*
X147933827Y-88913044D01*
X147822576Y-89077443D01*
X147743302Y-89153395D01*
X147739236Y-89154000D01*
X147697029Y-89078260D01*
X147642601Y-88882686D01*
X147602575Y-88688334D01*
X147563910Y-88435433D01*
X147551796Y-88266314D01*
X147562619Y-88222667D01*
X147646502Y-88275644D01*
G36*
X146519388Y-88340403D02*
X146552427Y-88359843D01*
X146724224Y-88473997D01*
X146809841Y-88555716D01*
X146812000Y-88563469D01*
X146735833Y-88602631D01*
X146537916Y-88653590D01*
X146310579Y-88696689D01*
X146035590Y-88737726D01*
X145895185Y-88741811D01*
X145857946Y-88705422D01*
X145879404Y-88648361D01*
X145995251Y-88491566D01*
X146121252Y-88361807D01*
X146246030Y-88264078D01*
X146353796Y-88257057D01*
X146519388Y-88340403D01*
X146519388Y-88340403D01*
G37*
X146519388Y-88340403D02*
X146552427Y-88359843D01*
X146724224Y-88473997D01*
X146809841Y-88555716D01*
X146812000Y-88563469D01*
X146735833Y-88602631D01*
X146537916Y-88653590D01*
X146310579Y-88696689D01*
X146035590Y-88737726D01*
X145895185Y-88741811D01*
X145857946Y-88705422D01*
X145879404Y-88648361D01*
X145995251Y-88491566D01*
X146121252Y-88361807D01*
X146246030Y-88264078D01*
X146353796Y-88257057D01*
X146519388Y-88340403D01*
G36*
X147183864Y-88065210D02*
X147291621Y-88130732D01*
X147345981Y-88294736D01*
X147358370Y-88358318D01*
X147389214Y-88562766D01*
X147392386Y-88678519D01*
X147388960Y-88685624D01*
X147311975Y-88653237D01*
X147144775Y-88545909D01*
X147023667Y-88459909D01*
X146778111Y-88266428D01*
X146677375Y-88143501D01*
X146719462Y-88077318D01*
X146902374Y-88054062D01*
X146964855Y-88053334D01*
X147183864Y-88065210D01*
X147183864Y-88065210D01*
G37*
X147183864Y-88065210D02*
X147291621Y-88130732D01*
X147345981Y-88294736D01*
X147358370Y-88358318D01*
X147389214Y-88562766D01*
X147392386Y-88678519D01*
X147388960Y-88685624D01*
X147311975Y-88653237D01*
X147144775Y-88545909D01*
X147023667Y-88459909D01*
X146778111Y-88266428D01*
X146677375Y-88143501D01*
X146719462Y-88077318D01*
X146902374Y-88054062D01*
X146964855Y-88053334D01*
X147183864Y-88065210D01*
D11*
X181306943Y-99116666D02*
X181354562Y-99164285D01*
X181402181Y-99307142D01*
X181402181Y-99402380D01*
X181354562Y-99545238D01*
X181259324Y-99640476D01*
X181164086Y-99688095D01*
X180973610Y-99735714D01*
X180830752Y-99735714D01*
X180640276Y-99688095D01*
X180545038Y-99640476D01*
X180449800Y-99545238D01*
X180402181Y-99402380D01*
X180402181Y-99307142D01*
X180449800Y-99164285D01*
X180497419Y-99116666D01*
X181402181Y-98164285D02*
X181402181Y-98735714D01*
X181402181Y-98450000D02*
X180402181Y-98450000D01*
X180545038Y-98545238D01*
X180640276Y-98640476D01*
X180687895Y-98735714D01*
X182757143Y-99091666D02*
X182804762Y-99139285D01*
X182852381Y-99282142D01*
X182852381Y-99377380D01*
X182804762Y-99520238D01*
X182709524Y-99615476D01*
X182614286Y-99663095D01*
X182423810Y-99710714D01*
X182280952Y-99710714D01*
X182090476Y-99663095D01*
X181995238Y-99615476D01*
X181900000Y-99520238D01*
X181852381Y-99377380D01*
X181852381Y-99282142D01*
X181900000Y-99139285D01*
X181947619Y-99091666D01*
X181947619Y-98710714D02*
X181900000Y-98663095D01*
X181852381Y-98567857D01*
X181852381Y-98329761D01*
X181900000Y-98234523D01*
X181947619Y-98186904D01*
X182042857Y-98139285D01*
X182138095Y-98139285D01*
X182280952Y-98186904D01*
X182852381Y-98758333D01*
X182852381Y-98139285D01*
X174557143Y-99091666D02*
X174604762Y-99139285D01*
X174652381Y-99282142D01*
X174652381Y-99377380D01*
X174604762Y-99520238D01*
X174509524Y-99615476D01*
X174414286Y-99663095D01*
X174223810Y-99710714D01*
X174080952Y-99710714D01*
X173890476Y-99663095D01*
X173795238Y-99615476D01*
X173700000Y-99520238D01*
X173652381Y-99377380D01*
X173652381Y-99282142D01*
X173700000Y-99139285D01*
X173747619Y-99091666D01*
X173652381Y-98758333D02*
X173652381Y-98139285D01*
X174033333Y-98472619D01*
X174033333Y-98329761D01*
X174080952Y-98234523D01*
X174128571Y-98186904D01*
X174223810Y-98139285D01*
X174461905Y-98139285D01*
X174557143Y-98186904D01*
X174604762Y-98234523D01*
X174652381Y-98329761D01*
X174652381Y-98615476D01*
X174604762Y-98710714D01*
X174557143Y-98758333D01*
X176007143Y-99091666D02*
X176054762Y-99139285D01*
X176102381Y-99282142D01*
X176102381Y-99377380D01*
X176054762Y-99520238D01*
X175959524Y-99615476D01*
X175864286Y-99663095D01*
X175673810Y-99710714D01*
X175530952Y-99710714D01*
X175340476Y-99663095D01*
X175245238Y-99615476D01*
X175150000Y-99520238D01*
X175102381Y-99377380D01*
X175102381Y-99282142D01*
X175150000Y-99139285D01*
X175197619Y-99091666D01*
X175435714Y-98234523D02*
X176102381Y-98234523D01*
X175054762Y-98472619D02*
X175769048Y-98710714D01*
X175769048Y-98091666D01*
X171553143Y-92583866D02*
X171600762Y-92631485D01*
X171648381Y-92774342D01*
X171648381Y-92869580D01*
X171600762Y-93012438D01*
X171505524Y-93107676D01*
X171410286Y-93155295D01*
X171219810Y-93202914D01*
X171076952Y-93202914D01*
X170886476Y-93155295D01*
X170791238Y-93107676D01*
X170696000Y-93012438D01*
X170648381Y-92869580D01*
X170648381Y-92774342D01*
X170696000Y-92631485D01*
X170743619Y-92583866D01*
X170648381Y-91679104D02*
X170648381Y-92155295D01*
X171124571Y-92202914D01*
X171076952Y-92155295D01*
X171029333Y-92060057D01*
X171029333Y-91821961D01*
X171076952Y-91726723D01*
X171124571Y-91679104D01*
X171219810Y-91631485D01*
X171457905Y-91631485D01*
X171553143Y-91679104D01*
X171600762Y-91726723D01*
X171648381Y-91821961D01*
X171648381Y-92060057D01*
X171600762Y-92155295D01*
X171553143Y-92202914D01*
X156358334Y-92582143D02*
X156310715Y-92629762D01*
X156167858Y-92677381D01*
X156072620Y-92677381D01*
X155929762Y-92629762D01*
X155834524Y-92534524D01*
X155786905Y-92439286D01*
X155739286Y-92248810D01*
X155739286Y-92105952D01*
X155786905Y-91915476D01*
X155834524Y-91820238D01*
X155929762Y-91725000D01*
X156072620Y-91677381D01*
X156167858Y-91677381D01*
X156310715Y-91725000D01*
X156358334Y-91772619D01*
X157215477Y-91677381D02*
X157025000Y-91677381D01*
X156929762Y-91725000D01*
X156882143Y-91772619D01*
X156786905Y-91915476D01*
X156739286Y-92105952D01*
X156739286Y-92486905D01*
X156786905Y-92582143D01*
X156834524Y-92629762D01*
X156929762Y-92677381D01*
X157120239Y-92677381D01*
X157215477Y-92629762D01*
X157263096Y-92582143D01*
X157310715Y-92486905D01*
X157310715Y-92248810D01*
X157263096Y-92153571D01*
X157215477Y-92105952D01*
X157120239Y-92058333D01*
X156929762Y-92058333D01*
X156834524Y-92105952D01*
X156786905Y-92153571D01*
X156739286Y-92248810D01*
X156664934Y-98553543D02*
X156617315Y-98601162D01*
X156474458Y-98648781D01*
X156379220Y-98648781D01*
X156236362Y-98601162D01*
X156141124Y-98505924D01*
X156093505Y-98410686D01*
X156045886Y-98220210D01*
X156045886Y-98077352D01*
X156093505Y-97886876D01*
X156141124Y-97791638D01*
X156236362Y-97696400D01*
X156379220Y-97648781D01*
X156474458Y-97648781D01*
X156617315Y-97696400D01*
X156664934Y-97744019D01*
X156998267Y-97648781D02*
X157664934Y-97648781D01*
X157236362Y-98648781D01*
X161951943Y-97663866D02*
X161999562Y-97711485D01*
X162047181Y-97854342D01*
X162047181Y-97949580D01*
X161999562Y-98092438D01*
X161904324Y-98187676D01*
X161809086Y-98235295D01*
X161618610Y-98282914D01*
X161475752Y-98282914D01*
X161285276Y-98235295D01*
X161190038Y-98187676D01*
X161094800Y-98092438D01*
X161047181Y-97949580D01*
X161047181Y-97854342D01*
X161094800Y-97711485D01*
X161142419Y-97663866D01*
X161475752Y-97092438D02*
X161428133Y-97187676D01*
X161380514Y-97235295D01*
X161285276Y-97282914D01*
X161237657Y-97282914D01*
X161142419Y-97235295D01*
X161094800Y-97187676D01*
X161047181Y-97092438D01*
X161047181Y-96901961D01*
X161094800Y-96806723D01*
X161142419Y-96759104D01*
X161237657Y-96711485D01*
X161285276Y-96711485D01*
X161380514Y-96759104D01*
X161428133Y-96806723D01*
X161475752Y-96901961D01*
X161475752Y-97092438D01*
X161523371Y-97187676D01*
X161570990Y-97235295D01*
X161666229Y-97282914D01*
X161856705Y-97282914D01*
X161951943Y-97235295D01*
X161999562Y-97187676D01*
X162047181Y-97092438D01*
X162047181Y-96901961D01*
X161999562Y-96806723D01*
X161951943Y-96759104D01*
X161856705Y-96711485D01*
X161666229Y-96711485D01*
X161570990Y-96759104D01*
X161523371Y-96806723D01*
X161475752Y-96901961D01*
X161942143Y-90446666D02*
X161989762Y-90494285D01*
X162037381Y-90637142D01*
X162037381Y-90732380D01*
X161989762Y-90875238D01*
X161894524Y-90970476D01*
X161799286Y-91018095D01*
X161608810Y-91065714D01*
X161465952Y-91065714D01*
X161275476Y-91018095D01*
X161180238Y-90970476D01*
X161085000Y-90875238D01*
X161037381Y-90732380D01*
X161037381Y-90637142D01*
X161085000Y-90494285D01*
X161132619Y-90446666D01*
X162037381Y-89970476D02*
X162037381Y-89780000D01*
X161989762Y-89684761D01*
X161942143Y-89637142D01*
X161799286Y-89541904D01*
X161608810Y-89494285D01*
X161227857Y-89494285D01*
X161132619Y-89541904D01*
X161085000Y-89589523D01*
X161037381Y-89684761D01*
X161037381Y-89875238D01*
X161085000Y-89970476D01*
X161132619Y-90018095D01*
X161227857Y-90065714D01*
X161465952Y-90065714D01*
X161561190Y-90018095D01*
X161608810Y-89970476D01*
X161656429Y-89875238D01*
X161656429Y-89684761D01*
X161608810Y-89589523D01*
X161561190Y-89541904D01*
X161465952Y-89494285D01*
X159411943Y-98140057D02*
X159459562Y-98187676D01*
X159507181Y-98330533D01*
X159507181Y-98425771D01*
X159459562Y-98568629D01*
X159364324Y-98663867D01*
X159269086Y-98711486D01*
X159078610Y-98759105D01*
X158935752Y-98759105D01*
X158745276Y-98711486D01*
X158650038Y-98663867D01*
X158554800Y-98568629D01*
X158507181Y-98425771D01*
X158507181Y-98330533D01*
X158554800Y-98187676D01*
X158602419Y-98140057D01*
X159507181Y-97187676D02*
X159507181Y-97759105D01*
X159507181Y-97473391D02*
X158507181Y-97473391D01*
X158650038Y-97568629D01*
X158745276Y-97663867D01*
X158792895Y-97759105D01*
X158507181Y-96568629D02*
X158507181Y-96473390D01*
X158554800Y-96378152D01*
X158602419Y-96330533D01*
X158697657Y-96282914D01*
X158888133Y-96235295D01*
X159126229Y-96235295D01*
X159316705Y-96282914D01*
X159411943Y-96330533D01*
X159459562Y-96378152D01*
X159507181Y-96473390D01*
X159507181Y-96568629D01*
X159459562Y-96663867D01*
X159411943Y-96711486D01*
X159316705Y-96759105D01*
X159126229Y-96806724D01*
X158888133Y-96806724D01*
X158697657Y-96759105D01*
X158602419Y-96711486D01*
X158554800Y-96663867D01*
X158507181Y-96568629D01*
X163199143Y-90476343D02*
X163151524Y-90523962D01*
X163008667Y-90571581D01*
X162913429Y-90571581D01*
X162770571Y-90523962D01*
X162675333Y-90428724D01*
X162627714Y-90333486D01*
X162580095Y-90143010D01*
X162580095Y-90000152D01*
X162627714Y-89809676D01*
X162675333Y-89714438D01*
X162770571Y-89619200D01*
X162913429Y-89571581D01*
X163008667Y-89571581D01*
X163151524Y-89619200D01*
X163199143Y-89666819D01*
X164151524Y-90571581D02*
X163580095Y-90571581D01*
X163865809Y-90571581D02*
X163865809Y-89571581D01*
X163770571Y-89714438D01*
X163675333Y-89809676D01*
X163580095Y-89857295D01*
X165103905Y-90571581D02*
X164532476Y-90571581D01*
X164818190Y-90571581D02*
X164818190Y-89571581D01*
X164722952Y-89714438D01*
X164627714Y-89809676D01*
X164532476Y-89857295D01*
X160482943Y-90917857D02*
X160530562Y-90965476D01*
X160578181Y-91108333D01*
X160578181Y-91203571D01*
X160530562Y-91346429D01*
X160435324Y-91441667D01*
X160340086Y-91489286D01*
X160149610Y-91536905D01*
X160006752Y-91536905D01*
X159816276Y-91489286D01*
X159721038Y-91441667D01*
X159625800Y-91346429D01*
X159578181Y-91203571D01*
X159578181Y-91108333D01*
X159625800Y-90965476D01*
X159673419Y-90917857D01*
X160578181Y-89965476D02*
X160578181Y-90536905D01*
X160578181Y-90251191D02*
X159578181Y-90251191D01*
X159721038Y-90346429D01*
X159816276Y-90441667D01*
X159863895Y-90536905D01*
X159673419Y-89584524D02*
X159625800Y-89536905D01*
X159578181Y-89441667D01*
X159578181Y-89203571D01*
X159625800Y-89108333D01*
X159673419Y-89060714D01*
X159768657Y-89013095D01*
X159863895Y-89013095D01*
X160006752Y-89060714D01*
X160578181Y-89632143D01*
X160578181Y-89013095D01*
X171282143Y-100082143D02*
X171234524Y-100129762D01*
X171091667Y-100177381D01*
X170996429Y-100177381D01*
X170853571Y-100129762D01*
X170758333Y-100034524D01*
X170710714Y-99939286D01*
X170663095Y-99748810D01*
X170663095Y-99605952D01*
X170710714Y-99415476D01*
X170758333Y-99320238D01*
X170853571Y-99225000D01*
X170996429Y-99177381D01*
X171091667Y-99177381D01*
X171234524Y-99225000D01*
X171282143Y-99272619D01*
X172234524Y-100177381D02*
X171663095Y-100177381D01*
X171948809Y-100177381D02*
X171948809Y-99177381D01*
X171853571Y-99320238D01*
X171758333Y-99415476D01*
X171663095Y-99463095D01*
X172567857Y-99177381D02*
X173186905Y-99177381D01*
X172853571Y-99558333D01*
X172996429Y-99558333D01*
X173091667Y-99605952D01*
X173139286Y-99653571D01*
X173186905Y-99748810D01*
X173186905Y-99986905D01*
X173139286Y-100082143D01*
X173091667Y-100129762D01*
X172996429Y-100177381D01*
X172710714Y-100177381D01*
X172615476Y-100129762D01*
X172567857Y-100082143D01*
X155907143Y-91057143D02*
X155859524Y-91104762D01*
X155716667Y-91152381D01*
X155621429Y-91152381D01*
X155478571Y-91104762D01*
X155383333Y-91009524D01*
X155335714Y-90914286D01*
X155288095Y-90723810D01*
X155288095Y-90580952D01*
X155335714Y-90390476D01*
X155383333Y-90295238D01*
X155478571Y-90200000D01*
X155621429Y-90152381D01*
X155716667Y-90152381D01*
X155859524Y-90200000D01*
X155907143Y-90247619D01*
X156859524Y-91152381D02*
X156288095Y-91152381D01*
X156573809Y-91152381D02*
X156573809Y-90152381D01*
X156478571Y-90295238D01*
X156383333Y-90390476D01*
X156288095Y-90438095D01*
X157716667Y-90485714D02*
X157716667Y-91152381D01*
X157478571Y-90104762D02*
X157240476Y-90819048D01*
X157859524Y-90819048D01*
X146716333Y-95091401D02*
X146668714Y-95139020D01*
X146525857Y-95186639D01*
X146430619Y-95186639D01*
X146287761Y-95139020D01*
X146192523Y-95043782D01*
X146144904Y-94948544D01*
X146097285Y-94758068D01*
X146097285Y-94615210D01*
X146144904Y-94424734D01*
X146192523Y-94329496D01*
X146287761Y-94234258D01*
X146430619Y-94186639D01*
X146525857Y-94186639D01*
X146668714Y-94234258D01*
X146716333Y-94281877D01*
X147668714Y-95186639D02*
X147097285Y-95186639D01*
X147382999Y-95186639D02*
X147382999Y-94186639D01*
X147287761Y-94329496D01*
X147192523Y-94424734D01*
X147097285Y-94472353D01*
X148573476Y-94186639D02*
X148097285Y-94186639D01*
X148049666Y-94662829D01*
X148097285Y-94615210D01*
X148192523Y-94567591D01*
X148430619Y-94567591D01*
X148525857Y-94615210D01*
X148573476Y-94662829D01*
X148621095Y-94758068D01*
X148621095Y-94996163D01*
X148573476Y-95091401D01*
X148525857Y-95139020D01*
X148430619Y-95186639D01*
X148192523Y-95186639D01*
X148097285Y-95139020D01*
X148049666Y-95091401D01*
X146716333Y-96266401D02*
X146668714Y-96314020D01*
X146525857Y-96361639D01*
X146430619Y-96361639D01*
X146287761Y-96314020D01*
X146192523Y-96218782D01*
X146144904Y-96123544D01*
X146097285Y-95933068D01*
X146097285Y-95790210D01*
X146144904Y-95599734D01*
X146192523Y-95504496D01*
X146287761Y-95409258D01*
X146430619Y-95361639D01*
X146525857Y-95361639D01*
X146668714Y-95409258D01*
X146716333Y-95456877D01*
X147668714Y-96361639D02*
X147097285Y-96361639D01*
X147382999Y-96361639D02*
X147382999Y-95361639D01*
X147287761Y-95504496D01*
X147192523Y-95599734D01*
X147097285Y-95647353D01*
X148525857Y-95361639D02*
X148335380Y-95361639D01*
X148240142Y-95409258D01*
X148192523Y-95456877D01*
X148097285Y-95599734D01*
X148049666Y-95790210D01*
X148049666Y-96171163D01*
X148097285Y-96266401D01*
X148144904Y-96314020D01*
X148240142Y-96361639D01*
X148430619Y-96361639D01*
X148525857Y-96314020D01*
X148573476Y-96266401D01*
X148621095Y-96171163D01*
X148621095Y-95933068D01*
X148573476Y-95837829D01*
X148525857Y-95790210D01*
X148430619Y-95742591D01*
X148240142Y-95742591D01*
X148144904Y-95790210D01*
X148097285Y-95837829D01*
X148049666Y-95933068D01*
X181146143Y-95900543D02*
X181098524Y-95948162D01*
X180955667Y-95995781D01*
X180860429Y-95995781D01*
X180717571Y-95948162D01*
X180622333Y-95852924D01*
X180574714Y-95757686D01*
X180527095Y-95567210D01*
X180527095Y-95424352D01*
X180574714Y-95233876D01*
X180622333Y-95138638D01*
X180717571Y-95043400D01*
X180860429Y-94995781D01*
X180955667Y-94995781D01*
X181098524Y-95043400D01*
X181146143Y-95091019D01*
X182098524Y-95995781D02*
X181527095Y-95995781D01*
X181812809Y-95995781D02*
X181812809Y-94995781D01*
X181717571Y-95138638D01*
X181622333Y-95233876D01*
X181527095Y-95281495D01*
X182431857Y-94995781D02*
X183098524Y-94995781D01*
X182669952Y-95995781D01*
X174535543Y-93067857D02*
X174583162Y-93115476D01*
X174630781Y-93258333D01*
X174630781Y-93353571D01*
X174583162Y-93496429D01*
X174487924Y-93591667D01*
X174392686Y-93639286D01*
X174202210Y-93686905D01*
X174059352Y-93686905D01*
X173868876Y-93639286D01*
X173773638Y-93591667D01*
X173678400Y-93496429D01*
X173630781Y-93353571D01*
X173630781Y-93258333D01*
X173678400Y-93115476D01*
X173726019Y-93067857D01*
X174630781Y-92115476D02*
X174630781Y-92686905D01*
X174630781Y-92401191D02*
X173630781Y-92401191D01*
X173773638Y-92496429D01*
X173868876Y-92591667D01*
X173916495Y-92686905D01*
X174059352Y-91544048D02*
X174011733Y-91639286D01*
X173964114Y-91686905D01*
X173868876Y-91734524D01*
X173821257Y-91734524D01*
X173726019Y-91686905D01*
X173678400Y-91639286D01*
X173630781Y-91544048D01*
X173630781Y-91353571D01*
X173678400Y-91258333D01*
X173726019Y-91210714D01*
X173821257Y-91163095D01*
X173868876Y-91163095D01*
X173964114Y-91210714D01*
X174011733Y-91258333D01*
X174059352Y-91353571D01*
X174059352Y-91544048D01*
X174106971Y-91639286D01*
X174154590Y-91686905D01*
X174249829Y-91734524D01*
X174440305Y-91734524D01*
X174535543Y-91686905D01*
X174583162Y-91639286D01*
X174630781Y-91544048D01*
X174630781Y-91353571D01*
X174583162Y-91258333D01*
X174535543Y-91210714D01*
X174440305Y-91163095D01*
X174249829Y-91163095D01*
X174154590Y-91210714D01*
X174106971Y-91258333D01*
X174059352Y-91353571D01*
X181303143Y-93252143D02*
X181255524Y-93299762D01*
X181112667Y-93347381D01*
X181017429Y-93347381D01*
X180874571Y-93299762D01*
X180779333Y-93204524D01*
X180731714Y-93109286D01*
X180684095Y-92918810D01*
X180684095Y-92775952D01*
X180731714Y-92585476D01*
X180779333Y-92490238D01*
X180874571Y-92395000D01*
X181017429Y-92347381D01*
X181112667Y-92347381D01*
X181255524Y-92395000D01*
X181303143Y-92442619D01*
X182255524Y-93347381D02*
X181684095Y-93347381D01*
X181969809Y-93347381D02*
X181969809Y-92347381D01*
X181874571Y-92490238D01*
X181779333Y-92585476D01*
X181684095Y-92633095D01*
X182731714Y-93347381D02*
X182922190Y-93347381D01*
X183017429Y-93299762D01*
X183065048Y-93252143D01*
X183160286Y-93109286D01*
X183207905Y-92918810D01*
X183207905Y-92537857D01*
X183160286Y-92442619D01*
X183112667Y-92395000D01*
X183017429Y-92347381D01*
X182826952Y-92347381D01*
X182731714Y-92395000D01*
X182684095Y-92442619D01*
X182636476Y-92537857D01*
X182636476Y-92775952D01*
X182684095Y-92871190D01*
X182731714Y-92918810D01*
X182826952Y-92966429D01*
X183017429Y-92966429D01*
X183112667Y-92918810D01*
X183160286Y-92871190D01*
X183207905Y-92775952D01*
X183166667Y-101452381D02*
X183166667Y-100452381D01*
X183547620Y-100452381D01*
X183642858Y-100500000D01*
X183690477Y-100547619D01*
X183738096Y-100642857D01*
X183738096Y-100785714D01*
X183690477Y-100880952D01*
X183642858Y-100928571D01*
X183547620Y-100976190D01*
X183166667Y-100976190D01*
X184071429Y-100452381D02*
X184309524Y-101452381D01*
X184500001Y-100738095D01*
X184690477Y-101452381D01*
X184928572Y-100452381D01*
X185880953Y-101452381D02*
X185547619Y-100976190D01*
X185309524Y-101452381D02*
X185309524Y-100452381D01*
X185690477Y-100452381D01*
X185785715Y-100500000D01*
X185833334Y-100547619D01*
X185880953Y-100642857D01*
X185880953Y-100785714D01*
X185833334Y-100880952D01*
X185785715Y-100928571D01*
X185690477Y-100976190D01*
X185309524Y-100976190D01*
X184036905Y-97025000D02*
X183941667Y-96977381D01*
X183798810Y-96977381D01*
X183655952Y-97025000D01*
X183560714Y-97120238D01*
X183513095Y-97215476D01*
X183465476Y-97405952D01*
X183465476Y-97548810D01*
X183513095Y-97739286D01*
X183560714Y-97834524D01*
X183655952Y-97929762D01*
X183798810Y-97977381D01*
X183894048Y-97977381D01*
X184036905Y-97929762D01*
X184084524Y-97882143D01*
X184084524Y-97548810D01*
X183894048Y-97548810D01*
X184452381Y-88285714D02*
X184452381Y-87714285D01*
X185452381Y-88000000D02*
X184452381Y-88000000D01*
X185452381Y-89190476D02*
X184976190Y-89523810D01*
X185452381Y-89761905D02*
X184452381Y-89761905D01*
X184452381Y-89380952D01*
X184500000Y-89285714D01*
X184547619Y-89238095D01*
X184642857Y-89190476D01*
X184785714Y-89190476D01*
X184880952Y-89238095D01*
X184928571Y-89285714D01*
X184976190Y-89380952D01*
X184976190Y-89761905D01*
X170152381Y-100466666D02*
X169676190Y-100800000D01*
X170152381Y-101038095D02*
X169152381Y-101038095D01*
X169152381Y-100657142D01*
X169200000Y-100561904D01*
X169247619Y-100514285D01*
X169342857Y-100466666D01*
X169485714Y-100466666D01*
X169580952Y-100514285D01*
X169628571Y-100561904D01*
X169676190Y-100657142D01*
X169676190Y-101038095D01*
X170152381Y-99514285D02*
X170152381Y-100085714D01*
X170152381Y-99800000D02*
X169152381Y-99800000D01*
X169295238Y-99895238D01*
X169390476Y-99990476D01*
X169438095Y-100085714D01*
X166483334Y-90527381D02*
X166150000Y-90051190D01*
X165911905Y-90527381D02*
X165911905Y-89527381D01*
X166292858Y-89527381D01*
X166388096Y-89575000D01*
X166435715Y-89622619D01*
X166483334Y-89717857D01*
X166483334Y-89860714D01*
X166435715Y-89955952D01*
X166388096Y-90003571D01*
X166292858Y-90051190D01*
X165911905Y-90051190D01*
X166864286Y-89622619D02*
X166911905Y-89575000D01*
X167007143Y-89527381D01*
X167245239Y-89527381D01*
X167340477Y-89575000D01*
X167388096Y-89622619D01*
X167435715Y-89717857D01*
X167435715Y-89813095D01*
X167388096Y-89955952D01*
X166816667Y-90527381D01*
X167435715Y-90527381D01*
X159557981Y-94819066D02*
X159081790Y-95152400D01*
X159557981Y-95390495D02*
X158557981Y-95390495D01*
X158557981Y-95009542D01*
X158605600Y-94914304D01*
X158653219Y-94866685D01*
X158748457Y-94819066D01*
X158891314Y-94819066D01*
X158986552Y-94866685D01*
X159034171Y-94914304D01*
X159081790Y-95009542D01*
X159081790Y-95390495D01*
X158557981Y-94485733D02*
X158557981Y-93866685D01*
X158938933Y-94200019D01*
X158938933Y-94057161D01*
X158986552Y-93961923D01*
X159034171Y-93914304D01*
X159129410Y-93866685D01*
X159367505Y-93866685D01*
X159462743Y-93914304D01*
X159510362Y-93961923D01*
X159557981Y-94057161D01*
X159557981Y-94342876D01*
X159510362Y-94438114D01*
X159462743Y-94485733D01*
X160777181Y-97690666D02*
X160300990Y-98024000D01*
X160777181Y-98262095D02*
X159777181Y-98262095D01*
X159777181Y-97881142D01*
X159824800Y-97785904D01*
X159872419Y-97738285D01*
X159967657Y-97690666D01*
X160110514Y-97690666D01*
X160205752Y-97738285D01*
X160253371Y-97785904D01*
X160300990Y-97881142D01*
X160300990Y-98262095D01*
X160110514Y-96833523D02*
X160777181Y-96833523D01*
X159729562Y-97071619D02*
X160443848Y-97309714D01*
X160443848Y-96690666D01*
X148549978Y-92826777D02*
X148073787Y-93160111D01*
X148549978Y-93398206D02*
X147549978Y-93398206D01*
X147549978Y-93017253D01*
X147597597Y-92922015D01*
X147645216Y-92874396D01*
X147740454Y-92826777D01*
X147883311Y-92826777D01*
X147978549Y-92874396D01*
X148026168Y-92922015D01*
X148073787Y-93017253D01*
X148073787Y-93398206D01*
X147549978Y-91922015D02*
X147549978Y-92398206D01*
X148026168Y-92445825D01*
X147978549Y-92398206D01*
X147930930Y-92302968D01*
X147930930Y-92064872D01*
X147978549Y-91969634D01*
X148026168Y-91922015D01*
X148121407Y-91874396D01*
X148359502Y-91874396D01*
X148454740Y-91922015D01*
X148502359Y-91969634D01*
X148549978Y-92064872D01*
X148549978Y-92302968D01*
X148502359Y-92398206D01*
X148454740Y-92445825D01*
X171709781Y-97816666D02*
X171233590Y-98150000D01*
X171709781Y-98388095D02*
X170709781Y-98388095D01*
X170709781Y-98007142D01*
X170757400Y-97911904D01*
X170805019Y-97864285D01*
X170900257Y-97816666D01*
X171043114Y-97816666D01*
X171138352Y-97864285D01*
X171185971Y-97911904D01*
X171233590Y-98007142D01*
X171233590Y-98388095D01*
X170709781Y-96959523D02*
X170709781Y-97150000D01*
X170757400Y-97245238D01*
X170805019Y-97292857D01*
X170947876Y-97388095D01*
X171138352Y-97435714D01*
X171519305Y-97435714D01*
X171614543Y-97388095D01*
X171662162Y-97340476D01*
X171709781Y-97245238D01*
X171709781Y-97054761D01*
X171662162Y-96959523D01*
X171614543Y-96911904D01*
X171519305Y-96864285D01*
X171281210Y-96864285D01*
X171185971Y-96911904D01*
X171138352Y-96959523D01*
X171090733Y-97054761D01*
X171090733Y-97245238D01*
X171138352Y-97340476D01*
X171185971Y-97388095D01*
X171281210Y-97435714D01*
X173111981Y-92741666D02*
X172635790Y-93075000D01*
X173111981Y-93313095D02*
X172111981Y-93313095D01*
X172111981Y-92932142D01*
X172159600Y-92836904D01*
X172207219Y-92789285D01*
X172302457Y-92741666D01*
X172445314Y-92741666D01*
X172540552Y-92789285D01*
X172588171Y-92836904D01*
X172635790Y-92932142D01*
X172635790Y-93313095D01*
X172111981Y-92408333D02*
X172111981Y-91741666D01*
X173111981Y-92170238D01*
X147199978Y-92851777D02*
X146723787Y-93185111D01*
X147199978Y-93423206D02*
X146199978Y-93423206D01*
X146199978Y-93042253D01*
X146247597Y-92947015D01*
X146295216Y-92899396D01*
X146390454Y-92851777D01*
X146533311Y-92851777D01*
X146628549Y-92899396D01*
X146676168Y-92947015D01*
X146723787Y-93042253D01*
X146723787Y-93423206D01*
X146628549Y-92280349D02*
X146580930Y-92375587D01*
X146533311Y-92423206D01*
X146438073Y-92470825D01*
X146390454Y-92470825D01*
X146295216Y-92423206D01*
X146247597Y-92375587D01*
X146199978Y-92280349D01*
X146199978Y-92089872D01*
X146247597Y-91994634D01*
X146295216Y-91947015D01*
X146390454Y-91899396D01*
X146438073Y-91899396D01*
X146533311Y-91947015D01*
X146580930Y-91994634D01*
X146628549Y-92089872D01*
X146628549Y-92280349D01*
X146676168Y-92375587D01*
X146723787Y-92423206D01*
X146819026Y-92470825D01*
X147009502Y-92470825D01*
X147104740Y-92423206D01*
X147152359Y-92375587D01*
X147199978Y-92280349D01*
X147199978Y-92089872D01*
X147152359Y-91994634D01*
X147104740Y-91947015D01*
X147009502Y-91899396D01*
X146819026Y-91899396D01*
X146723787Y-91947015D01*
X146676168Y-91994634D01*
X146628549Y-92089872D01*
X181608334Y-94683781D02*
X181275000Y-94207590D01*
X181036905Y-94683781D02*
X181036905Y-93683781D01*
X181417858Y-93683781D01*
X181513096Y-93731400D01*
X181560715Y-93779019D01*
X181608334Y-93874257D01*
X181608334Y-94017114D01*
X181560715Y-94112352D01*
X181513096Y-94159971D01*
X181417858Y-94207590D01*
X181036905Y-94207590D01*
X182084524Y-94683781D02*
X182275000Y-94683781D01*
X182370239Y-94636162D01*
X182417858Y-94588543D01*
X182513096Y-94445686D01*
X182560715Y-94255210D01*
X182560715Y-93874257D01*
X182513096Y-93779019D01*
X182465477Y-93731400D01*
X182370239Y-93683781D01*
X182179762Y-93683781D01*
X182084524Y-93731400D01*
X182036905Y-93779019D01*
X181989286Y-93874257D01*
X181989286Y-94112352D01*
X182036905Y-94207590D01*
X182084524Y-94255210D01*
X182179762Y-94302829D01*
X182370239Y-94302829D01*
X182465477Y-94255210D01*
X182513096Y-94207590D01*
X182560715Y-94112352D01*
X177702381Y-99736905D02*
X178511905Y-99736905D01*
X178607143Y-99689286D01*
X178654762Y-99641667D01*
X178702381Y-99546429D01*
X178702381Y-99355952D01*
X178654762Y-99260714D01*
X178607143Y-99213095D01*
X178511905Y-99165476D01*
X177702381Y-99165476D01*
X178702381Y-98165476D02*
X178702381Y-98736905D01*
X178702381Y-98451191D02*
X177702381Y-98451191D01*
X177845238Y-98546429D01*
X177940476Y-98641667D01*
X177988095Y-98736905D01*
X173702381Y-94411905D02*
X174511905Y-94411905D01*
X174607143Y-94364286D01*
X174654762Y-94316667D01*
X174702381Y-94221429D01*
X174702381Y-94030952D01*
X174654762Y-93935714D01*
X174607143Y-93888095D01*
X174511905Y-93840476D01*
X173702381Y-93840476D01*
X174035714Y-92935714D02*
X174702381Y-92935714D01*
X173654762Y-93173810D02*
X174369048Y-93411905D01*
X174369048Y-92792857D01*
X156656190Y-95913791D02*
X157132381Y-95913791D01*
X156132381Y-96247124D02*
X156656190Y-95913791D01*
X156132381Y-95580457D01*
X157132381Y-94723314D02*
X157132381Y-95294743D01*
X157132381Y-95009029D02*
X156132381Y-95009029D01*
X156275238Y-95104267D01*
X156370476Y-95199505D01*
X156418095Y-95294743D01*
X160373809Y-92501190D02*
X160373809Y-92977381D01*
X160040476Y-91977381D02*
X160373809Y-92501190D01*
X160707143Y-91977381D01*
X160992857Y-92072619D02*
X161040476Y-92025000D01*
X161135714Y-91977381D01*
X161373810Y-91977381D01*
X161469048Y-92025000D01*
X161516667Y-92072619D01*
X161564286Y-92167857D01*
X161564286Y-92263095D01*
X161516667Y-92405952D01*
X160945238Y-92977381D01*
X161564286Y-92977381D01*
X162438095Y-88227381D02*
X162438095Y-89036905D01*
X162485714Y-89132143D01*
X162533333Y-89179762D01*
X162628571Y-89227381D01*
X162819048Y-89227381D01*
X162914286Y-89179762D01*
X162961905Y-89132143D01*
X163009524Y-89036905D01*
X163009524Y-88227381D01*
X163438095Y-88322619D02*
X163485714Y-88275000D01*
X163580952Y-88227381D01*
X163819048Y-88227381D01*
X163914286Y-88275000D01*
X163961905Y-88322619D01*
X164009524Y-88417857D01*
X164009524Y-88513095D01*
X163961905Y-88655952D01*
X163390476Y-89227381D01*
X164009524Y-89227381D01*
X150362381Y-95261905D02*
X151171905Y-95261905D01*
X151267143Y-95214286D01*
X151314762Y-95166667D01*
X151362381Y-95071429D01*
X151362381Y-94880952D01*
X151314762Y-94785714D01*
X151267143Y-94738095D01*
X151171905Y-94690476D01*
X150362381Y-94690476D01*
X150362381Y-94309524D02*
X150362381Y-93690476D01*
X150743333Y-94023810D01*
X150743333Y-93880952D01*
X150790952Y-93785714D01*
X150838571Y-93738095D01*
X150933810Y-93690476D01*
X151171905Y-93690476D01*
X151267143Y-93738095D01*
X151314762Y-93785714D01*
X151362381Y-93880952D01*
X151362381Y-94166667D01*
X151314762Y-94261905D01*
X151267143Y-94309524D01*
M02*
