G04 #@! TF.FileFunction,Copper,L2,Inr,Signal*
%FSLAX46Y46*%
G04 Gerber Fmt 4.6, Leading zero omitted, Abs format (unit mm)*
G04 Created by KiCad (PCBNEW 4.0.2-stable) date 2017年04月21日 星期五 11:17:21*
%MOMM*%
G01*
G04 APERTURE LIST*
%ADD10C,0.100000*%
%ADD11C,1.998980*%
%ADD12C,0.600000*%
%ADD13C,0.254000*%
G04 APERTURE END LIST*
D10*
D11*
X188500000Y-78275000D03*
X188500000Y-80750000D03*
X182250000Y-93575000D03*
X184500000Y-93575000D03*
X186750000Y-93575000D03*
X189000000Y-93575000D03*
D12*
X176275000Y-84100000D03*
X175075000Y-91725000D03*
X168625000Y-91825000D03*
X167850000Y-88675000D03*
X169350000Y-82800000D03*
X162575000Y-80850000D03*
X170400000Y-78575000D03*
X180050000Y-80075000D03*
X180050000Y-78575000D03*
X182800000Y-85875000D03*
X182800000Y-91775000D03*
X186850000Y-86850000D03*
X190300000Y-87525000D03*
X190300000Y-90625000D03*
X190025000Y-89075000D03*
X178600000Y-94625000D03*
X170725000Y-94675000D03*
X167000000Y-94625000D03*
X162525000Y-89975000D03*
X162525000Y-88475000D03*
X165900000Y-78975000D03*
X175375000Y-80125000D03*
X182100000Y-83600000D03*
X187800004Y-91475000D03*
X179325000Y-92250000D03*
X179325000Y-87600000D03*
X185300000Y-85875000D03*
X175299679Y-78173055D03*
X176525000Y-83150000D03*
X176400000Y-91725000D03*
X169875000Y-91825000D03*
X167850000Y-90025000D03*
X167950000Y-82999999D03*
X162650000Y-86925000D03*
X175900002Y-85825000D03*
X186900000Y-83125000D03*
X176804699Y-85804200D03*
X186900000Y-85375000D03*
X171725000Y-90650000D03*
X172500000Y-90075000D03*
X173775000Y-89295247D03*
X174575000Y-88674990D03*
D13*
G36*
X174364841Y-77986256D02*
X174364517Y-78358222D01*
X174506562Y-78701998D01*
X174769352Y-78965247D01*
X175112880Y-79107893D01*
X175484846Y-79108217D01*
X175828622Y-78966172D01*
X176091871Y-78703382D01*
X176234517Y-78359854D01*
X176234841Y-77987888D01*
X176109691Y-77685000D01*
X186975189Y-77685000D01*
X186865794Y-77948453D01*
X186865226Y-78598694D01*
X187113538Y-79199655D01*
X187572927Y-79659846D01*
X187601186Y-79671580D01*
X188500000Y-80570395D01*
X189397861Y-79672533D01*
X189424655Y-79661462D01*
X189884846Y-79202073D01*
X190134206Y-78601547D01*
X190134774Y-77951306D01*
X190024739Y-77685000D01*
X190315000Y-77685000D01*
X190315000Y-92578758D01*
X189927073Y-92190154D01*
X189326547Y-91940794D01*
X188676306Y-91940226D01*
X188607407Y-91968694D01*
X188734842Y-91661799D01*
X188735166Y-91289833D01*
X188593121Y-90946057D01*
X188330331Y-90682808D01*
X187986803Y-90540162D01*
X187614837Y-90539838D01*
X187271061Y-90681883D01*
X187007812Y-90944673D01*
X186865166Y-91288201D01*
X186864842Y-91660167D01*
X186980760Y-91940710D01*
X186426306Y-91940226D01*
X185825345Y-92188538D01*
X185625054Y-92388480D01*
X185427073Y-92190154D01*
X184826547Y-91940794D01*
X184176306Y-91940226D01*
X183575345Y-92188538D01*
X183375054Y-92388480D01*
X183177073Y-92190154D01*
X182576547Y-91940794D01*
X181926306Y-91940226D01*
X181325345Y-92188538D01*
X180865154Y-92647927D01*
X180615794Y-93248453D01*
X180615226Y-93898694D01*
X180863538Y-94499655D01*
X181322927Y-94959846D01*
X181923453Y-95209206D01*
X182573694Y-95209774D01*
X183174655Y-94961462D01*
X183374946Y-94761520D01*
X183572927Y-94959846D01*
X184173453Y-95209206D01*
X184823694Y-95209774D01*
X185424655Y-94961462D01*
X185624946Y-94761520D01*
X185822927Y-94959846D01*
X186423453Y-95209206D01*
X187073694Y-95209774D01*
X187674655Y-94961462D01*
X187874946Y-94761520D01*
X188072927Y-94959846D01*
X188673453Y-95209206D01*
X189323694Y-95209774D01*
X189924655Y-94961462D01*
X190315000Y-94571797D01*
X190315000Y-95315000D01*
X159685000Y-95315000D01*
X159685000Y-92010167D01*
X168939838Y-92010167D01*
X169081883Y-92353943D01*
X169344673Y-92617192D01*
X169688201Y-92759838D01*
X170060167Y-92760162D01*
X170403943Y-92618117D01*
X170667192Y-92355327D01*
X170809838Y-92011799D01*
X170809926Y-91910167D01*
X175464838Y-91910167D01*
X175606883Y-92253943D01*
X175869673Y-92517192D01*
X176213201Y-92659838D01*
X176585167Y-92660162D01*
X176928943Y-92518117D01*
X177012037Y-92435167D01*
X178389838Y-92435167D01*
X178531883Y-92778943D01*
X178794673Y-93042192D01*
X179138201Y-93184838D01*
X179510167Y-93185162D01*
X179853943Y-93043117D01*
X180117192Y-92780327D01*
X180259838Y-92436799D01*
X180260162Y-92064833D01*
X180118117Y-91721057D01*
X179855327Y-91457808D01*
X179511799Y-91315162D01*
X179139833Y-91314838D01*
X178796057Y-91456883D01*
X178532808Y-91719673D01*
X178390162Y-92063201D01*
X178389838Y-92435167D01*
X177012037Y-92435167D01*
X177192192Y-92255327D01*
X177334838Y-91911799D01*
X177335162Y-91539833D01*
X177193117Y-91196057D01*
X176930327Y-90932808D01*
X176586799Y-90790162D01*
X176214833Y-90789838D01*
X175871057Y-90931883D01*
X175607808Y-91194673D01*
X175465162Y-91538201D01*
X175464838Y-91910167D01*
X170809926Y-91910167D01*
X170810162Y-91639833D01*
X170668117Y-91296057D01*
X170405327Y-91032808D01*
X170061799Y-90890162D01*
X169689833Y-90889838D01*
X169346057Y-91031883D01*
X169082808Y-91294673D01*
X168940162Y-91638201D01*
X168939838Y-92010167D01*
X159685000Y-92010167D01*
X159685000Y-90210167D01*
X166914838Y-90210167D01*
X167056883Y-90553943D01*
X167319673Y-90817192D01*
X167663201Y-90959838D01*
X168035167Y-90960162D01*
X168337678Y-90835167D01*
X170789838Y-90835167D01*
X170931883Y-91178943D01*
X171194673Y-91442192D01*
X171538201Y-91584838D01*
X171910167Y-91585162D01*
X172253943Y-91443117D01*
X172517192Y-91180327D01*
X172587886Y-91010077D01*
X172685167Y-91010162D01*
X173028943Y-90868117D01*
X173292192Y-90605327D01*
X173434838Y-90261799D01*
X173434921Y-90166437D01*
X173588201Y-90230085D01*
X173960167Y-90230409D01*
X174303943Y-90088364D01*
X174567192Y-89825574D01*
X174656681Y-89610062D01*
X174760167Y-89610152D01*
X175103943Y-89468107D01*
X175367192Y-89205317D01*
X175509838Y-88861789D01*
X175510162Y-88489823D01*
X175368117Y-88146047D01*
X175105327Y-87882798D01*
X174870207Y-87785167D01*
X178389838Y-87785167D01*
X178531883Y-88128943D01*
X178794673Y-88392192D01*
X179138201Y-88534838D01*
X179510167Y-88535162D01*
X179853943Y-88393117D01*
X180117192Y-88130327D01*
X180259838Y-87786799D01*
X180260162Y-87414833D01*
X180118117Y-87071057D01*
X179855327Y-86807808D01*
X179511799Y-86665162D01*
X179139833Y-86664838D01*
X178796057Y-86806883D01*
X178532808Y-87069673D01*
X178390162Y-87413201D01*
X178389838Y-87785167D01*
X174870207Y-87785167D01*
X174761799Y-87740152D01*
X174389833Y-87739828D01*
X174046057Y-87881873D01*
X173782808Y-88144663D01*
X173693319Y-88360175D01*
X173589833Y-88360085D01*
X173246057Y-88502130D01*
X172982808Y-88764920D01*
X172840162Y-89108448D01*
X172840079Y-89203810D01*
X172686799Y-89140162D01*
X172314833Y-89139838D01*
X171971057Y-89281883D01*
X171707808Y-89544673D01*
X171637114Y-89714923D01*
X171539833Y-89714838D01*
X171196057Y-89856883D01*
X170932808Y-90119673D01*
X170790162Y-90463201D01*
X170789838Y-90835167D01*
X168337678Y-90835167D01*
X168378943Y-90818117D01*
X168642192Y-90555327D01*
X168784838Y-90211799D01*
X168785162Y-89839833D01*
X168643117Y-89496057D01*
X168380327Y-89232808D01*
X168036799Y-89090162D01*
X167664833Y-89089838D01*
X167321057Y-89231883D01*
X167057808Y-89494673D01*
X166915162Y-89838201D01*
X166914838Y-90210167D01*
X159685000Y-90210167D01*
X159685000Y-87110167D01*
X161714838Y-87110167D01*
X161856883Y-87453943D01*
X162119673Y-87717192D01*
X162463201Y-87859838D01*
X162835167Y-87860162D01*
X163178943Y-87718117D01*
X163442192Y-87455327D01*
X163584838Y-87111799D01*
X163585162Y-86739833D01*
X163443117Y-86396057D01*
X163180327Y-86132808D01*
X162884977Y-86010167D01*
X174964840Y-86010167D01*
X175106885Y-86353943D01*
X175369675Y-86617192D01*
X175713203Y-86759838D01*
X176085169Y-86760162D01*
X176377692Y-86639294D01*
X176617900Y-86739038D01*
X176989866Y-86739362D01*
X177333642Y-86597317D01*
X177596891Y-86334527D01*
X177710815Y-86060167D01*
X184364838Y-86060167D01*
X184506883Y-86403943D01*
X184769673Y-86667192D01*
X185113201Y-86809838D01*
X185485167Y-86810162D01*
X185828943Y-86668117D01*
X186092192Y-86405327D01*
X186234838Y-86061799D01*
X186234864Y-86032147D01*
X186369673Y-86167192D01*
X186713201Y-86309838D01*
X187085167Y-86310162D01*
X187428943Y-86168117D01*
X187692192Y-85905327D01*
X187834838Y-85561799D01*
X187835162Y-85189833D01*
X187693117Y-84846057D01*
X187430327Y-84582808D01*
X187086799Y-84440162D01*
X186714833Y-84439838D01*
X186371057Y-84581883D01*
X186107808Y-84844673D01*
X185965162Y-85188201D01*
X185965136Y-85217853D01*
X185830327Y-85082808D01*
X185486799Y-84940162D01*
X185114833Y-84939838D01*
X184771057Y-85081883D01*
X184507808Y-85344673D01*
X184365162Y-85688201D01*
X184364838Y-86060167D01*
X177710815Y-86060167D01*
X177739537Y-85990999D01*
X177739861Y-85619033D01*
X177597816Y-85275257D01*
X177335026Y-85012008D01*
X176991498Y-84869362D01*
X176619532Y-84869038D01*
X176327009Y-84989906D01*
X176086801Y-84890162D01*
X175714835Y-84889838D01*
X175371059Y-85031883D01*
X175107810Y-85294673D01*
X174965164Y-85638201D01*
X174964840Y-86010167D01*
X162884977Y-86010167D01*
X162836799Y-85990162D01*
X162464833Y-85989838D01*
X162121057Y-86131883D01*
X161857808Y-86394673D01*
X161715162Y-86738201D01*
X161714838Y-87110167D01*
X159685000Y-87110167D01*
X159685000Y-83185166D01*
X167014838Y-83185166D01*
X167156883Y-83528942D01*
X167419673Y-83792191D01*
X167763201Y-83934837D01*
X168135167Y-83935161D01*
X168478943Y-83793116D01*
X168742192Y-83530326D01*
X168823229Y-83335167D01*
X175589838Y-83335167D01*
X175731883Y-83678943D01*
X175994673Y-83942192D01*
X176338201Y-84084838D01*
X176710167Y-84085162D01*
X177053943Y-83943117D01*
X177317192Y-83680327D01*
X177459838Y-83336799D01*
X177459861Y-83310167D01*
X185964838Y-83310167D01*
X186106883Y-83653943D01*
X186369673Y-83917192D01*
X186713201Y-84059838D01*
X187085167Y-84060162D01*
X187428943Y-83918117D01*
X187692192Y-83655327D01*
X187834838Y-83311799D01*
X187835162Y-82939833D01*
X187693117Y-82596057D01*
X187430327Y-82332808D01*
X187086799Y-82190162D01*
X186714833Y-82189838D01*
X186371057Y-82331883D01*
X186107808Y-82594673D01*
X185965162Y-82938201D01*
X185964838Y-83310167D01*
X177459861Y-83310167D01*
X177460162Y-82964833D01*
X177318117Y-82621057D01*
X177055327Y-82357808D01*
X176711799Y-82215162D01*
X176339833Y-82214838D01*
X175996057Y-82356883D01*
X175732808Y-82619673D01*
X175590162Y-82963201D01*
X175589838Y-83335167D01*
X168823229Y-83335167D01*
X168884838Y-83186798D01*
X168885162Y-82814832D01*
X168743117Y-82471056D01*
X168480327Y-82207807D01*
X168136799Y-82065161D01*
X167764833Y-82064837D01*
X167421057Y-82206882D01*
X167157808Y-82469672D01*
X167015162Y-82813200D01*
X167014838Y-83185166D01*
X159685000Y-83185166D01*
X159685000Y-81902163D01*
X187527443Y-81902163D01*
X187626042Y-82168965D01*
X188235582Y-82395401D01*
X188885377Y-82371341D01*
X189373958Y-82168965D01*
X189472557Y-81902163D01*
X188500000Y-80929605D01*
X187527443Y-81902163D01*
X159685000Y-81902163D01*
X159685000Y-80485582D01*
X186854599Y-80485582D01*
X186878659Y-81135377D01*
X187081035Y-81623958D01*
X187347837Y-81722557D01*
X188320395Y-80750000D01*
X188679605Y-80750000D01*
X189652163Y-81722557D01*
X189918965Y-81623958D01*
X190145401Y-81014418D01*
X190121341Y-80364623D01*
X189918965Y-79876042D01*
X189652163Y-79777443D01*
X188679605Y-80750000D01*
X188320395Y-80750000D01*
X187347837Y-79777443D01*
X187081035Y-79876042D01*
X186854599Y-80485582D01*
X159685000Y-80485582D01*
X159685000Y-77685000D01*
X174489934Y-77685000D01*
X174364841Y-77986256D01*
X174364841Y-77986256D01*
G37*
X174364841Y-77986256D02*
X174364517Y-78358222D01*
X174506562Y-78701998D01*
X174769352Y-78965247D01*
X175112880Y-79107893D01*
X175484846Y-79108217D01*
X175828622Y-78966172D01*
X176091871Y-78703382D01*
X176234517Y-78359854D01*
X176234841Y-77987888D01*
X176109691Y-77685000D01*
X186975189Y-77685000D01*
X186865794Y-77948453D01*
X186865226Y-78598694D01*
X187113538Y-79199655D01*
X187572927Y-79659846D01*
X187601186Y-79671580D01*
X188500000Y-80570395D01*
X189397861Y-79672533D01*
X189424655Y-79661462D01*
X189884846Y-79202073D01*
X190134206Y-78601547D01*
X190134774Y-77951306D01*
X190024739Y-77685000D01*
X190315000Y-77685000D01*
X190315000Y-92578758D01*
X189927073Y-92190154D01*
X189326547Y-91940794D01*
X188676306Y-91940226D01*
X188607407Y-91968694D01*
X188734842Y-91661799D01*
X188735166Y-91289833D01*
X188593121Y-90946057D01*
X188330331Y-90682808D01*
X187986803Y-90540162D01*
X187614837Y-90539838D01*
X187271061Y-90681883D01*
X187007812Y-90944673D01*
X186865166Y-91288201D01*
X186864842Y-91660167D01*
X186980760Y-91940710D01*
X186426306Y-91940226D01*
X185825345Y-92188538D01*
X185625054Y-92388480D01*
X185427073Y-92190154D01*
X184826547Y-91940794D01*
X184176306Y-91940226D01*
X183575345Y-92188538D01*
X183375054Y-92388480D01*
X183177073Y-92190154D01*
X182576547Y-91940794D01*
X181926306Y-91940226D01*
X181325345Y-92188538D01*
X180865154Y-92647927D01*
X180615794Y-93248453D01*
X180615226Y-93898694D01*
X180863538Y-94499655D01*
X181322927Y-94959846D01*
X181923453Y-95209206D01*
X182573694Y-95209774D01*
X183174655Y-94961462D01*
X183374946Y-94761520D01*
X183572927Y-94959846D01*
X184173453Y-95209206D01*
X184823694Y-95209774D01*
X185424655Y-94961462D01*
X185624946Y-94761520D01*
X185822927Y-94959846D01*
X186423453Y-95209206D01*
X187073694Y-95209774D01*
X187674655Y-94961462D01*
X187874946Y-94761520D01*
X188072927Y-94959846D01*
X188673453Y-95209206D01*
X189323694Y-95209774D01*
X189924655Y-94961462D01*
X190315000Y-94571797D01*
X190315000Y-95315000D01*
X159685000Y-95315000D01*
X159685000Y-92010167D01*
X168939838Y-92010167D01*
X169081883Y-92353943D01*
X169344673Y-92617192D01*
X169688201Y-92759838D01*
X170060167Y-92760162D01*
X170403943Y-92618117D01*
X170667192Y-92355327D01*
X170809838Y-92011799D01*
X170809926Y-91910167D01*
X175464838Y-91910167D01*
X175606883Y-92253943D01*
X175869673Y-92517192D01*
X176213201Y-92659838D01*
X176585167Y-92660162D01*
X176928943Y-92518117D01*
X177012037Y-92435167D01*
X178389838Y-92435167D01*
X178531883Y-92778943D01*
X178794673Y-93042192D01*
X179138201Y-93184838D01*
X179510167Y-93185162D01*
X179853943Y-93043117D01*
X180117192Y-92780327D01*
X180259838Y-92436799D01*
X180260162Y-92064833D01*
X180118117Y-91721057D01*
X179855327Y-91457808D01*
X179511799Y-91315162D01*
X179139833Y-91314838D01*
X178796057Y-91456883D01*
X178532808Y-91719673D01*
X178390162Y-92063201D01*
X178389838Y-92435167D01*
X177012037Y-92435167D01*
X177192192Y-92255327D01*
X177334838Y-91911799D01*
X177335162Y-91539833D01*
X177193117Y-91196057D01*
X176930327Y-90932808D01*
X176586799Y-90790162D01*
X176214833Y-90789838D01*
X175871057Y-90931883D01*
X175607808Y-91194673D01*
X175465162Y-91538201D01*
X175464838Y-91910167D01*
X170809926Y-91910167D01*
X170810162Y-91639833D01*
X170668117Y-91296057D01*
X170405327Y-91032808D01*
X170061799Y-90890162D01*
X169689833Y-90889838D01*
X169346057Y-91031883D01*
X169082808Y-91294673D01*
X168940162Y-91638201D01*
X168939838Y-92010167D01*
X159685000Y-92010167D01*
X159685000Y-90210167D01*
X166914838Y-90210167D01*
X167056883Y-90553943D01*
X167319673Y-90817192D01*
X167663201Y-90959838D01*
X168035167Y-90960162D01*
X168337678Y-90835167D01*
X170789838Y-90835167D01*
X170931883Y-91178943D01*
X171194673Y-91442192D01*
X171538201Y-91584838D01*
X171910167Y-91585162D01*
X172253943Y-91443117D01*
X172517192Y-91180327D01*
X172587886Y-91010077D01*
X172685167Y-91010162D01*
X173028943Y-90868117D01*
X173292192Y-90605327D01*
X173434838Y-90261799D01*
X173434921Y-90166437D01*
X173588201Y-90230085D01*
X173960167Y-90230409D01*
X174303943Y-90088364D01*
X174567192Y-89825574D01*
X174656681Y-89610062D01*
X174760167Y-89610152D01*
X175103943Y-89468107D01*
X175367192Y-89205317D01*
X175509838Y-88861789D01*
X175510162Y-88489823D01*
X175368117Y-88146047D01*
X175105327Y-87882798D01*
X174870207Y-87785167D01*
X178389838Y-87785167D01*
X178531883Y-88128943D01*
X178794673Y-88392192D01*
X179138201Y-88534838D01*
X179510167Y-88535162D01*
X179853943Y-88393117D01*
X180117192Y-88130327D01*
X180259838Y-87786799D01*
X180260162Y-87414833D01*
X180118117Y-87071057D01*
X179855327Y-86807808D01*
X179511799Y-86665162D01*
X179139833Y-86664838D01*
X178796057Y-86806883D01*
X178532808Y-87069673D01*
X178390162Y-87413201D01*
X178389838Y-87785167D01*
X174870207Y-87785167D01*
X174761799Y-87740152D01*
X174389833Y-87739828D01*
X174046057Y-87881873D01*
X173782808Y-88144663D01*
X173693319Y-88360175D01*
X173589833Y-88360085D01*
X173246057Y-88502130D01*
X172982808Y-88764920D01*
X172840162Y-89108448D01*
X172840079Y-89203810D01*
X172686799Y-89140162D01*
X172314833Y-89139838D01*
X171971057Y-89281883D01*
X171707808Y-89544673D01*
X171637114Y-89714923D01*
X171539833Y-89714838D01*
X171196057Y-89856883D01*
X170932808Y-90119673D01*
X170790162Y-90463201D01*
X170789838Y-90835167D01*
X168337678Y-90835167D01*
X168378943Y-90818117D01*
X168642192Y-90555327D01*
X168784838Y-90211799D01*
X168785162Y-89839833D01*
X168643117Y-89496057D01*
X168380327Y-89232808D01*
X168036799Y-89090162D01*
X167664833Y-89089838D01*
X167321057Y-89231883D01*
X167057808Y-89494673D01*
X166915162Y-89838201D01*
X166914838Y-90210167D01*
X159685000Y-90210167D01*
X159685000Y-87110167D01*
X161714838Y-87110167D01*
X161856883Y-87453943D01*
X162119673Y-87717192D01*
X162463201Y-87859838D01*
X162835167Y-87860162D01*
X163178943Y-87718117D01*
X163442192Y-87455327D01*
X163584838Y-87111799D01*
X163585162Y-86739833D01*
X163443117Y-86396057D01*
X163180327Y-86132808D01*
X162884977Y-86010167D01*
X174964840Y-86010167D01*
X175106885Y-86353943D01*
X175369675Y-86617192D01*
X175713203Y-86759838D01*
X176085169Y-86760162D01*
X176377692Y-86639294D01*
X176617900Y-86739038D01*
X176989866Y-86739362D01*
X177333642Y-86597317D01*
X177596891Y-86334527D01*
X177710815Y-86060167D01*
X184364838Y-86060167D01*
X184506883Y-86403943D01*
X184769673Y-86667192D01*
X185113201Y-86809838D01*
X185485167Y-86810162D01*
X185828943Y-86668117D01*
X186092192Y-86405327D01*
X186234838Y-86061799D01*
X186234864Y-86032147D01*
X186369673Y-86167192D01*
X186713201Y-86309838D01*
X187085167Y-86310162D01*
X187428943Y-86168117D01*
X187692192Y-85905327D01*
X187834838Y-85561799D01*
X187835162Y-85189833D01*
X187693117Y-84846057D01*
X187430327Y-84582808D01*
X187086799Y-84440162D01*
X186714833Y-84439838D01*
X186371057Y-84581883D01*
X186107808Y-84844673D01*
X185965162Y-85188201D01*
X185965136Y-85217853D01*
X185830327Y-85082808D01*
X185486799Y-84940162D01*
X185114833Y-84939838D01*
X184771057Y-85081883D01*
X184507808Y-85344673D01*
X184365162Y-85688201D01*
X184364838Y-86060167D01*
X177710815Y-86060167D01*
X177739537Y-85990999D01*
X177739861Y-85619033D01*
X177597816Y-85275257D01*
X177335026Y-85012008D01*
X176991498Y-84869362D01*
X176619532Y-84869038D01*
X176327009Y-84989906D01*
X176086801Y-84890162D01*
X175714835Y-84889838D01*
X175371059Y-85031883D01*
X175107810Y-85294673D01*
X174965164Y-85638201D01*
X174964840Y-86010167D01*
X162884977Y-86010167D01*
X162836799Y-85990162D01*
X162464833Y-85989838D01*
X162121057Y-86131883D01*
X161857808Y-86394673D01*
X161715162Y-86738201D01*
X161714838Y-87110167D01*
X159685000Y-87110167D01*
X159685000Y-83185166D01*
X167014838Y-83185166D01*
X167156883Y-83528942D01*
X167419673Y-83792191D01*
X167763201Y-83934837D01*
X168135167Y-83935161D01*
X168478943Y-83793116D01*
X168742192Y-83530326D01*
X168823229Y-83335167D01*
X175589838Y-83335167D01*
X175731883Y-83678943D01*
X175994673Y-83942192D01*
X176338201Y-84084838D01*
X176710167Y-84085162D01*
X177053943Y-83943117D01*
X177317192Y-83680327D01*
X177459838Y-83336799D01*
X177459861Y-83310167D01*
X185964838Y-83310167D01*
X186106883Y-83653943D01*
X186369673Y-83917192D01*
X186713201Y-84059838D01*
X187085167Y-84060162D01*
X187428943Y-83918117D01*
X187692192Y-83655327D01*
X187834838Y-83311799D01*
X187835162Y-82939833D01*
X187693117Y-82596057D01*
X187430327Y-82332808D01*
X187086799Y-82190162D01*
X186714833Y-82189838D01*
X186371057Y-82331883D01*
X186107808Y-82594673D01*
X185965162Y-82938201D01*
X185964838Y-83310167D01*
X177459861Y-83310167D01*
X177460162Y-82964833D01*
X177318117Y-82621057D01*
X177055327Y-82357808D01*
X176711799Y-82215162D01*
X176339833Y-82214838D01*
X175996057Y-82356883D01*
X175732808Y-82619673D01*
X175590162Y-82963201D01*
X175589838Y-83335167D01*
X168823229Y-83335167D01*
X168884838Y-83186798D01*
X168885162Y-82814832D01*
X168743117Y-82471056D01*
X168480327Y-82207807D01*
X168136799Y-82065161D01*
X167764833Y-82064837D01*
X167421057Y-82206882D01*
X167157808Y-82469672D01*
X167015162Y-82813200D01*
X167014838Y-83185166D01*
X159685000Y-83185166D01*
X159685000Y-81902163D01*
X187527443Y-81902163D01*
X187626042Y-82168965D01*
X188235582Y-82395401D01*
X188885377Y-82371341D01*
X189373958Y-82168965D01*
X189472557Y-81902163D01*
X188500000Y-80929605D01*
X187527443Y-81902163D01*
X159685000Y-81902163D01*
X159685000Y-80485582D01*
X186854599Y-80485582D01*
X186878659Y-81135377D01*
X187081035Y-81623958D01*
X187347837Y-81722557D01*
X188320395Y-80750000D01*
X188679605Y-80750000D01*
X189652163Y-81722557D01*
X189918965Y-81623958D01*
X190145401Y-81014418D01*
X190121341Y-80364623D01*
X189918965Y-79876042D01*
X189652163Y-79777443D01*
X188679605Y-80750000D01*
X188320395Y-80750000D01*
X187347837Y-79777443D01*
X187081035Y-79876042D01*
X186854599Y-80485582D01*
X159685000Y-80485582D01*
X159685000Y-77685000D01*
X174489934Y-77685000D01*
X174364841Y-77986256D01*
M02*
