G04 #@! TF.FileFunction,Copper,L1,Top,Signal*
%FSLAX46Y46*%
G04 Gerber Fmt 4.6, Leading zero omitted, Abs format (unit mm)*
G04 Created by KiCad (PCBNEW 4.0.2-stable) date 2016年10月18日 星期二 03:38:32*
%MOMM*%
G01*
G04 APERTURE LIST*
%ADD10C,0.100000*%
%ADD11R,1.250000X1.000000*%
%ADD12R,0.750000X0.800000*%
%ADD13R,0.800000X0.750000*%
%ADD14C,1.998980*%
%ADD15C,1.524000*%
%ADD16R,0.900000X0.500000*%
%ADD17R,0.500000X0.900000*%
%ADD18R,0.800100X0.800100*%
%ADD19R,0.300000X0.850000*%
%ADD20R,0.850000X0.300000*%
%ADD21R,1.300000X1.300000*%
%ADD22R,1.200000X1.400000*%
%ADD23C,1.000760*%
%ADD24R,0.700000X0.250000*%
%ADD25R,0.250000X0.700000*%
%ADD26R,1.287500X1.287500*%
%ADD27R,0.800000X0.300000*%
%ADD28R,0.800000X0.400000*%
%ADD29C,0.600000*%
%ADD30C,0.250000*%
%ADD31C,0.254000*%
G04 APERTURE END LIST*
D10*
D11*
X180950000Y-99950000D03*
X180950000Y-97950000D03*
D12*
X182400000Y-99675000D03*
X182400000Y-98175000D03*
X174200000Y-99675000D03*
X174200000Y-98175000D03*
D11*
X175650000Y-99925000D03*
X175650000Y-97925000D03*
D12*
X171196000Y-91667200D03*
X171196000Y-93167200D03*
D13*
X157275000Y-92225000D03*
X155775000Y-92225000D03*
X157581600Y-98196400D03*
X156081600Y-98196400D03*
D12*
X161594800Y-96747200D03*
X161594800Y-98247200D03*
X161575000Y-91025000D03*
X161575000Y-89525000D03*
X159054800Y-96747200D03*
X159054800Y-98247200D03*
D13*
X163092000Y-90119200D03*
X164592000Y-90119200D03*
D12*
X160075000Y-91025000D03*
X160075000Y-89525000D03*
D13*
X172675000Y-99725000D03*
X171175000Y-99725000D03*
X155800000Y-90700000D03*
X157300000Y-90700000D03*
X148109190Y-94734258D03*
X146609190Y-94734258D03*
X148109190Y-95934258D03*
X146609190Y-95934258D03*
X182550000Y-95550000D03*
X181050000Y-95550000D03*
D12*
X174200000Y-93175000D03*
X174200000Y-91675000D03*
D13*
X181200000Y-92900000D03*
X182700000Y-92900000D03*
D14*
X185000000Y-99000000D03*
X185000000Y-96000000D03*
D15*
X185000000Y-91275000D03*
X185000000Y-93500000D03*
D16*
X169700000Y-99550000D03*
X169700000Y-101050000D03*
D17*
X167400000Y-90075000D03*
X165900000Y-90075000D03*
D16*
X159105600Y-93902400D03*
X159105600Y-95402400D03*
X160324800Y-98274000D03*
X160324800Y-96774000D03*
X148097597Y-93410111D03*
X148097597Y-91910111D03*
X171275000Y-96900000D03*
X171275000Y-98400000D03*
X172650000Y-91825000D03*
X172650000Y-93325000D03*
X146747597Y-91910111D03*
X146747597Y-93410111D03*
D17*
X181025000Y-94250000D03*
X182525000Y-94250000D03*
D18*
X177276020Y-98000000D03*
X177276020Y-99900000D03*
X179275000Y-98950000D03*
D19*
X176375000Y-95600000D03*
X176875000Y-95600000D03*
X177375000Y-95600000D03*
X177875000Y-95600000D03*
X178375000Y-95600000D03*
X178875000Y-95600000D03*
D20*
X179575000Y-94900000D03*
X179575000Y-94400000D03*
X179575000Y-93900000D03*
X179575000Y-93400000D03*
X179575000Y-92900000D03*
X179575000Y-92400000D03*
D19*
X178875000Y-91700000D03*
X178375000Y-91700000D03*
X177875000Y-91700000D03*
X177375000Y-91700000D03*
X176875000Y-91700000D03*
X176375000Y-91700000D03*
D20*
X175675000Y-92400000D03*
X175675000Y-92900000D03*
X175675000Y-93400000D03*
X175675000Y-93900000D03*
X175675000Y-94400000D03*
X175675000Y-94900000D03*
D21*
X178275000Y-93000000D03*
X176975000Y-93000000D03*
X178275000Y-94300000D03*
X176975000Y-94300000D03*
D22*
X155880000Y-94320000D03*
X155880000Y-96520000D03*
X157480000Y-94320000D03*
X157480000Y-96520000D03*
D23*
X161575000Y-92525000D03*
X160076400Y-92525000D03*
D24*
X163014000Y-92198800D03*
X163014000Y-92698800D03*
X163014000Y-93198800D03*
X163014000Y-93698800D03*
X163014000Y-94198800D03*
X163014000Y-94698800D03*
X163014000Y-95198800D03*
X163014000Y-95698800D03*
X163014000Y-96198800D03*
X163014000Y-96698800D03*
X163014000Y-97198800D03*
X163014000Y-97698800D03*
D25*
X163664000Y-98348800D03*
X164164000Y-98348800D03*
X164664000Y-98348800D03*
X165164000Y-98348800D03*
X165664000Y-98348800D03*
X166164000Y-98348800D03*
X166664000Y-98348800D03*
X167164000Y-98348800D03*
X167664000Y-98348800D03*
X168164000Y-98348800D03*
X168664000Y-98348800D03*
X169164000Y-98348800D03*
D24*
X169814000Y-97698800D03*
X169814000Y-97198800D03*
X169814000Y-96698800D03*
X169814000Y-96198800D03*
X169814000Y-95698800D03*
X169814000Y-95198800D03*
X169814000Y-94698800D03*
X169814000Y-94198800D03*
X169814000Y-93698800D03*
X169814000Y-93198800D03*
X169814000Y-92698800D03*
X169814000Y-92198800D03*
D25*
X169164000Y-91548800D03*
X168664000Y-91548800D03*
X168164000Y-91548800D03*
X167664000Y-91548800D03*
X167164000Y-91548800D03*
X166664000Y-91548800D03*
X166164000Y-91548800D03*
X165664000Y-91548800D03*
X165164000Y-91548800D03*
X164664000Y-91548800D03*
X164164000Y-91548800D03*
X163664000Y-91548800D03*
D26*
X168345250Y-96880050D03*
X168345250Y-95592550D03*
X168345250Y-94305050D03*
X168345250Y-93017550D03*
X167057750Y-96880050D03*
X167057750Y-95592550D03*
X167057750Y-94305050D03*
X167057750Y-93017550D03*
X165770250Y-96880050D03*
X165770250Y-95592550D03*
X165770250Y-94305050D03*
X165770250Y-93017550D03*
X164482750Y-96880050D03*
X164482750Y-95592550D03*
X164482750Y-94305050D03*
X164482750Y-93017550D03*
D27*
X153450000Y-91950000D03*
X153450000Y-92450000D03*
X153450000Y-92950000D03*
X153450000Y-93450000D03*
X153450000Y-93950000D03*
X153450000Y-94450000D03*
X153450000Y-94950000D03*
X153450000Y-95450000D03*
X153450000Y-95950000D03*
X153450000Y-96450000D03*
D28*
X150950000Y-90950000D03*
X150950000Y-97450000D03*
D29*
X162850000Y-98500000D03*
X159050004Y-99325000D03*
X170900000Y-94275000D03*
X168650000Y-99525000D03*
X175225000Y-96100000D03*
X180975000Y-91525000D03*
X183475000Y-97775000D03*
X182550000Y-96675000D03*
X183425000Y-94275000D03*
X176375000Y-90675000D03*
X174200000Y-90675000D03*
X155100000Y-97825000D03*
X154400000Y-96725000D03*
X154400000Y-95950000D03*
X155200000Y-93025000D03*
X173250000Y-98175000D03*
X178300000Y-97625000D03*
X157300000Y-89725000D03*
X161575000Y-88500000D03*
X160075000Y-88500000D03*
X161675000Y-95825000D03*
X164600000Y-89225010D03*
X145600000Y-93425000D03*
X145600000Y-95925000D03*
X145600000Y-94750000D03*
X171200000Y-90400000D03*
X173425000Y-100650000D03*
X165875000Y-100975000D03*
X149225000Y-95934258D03*
X149225000Y-92850000D03*
X178725008Y-96900000D03*
X181050000Y-96725000D03*
X179900000Y-91749998D03*
X154550000Y-91300000D03*
X166625000Y-99800000D03*
X171950002Y-94650000D03*
X183400000Y-90725000D03*
X171963529Y-95474897D03*
X182855079Y-91418667D03*
X150303603Y-96560567D03*
X149667033Y-93815390D03*
X162010155Y-100400021D03*
X150855164Y-93244239D03*
X164296172Y-99319925D03*
X152269431Y-91715395D03*
X163253729Y-100400021D03*
X151644421Y-92482110D03*
X165125000Y-100275000D03*
X151644421Y-93374979D03*
D30*
X180950000Y-99950000D02*
X180275000Y-99950000D01*
X180275000Y-99950000D02*
X179275000Y-98950000D01*
X182400000Y-99675000D02*
X181225000Y-99675000D01*
X181225000Y-99675000D02*
X180950000Y-99950000D01*
X182400000Y-99675000D02*
X184325000Y-99675000D01*
X184325000Y-99675000D02*
X185000000Y-99000000D01*
X179575000Y-92900000D02*
X180250000Y-92900000D01*
X180450000Y-92700000D02*
X180450000Y-92050000D01*
X180450000Y-92050000D02*
X180675001Y-91824999D01*
X180250000Y-92900000D02*
X180450000Y-92700000D01*
X180675001Y-91824999D02*
X180975000Y-91525000D01*
X161594800Y-98247200D02*
X162597200Y-98247200D01*
X162597200Y-98247200D02*
X162850000Y-98500000D01*
X159054800Y-99320204D02*
X159050004Y-99325000D01*
X159054800Y-98247200D02*
X159054800Y-99320204D01*
X155775000Y-92225000D02*
X157300000Y-90700000D01*
X171196000Y-93979000D02*
X170900000Y-94275000D01*
X171196000Y-93167200D02*
X171196000Y-93979000D01*
X169814000Y-92698800D02*
X170727600Y-92698800D01*
X170727600Y-92698800D02*
X171196000Y-93167200D01*
X168664000Y-98348800D02*
X168664000Y-99511000D01*
X168664000Y-99511000D02*
X168650000Y-99525000D01*
X169700000Y-99550000D02*
X168675000Y-99550000D01*
X168675000Y-99550000D02*
X168650000Y-99525000D01*
X169700000Y-99550000D02*
X171000000Y-99550000D01*
X171000000Y-99550000D02*
X171175000Y-99725000D01*
X176375000Y-95600000D02*
X175725000Y-95600000D01*
X175725000Y-95600000D02*
X175225000Y-96100000D01*
X182525000Y-94250000D02*
X182525000Y-93075000D01*
X182525000Y-93075000D02*
X182700000Y-92900000D01*
X182400000Y-98175000D02*
X183075000Y-98175000D01*
X183075000Y-98175000D02*
X183475000Y-97775000D01*
X180950000Y-97950000D02*
X182175000Y-97950000D01*
X182175000Y-97950000D02*
X182400000Y-98175000D01*
X182550000Y-95550000D02*
X182550000Y-94275000D01*
X182550000Y-94275000D02*
X182525000Y-94250000D01*
X182550000Y-95550000D02*
X182550000Y-96675000D01*
X182525000Y-94250000D02*
X183400000Y-94250000D01*
X183400000Y-94250000D02*
X183425000Y-94275000D01*
X176375000Y-91700000D02*
X176375000Y-90675000D01*
X174200000Y-91675000D02*
X174200000Y-90675000D01*
X156081600Y-98196400D02*
X155471400Y-98196400D01*
X155471400Y-98196400D02*
X155100000Y-97825000D01*
X153450000Y-96450000D02*
X154125000Y-96450000D01*
X154125000Y-96450000D02*
X154400000Y-96725000D01*
X153450000Y-95950000D02*
X154400000Y-95950000D01*
X155775000Y-92225000D02*
X155775000Y-92450000D01*
X155775000Y-92450000D02*
X155200000Y-93025000D01*
X174200000Y-98175000D02*
X173250000Y-98175000D01*
X174200000Y-98175000D02*
X175400000Y-98175000D01*
X175400000Y-98175000D02*
X175650000Y-97925000D01*
X175650000Y-97925000D02*
X177201020Y-97925000D01*
X177201020Y-97925000D02*
X177276020Y-98000000D01*
X177276020Y-98000000D02*
X177925000Y-98000000D01*
X177925000Y-98000000D02*
X178300000Y-97625000D01*
X157300000Y-90700000D02*
X157300000Y-89725000D01*
X161575000Y-89525000D02*
X161575000Y-88500000D01*
X160075000Y-89525000D02*
X160075000Y-88500000D01*
X160075000Y-89525000D02*
X161575000Y-89525000D01*
X161801200Y-95698800D02*
X161675000Y-95825000D01*
X163014000Y-95698800D02*
X161801200Y-95698800D01*
X164592000Y-89233010D02*
X164600000Y-89225010D01*
X164592000Y-90119200D02*
X164592000Y-89233010D01*
X164164000Y-91548800D02*
X164164000Y-90547200D01*
X164164000Y-90547200D02*
X164592000Y-90119200D01*
X146747597Y-93410111D02*
X145614889Y-93410111D01*
X145614889Y-93410111D02*
X145600000Y-93425000D01*
X146609190Y-95934258D02*
X145609258Y-95934258D01*
X145609258Y-95934258D02*
X145600000Y-95925000D01*
X146609190Y-94734258D02*
X145615742Y-94734258D01*
X145615742Y-94734258D02*
X145600000Y-94750000D01*
X153450000Y-94950000D02*
X150209258Y-94950000D01*
X150209258Y-94950000D02*
X149225000Y-95934258D01*
X165575001Y-101274999D02*
X165875000Y-100975000D01*
X161960129Y-101274999D02*
X165575001Y-101274999D01*
X160325000Y-99639870D02*
X161960129Y-101274999D01*
X160325000Y-99575000D02*
X160325000Y-99639870D01*
X171196000Y-90404000D02*
X171200000Y-90400000D01*
X170900001Y-90100001D02*
X171200000Y-90400000D01*
X169400000Y-88600000D02*
X170900001Y-90100001D01*
X163986200Y-88600000D02*
X169400000Y-88600000D01*
X163092000Y-89494200D02*
X163986200Y-88600000D01*
X163092000Y-90119200D02*
X163092000Y-89494200D01*
X171196000Y-91667200D02*
X171196000Y-90404000D01*
X160325000Y-99575000D02*
X160325000Y-99600000D01*
X160325000Y-99600000D02*
X159500000Y-100425000D01*
X159500000Y-100425000D02*
X152075000Y-100425000D01*
X148109190Y-96459190D02*
X148109190Y-95934258D01*
X152075000Y-100425000D02*
X148109190Y-96459190D01*
X148109190Y-94734258D02*
X148109190Y-93421704D01*
X148109190Y-93421704D02*
X148097597Y-93410111D01*
X148109190Y-95934258D02*
X148109190Y-94734258D01*
X172675000Y-99725000D02*
X173425000Y-99725000D01*
X173425000Y-99725000D02*
X174150000Y-99725000D01*
X173425000Y-100650000D02*
X173425000Y-100225736D01*
X173425000Y-100225736D02*
X173425000Y-99725000D01*
X160325000Y-98774200D02*
X160325000Y-99575000D01*
X160324800Y-98274000D02*
X160324800Y-98774000D01*
X160324800Y-98774000D02*
X160325000Y-98774200D01*
X169164000Y-98348800D02*
X171223800Y-98348800D01*
X171223800Y-98348800D02*
X171275000Y-98400000D01*
X174150000Y-99725000D02*
X174200000Y-99675000D01*
X171275000Y-98400000D02*
X171350000Y-98400000D01*
X171350000Y-98400000D02*
X172675000Y-99725000D01*
X162414000Y-96198800D02*
X163014000Y-96198800D01*
X162226204Y-96198800D02*
X162414000Y-96198800D01*
X161677804Y-96747200D02*
X162226204Y-96198800D01*
X161594800Y-96747200D02*
X161677804Y-96747200D01*
X153450000Y-94450000D02*
X148393448Y-94450000D01*
X148393448Y-94450000D02*
X148109190Y-94734258D01*
X149225000Y-95934258D02*
X148109190Y-95934258D01*
X148097597Y-93410111D02*
X148664889Y-93410111D01*
X148664889Y-93410111D02*
X149225000Y-92850000D01*
X148097597Y-93410111D02*
X147889889Y-93410111D01*
X179025007Y-97199999D02*
X178725008Y-96900000D01*
X179050000Y-97224992D02*
X179025007Y-97199999D01*
X179050000Y-97789898D02*
X179050000Y-97224992D01*
X179050000Y-97789898D02*
X177276020Y-99563878D01*
X180114898Y-96725000D02*
X179050000Y-97789898D01*
X181050000Y-96725000D02*
X180114898Y-96725000D01*
X177276020Y-99563878D02*
X177276020Y-99900000D01*
X181050000Y-96725000D02*
X181050000Y-95550000D01*
X178875000Y-91700000D02*
X179850002Y-91700000D01*
X179850002Y-91700000D02*
X179900000Y-91749998D01*
X179575000Y-94400000D02*
X180250000Y-94400000D01*
X180250000Y-94400000D02*
X180400000Y-94550000D01*
X180400000Y-94925000D02*
X181025000Y-95550000D01*
X180400000Y-94550000D02*
X180400000Y-94925000D01*
X181025000Y-95550000D02*
X181050000Y-95550000D01*
X171196000Y-91667200D02*
X172492200Y-91667200D01*
X172492200Y-91667200D02*
X172650000Y-91825000D01*
X169814000Y-92198800D02*
X170664400Y-92198800D01*
X170664400Y-92198800D02*
X171196000Y-91667200D01*
X163092000Y-90119200D02*
X163092000Y-92120800D01*
X163092000Y-92120800D02*
X163014000Y-92198800D01*
X163664000Y-91548800D02*
X163664000Y-90691200D01*
X163664000Y-90691200D02*
X163092000Y-90119200D01*
X160324800Y-98274000D02*
X160324800Y-98017200D01*
X160324800Y-98017200D02*
X161594800Y-96747200D01*
X174200000Y-99675000D02*
X175400000Y-99675000D01*
X175400000Y-99675000D02*
X175650000Y-99925000D01*
X177276020Y-99900000D02*
X175675000Y-99900000D01*
X175675000Y-99900000D02*
X175650000Y-99925000D01*
X155880000Y-94320000D02*
X155880000Y-93595000D01*
X157250000Y-92225000D02*
X157275000Y-92225000D01*
X155880000Y-93595000D02*
X157250000Y-92225000D01*
X159105600Y-93902400D02*
X159105600Y-93402400D01*
X159105600Y-93402400D02*
X157928200Y-92225000D01*
X157928200Y-92225000D02*
X157925000Y-92225000D01*
X157925000Y-92225000D02*
X157275000Y-92225000D01*
X159105600Y-93902400D02*
X159305600Y-93902400D01*
X159305600Y-93902400D02*
X159602000Y-94198800D01*
X159602000Y-94198800D02*
X162414000Y-94198800D01*
X162414000Y-94198800D02*
X163014000Y-94198800D01*
X157581600Y-98196400D02*
X157581600Y-96621600D01*
X157581600Y-96621600D02*
X157480000Y-96520000D01*
X159105600Y-95402400D02*
X158597600Y-95402400D01*
X158597600Y-95402400D02*
X157480000Y-96520000D01*
X159105600Y-95402400D02*
X159805600Y-95402400D01*
X159805600Y-95402400D02*
X160509200Y-94698800D01*
X160509200Y-94698800D02*
X162414000Y-94698800D01*
X162414000Y-94698800D02*
X163014000Y-94698800D01*
X161575000Y-92525000D02*
X161575000Y-91025000D01*
X163014000Y-93198800D02*
X162248800Y-93198800D01*
X162248800Y-93198800D02*
X161575000Y-92525000D01*
X159054800Y-96747200D02*
X160298000Y-96747200D01*
X160298000Y-96747200D02*
X160324800Y-96774000D01*
X160324800Y-96774000D02*
X160324800Y-96274000D01*
X160324800Y-96274000D02*
X161400000Y-95198800D01*
X161400000Y-95198800D02*
X162414000Y-95198800D01*
X162414000Y-95198800D02*
X163014000Y-95198800D01*
X160076400Y-92525000D02*
X160076400Y-91026400D01*
X160076400Y-91026400D02*
X160075000Y-91025000D01*
X163014000Y-93698800D02*
X161250200Y-93698800D01*
X161250200Y-93698800D02*
X160076400Y-92525000D01*
X166664000Y-98348800D02*
X166664000Y-99761000D01*
X166664000Y-99761000D02*
X166625000Y-99800000D01*
X155800000Y-90700000D02*
X155150000Y-90700000D01*
X154550000Y-91300000D02*
X154550000Y-93500000D01*
X155150000Y-90700000D02*
X154550000Y-91300000D01*
X154550000Y-93500000D02*
X154100000Y-93950000D01*
X154100000Y-93950000D02*
X153450000Y-93950000D01*
X155775000Y-90700000D02*
X155800000Y-90700000D01*
X174200000Y-93175000D02*
X174475000Y-92900000D01*
X174475000Y-92900000D02*
X175675000Y-92900000D01*
X181200000Y-92900000D02*
X180700000Y-93400000D01*
X180700000Y-93400000D02*
X179575000Y-93400000D01*
X169814000Y-95198800D02*
X171301200Y-95198800D01*
X171301200Y-95198800D02*
X171850000Y-94650000D01*
X171850000Y-94650000D02*
X171950002Y-94650000D01*
X183400000Y-90752630D02*
X183400000Y-90725000D01*
X183922370Y-91275000D02*
X183400000Y-90752630D01*
X185000000Y-91275000D02*
X183922370Y-91275000D01*
X169814000Y-95698800D02*
X171739626Y-95698800D01*
X171739626Y-95698800D02*
X171963529Y-95474897D01*
X185000000Y-93500000D02*
X182918667Y-91418667D01*
X182918667Y-91418667D02*
X182855079Y-91418667D01*
X167164000Y-98348800D02*
X167164000Y-99214000D01*
X167164000Y-99214000D02*
X169000000Y-101050000D01*
X169000000Y-101050000D02*
X169700000Y-101050000D01*
X165900000Y-90075000D02*
X165664000Y-90311000D01*
X165664000Y-90311000D02*
X165664000Y-91548800D01*
X153450000Y-95450000D02*
X153450000Y-95425010D01*
X150603602Y-96260568D02*
X150303603Y-96560567D01*
X153450000Y-95450000D02*
X151414170Y-95450000D01*
X151414170Y-95450000D02*
X150603602Y-96260568D01*
X149967032Y-93515391D02*
X149667033Y-93815390D01*
X149967032Y-92667028D02*
X149967032Y-93515391D01*
X148097597Y-91910111D02*
X149210115Y-91910111D01*
X149210115Y-91910111D02*
X149967032Y-92667028D01*
X146747597Y-91910111D02*
X148097597Y-91910111D01*
X171975000Y-96900000D02*
X171275000Y-96900000D01*
X172072871Y-96900000D02*
X171975000Y-96900000D01*
X175675000Y-94900000D02*
X174072871Y-94900000D01*
X174072871Y-94900000D02*
X172072871Y-96900000D01*
X169814000Y-96698800D02*
X171073800Y-96698800D01*
X171073800Y-96698800D02*
X171275000Y-96900000D01*
X172650000Y-95686460D02*
X172650000Y-94400000D01*
X172137660Y-96198800D02*
X172650000Y-95686460D01*
X169814000Y-96198800D02*
X172137660Y-96198800D01*
X172650000Y-94400000D02*
X175000000Y-94400000D01*
X172650000Y-93325000D02*
X172650000Y-94400000D01*
X175000000Y-94400000D02*
X175675000Y-94400000D01*
X181025000Y-94250000D02*
X180675000Y-93900000D01*
X180675000Y-93900000D02*
X179575000Y-93900000D01*
X163664000Y-98348800D02*
X163664000Y-99011000D01*
X163664000Y-99011000D02*
X162274979Y-100400021D01*
X162274979Y-100400021D02*
X162010155Y-100400021D01*
X151186650Y-93999989D02*
X150855164Y-93668503D01*
X150855164Y-93668503D02*
X150855164Y-93244239D01*
X152629070Y-93450000D02*
X152079081Y-93999989D01*
X152079081Y-93999989D02*
X151186650Y-93999989D01*
X153450000Y-93450000D02*
X152629070Y-93450000D01*
X164664000Y-98348800D02*
X164664000Y-98952097D01*
X164596171Y-99019926D02*
X164296172Y-99319925D01*
X164664000Y-98952097D02*
X164596171Y-99019926D01*
X153450000Y-91950000D02*
X152504036Y-91950000D01*
X152504036Y-91950000D02*
X152269431Y-91715395D01*
X165664000Y-98348800D02*
X165664000Y-98835996D01*
X163677993Y-100400021D02*
X163253729Y-100400021D01*
X164099975Y-100400021D02*
X163677993Y-100400021D01*
X165664000Y-98835996D02*
X164099975Y-100400021D01*
X153450000Y-92450000D02*
X151676531Y-92450000D01*
X151676531Y-92450000D02*
X151644421Y-92482110D01*
X165424999Y-99975001D02*
X165125000Y-100275000D01*
X166164000Y-99236000D02*
X165424999Y-99975001D01*
X166164000Y-98348800D02*
X166164000Y-99236000D01*
X152069400Y-92950000D02*
X151944420Y-93074980D01*
X151944420Y-93074980D02*
X151644421Y-93374979D01*
X153450000Y-92950000D02*
X152069400Y-92950000D01*
D31*
G36*
X163538601Y-88152401D02*
X163538599Y-88152404D01*
X162644401Y-89046601D01*
X162585000Y-89135501D01*
X162585000Y-88998691D01*
X162488327Y-88765302D01*
X162309699Y-88586673D01*
X162076310Y-88490000D01*
X161860750Y-88490000D01*
X161702000Y-88648750D01*
X161702000Y-89398000D01*
X161722000Y-89398000D01*
X161722000Y-89652000D01*
X161702000Y-89652000D01*
X161702000Y-89672000D01*
X161448000Y-89672000D01*
X161448000Y-89652000D01*
X160202000Y-89652000D01*
X160202000Y-89672000D01*
X159948000Y-89672000D01*
X159948000Y-89652000D01*
X159223750Y-89652000D01*
X159065000Y-89810750D01*
X159065000Y-90051309D01*
X159161673Y-90284698D01*
X159254357Y-90377383D01*
X159222855Y-90423488D01*
X159182048Y-90625000D01*
X159182048Y-91425000D01*
X159217470Y-91613253D01*
X159328728Y-91786153D01*
X159364644Y-91810693D01*
X159222036Y-91953053D01*
X159068196Y-92323541D01*
X159068069Y-92469671D01*
X158375799Y-91777401D01*
X158170439Y-91640184D01*
X158139723Y-91634074D01*
X158100267Y-91572758D01*
X158238327Y-91434699D01*
X158335000Y-91201310D01*
X158335000Y-90985750D01*
X158176250Y-90827000D01*
X157427000Y-90827000D01*
X157427000Y-90847000D01*
X157173000Y-90847000D01*
X157173000Y-90827000D01*
X157153000Y-90827000D01*
X157153000Y-90573000D01*
X157173000Y-90573000D01*
X157173000Y-89848750D01*
X157427000Y-89848750D01*
X157427000Y-90573000D01*
X158176250Y-90573000D01*
X158335000Y-90414250D01*
X158335000Y-90198690D01*
X158238327Y-89965301D01*
X158059698Y-89786673D01*
X157826309Y-89690000D01*
X157585750Y-89690000D01*
X157427000Y-89848750D01*
X157173000Y-89848750D01*
X157014250Y-89690000D01*
X156773691Y-89690000D01*
X156540302Y-89786673D01*
X156447617Y-89879357D01*
X156401512Y-89847855D01*
X156200000Y-89807048D01*
X155400000Y-89807048D01*
X155211747Y-89842470D01*
X155038847Y-89953728D01*
X154931795Y-90110403D01*
X154907761Y-90115184D01*
X154702401Y-90252401D01*
X154702399Y-90252404D01*
X154462879Y-90491923D01*
X154389984Y-90491860D01*
X154092903Y-90614611D01*
X153865410Y-90841707D01*
X153742140Y-91138574D01*
X153742015Y-91282048D01*
X153050000Y-91282048D01*
X152970791Y-91296952D01*
X152954820Y-91258298D01*
X152727724Y-91030805D01*
X152430857Y-90907535D01*
X152109415Y-90907255D01*
X151867952Y-91007025D01*
X151867952Y-90750000D01*
X151832530Y-90561747D01*
X151721272Y-90388847D01*
X151551512Y-90272855D01*
X151350000Y-90232048D01*
X150550000Y-90232048D01*
X150361747Y-90267470D01*
X150188847Y-90378728D01*
X150072855Y-90548488D01*
X150032048Y-90750000D01*
X150032048Y-91150000D01*
X150067470Y-91338253D01*
X150178728Y-91511153D01*
X150348488Y-91627145D01*
X150550000Y-91667952D01*
X151350000Y-91667952D01*
X151461490Y-91646974D01*
X151461458Y-91683451D01*
X151187324Y-91796721D01*
X150959831Y-92023817D01*
X150836561Y-92320684D01*
X150836460Y-92436222D01*
X150695148Y-92436099D01*
X150564810Y-92489953D01*
X150551848Y-92424789D01*
X150414631Y-92219429D01*
X150414628Y-92219427D01*
X149657714Y-91462512D01*
X149452354Y-91325295D01*
X149210115Y-91277110D01*
X149210110Y-91277111D01*
X148886895Y-91277111D01*
X148749109Y-91182966D01*
X148547597Y-91142159D01*
X147647597Y-91142159D01*
X147459344Y-91177581D01*
X147424265Y-91200154D01*
X147399109Y-91182966D01*
X147197597Y-91142159D01*
X146297597Y-91142159D01*
X146109344Y-91177581D01*
X145936444Y-91288839D01*
X145820452Y-91458599D01*
X145779645Y-91660111D01*
X145779645Y-92160111D01*
X145815067Y-92348364D01*
X145926325Y-92521264D01*
X146022284Y-92586830D01*
X145937898Y-92621784D01*
X145759270Y-92800413D01*
X145662597Y-93033802D01*
X145662597Y-93126361D01*
X145821347Y-93285111D01*
X146620597Y-93285111D01*
X146620597Y-93263111D01*
X146874597Y-93263111D01*
X146874597Y-93285111D01*
X146894597Y-93285111D01*
X146894597Y-93535111D01*
X146874597Y-93535111D01*
X146874597Y-93557111D01*
X146620597Y-93557111D01*
X146620597Y-93535111D01*
X145821347Y-93535111D01*
X145662597Y-93693861D01*
X145662597Y-93786420D01*
X145727445Y-93942977D01*
X145670863Y-93999559D01*
X145574190Y-94232948D01*
X145574190Y-94448508D01*
X145732940Y-94607258D01*
X146482190Y-94607258D01*
X146482190Y-94587258D01*
X146736190Y-94587258D01*
X146736190Y-94607258D01*
X146756190Y-94607258D01*
X146756190Y-94861258D01*
X146736190Y-94861258D01*
X146736190Y-95807258D01*
X146756190Y-95807258D01*
X146756190Y-96061258D01*
X146736190Y-96061258D01*
X146736190Y-96785508D01*
X146894940Y-96944258D01*
X147135499Y-96944258D01*
X147368888Y-96847585D01*
X147461573Y-96754901D01*
X147507678Y-96786403D01*
X147592649Y-96803610D01*
X147661591Y-96906789D01*
X151627399Y-100872596D01*
X151627401Y-100872599D01*
X151818070Y-101000000D01*
X151832761Y-101009816D01*
X152075000Y-101058000D01*
X159499995Y-101058000D01*
X159500000Y-101058001D01*
X159742239Y-101009816D01*
X159947599Y-100872599D01*
X160305065Y-100515133D01*
X161206933Y-101417000D01*
X145557420Y-101417000D01*
X145344792Y-101374706D01*
X145213213Y-101286788D01*
X145125294Y-101155208D01*
X145083000Y-100942580D01*
X145083000Y-99662154D01*
X145307696Y-99662154D01*
X145574771Y-100308526D01*
X146068873Y-100803491D01*
X146714778Y-101071694D01*
X147414154Y-101072304D01*
X148060526Y-100805229D01*
X148555491Y-100311127D01*
X148823694Y-99665222D01*
X148824304Y-98965846D01*
X148557229Y-98319474D01*
X148063127Y-97824509D01*
X147417222Y-97556306D01*
X146717846Y-97555696D01*
X146071474Y-97822771D01*
X145576509Y-98316873D01*
X145308306Y-98962778D01*
X145307696Y-99662154D01*
X145083000Y-99662154D01*
X145083000Y-96220008D01*
X145574190Y-96220008D01*
X145574190Y-96435568D01*
X145670863Y-96668957D01*
X145849492Y-96847585D01*
X146082881Y-96944258D01*
X146323440Y-96944258D01*
X146482190Y-96785508D01*
X146482190Y-96061258D01*
X145732940Y-96061258D01*
X145574190Y-96220008D01*
X145083000Y-96220008D01*
X145083000Y-95020008D01*
X145574190Y-95020008D01*
X145574190Y-95235568D01*
X145615069Y-95334258D01*
X145574190Y-95432948D01*
X145574190Y-95648508D01*
X145732940Y-95807258D01*
X146482190Y-95807258D01*
X146482190Y-94861258D01*
X145732940Y-94861258D01*
X145574190Y-95020008D01*
X145083000Y-95020008D01*
X145083000Y-88998691D01*
X159065000Y-88998691D01*
X159065000Y-89239250D01*
X159223750Y-89398000D01*
X159948000Y-89398000D01*
X159948000Y-88648750D01*
X160202000Y-88648750D01*
X160202000Y-89398000D01*
X161448000Y-89398000D01*
X161448000Y-88648750D01*
X161289250Y-88490000D01*
X161073690Y-88490000D01*
X160840301Y-88586673D01*
X160825000Y-88601974D01*
X160809699Y-88586673D01*
X160576310Y-88490000D01*
X160360750Y-88490000D01*
X160202000Y-88648750D01*
X159948000Y-88648750D01*
X159789250Y-88490000D01*
X159573690Y-88490000D01*
X159340301Y-88586673D01*
X159161673Y-88765302D01*
X159065000Y-88998691D01*
X145083000Y-88998691D01*
X145083000Y-88557420D01*
X145125294Y-88344792D01*
X145213213Y-88213212D01*
X145344792Y-88125294D01*
X145557420Y-88083000D01*
X163642467Y-88083000D01*
X163538601Y-88152401D01*
X163538601Y-88152401D01*
G37*
X163538601Y-88152401D02*
X163538599Y-88152404D01*
X162644401Y-89046601D01*
X162585000Y-89135501D01*
X162585000Y-88998691D01*
X162488327Y-88765302D01*
X162309699Y-88586673D01*
X162076310Y-88490000D01*
X161860750Y-88490000D01*
X161702000Y-88648750D01*
X161702000Y-89398000D01*
X161722000Y-89398000D01*
X161722000Y-89652000D01*
X161702000Y-89652000D01*
X161702000Y-89672000D01*
X161448000Y-89672000D01*
X161448000Y-89652000D01*
X160202000Y-89652000D01*
X160202000Y-89672000D01*
X159948000Y-89672000D01*
X159948000Y-89652000D01*
X159223750Y-89652000D01*
X159065000Y-89810750D01*
X159065000Y-90051309D01*
X159161673Y-90284698D01*
X159254357Y-90377383D01*
X159222855Y-90423488D01*
X159182048Y-90625000D01*
X159182048Y-91425000D01*
X159217470Y-91613253D01*
X159328728Y-91786153D01*
X159364644Y-91810693D01*
X159222036Y-91953053D01*
X159068196Y-92323541D01*
X159068069Y-92469671D01*
X158375799Y-91777401D01*
X158170439Y-91640184D01*
X158139723Y-91634074D01*
X158100267Y-91572758D01*
X158238327Y-91434699D01*
X158335000Y-91201310D01*
X158335000Y-90985750D01*
X158176250Y-90827000D01*
X157427000Y-90827000D01*
X157427000Y-90847000D01*
X157173000Y-90847000D01*
X157173000Y-90827000D01*
X157153000Y-90827000D01*
X157153000Y-90573000D01*
X157173000Y-90573000D01*
X157173000Y-89848750D01*
X157427000Y-89848750D01*
X157427000Y-90573000D01*
X158176250Y-90573000D01*
X158335000Y-90414250D01*
X158335000Y-90198690D01*
X158238327Y-89965301D01*
X158059698Y-89786673D01*
X157826309Y-89690000D01*
X157585750Y-89690000D01*
X157427000Y-89848750D01*
X157173000Y-89848750D01*
X157014250Y-89690000D01*
X156773691Y-89690000D01*
X156540302Y-89786673D01*
X156447617Y-89879357D01*
X156401512Y-89847855D01*
X156200000Y-89807048D01*
X155400000Y-89807048D01*
X155211747Y-89842470D01*
X155038847Y-89953728D01*
X154931795Y-90110403D01*
X154907761Y-90115184D01*
X154702401Y-90252401D01*
X154702399Y-90252404D01*
X154462879Y-90491923D01*
X154389984Y-90491860D01*
X154092903Y-90614611D01*
X153865410Y-90841707D01*
X153742140Y-91138574D01*
X153742015Y-91282048D01*
X153050000Y-91282048D01*
X152970791Y-91296952D01*
X152954820Y-91258298D01*
X152727724Y-91030805D01*
X152430857Y-90907535D01*
X152109415Y-90907255D01*
X151867952Y-91007025D01*
X151867952Y-90750000D01*
X151832530Y-90561747D01*
X151721272Y-90388847D01*
X151551512Y-90272855D01*
X151350000Y-90232048D01*
X150550000Y-90232048D01*
X150361747Y-90267470D01*
X150188847Y-90378728D01*
X150072855Y-90548488D01*
X150032048Y-90750000D01*
X150032048Y-91150000D01*
X150067470Y-91338253D01*
X150178728Y-91511153D01*
X150348488Y-91627145D01*
X150550000Y-91667952D01*
X151350000Y-91667952D01*
X151461490Y-91646974D01*
X151461458Y-91683451D01*
X151187324Y-91796721D01*
X150959831Y-92023817D01*
X150836561Y-92320684D01*
X150836460Y-92436222D01*
X150695148Y-92436099D01*
X150564810Y-92489953D01*
X150551848Y-92424789D01*
X150414631Y-92219429D01*
X150414628Y-92219427D01*
X149657714Y-91462512D01*
X149452354Y-91325295D01*
X149210115Y-91277110D01*
X149210110Y-91277111D01*
X148886895Y-91277111D01*
X148749109Y-91182966D01*
X148547597Y-91142159D01*
X147647597Y-91142159D01*
X147459344Y-91177581D01*
X147424265Y-91200154D01*
X147399109Y-91182966D01*
X147197597Y-91142159D01*
X146297597Y-91142159D01*
X146109344Y-91177581D01*
X145936444Y-91288839D01*
X145820452Y-91458599D01*
X145779645Y-91660111D01*
X145779645Y-92160111D01*
X145815067Y-92348364D01*
X145926325Y-92521264D01*
X146022284Y-92586830D01*
X145937898Y-92621784D01*
X145759270Y-92800413D01*
X145662597Y-93033802D01*
X145662597Y-93126361D01*
X145821347Y-93285111D01*
X146620597Y-93285111D01*
X146620597Y-93263111D01*
X146874597Y-93263111D01*
X146874597Y-93285111D01*
X146894597Y-93285111D01*
X146894597Y-93535111D01*
X146874597Y-93535111D01*
X146874597Y-93557111D01*
X146620597Y-93557111D01*
X146620597Y-93535111D01*
X145821347Y-93535111D01*
X145662597Y-93693861D01*
X145662597Y-93786420D01*
X145727445Y-93942977D01*
X145670863Y-93999559D01*
X145574190Y-94232948D01*
X145574190Y-94448508D01*
X145732940Y-94607258D01*
X146482190Y-94607258D01*
X146482190Y-94587258D01*
X146736190Y-94587258D01*
X146736190Y-94607258D01*
X146756190Y-94607258D01*
X146756190Y-94861258D01*
X146736190Y-94861258D01*
X146736190Y-95807258D01*
X146756190Y-95807258D01*
X146756190Y-96061258D01*
X146736190Y-96061258D01*
X146736190Y-96785508D01*
X146894940Y-96944258D01*
X147135499Y-96944258D01*
X147368888Y-96847585D01*
X147461573Y-96754901D01*
X147507678Y-96786403D01*
X147592649Y-96803610D01*
X147661591Y-96906789D01*
X151627399Y-100872596D01*
X151627401Y-100872599D01*
X151818070Y-101000000D01*
X151832761Y-101009816D01*
X152075000Y-101058000D01*
X159499995Y-101058000D01*
X159500000Y-101058001D01*
X159742239Y-101009816D01*
X159947599Y-100872599D01*
X160305065Y-100515133D01*
X161206933Y-101417000D01*
X145557420Y-101417000D01*
X145344792Y-101374706D01*
X145213213Y-101286788D01*
X145125294Y-101155208D01*
X145083000Y-100942580D01*
X145083000Y-99662154D01*
X145307696Y-99662154D01*
X145574771Y-100308526D01*
X146068873Y-100803491D01*
X146714778Y-101071694D01*
X147414154Y-101072304D01*
X148060526Y-100805229D01*
X148555491Y-100311127D01*
X148823694Y-99665222D01*
X148824304Y-98965846D01*
X148557229Y-98319474D01*
X148063127Y-97824509D01*
X147417222Y-97556306D01*
X146717846Y-97555696D01*
X146071474Y-97822771D01*
X145576509Y-98316873D01*
X145308306Y-98962778D01*
X145307696Y-99662154D01*
X145083000Y-99662154D01*
X145083000Y-96220008D01*
X145574190Y-96220008D01*
X145574190Y-96435568D01*
X145670863Y-96668957D01*
X145849492Y-96847585D01*
X146082881Y-96944258D01*
X146323440Y-96944258D01*
X146482190Y-96785508D01*
X146482190Y-96061258D01*
X145732940Y-96061258D01*
X145574190Y-96220008D01*
X145083000Y-96220008D01*
X145083000Y-95020008D01*
X145574190Y-95020008D01*
X145574190Y-95235568D01*
X145615069Y-95334258D01*
X145574190Y-95432948D01*
X145574190Y-95648508D01*
X145732940Y-95807258D01*
X146482190Y-95807258D01*
X146482190Y-94861258D01*
X145732940Y-94861258D01*
X145574190Y-95020008D01*
X145083000Y-95020008D01*
X145083000Y-88998691D01*
X159065000Y-88998691D01*
X159065000Y-89239250D01*
X159223750Y-89398000D01*
X159948000Y-89398000D01*
X159948000Y-88648750D01*
X160202000Y-88648750D01*
X160202000Y-89398000D01*
X161448000Y-89398000D01*
X161448000Y-88648750D01*
X161289250Y-88490000D01*
X161073690Y-88490000D01*
X160840301Y-88586673D01*
X160825000Y-88601974D01*
X160809699Y-88586673D01*
X160576310Y-88490000D01*
X160360750Y-88490000D01*
X160202000Y-88648750D01*
X159948000Y-88648750D01*
X159789250Y-88490000D01*
X159573690Y-88490000D01*
X159340301Y-88586673D01*
X159161673Y-88765302D01*
X159065000Y-88998691D01*
X145083000Y-88998691D01*
X145083000Y-88557420D01*
X145125294Y-88344792D01*
X145213213Y-88213212D01*
X145344792Y-88125294D01*
X145557420Y-88083000D01*
X163642467Y-88083000D01*
X163538601Y-88152401D01*
G36*
X171302000Y-99598000D02*
X171322000Y-99598000D01*
X171322000Y-99852000D01*
X171302000Y-99852000D01*
X171302000Y-100576250D01*
X171460750Y-100735000D01*
X171701309Y-100735000D01*
X171934698Y-100638327D01*
X172027383Y-100545643D01*
X172073488Y-100577145D01*
X172275000Y-100617952D01*
X172617027Y-100617952D01*
X172616860Y-100810016D01*
X172739611Y-101107097D01*
X172966707Y-101334590D01*
X173165172Y-101417000D01*
X170644259Y-101417000D01*
X170667952Y-101300000D01*
X170667952Y-100800000D01*
X170655721Y-100735000D01*
X170889250Y-100735000D01*
X171048000Y-100576250D01*
X171048000Y-99852000D01*
X171028000Y-99852000D01*
X171028000Y-99598000D01*
X171048000Y-99598000D01*
X171048000Y-99578000D01*
X171302000Y-99578000D01*
X171302000Y-99598000D01*
X171302000Y-99598000D01*
G37*
X171302000Y-99598000D02*
X171322000Y-99598000D01*
X171322000Y-99852000D01*
X171302000Y-99852000D01*
X171302000Y-100576250D01*
X171460750Y-100735000D01*
X171701309Y-100735000D01*
X171934698Y-100638327D01*
X172027383Y-100545643D01*
X172073488Y-100577145D01*
X172275000Y-100617952D01*
X172617027Y-100617952D01*
X172616860Y-100810016D01*
X172739611Y-101107097D01*
X172966707Y-101334590D01*
X173165172Y-101417000D01*
X170644259Y-101417000D01*
X170667952Y-101300000D01*
X170667952Y-100800000D01*
X170655721Y-100735000D01*
X170889250Y-100735000D01*
X171048000Y-100576250D01*
X171048000Y-99852000D01*
X171028000Y-99852000D01*
X171028000Y-99598000D01*
X171048000Y-99598000D01*
X171048000Y-99578000D01*
X171302000Y-99578000D01*
X171302000Y-99598000D01*
G36*
X161721800Y-98120200D02*
X161741800Y-98120200D01*
X161741800Y-98374200D01*
X161721800Y-98374200D01*
X161721800Y-99123450D01*
X161880550Y-99282200D01*
X162096110Y-99282200D01*
X162329499Y-99185527D01*
X162508127Y-99006898D01*
X162604800Y-98773509D01*
X162604800Y-98532950D01*
X162446052Y-98374202D01*
X162604800Y-98374202D01*
X162604800Y-98329764D01*
X162664000Y-98341752D01*
X163021048Y-98341752D01*
X163021048Y-98698800D01*
X163030543Y-98749260D01*
X162182929Y-99596873D01*
X162171581Y-99592161D01*
X161850139Y-99591881D01*
X161553058Y-99714632D01*
X161423896Y-99843568D01*
X160958000Y-99377672D01*
X160958000Y-99226078D01*
X161093490Y-99282200D01*
X161309050Y-99282200D01*
X161467800Y-99123450D01*
X161467800Y-98374200D01*
X161447800Y-98374200D01*
X161447800Y-98120200D01*
X161467800Y-98120200D01*
X161467800Y-98100200D01*
X161721800Y-98100200D01*
X161721800Y-98120200D01*
X161721800Y-98120200D01*
G37*
X161721800Y-98120200D02*
X161741800Y-98120200D01*
X161741800Y-98374200D01*
X161721800Y-98374200D01*
X161721800Y-99123450D01*
X161880550Y-99282200D01*
X162096110Y-99282200D01*
X162329499Y-99185527D01*
X162508127Y-99006898D01*
X162604800Y-98773509D01*
X162604800Y-98532950D01*
X162446052Y-98374202D01*
X162604800Y-98374202D01*
X162604800Y-98329764D01*
X162664000Y-98341752D01*
X163021048Y-98341752D01*
X163021048Y-98698800D01*
X163030543Y-98749260D01*
X162182929Y-99596873D01*
X162171581Y-99592161D01*
X161850139Y-99591881D01*
X161553058Y-99714632D01*
X161423896Y-99843568D01*
X160958000Y-99377672D01*
X160958000Y-99226078D01*
X161093490Y-99282200D01*
X161309050Y-99282200D01*
X161467800Y-99123450D01*
X161467800Y-98374200D01*
X161447800Y-98374200D01*
X161447800Y-98120200D01*
X161467800Y-98120200D01*
X161467800Y-98100200D01*
X161721800Y-98100200D01*
X161721800Y-98120200D01*
G36*
X168664311Y-99054643D02*
X168615000Y-99173691D01*
X168615000Y-99266250D01*
X168773750Y-99425000D01*
X169573000Y-99425000D01*
X169573000Y-99403000D01*
X169827000Y-99403000D01*
X169827000Y-99425000D01*
X169847000Y-99425000D01*
X169847000Y-99675000D01*
X169827000Y-99675000D01*
X169827000Y-99697000D01*
X169573000Y-99697000D01*
X169573000Y-99675000D01*
X168773750Y-99675000D01*
X168646974Y-99801776D01*
X168061950Y-99216752D01*
X168158926Y-99216752D01*
X168179301Y-99237127D01*
X168412690Y-99333800D01*
X168442750Y-99333800D01*
X168601500Y-99175050D01*
X168601500Y-99101379D01*
X168650153Y-99070072D01*
X168662557Y-99051918D01*
X168664311Y-99054643D01*
X168664311Y-99054643D01*
G37*
X168664311Y-99054643D02*
X168615000Y-99173691D01*
X168615000Y-99266250D01*
X168773750Y-99425000D01*
X169573000Y-99425000D01*
X169573000Y-99403000D01*
X169827000Y-99403000D01*
X169827000Y-99425000D01*
X169847000Y-99425000D01*
X169847000Y-99675000D01*
X169827000Y-99675000D01*
X169827000Y-99697000D01*
X169573000Y-99697000D01*
X169573000Y-99675000D01*
X168773750Y-99675000D01*
X168646974Y-99801776D01*
X168061950Y-99216752D01*
X168158926Y-99216752D01*
X168179301Y-99237127D01*
X168412690Y-99333800D01*
X168442750Y-99333800D01*
X168601500Y-99175050D01*
X168601500Y-99101379D01*
X168650153Y-99070072D01*
X168662557Y-99051918D01*
X168664311Y-99054643D01*
G36*
X154762048Y-95020000D02*
X154797470Y-95208253D01*
X154908728Y-95381153D01*
X154964568Y-95419307D01*
X154918847Y-95448728D01*
X154802855Y-95618488D01*
X154762048Y-95820000D01*
X154762048Y-97220000D01*
X154797470Y-97408253D01*
X154908728Y-97581153D01*
X155052971Y-97679710D01*
X155046600Y-97695090D01*
X155046600Y-97910650D01*
X155205350Y-98069400D01*
X155954600Y-98069400D01*
X155954600Y-98049400D01*
X156208600Y-98049400D01*
X156208600Y-98069400D01*
X156228600Y-98069400D01*
X156228600Y-98323400D01*
X156208600Y-98323400D01*
X156208600Y-99047650D01*
X156367350Y-99206400D01*
X156607909Y-99206400D01*
X156841298Y-99109727D01*
X156933983Y-99017043D01*
X156980088Y-99048545D01*
X157181600Y-99089352D01*
X157981600Y-99089352D01*
X158169853Y-99053930D01*
X158181202Y-99046627D01*
X158320101Y-99185527D01*
X158553490Y-99282200D01*
X158769050Y-99282200D01*
X158927800Y-99123450D01*
X158927800Y-98374200D01*
X158907800Y-98374200D01*
X158907800Y-98120200D01*
X158927800Y-98120200D01*
X158927800Y-98100200D01*
X159181800Y-98100200D01*
X159181800Y-98120200D01*
X159201800Y-98120200D01*
X159201800Y-98374200D01*
X159181800Y-98374200D01*
X159181800Y-99123450D01*
X159340550Y-99282200D01*
X159556110Y-99282200D01*
X159692000Y-99225912D01*
X159692000Y-99337803D01*
X159237802Y-99792000D01*
X152337197Y-99792000D01*
X151027347Y-98482150D01*
X155046600Y-98482150D01*
X155046600Y-98697710D01*
X155143273Y-98931099D01*
X155321902Y-99109727D01*
X155555291Y-99206400D01*
X155795850Y-99206400D01*
X155954600Y-99047650D01*
X155954600Y-98323400D01*
X155205350Y-98323400D01*
X155046600Y-98482150D01*
X151027347Y-98482150D01*
X150713149Y-98167952D01*
X151350000Y-98167952D01*
X151538253Y-98132530D01*
X151711153Y-98021272D01*
X151827145Y-97851512D01*
X151867952Y-97650000D01*
X151867952Y-97250000D01*
X151832530Y-97061747D01*
X151721272Y-96888847D01*
X151551512Y-96772855D01*
X151350000Y-96732048D01*
X151107288Y-96732048D01*
X151111463Y-96721993D01*
X151111528Y-96647840D01*
X151676367Y-96083000D01*
X152452565Y-96083000D01*
X152415000Y-96173691D01*
X152415000Y-96226309D01*
X152511673Y-96459698D01*
X152576975Y-96525000D01*
X152573750Y-96525000D01*
X152415000Y-96683750D01*
X152415000Y-96726309D01*
X152511673Y-96959698D01*
X152690301Y-97138327D01*
X152923690Y-97235000D01*
X153164250Y-97235000D01*
X153323000Y-97076250D01*
X153323000Y-96303000D01*
X153577000Y-96303000D01*
X153577000Y-97076250D01*
X153735750Y-97235000D01*
X153976310Y-97235000D01*
X154209699Y-97138327D01*
X154388327Y-96959698D01*
X154485000Y-96726309D01*
X154485000Y-96683750D01*
X154326250Y-96525000D01*
X154323025Y-96525000D01*
X154388327Y-96459698D01*
X154485000Y-96226309D01*
X154485000Y-96173691D01*
X154388327Y-95940302D01*
X154323025Y-95875000D01*
X154326250Y-95875000D01*
X154485000Y-95716250D01*
X154485000Y-95673691D01*
X154388327Y-95440302D01*
X154367952Y-95419927D01*
X154367952Y-95300000D01*
X154348445Y-95196329D01*
X154367952Y-95100000D01*
X154367952Y-94800000D01*
X154348445Y-94696329D01*
X154367952Y-94600000D01*
X154367952Y-94517635D01*
X154547599Y-94397599D01*
X154762048Y-94183150D01*
X154762048Y-95020000D01*
X154762048Y-95020000D01*
G37*
X154762048Y-95020000D02*
X154797470Y-95208253D01*
X154908728Y-95381153D01*
X154964568Y-95419307D01*
X154918847Y-95448728D01*
X154802855Y-95618488D01*
X154762048Y-95820000D01*
X154762048Y-97220000D01*
X154797470Y-97408253D01*
X154908728Y-97581153D01*
X155052971Y-97679710D01*
X155046600Y-97695090D01*
X155046600Y-97910650D01*
X155205350Y-98069400D01*
X155954600Y-98069400D01*
X155954600Y-98049400D01*
X156208600Y-98049400D01*
X156208600Y-98069400D01*
X156228600Y-98069400D01*
X156228600Y-98323400D01*
X156208600Y-98323400D01*
X156208600Y-99047650D01*
X156367350Y-99206400D01*
X156607909Y-99206400D01*
X156841298Y-99109727D01*
X156933983Y-99017043D01*
X156980088Y-99048545D01*
X157181600Y-99089352D01*
X157981600Y-99089352D01*
X158169853Y-99053930D01*
X158181202Y-99046627D01*
X158320101Y-99185527D01*
X158553490Y-99282200D01*
X158769050Y-99282200D01*
X158927800Y-99123450D01*
X158927800Y-98374200D01*
X158907800Y-98374200D01*
X158907800Y-98120200D01*
X158927800Y-98120200D01*
X158927800Y-98100200D01*
X159181800Y-98100200D01*
X159181800Y-98120200D01*
X159201800Y-98120200D01*
X159201800Y-98374200D01*
X159181800Y-98374200D01*
X159181800Y-99123450D01*
X159340550Y-99282200D01*
X159556110Y-99282200D01*
X159692000Y-99225912D01*
X159692000Y-99337803D01*
X159237802Y-99792000D01*
X152337197Y-99792000D01*
X151027347Y-98482150D01*
X155046600Y-98482150D01*
X155046600Y-98697710D01*
X155143273Y-98931099D01*
X155321902Y-99109727D01*
X155555291Y-99206400D01*
X155795850Y-99206400D01*
X155954600Y-99047650D01*
X155954600Y-98323400D01*
X155205350Y-98323400D01*
X155046600Y-98482150D01*
X151027347Y-98482150D01*
X150713149Y-98167952D01*
X151350000Y-98167952D01*
X151538253Y-98132530D01*
X151711153Y-98021272D01*
X151827145Y-97851512D01*
X151867952Y-97650000D01*
X151867952Y-97250000D01*
X151832530Y-97061747D01*
X151721272Y-96888847D01*
X151551512Y-96772855D01*
X151350000Y-96732048D01*
X151107288Y-96732048D01*
X151111463Y-96721993D01*
X151111528Y-96647840D01*
X151676367Y-96083000D01*
X152452565Y-96083000D01*
X152415000Y-96173691D01*
X152415000Y-96226309D01*
X152511673Y-96459698D01*
X152576975Y-96525000D01*
X152573750Y-96525000D01*
X152415000Y-96683750D01*
X152415000Y-96726309D01*
X152511673Y-96959698D01*
X152690301Y-97138327D01*
X152923690Y-97235000D01*
X153164250Y-97235000D01*
X153323000Y-97076250D01*
X153323000Y-96303000D01*
X153577000Y-96303000D01*
X153577000Y-97076250D01*
X153735750Y-97235000D01*
X153976310Y-97235000D01*
X154209699Y-97138327D01*
X154388327Y-96959698D01*
X154485000Y-96726309D01*
X154485000Y-96683750D01*
X154326250Y-96525000D01*
X154323025Y-96525000D01*
X154388327Y-96459698D01*
X154485000Y-96226309D01*
X154485000Y-96173691D01*
X154388327Y-95940302D01*
X154323025Y-95875000D01*
X154326250Y-95875000D01*
X154485000Y-95716250D01*
X154485000Y-95673691D01*
X154388327Y-95440302D01*
X154367952Y-95419927D01*
X154367952Y-95300000D01*
X154348445Y-95196329D01*
X154367952Y-95100000D01*
X154367952Y-94800000D01*
X154348445Y-94696329D01*
X154367952Y-94600000D01*
X154367952Y-94517635D01*
X154547599Y-94397599D01*
X154762048Y-94183150D01*
X154762048Y-95020000D01*
G36*
X183729780Y-93751510D02*
X183922718Y-94218458D01*
X184238262Y-94534552D01*
X184126042Y-94581035D01*
X184027443Y-94847837D01*
X185000000Y-95820395D01*
X185014142Y-95806252D01*
X185193748Y-95985858D01*
X185179605Y-96000000D01*
X185193748Y-96014142D01*
X185014142Y-96193748D01*
X185000000Y-96179605D01*
X184027443Y-97152163D01*
X184126042Y-97418965D01*
X184522435Y-97566220D01*
X184147191Y-97721267D01*
X183722758Y-98144961D01*
X183492773Y-98698826D01*
X183492473Y-99042000D01*
X183228736Y-99042000D01*
X183219844Y-99028181D01*
X183313327Y-98934698D01*
X183410000Y-98701309D01*
X183410000Y-98460750D01*
X183251250Y-98302000D01*
X182527000Y-98302000D01*
X182527000Y-98322000D01*
X182273000Y-98322000D01*
X182273000Y-98302000D01*
X182253000Y-98302000D01*
X182253000Y-98048000D01*
X182273000Y-98048000D01*
X182273000Y-97298750D01*
X182527000Y-97298750D01*
X182527000Y-98048000D01*
X183251250Y-98048000D01*
X183410000Y-97889250D01*
X183410000Y-97648691D01*
X183313327Y-97415302D01*
X183134699Y-97236673D01*
X182901310Y-97140000D01*
X182685750Y-97140000D01*
X182527000Y-97298750D01*
X182273000Y-97298750D01*
X182147816Y-97173566D01*
X182113327Y-97090302D01*
X181934699Y-96911673D01*
X181857866Y-96879848D01*
X181858140Y-96564984D01*
X181821471Y-96476238D01*
X182023691Y-96560000D01*
X182264250Y-96560000D01*
X182423000Y-96401250D01*
X182423000Y-95677000D01*
X182403000Y-95677000D01*
X182403000Y-95423000D01*
X182423000Y-95423000D01*
X182423000Y-94698750D01*
X182400000Y-94675750D01*
X182400000Y-94377000D01*
X182650000Y-94377000D01*
X182650000Y-95176250D01*
X182677000Y-95203250D01*
X182677000Y-95423000D01*
X182697000Y-95423000D01*
X182697000Y-95677000D01*
X182677000Y-95677000D01*
X182677000Y-96401250D01*
X182835750Y-96560000D01*
X183076309Y-96560000D01*
X183309698Y-96463327D01*
X183381292Y-96391733D01*
X183581035Y-96873958D01*
X183847837Y-96972557D01*
X184820395Y-96000000D01*
X183847837Y-95027443D01*
X183585000Y-95124577D01*
X183585000Y-95048690D01*
X183488327Y-94815301D01*
X183410000Y-94736974D01*
X183410000Y-94535750D01*
X183251250Y-94377000D01*
X182650000Y-94377000D01*
X182400000Y-94377000D01*
X182378000Y-94377000D01*
X182378000Y-94123000D01*
X182400000Y-94123000D01*
X182400000Y-94103000D01*
X182650000Y-94103000D01*
X182650000Y-94123000D01*
X183251250Y-94123000D01*
X183410000Y-93964250D01*
X183410000Y-93833913D01*
X183459698Y-93813327D01*
X183638327Y-93634699D01*
X183730075Y-93413199D01*
X183729780Y-93751510D01*
X183729780Y-93751510D01*
G37*
X183729780Y-93751510D02*
X183922718Y-94218458D01*
X184238262Y-94534552D01*
X184126042Y-94581035D01*
X184027443Y-94847837D01*
X185000000Y-95820395D01*
X185014142Y-95806252D01*
X185193748Y-95985858D01*
X185179605Y-96000000D01*
X185193748Y-96014142D01*
X185014142Y-96193748D01*
X185000000Y-96179605D01*
X184027443Y-97152163D01*
X184126042Y-97418965D01*
X184522435Y-97566220D01*
X184147191Y-97721267D01*
X183722758Y-98144961D01*
X183492773Y-98698826D01*
X183492473Y-99042000D01*
X183228736Y-99042000D01*
X183219844Y-99028181D01*
X183313327Y-98934698D01*
X183410000Y-98701309D01*
X183410000Y-98460750D01*
X183251250Y-98302000D01*
X182527000Y-98302000D01*
X182527000Y-98322000D01*
X182273000Y-98322000D01*
X182273000Y-98302000D01*
X182253000Y-98302000D01*
X182253000Y-98048000D01*
X182273000Y-98048000D01*
X182273000Y-97298750D01*
X182527000Y-97298750D01*
X182527000Y-98048000D01*
X183251250Y-98048000D01*
X183410000Y-97889250D01*
X183410000Y-97648691D01*
X183313327Y-97415302D01*
X183134699Y-97236673D01*
X182901310Y-97140000D01*
X182685750Y-97140000D01*
X182527000Y-97298750D01*
X182273000Y-97298750D01*
X182147816Y-97173566D01*
X182113327Y-97090302D01*
X181934699Y-96911673D01*
X181857866Y-96879848D01*
X181858140Y-96564984D01*
X181821471Y-96476238D01*
X182023691Y-96560000D01*
X182264250Y-96560000D01*
X182423000Y-96401250D01*
X182423000Y-95677000D01*
X182403000Y-95677000D01*
X182403000Y-95423000D01*
X182423000Y-95423000D01*
X182423000Y-94698750D01*
X182400000Y-94675750D01*
X182400000Y-94377000D01*
X182650000Y-94377000D01*
X182650000Y-95176250D01*
X182677000Y-95203250D01*
X182677000Y-95423000D01*
X182697000Y-95423000D01*
X182697000Y-95677000D01*
X182677000Y-95677000D01*
X182677000Y-96401250D01*
X182835750Y-96560000D01*
X183076309Y-96560000D01*
X183309698Y-96463327D01*
X183381292Y-96391733D01*
X183581035Y-96873958D01*
X183847837Y-96972557D01*
X184820395Y-96000000D01*
X183847837Y-95027443D01*
X183585000Y-95124577D01*
X183585000Y-95048690D01*
X183488327Y-94815301D01*
X183410000Y-94736974D01*
X183410000Y-94535750D01*
X183251250Y-94377000D01*
X182650000Y-94377000D01*
X182400000Y-94377000D01*
X182378000Y-94377000D01*
X182378000Y-94123000D01*
X182400000Y-94123000D01*
X182400000Y-94103000D01*
X182650000Y-94103000D01*
X182650000Y-94123000D01*
X183251250Y-94123000D01*
X183410000Y-93964250D01*
X183410000Y-93833913D01*
X183459698Y-93813327D01*
X183638327Y-93634699D01*
X183730075Y-93413199D01*
X183729780Y-93751510D01*
G36*
X175250000Y-95567952D02*
X176100000Y-95567952D01*
X176207048Y-95547810D01*
X176207048Y-95727000D01*
X175748750Y-95727000D01*
X175590000Y-95885750D01*
X175590000Y-96151309D01*
X175686673Y-96384698D01*
X175865301Y-96563327D01*
X176098690Y-96660000D01*
X176141250Y-96660000D01*
X176300000Y-96501250D01*
X176300000Y-96302657D01*
X176353728Y-96386153D01*
X176450000Y-96451933D01*
X176450000Y-96501250D01*
X176608750Y-96660000D01*
X176651310Y-96660000D01*
X176884699Y-96563327D01*
X176905074Y-96542952D01*
X177025000Y-96542952D01*
X177128671Y-96523445D01*
X177225000Y-96542952D01*
X177525000Y-96542952D01*
X177628671Y-96523445D01*
X177725000Y-96542952D01*
X177998377Y-96542952D01*
X177917148Y-96738574D01*
X177916909Y-97012390D01*
X177802380Y-96964950D01*
X177561770Y-96964950D01*
X177403020Y-97123700D01*
X177403020Y-97873000D01*
X177423020Y-97873000D01*
X177423020Y-98127000D01*
X177403020Y-98127000D01*
X177403020Y-98147000D01*
X177149020Y-98147000D01*
X177149020Y-98127000D01*
X176826250Y-98127000D01*
X176751250Y-98052000D01*
X175777000Y-98052000D01*
X175777000Y-98072000D01*
X175523000Y-98072000D01*
X175523000Y-98052000D01*
X175503000Y-98052000D01*
X175503000Y-97798000D01*
X175523000Y-97798000D01*
X175523000Y-96948750D01*
X175777000Y-96948750D01*
X175777000Y-97798000D01*
X176324720Y-97798000D01*
X176399720Y-97873000D01*
X177149020Y-97873000D01*
X177149020Y-97123700D01*
X176990270Y-96964950D01*
X176749660Y-96964950D01*
X176723720Y-96975695D01*
X176634699Y-96886673D01*
X176401310Y-96790000D01*
X175935750Y-96790000D01*
X175777000Y-96948750D01*
X175523000Y-96948750D01*
X175364250Y-96790000D01*
X174898690Y-96790000D01*
X174665301Y-96886673D01*
X174486673Y-97065302D01*
X174434506Y-97191244D01*
X174327000Y-97298750D01*
X174327000Y-98048000D01*
X174347000Y-98048000D01*
X174347000Y-98302000D01*
X174327000Y-98302000D01*
X174327000Y-98322000D01*
X174073000Y-98322000D01*
X174073000Y-98302000D01*
X173348750Y-98302000D01*
X173190000Y-98460750D01*
X173190000Y-98701309D01*
X173259642Y-98869439D01*
X173075000Y-98832048D01*
X172677246Y-98832048D01*
X172242952Y-98397754D01*
X172242952Y-98150000D01*
X172207530Y-97961747D01*
X172096272Y-97788847D01*
X171926512Y-97672855D01*
X171816905Y-97650659D01*
X171827364Y-97648691D01*
X173190000Y-97648691D01*
X173190000Y-97889250D01*
X173348750Y-98048000D01*
X174073000Y-98048000D01*
X174073000Y-97298750D01*
X173914250Y-97140000D01*
X173698690Y-97140000D01*
X173465301Y-97236673D01*
X173286673Y-97415302D01*
X173190000Y-97648691D01*
X171827364Y-97648691D01*
X171913253Y-97632530D01*
X172067927Y-97533000D01*
X172072866Y-97533000D01*
X172072871Y-97533001D01*
X172315110Y-97484816D01*
X172520470Y-97347599D01*
X174335069Y-95533000D01*
X175077401Y-95533000D01*
X175250000Y-95567952D01*
X175250000Y-95567952D01*
G37*
X175250000Y-95567952D02*
X176100000Y-95567952D01*
X176207048Y-95547810D01*
X176207048Y-95727000D01*
X175748750Y-95727000D01*
X175590000Y-95885750D01*
X175590000Y-96151309D01*
X175686673Y-96384698D01*
X175865301Y-96563327D01*
X176098690Y-96660000D01*
X176141250Y-96660000D01*
X176300000Y-96501250D01*
X176300000Y-96302657D01*
X176353728Y-96386153D01*
X176450000Y-96451933D01*
X176450000Y-96501250D01*
X176608750Y-96660000D01*
X176651310Y-96660000D01*
X176884699Y-96563327D01*
X176905074Y-96542952D01*
X177025000Y-96542952D01*
X177128671Y-96523445D01*
X177225000Y-96542952D01*
X177525000Y-96542952D01*
X177628671Y-96523445D01*
X177725000Y-96542952D01*
X177998377Y-96542952D01*
X177917148Y-96738574D01*
X177916909Y-97012390D01*
X177802380Y-96964950D01*
X177561770Y-96964950D01*
X177403020Y-97123700D01*
X177403020Y-97873000D01*
X177423020Y-97873000D01*
X177423020Y-98127000D01*
X177403020Y-98127000D01*
X177403020Y-98147000D01*
X177149020Y-98147000D01*
X177149020Y-98127000D01*
X176826250Y-98127000D01*
X176751250Y-98052000D01*
X175777000Y-98052000D01*
X175777000Y-98072000D01*
X175523000Y-98072000D01*
X175523000Y-98052000D01*
X175503000Y-98052000D01*
X175503000Y-97798000D01*
X175523000Y-97798000D01*
X175523000Y-96948750D01*
X175777000Y-96948750D01*
X175777000Y-97798000D01*
X176324720Y-97798000D01*
X176399720Y-97873000D01*
X177149020Y-97873000D01*
X177149020Y-97123700D01*
X176990270Y-96964950D01*
X176749660Y-96964950D01*
X176723720Y-96975695D01*
X176634699Y-96886673D01*
X176401310Y-96790000D01*
X175935750Y-96790000D01*
X175777000Y-96948750D01*
X175523000Y-96948750D01*
X175364250Y-96790000D01*
X174898690Y-96790000D01*
X174665301Y-96886673D01*
X174486673Y-97065302D01*
X174434506Y-97191244D01*
X174327000Y-97298750D01*
X174327000Y-98048000D01*
X174347000Y-98048000D01*
X174347000Y-98302000D01*
X174327000Y-98302000D01*
X174327000Y-98322000D01*
X174073000Y-98322000D01*
X174073000Y-98302000D01*
X173348750Y-98302000D01*
X173190000Y-98460750D01*
X173190000Y-98701309D01*
X173259642Y-98869439D01*
X173075000Y-98832048D01*
X172677246Y-98832048D01*
X172242952Y-98397754D01*
X172242952Y-98150000D01*
X172207530Y-97961747D01*
X172096272Y-97788847D01*
X171926512Y-97672855D01*
X171816905Y-97650659D01*
X171827364Y-97648691D01*
X173190000Y-97648691D01*
X173190000Y-97889250D01*
X173348750Y-98048000D01*
X174073000Y-98048000D01*
X174073000Y-97298750D01*
X173914250Y-97140000D01*
X173698690Y-97140000D01*
X173465301Y-97236673D01*
X173286673Y-97415302D01*
X173190000Y-97648691D01*
X171827364Y-97648691D01*
X171913253Y-97632530D01*
X172067927Y-97533000D01*
X172072866Y-97533000D01*
X172072871Y-97533001D01*
X172315110Y-97484816D01*
X172520470Y-97347599D01*
X174335069Y-95533000D01*
X175077401Y-95533000D01*
X175250000Y-95567952D01*
G36*
X181077000Y-97823000D02*
X181097000Y-97823000D01*
X181097000Y-98077000D01*
X181077000Y-98077000D01*
X181077000Y-98097000D01*
X180823000Y-98097000D01*
X180823000Y-98077000D01*
X180803000Y-98077000D01*
X180803000Y-97823000D01*
X180823000Y-97823000D01*
X180823000Y-97803000D01*
X181077000Y-97803000D01*
X181077000Y-97823000D01*
X181077000Y-97823000D01*
G37*
X181077000Y-97823000D02*
X181097000Y-97823000D01*
X181097000Y-98077000D01*
X181077000Y-98077000D01*
X181077000Y-98097000D01*
X180823000Y-98097000D01*
X180823000Y-98077000D01*
X180803000Y-98077000D01*
X180803000Y-97823000D01*
X180823000Y-97823000D01*
X180823000Y-97803000D01*
X181077000Y-97803000D01*
X181077000Y-97823000D01*
G36*
X171323000Y-93040200D02*
X171343000Y-93040200D01*
X171343000Y-93294200D01*
X171323000Y-93294200D01*
X171323000Y-94043450D01*
X171368424Y-94088874D01*
X171265412Y-94191707D01*
X171160543Y-94444260D01*
X171039002Y-94565800D01*
X170680447Y-94565800D01*
X170657568Y-94444211D01*
X170681952Y-94323800D01*
X170681952Y-94196924D01*
X170694690Y-94202200D01*
X170910250Y-94202200D01*
X171069000Y-94043450D01*
X171069000Y-93294200D01*
X171049000Y-93294200D01*
X171049000Y-93040200D01*
X171069000Y-93040200D01*
X171069000Y-93020200D01*
X171323000Y-93020200D01*
X171323000Y-93040200D01*
X171323000Y-93040200D01*
G37*
X171323000Y-93040200D02*
X171343000Y-93040200D01*
X171343000Y-93294200D01*
X171323000Y-93294200D01*
X171323000Y-94043450D01*
X171368424Y-94088874D01*
X171265412Y-94191707D01*
X171160543Y-94444260D01*
X171039002Y-94565800D01*
X170680447Y-94565800D01*
X170657568Y-94444211D01*
X170681952Y-94323800D01*
X170681952Y-94196924D01*
X170694690Y-94202200D01*
X170910250Y-94202200D01*
X171069000Y-94043450D01*
X171069000Y-93294200D01*
X171049000Y-93294200D01*
X171049000Y-93040200D01*
X171069000Y-93040200D01*
X171069000Y-93020200D01*
X171323000Y-93020200D01*
X171323000Y-93040200D01*
G36*
X182827000Y-92773000D02*
X182847000Y-92773000D01*
X182847000Y-93027000D01*
X182827000Y-93027000D01*
X182827000Y-93047000D01*
X182573000Y-93047000D01*
X182573000Y-93027000D01*
X182553000Y-93027000D01*
X182553000Y-92773000D01*
X182573000Y-92773000D01*
X182573000Y-92753000D01*
X182827000Y-92753000D01*
X182827000Y-92773000D01*
X182827000Y-92773000D01*
G37*
X182827000Y-92773000D02*
X182847000Y-92773000D01*
X182847000Y-93027000D01*
X182827000Y-93027000D01*
X182827000Y-93047000D01*
X182573000Y-93047000D01*
X182573000Y-93027000D01*
X182553000Y-93027000D01*
X182553000Y-92773000D01*
X182573000Y-92773000D01*
X182573000Y-92753000D01*
X182827000Y-92753000D01*
X182827000Y-92773000D01*
G36*
X155902000Y-92098000D02*
X155922000Y-92098000D01*
X155922000Y-92352000D01*
X155902000Y-92352000D01*
X155902000Y-92372000D01*
X155648000Y-92372000D01*
X155648000Y-92352000D01*
X155628000Y-92352000D01*
X155628000Y-92098000D01*
X155648000Y-92098000D01*
X155648000Y-92078000D01*
X155902000Y-92078000D01*
X155902000Y-92098000D01*
X155902000Y-92098000D01*
G37*
X155902000Y-92098000D02*
X155922000Y-92098000D01*
X155922000Y-92352000D01*
X155902000Y-92352000D01*
X155902000Y-92372000D01*
X155648000Y-92372000D01*
X155648000Y-92352000D01*
X155628000Y-92352000D01*
X155628000Y-92098000D01*
X155648000Y-92098000D01*
X155648000Y-92078000D01*
X155902000Y-92078000D01*
X155902000Y-92098000D01*
G36*
X185655208Y-88125294D02*
X185786788Y-88213213D01*
X185874706Y-88344792D01*
X185917000Y-88557420D01*
X185917000Y-90395980D01*
X185720337Y-90198974D01*
X185253727Y-90005221D01*
X184748490Y-90004780D01*
X184281542Y-90197718D01*
X184122138Y-90356844D01*
X184085389Y-90267903D01*
X183858293Y-90040410D01*
X183561426Y-89917140D01*
X183239984Y-89916860D01*
X182942903Y-90039611D01*
X182715410Y-90266707D01*
X182592140Y-90563574D01*
X182592062Y-90653086D01*
X182397982Y-90733278D01*
X182170489Y-90960374D01*
X182047219Y-91257241D01*
X182046939Y-91578683D01*
X182169690Y-91875764D01*
X182183901Y-91890000D01*
X182173691Y-91890000D01*
X181940302Y-91986673D01*
X181847617Y-92079357D01*
X181801512Y-92047855D01*
X181600000Y-92007048D01*
X180800000Y-92007048D01*
X180656979Y-92033959D01*
X180707860Y-91911424D01*
X180708140Y-91589982D01*
X180585389Y-91292901D01*
X180358293Y-91065408D01*
X180061426Y-90942138D01*
X179739984Y-90941858D01*
X179482703Y-91048164D01*
X179396272Y-90913847D01*
X179226512Y-90797855D01*
X179025000Y-90757048D01*
X178725000Y-90757048D01*
X178621329Y-90776555D01*
X178525000Y-90757048D01*
X178225000Y-90757048D01*
X178121329Y-90776555D01*
X178025000Y-90757048D01*
X177725000Y-90757048D01*
X177621329Y-90776555D01*
X177525000Y-90757048D01*
X177225000Y-90757048D01*
X177121329Y-90776555D01*
X177025000Y-90757048D01*
X176905074Y-90757048D01*
X176884699Y-90736673D01*
X176651310Y-90640000D01*
X176608750Y-90640000D01*
X176450000Y-90798750D01*
X176450000Y-90848290D01*
X176363847Y-90903728D01*
X176300000Y-90997171D01*
X176300000Y-90798750D01*
X176141250Y-90640000D01*
X176098690Y-90640000D01*
X175865301Y-90736673D01*
X175686673Y-90915302D01*
X175590000Y-91148691D01*
X175590000Y-91414250D01*
X175748750Y-91573000D01*
X176207048Y-91573000D01*
X176207048Y-91753726D01*
X176100000Y-91732048D01*
X175250000Y-91732048D01*
X175061747Y-91767470D01*
X175008086Y-91802000D01*
X174327000Y-91802000D01*
X174327000Y-91822000D01*
X174073000Y-91822000D01*
X174073000Y-91802000D01*
X174053000Y-91802000D01*
X174053000Y-91548000D01*
X174073000Y-91548000D01*
X174073000Y-90798750D01*
X174327000Y-90798750D01*
X174327000Y-91548000D01*
X175051250Y-91548000D01*
X175210000Y-91389250D01*
X175210000Y-91148691D01*
X175113327Y-90915302D01*
X174934699Y-90736673D01*
X174701310Y-90640000D01*
X174485750Y-90640000D01*
X174327000Y-90798750D01*
X174073000Y-90798750D01*
X173914250Y-90640000D01*
X173698690Y-90640000D01*
X173465301Y-90736673D01*
X173286673Y-90915302D01*
X173218057Y-91080955D01*
X173100000Y-91057048D01*
X172607068Y-91057048D01*
X172492200Y-91034199D01*
X172492195Y-91034200D01*
X172024736Y-91034200D01*
X171942272Y-90906047D01*
X171879629Y-90863245D01*
X171884590Y-90858293D01*
X172007860Y-90561426D01*
X172008140Y-90239984D01*
X171885389Y-89942903D01*
X171658293Y-89715410D01*
X171361426Y-89592140D01*
X171287272Y-89592075D01*
X169847599Y-88152401D01*
X169743733Y-88083000D01*
X185442580Y-88083000D01*
X185655208Y-88125294D01*
X185655208Y-88125294D01*
G37*
X185655208Y-88125294D02*
X185786788Y-88213213D01*
X185874706Y-88344792D01*
X185917000Y-88557420D01*
X185917000Y-90395980D01*
X185720337Y-90198974D01*
X185253727Y-90005221D01*
X184748490Y-90004780D01*
X184281542Y-90197718D01*
X184122138Y-90356844D01*
X184085389Y-90267903D01*
X183858293Y-90040410D01*
X183561426Y-89917140D01*
X183239984Y-89916860D01*
X182942903Y-90039611D01*
X182715410Y-90266707D01*
X182592140Y-90563574D01*
X182592062Y-90653086D01*
X182397982Y-90733278D01*
X182170489Y-90960374D01*
X182047219Y-91257241D01*
X182046939Y-91578683D01*
X182169690Y-91875764D01*
X182183901Y-91890000D01*
X182173691Y-91890000D01*
X181940302Y-91986673D01*
X181847617Y-92079357D01*
X181801512Y-92047855D01*
X181600000Y-92007048D01*
X180800000Y-92007048D01*
X180656979Y-92033959D01*
X180707860Y-91911424D01*
X180708140Y-91589982D01*
X180585389Y-91292901D01*
X180358293Y-91065408D01*
X180061426Y-90942138D01*
X179739984Y-90941858D01*
X179482703Y-91048164D01*
X179396272Y-90913847D01*
X179226512Y-90797855D01*
X179025000Y-90757048D01*
X178725000Y-90757048D01*
X178621329Y-90776555D01*
X178525000Y-90757048D01*
X178225000Y-90757048D01*
X178121329Y-90776555D01*
X178025000Y-90757048D01*
X177725000Y-90757048D01*
X177621329Y-90776555D01*
X177525000Y-90757048D01*
X177225000Y-90757048D01*
X177121329Y-90776555D01*
X177025000Y-90757048D01*
X176905074Y-90757048D01*
X176884699Y-90736673D01*
X176651310Y-90640000D01*
X176608750Y-90640000D01*
X176450000Y-90798750D01*
X176450000Y-90848290D01*
X176363847Y-90903728D01*
X176300000Y-90997171D01*
X176300000Y-90798750D01*
X176141250Y-90640000D01*
X176098690Y-90640000D01*
X175865301Y-90736673D01*
X175686673Y-90915302D01*
X175590000Y-91148691D01*
X175590000Y-91414250D01*
X175748750Y-91573000D01*
X176207048Y-91573000D01*
X176207048Y-91753726D01*
X176100000Y-91732048D01*
X175250000Y-91732048D01*
X175061747Y-91767470D01*
X175008086Y-91802000D01*
X174327000Y-91802000D01*
X174327000Y-91822000D01*
X174073000Y-91822000D01*
X174073000Y-91802000D01*
X174053000Y-91802000D01*
X174053000Y-91548000D01*
X174073000Y-91548000D01*
X174073000Y-90798750D01*
X174327000Y-90798750D01*
X174327000Y-91548000D01*
X175051250Y-91548000D01*
X175210000Y-91389250D01*
X175210000Y-91148691D01*
X175113327Y-90915302D01*
X174934699Y-90736673D01*
X174701310Y-90640000D01*
X174485750Y-90640000D01*
X174327000Y-90798750D01*
X174073000Y-90798750D01*
X173914250Y-90640000D01*
X173698690Y-90640000D01*
X173465301Y-90736673D01*
X173286673Y-90915302D01*
X173218057Y-91080955D01*
X173100000Y-91057048D01*
X172607068Y-91057048D01*
X172492200Y-91034199D01*
X172492195Y-91034200D01*
X172024736Y-91034200D01*
X171942272Y-90906047D01*
X171879629Y-90863245D01*
X171884590Y-90858293D01*
X172007860Y-90561426D01*
X172008140Y-90239984D01*
X171885389Y-89942903D01*
X171658293Y-89715410D01*
X171361426Y-89592140D01*
X171287272Y-89592075D01*
X169847599Y-88152401D01*
X169743733Y-88083000D01*
X185442580Y-88083000D01*
X185655208Y-88125294D01*
G36*
X164719000Y-89992200D02*
X164739000Y-89992200D01*
X164739000Y-90246200D01*
X164719000Y-90246200D01*
X164719000Y-90266200D01*
X164465000Y-90266200D01*
X164465000Y-90246200D01*
X164445000Y-90246200D01*
X164445000Y-89992200D01*
X164465000Y-89992200D01*
X164465000Y-89972200D01*
X164719000Y-89972200D01*
X164719000Y-89992200D01*
X164719000Y-89992200D01*
G37*
X164719000Y-89992200D02*
X164739000Y-89992200D01*
X164739000Y-90246200D01*
X164719000Y-90246200D01*
X164719000Y-90266200D01*
X164465000Y-90266200D01*
X164465000Y-90246200D01*
X164445000Y-90246200D01*
X164445000Y-89992200D01*
X164465000Y-89992200D01*
X164465000Y-89972200D01*
X164719000Y-89972200D01*
X164719000Y-89992200D01*
M02*
