G04 #@! TF.FileFunction,Legend,Bot*
%FSLAX46Y46*%
G04 Gerber Fmt 4.6, Leading zero omitted, Abs format (unit mm)*
G04 Created by KiCad (PCBNEW 4.0.2-stable) date 2017年04月21日 星期五 11:17:21*
%MOMM*%
G01*
G04 APERTURE LIST*
%ADD10C,0.100000*%
%ADD11C,0.010000*%
%ADD12C,0.150000*%
G04 APERTURE END LIST*
D10*
D11*
G36*
X178711815Y-88414675D02*
X178691316Y-88426639D01*
X178658452Y-88446675D01*
X178614135Y-88474204D01*
X178559281Y-88508645D01*
X178494803Y-88549419D01*
X178421616Y-88595945D01*
X178340635Y-88647644D01*
X178252773Y-88703935D01*
X178158945Y-88764239D01*
X178060065Y-88827975D01*
X177957048Y-88894564D01*
X177945155Y-88902263D01*
X177841734Y-88969292D01*
X177742442Y-89033778D01*
X177648188Y-89095122D01*
X177559881Y-89152726D01*
X177478431Y-89205995D01*
X177404746Y-89254329D01*
X177339736Y-89297131D01*
X177284309Y-89333804D01*
X177239375Y-89363751D01*
X177205843Y-89386373D01*
X177184622Y-89401074D01*
X177176622Y-89407255D01*
X177176587Y-89407388D01*
X177188048Y-89414433D01*
X177213717Y-89423769D01*
X177251111Y-89434833D01*
X177297745Y-89447062D01*
X177351137Y-89459891D01*
X177408803Y-89472759D01*
X177468260Y-89485101D01*
X177527025Y-89496354D01*
X177582614Y-89505955D01*
X177632544Y-89513340D01*
X177656249Y-89516205D01*
X177711037Y-89520467D01*
X177777998Y-89523044D01*
X177852460Y-89523977D01*
X177929750Y-89523311D01*
X178005198Y-89521088D01*
X178074131Y-89517351D01*
X178131877Y-89512145D01*
X178134884Y-89511786D01*
X178196561Y-89502954D01*
X178264540Y-89490947D01*
X178333462Y-89476883D01*
X178397968Y-89461880D01*
X178452698Y-89447052D01*
X178467297Y-89442519D01*
X178512875Y-89427767D01*
X178616953Y-88924000D01*
X178635485Y-88834001D01*
X178652897Y-88748864D01*
X178668899Y-88670046D01*
X178683200Y-88599005D01*
X178695511Y-88537197D01*
X178705541Y-88486080D01*
X178712999Y-88447111D01*
X178717597Y-88421746D01*
X178719044Y-88411443D01*
X178719032Y-88411364D01*
X178711815Y-88414675D01*
X178711815Y-88414675D01*
G37*
X178711815Y-88414675D02*
X178691316Y-88426639D01*
X178658452Y-88446675D01*
X178614135Y-88474204D01*
X178559281Y-88508645D01*
X178494803Y-88549419D01*
X178421616Y-88595945D01*
X178340635Y-88647644D01*
X178252773Y-88703935D01*
X178158945Y-88764239D01*
X178060065Y-88827975D01*
X177957048Y-88894564D01*
X177945155Y-88902263D01*
X177841734Y-88969292D01*
X177742442Y-89033778D01*
X177648188Y-89095122D01*
X177559881Y-89152726D01*
X177478431Y-89205995D01*
X177404746Y-89254329D01*
X177339736Y-89297131D01*
X177284309Y-89333804D01*
X177239375Y-89363751D01*
X177205843Y-89386373D01*
X177184622Y-89401074D01*
X177176622Y-89407255D01*
X177176587Y-89407388D01*
X177188048Y-89414433D01*
X177213717Y-89423769D01*
X177251111Y-89434833D01*
X177297745Y-89447062D01*
X177351137Y-89459891D01*
X177408803Y-89472759D01*
X177468260Y-89485101D01*
X177527025Y-89496354D01*
X177582614Y-89505955D01*
X177632544Y-89513340D01*
X177656249Y-89516205D01*
X177711037Y-89520467D01*
X177777998Y-89523044D01*
X177852460Y-89523977D01*
X177929750Y-89523311D01*
X178005198Y-89521088D01*
X178074131Y-89517351D01*
X178131877Y-89512145D01*
X178134884Y-89511786D01*
X178196561Y-89502954D01*
X178264540Y-89490947D01*
X178333462Y-89476883D01*
X178397968Y-89461880D01*
X178452698Y-89447052D01*
X178467297Y-89442519D01*
X178512875Y-89427767D01*
X178616953Y-88924000D01*
X178635485Y-88834001D01*
X178652897Y-88748864D01*
X178668899Y-88670046D01*
X178683200Y-88599005D01*
X178695511Y-88537197D01*
X178705541Y-88486080D01*
X178712999Y-88447111D01*
X178717597Y-88421746D01*
X178719044Y-88411443D01*
X178719032Y-88411364D01*
X178711815Y-88414675D01*
G36*
X179177637Y-87517180D02*
X179175202Y-87526031D01*
X179169545Y-87550103D01*
X179160945Y-87588097D01*
X179149680Y-87638713D01*
X179136030Y-87700653D01*
X179120274Y-87772617D01*
X179102689Y-87853306D01*
X179083556Y-87941421D01*
X179063151Y-88035662D01*
X179041755Y-88134731D01*
X179019646Y-88237328D01*
X178997102Y-88342153D01*
X178974403Y-88447909D01*
X178951827Y-88553295D01*
X178929653Y-88657013D01*
X178908159Y-88757763D01*
X178887625Y-88854245D01*
X178868329Y-88945162D01*
X178850550Y-89029213D01*
X178834566Y-89105099D01*
X178820656Y-89171522D01*
X178809100Y-89227181D01*
X178800175Y-89270779D01*
X178794161Y-89301014D01*
X178791336Y-89316589D01*
X178791181Y-89318470D01*
X178799192Y-89315677D01*
X178819022Y-89306033D01*
X178847754Y-89291024D01*
X178882466Y-89272135D01*
X178885211Y-89270613D01*
X179043200Y-89173957D01*
X179192227Y-89064699D01*
X179331037Y-88944083D01*
X179458371Y-88813354D01*
X179572974Y-88673755D01*
X179673588Y-88526529D01*
X179723461Y-88441019D01*
X179753846Y-88385605D01*
X179468273Y-87948599D01*
X179417728Y-87871461D01*
X179369878Y-87798844D01*
X179325527Y-87731937D01*
X179285476Y-87671934D01*
X179250529Y-87620025D01*
X179221487Y-87577403D01*
X179199155Y-87545258D01*
X179184334Y-87524782D01*
X179177828Y-87517167D01*
X179177637Y-87517180D01*
X179177637Y-87517180D01*
G37*
X179177637Y-87517180D02*
X179175202Y-87526031D01*
X179169545Y-87550103D01*
X179160945Y-87588097D01*
X179149680Y-87638713D01*
X179136030Y-87700653D01*
X179120274Y-87772617D01*
X179102689Y-87853306D01*
X179083556Y-87941421D01*
X179063151Y-88035662D01*
X179041755Y-88134731D01*
X179019646Y-88237328D01*
X178997102Y-88342153D01*
X178974403Y-88447909D01*
X178951827Y-88553295D01*
X178929653Y-88657013D01*
X178908159Y-88757763D01*
X178887625Y-88854245D01*
X178868329Y-88945162D01*
X178850550Y-89029213D01*
X178834566Y-89105099D01*
X178820656Y-89171522D01*
X178809100Y-89227181D01*
X178800175Y-89270779D01*
X178794161Y-89301014D01*
X178791336Y-89316589D01*
X178791181Y-89318470D01*
X178799192Y-89315677D01*
X178819022Y-89306033D01*
X178847754Y-89291024D01*
X178882466Y-89272135D01*
X178885211Y-89270613D01*
X179043200Y-89173957D01*
X179192227Y-89064699D01*
X179331037Y-88944083D01*
X179458371Y-88813354D01*
X179572974Y-88673755D01*
X179673588Y-88526529D01*
X179723461Y-88441019D01*
X179753846Y-88385605D01*
X179468273Y-87948599D01*
X179417728Y-87871461D01*
X179369878Y-87798844D01*
X179325527Y-87731937D01*
X179285476Y-87671934D01*
X179250529Y-87620025D01*
X179221487Y-87577403D01*
X179199155Y-87545258D01*
X179184334Y-87524782D01*
X179177828Y-87517167D01*
X179177637Y-87517180D01*
G36*
X175977998Y-88326594D02*
X175980333Y-88339001D01*
X175989808Y-88361932D01*
X176007077Y-88397226D01*
X176011805Y-88406480D01*
X176092553Y-88546723D01*
X176188318Y-88683427D01*
X176297268Y-88814724D01*
X176417571Y-88938748D01*
X176547393Y-89053629D01*
X176684903Y-89157502D01*
X176828267Y-89248499D01*
X176850614Y-89261174D01*
X176897661Y-89287438D01*
X177142714Y-89125907D01*
X177212048Y-89080202D01*
X177287284Y-89030603D01*
X177364576Y-88979644D01*
X177440078Y-88929862D01*
X177509944Y-88883793D01*
X177570329Y-88843971D01*
X177581493Y-88836609D01*
X177631793Y-88803187D01*
X177676700Y-88772872D01*
X177714489Y-88746867D01*
X177743433Y-88726376D01*
X177761809Y-88712603D01*
X177767890Y-88706751D01*
X177767760Y-88706650D01*
X177758067Y-88704425D01*
X177733679Y-88699037D01*
X177696456Y-88690889D01*
X177648257Y-88680386D01*
X177590939Y-88667934D01*
X177526361Y-88653937D01*
X177456383Y-88638800D01*
X177447033Y-88636780D01*
X177358918Y-88617736D01*
X177260628Y-88596479D01*
X177157156Y-88574091D01*
X177053496Y-88551652D01*
X176954640Y-88530243D01*
X176865582Y-88510945D01*
X176837433Y-88504842D01*
X176695154Y-88474002D01*
X176568606Y-88446603D01*
X176456979Y-88422471D01*
X176359460Y-88401435D01*
X176275237Y-88383320D01*
X176203501Y-88367956D01*
X176143437Y-88355168D01*
X176094236Y-88344785D01*
X176055085Y-88336633D01*
X176025173Y-88330540D01*
X176003688Y-88326333D01*
X175989818Y-88323840D01*
X175982752Y-88322888D01*
X175982149Y-88322867D01*
X175977998Y-88326594D01*
X175977998Y-88326594D01*
G37*
X175977998Y-88326594D02*
X175980333Y-88339001D01*
X175989808Y-88361932D01*
X176007077Y-88397226D01*
X176011805Y-88406480D01*
X176092553Y-88546723D01*
X176188318Y-88683427D01*
X176297268Y-88814724D01*
X176417571Y-88938748D01*
X176547393Y-89053629D01*
X176684903Y-89157502D01*
X176828267Y-89248499D01*
X176850614Y-89261174D01*
X176897661Y-89287438D01*
X177142714Y-89125907D01*
X177212048Y-89080202D01*
X177287284Y-89030603D01*
X177364576Y-88979644D01*
X177440078Y-88929862D01*
X177509944Y-88883793D01*
X177570329Y-88843971D01*
X177581493Y-88836609D01*
X177631793Y-88803187D01*
X177676700Y-88772872D01*
X177714489Y-88746867D01*
X177743433Y-88726376D01*
X177761809Y-88712603D01*
X177767890Y-88706751D01*
X177767760Y-88706650D01*
X177758067Y-88704425D01*
X177733679Y-88699037D01*
X177696456Y-88690889D01*
X177648257Y-88680386D01*
X177590939Y-88667934D01*
X177526361Y-88653937D01*
X177456383Y-88638800D01*
X177447033Y-88636780D01*
X177358918Y-88617736D01*
X177260628Y-88596479D01*
X177157156Y-88574091D01*
X177053496Y-88551652D01*
X176954640Y-88530243D01*
X176865582Y-88510945D01*
X176837433Y-88504842D01*
X176695154Y-88474002D01*
X176568606Y-88446603D01*
X176456979Y-88422471D01*
X176359460Y-88401435D01*
X176275237Y-88383320D01*
X176203501Y-88367956D01*
X176143437Y-88355168D01*
X176094236Y-88344785D01*
X176055085Y-88336633D01*
X176025173Y-88330540D01*
X176003688Y-88326333D01*
X175989818Y-88323840D01*
X175982752Y-88322888D01*
X175982149Y-88322867D01*
X175977998Y-88326594D01*
G36*
X171871061Y-88362461D02*
X171855675Y-88364446D01*
X171778647Y-88382782D01*
X171712210Y-88413228D01*
X171657251Y-88454881D01*
X171614657Y-88506837D01*
X171585313Y-88568193D01*
X171570106Y-88638046D01*
X171568594Y-88657157D01*
X171571669Y-88734467D01*
X171589116Y-88803395D01*
X171620475Y-88863229D01*
X171665288Y-88913261D01*
X171723094Y-88952780D01*
X171774367Y-88974977D01*
X171817578Y-88986020D01*
X171869783Y-88993495D01*
X171924340Y-88996927D01*
X171974606Y-88995839D01*
X172006283Y-88991606D01*
X172055530Y-88976550D01*
X172106667Y-88953160D01*
X172153174Y-88924830D01*
X172185028Y-88898572D01*
X172209320Y-88869721D01*
X172232491Y-88834891D01*
X172243014Y-88815186D01*
X172253445Y-88790969D01*
X172260064Y-88768741D01*
X172263705Y-88743398D01*
X172265207Y-88709837D01*
X172265415Y-88680883D01*
X172167507Y-88680883D01*
X172166178Y-88727906D01*
X172159621Y-88767290D01*
X172159543Y-88767568D01*
X172138273Y-88814208D01*
X172103501Y-88856484D01*
X172058600Y-88891476D01*
X172006939Y-88916263D01*
X171978889Y-88924074D01*
X171932647Y-88928462D01*
X171880326Y-88925250D01*
X171830361Y-88915307D01*
X171804000Y-88906028D01*
X171751551Y-88875297D01*
X171712410Y-88834769D01*
X171686122Y-88783735D01*
X171672229Y-88721488D01*
X171670295Y-88698508D01*
X171670914Y-88636167D01*
X171681155Y-88584888D01*
X171702210Y-88541047D01*
X171735274Y-88501017D01*
X171735369Y-88500923D01*
X171782595Y-88464699D01*
X171838178Y-88442278D01*
X171903373Y-88433192D01*
X171917735Y-88432934D01*
X171985178Y-88439763D01*
X172044652Y-88459649D01*
X172094474Y-88491691D01*
X172132965Y-88534987D01*
X172144420Y-88554493D01*
X172156198Y-88588126D01*
X172164037Y-88632273D01*
X172167507Y-88680883D01*
X172265415Y-88680883D01*
X172265433Y-88678467D01*
X172264985Y-88636550D01*
X172263070Y-88606536D01*
X172258831Y-88583406D01*
X172251412Y-88562141D01*
X172242194Y-88542246D01*
X172204219Y-88483442D01*
X172154130Y-88434996D01*
X172093849Y-88397791D01*
X172025296Y-88372711D01*
X171950393Y-88360639D01*
X171871061Y-88362461D01*
X171871061Y-88362461D01*
G37*
X171871061Y-88362461D02*
X171855675Y-88364446D01*
X171778647Y-88382782D01*
X171712210Y-88413228D01*
X171657251Y-88454881D01*
X171614657Y-88506837D01*
X171585313Y-88568193D01*
X171570106Y-88638046D01*
X171568594Y-88657157D01*
X171571669Y-88734467D01*
X171589116Y-88803395D01*
X171620475Y-88863229D01*
X171665288Y-88913261D01*
X171723094Y-88952780D01*
X171774367Y-88974977D01*
X171817578Y-88986020D01*
X171869783Y-88993495D01*
X171924340Y-88996927D01*
X171974606Y-88995839D01*
X172006283Y-88991606D01*
X172055530Y-88976550D01*
X172106667Y-88953160D01*
X172153174Y-88924830D01*
X172185028Y-88898572D01*
X172209320Y-88869721D01*
X172232491Y-88834891D01*
X172243014Y-88815186D01*
X172253445Y-88790969D01*
X172260064Y-88768741D01*
X172263705Y-88743398D01*
X172265207Y-88709837D01*
X172265415Y-88680883D01*
X172167507Y-88680883D01*
X172166178Y-88727906D01*
X172159621Y-88767290D01*
X172159543Y-88767568D01*
X172138273Y-88814208D01*
X172103501Y-88856484D01*
X172058600Y-88891476D01*
X172006939Y-88916263D01*
X171978889Y-88924074D01*
X171932647Y-88928462D01*
X171880326Y-88925250D01*
X171830361Y-88915307D01*
X171804000Y-88906028D01*
X171751551Y-88875297D01*
X171712410Y-88834769D01*
X171686122Y-88783735D01*
X171672229Y-88721488D01*
X171670295Y-88698508D01*
X171670914Y-88636167D01*
X171681155Y-88584888D01*
X171702210Y-88541047D01*
X171735274Y-88501017D01*
X171735369Y-88500923D01*
X171782595Y-88464699D01*
X171838178Y-88442278D01*
X171903373Y-88433192D01*
X171917735Y-88432934D01*
X171985178Y-88439763D01*
X172044652Y-88459649D01*
X172094474Y-88491691D01*
X172132965Y-88534987D01*
X172144420Y-88554493D01*
X172156198Y-88588126D01*
X172164037Y-88632273D01*
X172167507Y-88680883D01*
X172265415Y-88680883D01*
X172265433Y-88678467D01*
X172264985Y-88636550D01*
X172263070Y-88606536D01*
X172258831Y-88583406D01*
X172251412Y-88562141D01*
X172242194Y-88542246D01*
X172204219Y-88483442D01*
X172154130Y-88434996D01*
X172093849Y-88397791D01*
X172025296Y-88372711D01*
X171950393Y-88360639D01*
X171871061Y-88362461D01*
G36*
X167433092Y-88371599D02*
X167359733Y-88396536D01*
X167344641Y-88403572D01*
X167284877Y-88440573D01*
X167238849Y-88486779D01*
X167205786Y-88543260D01*
X167184917Y-88611082D01*
X167181606Y-88629357D01*
X167177763Y-88702877D01*
X167189677Y-88772922D01*
X167216768Y-88837478D01*
X167257859Y-88893884D01*
X167306234Y-88934652D01*
X167366070Y-88966215D01*
X167434082Y-88987692D01*
X167506982Y-88998200D01*
X167581485Y-88996857D01*
X167619974Y-88991141D01*
X167687004Y-88970143D01*
X167748449Y-88935787D01*
X167801246Y-88890407D01*
X167842330Y-88836341D01*
X167855320Y-88811684D01*
X167867207Y-88783904D01*
X167874469Y-88759644D01*
X167878184Y-88732959D01*
X167879146Y-88705833D01*
X167781291Y-88705833D01*
X167778847Y-88736462D01*
X167771799Y-88764909D01*
X167765917Y-88781525D01*
X167738490Y-88831351D01*
X167698945Y-88871988D01*
X167649964Y-88902474D01*
X167594230Y-88921847D01*
X167534426Y-88929145D01*
X167473234Y-88923404D01*
X167418733Y-88906092D01*
X167370376Y-88880183D01*
X167334648Y-88848943D01*
X167307309Y-88808480D01*
X167302930Y-88799874D01*
X167284792Y-88745806D01*
X167278228Y-88685260D01*
X167283327Y-88624200D01*
X167299470Y-88570198D01*
X167328704Y-88522640D01*
X167370016Y-88481875D01*
X167418748Y-88452149D01*
X167436864Y-88445081D01*
X167485967Y-88435038D01*
X167541723Y-88433540D01*
X167597476Y-88440132D01*
X167646573Y-88454358D01*
X167659566Y-88460332D01*
X167705891Y-88489669D01*
X167739631Y-88524680D01*
X167762359Y-88568049D01*
X167775648Y-88622459D01*
X167780016Y-88665767D01*
X167781291Y-88705833D01*
X167879146Y-88705833D01*
X167879428Y-88697905D01*
X167879471Y-88678467D01*
X167878687Y-88637461D01*
X167875878Y-88607345D01*
X167869942Y-88582101D01*
X167859777Y-88555710D01*
X167855091Y-88545250D01*
X167819714Y-88487326D01*
X167772438Y-88439443D01*
X167715421Y-88402200D01*
X167650820Y-88376195D01*
X167580793Y-88362028D01*
X167507498Y-88360296D01*
X167433092Y-88371599D01*
X167433092Y-88371599D01*
G37*
X167433092Y-88371599D02*
X167359733Y-88396536D01*
X167344641Y-88403572D01*
X167284877Y-88440573D01*
X167238849Y-88486779D01*
X167205786Y-88543260D01*
X167184917Y-88611082D01*
X167181606Y-88629357D01*
X167177763Y-88702877D01*
X167189677Y-88772922D01*
X167216768Y-88837478D01*
X167257859Y-88893884D01*
X167306234Y-88934652D01*
X167366070Y-88966215D01*
X167434082Y-88987692D01*
X167506982Y-88998200D01*
X167581485Y-88996857D01*
X167619974Y-88991141D01*
X167687004Y-88970143D01*
X167748449Y-88935787D01*
X167801246Y-88890407D01*
X167842330Y-88836341D01*
X167855320Y-88811684D01*
X167867207Y-88783904D01*
X167874469Y-88759644D01*
X167878184Y-88732959D01*
X167879146Y-88705833D01*
X167781291Y-88705833D01*
X167778847Y-88736462D01*
X167771799Y-88764909D01*
X167765917Y-88781525D01*
X167738490Y-88831351D01*
X167698945Y-88871988D01*
X167649964Y-88902474D01*
X167594230Y-88921847D01*
X167534426Y-88929145D01*
X167473234Y-88923404D01*
X167418733Y-88906092D01*
X167370376Y-88880183D01*
X167334648Y-88848943D01*
X167307309Y-88808480D01*
X167302930Y-88799874D01*
X167284792Y-88745806D01*
X167278228Y-88685260D01*
X167283327Y-88624200D01*
X167299470Y-88570198D01*
X167328704Y-88522640D01*
X167370016Y-88481875D01*
X167418748Y-88452149D01*
X167436864Y-88445081D01*
X167485967Y-88435038D01*
X167541723Y-88433540D01*
X167597476Y-88440132D01*
X167646573Y-88454358D01*
X167659566Y-88460332D01*
X167705891Y-88489669D01*
X167739631Y-88524680D01*
X167762359Y-88568049D01*
X167775648Y-88622459D01*
X167780016Y-88665767D01*
X167781291Y-88705833D01*
X167879146Y-88705833D01*
X167879428Y-88697905D01*
X167879471Y-88678467D01*
X167878687Y-88637461D01*
X167875878Y-88607345D01*
X167869942Y-88582101D01*
X167859777Y-88555710D01*
X167855091Y-88545250D01*
X167819714Y-88487326D01*
X167772438Y-88439443D01*
X167715421Y-88402200D01*
X167650820Y-88376195D01*
X167580793Y-88362028D01*
X167507498Y-88360296D01*
X167433092Y-88371599D01*
G36*
X163407771Y-88363203D02*
X163399163Y-88364368D01*
X163331529Y-88378638D01*
X163278111Y-88399689D01*
X163237223Y-88428478D01*
X163207179Y-88465964D01*
X163201043Y-88477046D01*
X163187687Y-88507678D01*
X163185683Y-88527755D01*
X163195598Y-88539777D01*
X163216683Y-88546033D01*
X163247548Y-88550351D01*
X163265820Y-88549814D01*
X163275432Y-88543266D01*
X163280315Y-88529547D01*
X163280814Y-88527146D01*
X163295904Y-88493084D01*
X163325218Y-88465847D01*
X163367140Y-88446277D01*
X163420054Y-88435214D01*
X163461732Y-88432981D01*
X163516177Y-88437447D01*
X163561640Y-88450030D01*
X163596225Y-88469669D01*
X163618037Y-88495308D01*
X163625200Y-88524261D01*
X163619977Y-88550032D01*
X163603258Y-88571175D01*
X163573469Y-88588809D01*
X163529036Y-88604056D01*
X163504275Y-88610336D01*
X163458485Y-88621091D01*
X163408137Y-88632948D01*
X163362824Y-88643648D01*
X163355423Y-88645399D01*
X163298533Y-88660993D01*
X163255138Y-88678159D01*
X163221798Y-88698507D01*
X163200288Y-88717908D01*
X163172479Y-88757732D01*
X163160265Y-88800041D01*
X163162901Y-88842870D01*
X163179646Y-88884251D01*
X163209756Y-88922219D01*
X163252488Y-88954806D01*
X163298116Y-88976782D01*
X163335083Y-88986647D01*
X163382910Y-88993494D01*
X163435735Y-88996958D01*
X163487692Y-88996672D01*
X163532920Y-88992272D01*
X163536585Y-88991639D01*
X163595352Y-88975419D01*
X163647225Y-88950246D01*
X163690056Y-88917988D01*
X163721697Y-88880517D01*
X163740001Y-88839701D01*
X163743733Y-88811260D01*
X163742360Y-88797262D01*
X163735196Y-88790630D01*
X163717673Y-88788640D01*
X163705633Y-88788533D01*
X163677862Y-88788859D01*
X163662101Y-88791636D01*
X163653427Y-88799571D01*
X163646917Y-88815367D01*
X163644653Y-88822034D01*
X163623570Y-88858623D01*
X163588649Y-88888002D01*
X163541782Y-88909230D01*
X163484860Y-88921368D01*
X163439513Y-88923953D01*
X163378381Y-88919480D01*
X163327985Y-88906622D01*
X163289708Y-88886052D01*
X163264939Y-88858445D01*
X163256304Y-88834901D01*
X163255248Y-88807095D01*
X163264264Y-88783435D01*
X163284647Y-88763068D01*
X163317696Y-88745139D01*
X163364708Y-88728793D01*
X163426978Y-88713177D01*
X163447893Y-88708700D01*
X163518797Y-88692784D01*
X163575055Y-88677146D01*
X163618901Y-88660750D01*
X163652573Y-88642557D01*
X163678304Y-88621531D01*
X163698330Y-88596633D01*
X163702089Y-88590703D01*
X163715183Y-88554100D01*
X163715494Y-88512534D01*
X163703963Y-88470964D01*
X163681529Y-88434348D01*
X163670241Y-88422674D01*
X163633068Y-88398167D01*
X163583894Y-88379033D01*
X163527059Y-88366205D01*
X163466905Y-88360618D01*
X163407771Y-88363203D01*
X163407771Y-88363203D01*
G37*
X163407771Y-88363203D02*
X163399163Y-88364368D01*
X163331529Y-88378638D01*
X163278111Y-88399689D01*
X163237223Y-88428478D01*
X163207179Y-88465964D01*
X163201043Y-88477046D01*
X163187687Y-88507678D01*
X163185683Y-88527755D01*
X163195598Y-88539777D01*
X163216683Y-88546033D01*
X163247548Y-88550351D01*
X163265820Y-88549814D01*
X163275432Y-88543266D01*
X163280315Y-88529547D01*
X163280814Y-88527146D01*
X163295904Y-88493084D01*
X163325218Y-88465847D01*
X163367140Y-88446277D01*
X163420054Y-88435214D01*
X163461732Y-88432981D01*
X163516177Y-88437447D01*
X163561640Y-88450030D01*
X163596225Y-88469669D01*
X163618037Y-88495308D01*
X163625200Y-88524261D01*
X163619977Y-88550032D01*
X163603258Y-88571175D01*
X163573469Y-88588809D01*
X163529036Y-88604056D01*
X163504275Y-88610336D01*
X163458485Y-88621091D01*
X163408137Y-88632948D01*
X163362824Y-88643648D01*
X163355423Y-88645399D01*
X163298533Y-88660993D01*
X163255138Y-88678159D01*
X163221798Y-88698507D01*
X163200288Y-88717908D01*
X163172479Y-88757732D01*
X163160265Y-88800041D01*
X163162901Y-88842870D01*
X163179646Y-88884251D01*
X163209756Y-88922219D01*
X163252488Y-88954806D01*
X163298116Y-88976782D01*
X163335083Y-88986647D01*
X163382910Y-88993494D01*
X163435735Y-88996958D01*
X163487692Y-88996672D01*
X163532920Y-88992272D01*
X163536585Y-88991639D01*
X163595352Y-88975419D01*
X163647225Y-88950246D01*
X163690056Y-88917988D01*
X163721697Y-88880517D01*
X163740001Y-88839701D01*
X163743733Y-88811260D01*
X163742360Y-88797262D01*
X163735196Y-88790630D01*
X163717673Y-88788640D01*
X163705633Y-88788533D01*
X163677862Y-88788859D01*
X163662101Y-88791636D01*
X163653427Y-88799571D01*
X163646917Y-88815367D01*
X163644653Y-88822034D01*
X163623570Y-88858623D01*
X163588649Y-88888002D01*
X163541782Y-88909230D01*
X163484860Y-88921368D01*
X163439513Y-88923953D01*
X163378381Y-88919480D01*
X163327985Y-88906622D01*
X163289708Y-88886052D01*
X163264939Y-88858445D01*
X163256304Y-88834901D01*
X163255248Y-88807095D01*
X163264264Y-88783435D01*
X163284647Y-88763068D01*
X163317696Y-88745139D01*
X163364708Y-88728793D01*
X163426978Y-88713177D01*
X163447893Y-88708700D01*
X163518797Y-88692784D01*
X163575055Y-88677146D01*
X163618901Y-88660750D01*
X163652573Y-88642557D01*
X163678304Y-88621531D01*
X163698330Y-88596633D01*
X163702089Y-88590703D01*
X163715183Y-88554100D01*
X163715494Y-88512534D01*
X163703963Y-88470964D01*
X163681529Y-88434348D01*
X163670241Y-88422674D01*
X163633068Y-88398167D01*
X163583894Y-88379033D01*
X163527059Y-88366205D01*
X163466905Y-88360618D01*
X163407771Y-88363203D01*
G36*
X175309200Y-88915533D02*
X174945133Y-88915533D01*
X174945133Y-88991733D01*
X175410800Y-88991733D01*
X175410800Y-88373667D01*
X175309200Y-88373667D01*
X175309200Y-88915533D01*
X175309200Y-88915533D01*
G37*
X175309200Y-88915533D02*
X174945133Y-88915533D01*
X174945133Y-88991733D01*
X175410800Y-88991733D01*
X175410800Y-88373667D01*
X175309200Y-88373667D01*
X175309200Y-88915533D01*
G36*
X173967215Y-88679972D02*
X173934756Y-88746274D01*
X173904754Y-88807784D01*
X173878004Y-88862855D01*
X173855301Y-88909841D01*
X173837442Y-88947093D01*
X173825220Y-88972964D01*
X173819431Y-88985807D01*
X173819066Y-88986889D01*
X173826780Y-88989389D01*
X173846912Y-88991138D01*
X173872498Y-88991733D01*
X173925930Y-88991733D01*
X173969212Y-88898600D01*
X174012493Y-88805467D01*
X174324911Y-88805467D01*
X174365166Y-88898600D01*
X174405422Y-88991733D01*
X174455715Y-88991733D01*
X174483635Y-88991144D01*
X174498054Y-88988634D01*
X174502388Y-88983095D01*
X174501279Y-88976917D01*
X174496768Y-88966096D01*
X174485963Y-88941687D01*
X174469674Y-88905473D01*
X174448711Y-88859240D01*
X174423882Y-88804770D01*
X174395997Y-88743848D01*
X174391562Y-88734194D01*
X174293200Y-88734194D01*
X174285229Y-88735445D01*
X174263303Y-88736502D01*
X174230397Y-88737280D01*
X174189487Y-88737691D01*
X174170433Y-88737733D01*
X174127028Y-88737398D01*
X174090362Y-88736477D01*
X174063411Y-88735093D01*
X174049154Y-88733373D01*
X174047666Y-88732572D01*
X174050922Y-88723496D01*
X174059942Y-88701584D01*
X174073608Y-88669470D01*
X174090802Y-88629790D01*
X174106071Y-88594989D01*
X174125581Y-88550511D01*
X174142769Y-88510865D01*
X174156424Y-88478885D01*
X174165331Y-88457405D01*
X174168174Y-88449867D01*
X174172451Y-88450027D01*
X174179771Y-88463401D01*
X174186730Y-88481860D01*
X174196047Y-88507093D01*
X174210499Y-88542966D01*
X174228130Y-88584741D01*
X174246981Y-88627682D01*
X174247394Y-88628603D01*
X174264358Y-88666649D01*
X174278481Y-88698807D01*
X174288474Y-88722104D01*
X174293048Y-88733568D01*
X174293200Y-88734194D01*
X174391562Y-88734194D01*
X174365864Y-88678258D01*
X174362063Y-88670000D01*
X174227576Y-88377900D01*
X174115363Y-88377900D01*
X173967215Y-88679972D01*
X173967215Y-88679972D01*
G37*
X173967215Y-88679972D02*
X173934756Y-88746274D01*
X173904754Y-88807784D01*
X173878004Y-88862855D01*
X173855301Y-88909841D01*
X173837442Y-88947093D01*
X173825220Y-88972964D01*
X173819431Y-88985807D01*
X173819066Y-88986889D01*
X173826780Y-88989389D01*
X173846912Y-88991138D01*
X173872498Y-88991733D01*
X173925930Y-88991733D01*
X173969212Y-88898600D01*
X174012493Y-88805467D01*
X174324911Y-88805467D01*
X174365166Y-88898600D01*
X174405422Y-88991733D01*
X174455715Y-88991733D01*
X174483635Y-88991144D01*
X174498054Y-88988634D01*
X174502388Y-88983095D01*
X174501279Y-88976917D01*
X174496768Y-88966096D01*
X174485963Y-88941687D01*
X174469674Y-88905473D01*
X174448711Y-88859240D01*
X174423882Y-88804770D01*
X174395997Y-88743848D01*
X174391562Y-88734194D01*
X174293200Y-88734194D01*
X174285229Y-88735445D01*
X174263303Y-88736502D01*
X174230397Y-88737280D01*
X174189487Y-88737691D01*
X174170433Y-88737733D01*
X174127028Y-88737398D01*
X174090362Y-88736477D01*
X174063411Y-88735093D01*
X174049154Y-88733373D01*
X174047666Y-88732572D01*
X174050922Y-88723496D01*
X174059942Y-88701584D01*
X174073608Y-88669470D01*
X174090802Y-88629790D01*
X174106071Y-88594989D01*
X174125581Y-88550511D01*
X174142769Y-88510865D01*
X174156424Y-88478885D01*
X174165331Y-88457405D01*
X174168174Y-88449867D01*
X174172451Y-88450027D01*
X174179771Y-88463401D01*
X174186730Y-88481860D01*
X174196047Y-88507093D01*
X174210499Y-88542966D01*
X174228130Y-88584741D01*
X174246981Y-88627682D01*
X174247394Y-88628603D01*
X174264358Y-88666649D01*
X174278481Y-88698807D01*
X174288474Y-88722104D01*
X174293048Y-88733568D01*
X174293200Y-88734194D01*
X174391562Y-88734194D01*
X174365864Y-88678258D01*
X174362063Y-88670000D01*
X174227576Y-88377900D01*
X174115363Y-88377900D01*
X173967215Y-88679972D01*
G36*
X173087355Y-88374196D02*
X173029077Y-88376043D01*
X172983032Y-88379591D01*
X172946883Y-88385229D01*
X172918293Y-88393341D01*
X172894924Y-88404314D01*
X172874439Y-88418533D01*
X172870897Y-88421451D01*
X172839075Y-88457821D01*
X172822312Y-88498718D01*
X172820409Y-88541323D01*
X172833168Y-88582822D01*
X172860388Y-88620398D01*
X172886487Y-88641889D01*
X172914471Y-88660747D01*
X172882052Y-88674270D01*
X172838476Y-88699918D01*
X172805842Y-88734526D01*
X172785931Y-88775220D01*
X172780524Y-88819127D01*
X172782436Y-88834982D01*
X172790438Y-88859960D01*
X172804292Y-88889160D01*
X172811322Y-88901136D01*
X172830350Y-88925759D01*
X172854242Y-88945735D01*
X172884735Y-88961483D01*
X172923569Y-88973423D01*
X172972483Y-88981973D01*
X173033218Y-88987553D01*
X173107511Y-88990582D01*
X173186183Y-88991472D01*
X173336467Y-88991733D01*
X173336467Y-88916961D01*
X173243333Y-88916961D01*
X173101517Y-88914130D01*
X173047619Y-88912825D01*
X173007784Y-88911161D01*
X172979140Y-88908809D01*
X172958818Y-88905439D01*
X172943946Y-88900724D01*
X172932320Y-88894739D01*
X172902735Y-88868528D01*
X172886072Y-88835849D01*
X172882873Y-88800552D01*
X172893680Y-88766490D01*
X172911122Y-88744239D01*
X172930265Y-88729494D01*
X172953722Y-88718640D01*
X172984158Y-88711168D01*
X173024239Y-88706571D01*
X173076631Y-88704340D01*
X173122683Y-88703914D01*
X173243333Y-88703867D01*
X173243333Y-88916961D01*
X173336467Y-88916961D01*
X173336467Y-88627667D01*
X173243333Y-88627667D01*
X173120295Y-88627667D01*
X173060520Y-88626909D01*
X173015984Y-88624551D01*
X172985055Y-88620465D01*
X172969001Y-88615861D01*
X172936392Y-88594452D01*
X172917680Y-88564846D01*
X172913855Y-88529804D01*
X172925198Y-88493428D01*
X172935680Y-88477415D01*
X172949928Y-88465384D01*
X172970422Y-88456677D01*
X172999637Y-88450638D01*
X173040050Y-88446608D01*
X173094140Y-88443931D01*
X173114217Y-88443268D01*
X173243333Y-88439341D01*
X173243333Y-88627667D01*
X173336467Y-88627667D01*
X173336467Y-88373667D01*
X173160203Y-88373667D01*
X173087355Y-88374196D01*
X173087355Y-88374196D01*
G37*
X173087355Y-88374196D02*
X173029077Y-88376043D01*
X172983032Y-88379591D01*
X172946883Y-88385229D01*
X172918293Y-88393341D01*
X172894924Y-88404314D01*
X172874439Y-88418533D01*
X172870897Y-88421451D01*
X172839075Y-88457821D01*
X172822312Y-88498718D01*
X172820409Y-88541323D01*
X172833168Y-88582822D01*
X172860388Y-88620398D01*
X172886487Y-88641889D01*
X172914471Y-88660747D01*
X172882052Y-88674270D01*
X172838476Y-88699918D01*
X172805842Y-88734526D01*
X172785931Y-88775220D01*
X172780524Y-88819127D01*
X172782436Y-88834982D01*
X172790438Y-88859960D01*
X172804292Y-88889160D01*
X172811322Y-88901136D01*
X172830350Y-88925759D01*
X172854242Y-88945735D01*
X172884735Y-88961483D01*
X172923569Y-88973423D01*
X172972483Y-88981973D01*
X173033218Y-88987553D01*
X173107511Y-88990582D01*
X173186183Y-88991472D01*
X173336467Y-88991733D01*
X173336467Y-88916961D01*
X173243333Y-88916961D01*
X173101517Y-88914130D01*
X173047619Y-88912825D01*
X173007784Y-88911161D01*
X172979140Y-88908809D01*
X172958818Y-88905439D01*
X172943946Y-88900724D01*
X172932320Y-88894739D01*
X172902735Y-88868528D01*
X172886072Y-88835849D01*
X172882873Y-88800552D01*
X172893680Y-88766490D01*
X172911122Y-88744239D01*
X172930265Y-88729494D01*
X172953722Y-88718640D01*
X172984158Y-88711168D01*
X173024239Y-88706571D01*
X173076631Y-88704340D01*
X173122683Y-88703914D01*
X173243333Y-88703867D01*
X173243333Y-88916961D01*
X173336467Y-88916961D01*
X173336467Y-88627667D01*
X173243333Y-88627667D01*
X173120295Y-88627667D01*
X173060520Y-88626909D01*
X173015984Y-88624551D01*
X172985055Y-88620465D01*
X172969001Y-88615861D01*
X172936392Y-88594452D01*
X172917680Y-88564846D01*
X172913855Y-88529804D01*
X172925198Y-88493428D01*
X172935680Y-88477415D01*
X172949928Y-88465384D01*
X172970422Y-88456677D01*
X172999637Y-88450638D01*
X173040050Y-88446608D01*
X173094140Y-88443931D01*
X173114217Y-88443268D01*
X173243333Y-88439341D01*
X173243333Y-88627667D01*
X173336467Y-88627667D01*
X173336467Y-88373667D01*
X173160203Y-88373667D01*
X173087355Y-88374196D01*
G36*
X170741923Y-88373975D02*
X170679543Y-88375121D01*
X170629971Y-88377438D01*
X170591150Y-88381261D01*
X170561020Y-88386922D01*
X170537523Y-88394756D01*
X170518601Y-88405095D01*
X170502194Y-88418274D01*
X170493981Y-88426351D01*
X170461593Y-88469771D01*
X170445126Y-88514870D01*
X170443987Y-88559592D01*
X170457582Y-88601882D01*
X170485314Y-88639684D01*
X170526592Y-88670941D01*
X170570279Y-88690296D01*
X170597812Y-88698324D01*
X170621394Y-88703193D01*
X170629087Y-88703867D01*
X170636840Y-88705716D01*
X170632372Y-88712287D01*
X170614460Y-88725118D01*
X170609741Y-88728193D01*
X170580014Y-88750202D01*
X170550376Y-88776375D01*
X170541554Y-88785343D01*
X170523059Y-88806400D01*
X170500003Y-88834375D01*
X170474604Y-88866356D01*
X170449081Y-88899432D01*
X170425654Y-88930691D01*
X170406543Y-88957220D01*
X170393966Y-88976108D01*
X170390066Y-88984098D01*
X170397786Y-88987998D01*
X170417974Y-88990749D01*
X170444739Y-88991733D01*
X170499412Y-88991733D01*
X170547807Y-88930350D01*
X170589302Y-88877893D01*
X170622032Y-88837038D01*
X170647578Y-88805980D01*
X170667518Y-88782914D01*
X170683435Y-88766036D01*
X170696907Y-88753541D01*
X170709515Y-88743626D01*
X170714304Y-88740232D01*
X170730951Y-88729642D01*
X170747179Y-88722600D01*
X170767238Y-88718206D01*
X170795381Y-88715556D01*
X170835856Y-88713750D01*
X170839847Y-88713612D01*
X170931505Y-88710475D01*
X170933836Y-88848988D01*
X170936166Y-88987500D01*
X170984850Y-88990039D01*
X171033533Y-88992579D01*
X171033533Y-88441400D01*
X170931933Y-88441400D01*
X170931933Y-88646488D01*
X170781650Y-88643039D01*
X170722830Y-88641340D01*
X170678530Y-88639156D01*
X170646340Y-88636255D01*
X170623849Y-88632404D01*
X170608645Y-88627368D01*
X170605947Y-88626028D01*
X170582321Y-88610422D01*
X170563613Y-88593778D01*
X170550247Y-88567961D01*
X170546422Y-88535470D01*
X170552139Y-88503618D01*
X170563633Y-88483454D01*
X170578297Y-88469212D01*
X170595134Y-88458534D01*
X170616708Y-88450929D01*
X170645584Y-88445905D01*
X170684326Y-88442974D01*
X170735501Y-88441643D01*
X170783495Y-88441400D01*
X170931933Y-88441400D01*
X171033533Y-88441400D01*
X171033533Y-88373667D01*
X170819170Y-88373667D01*
X170741923Y-88373975D01*
X170741923Y-88373975D01*
G37*
X170741923Y-88373975D02*
X170679543Y-88375121D01*
X170629971Y-88377438D01*
X170591150Y-88381261D01*
X170561020Y-88386922D01*
X170537523Y-88394756D01*
X170518601Y-88405095D01*
X170502194Y-88418274D01*
X170493981Y-88426351D01*
X170461593Y-88469771D01*
X170445126Y-88514870D01*
X170443987Y-88559592D01*
X170457582Y-88601882D01*
X170485314Y-88639684D01*
X170526592Y-88670941D01*
X170570279Y-88690296D01*
X170597812Y-88698324D01*
X170621394Y-88703193D01*
X170629087Y-88703867D01*
X170636840Y-88705716D01*
X170632372Y-88712287D01*
X170614460Y-88725118D01*
X170609741Y-88728193D01*
X170580014Y-88750202D01*
X170550376Y-88776375D01*
X170541554Y-88785343D01*
X170523059Y-88806400D01*
X170500003Y-88834375D01*
X170474604Y-88866356D01*
X170449081Y-88899432D01*
X170425654Y-88930691D01*
X170406543Y-88957220D01*
X170393966Y-88976108D01*
X170390066Y-88984098D01*
X170397786Y-88987998D01*
X170417974Y-88990749D01*
X170444739Y-88991733D01*
X170499412Y-88991733D01*
X170547807Y-88930350D01*
X170589302Y-88877893D01*
X170622032Y-88837038D01*
X170647578Y-88805980D01*
X170667518Y-88782914D01*
X170683435Y-88766036D01*
X170696907Y-88753541D01*
X170709515Y-88743626D01*
X170714304Y-88740232D01*
X170730951Y-88729642D01*
X170747179Y-88722600D01*
X170767238Y-88718206D01*
X170795381Y-88715556D01*
X170835856Y-88713750D01*
X170839847Y-88713612D01*
X170931505Y-88710475D01*
X170933836Y-88848988D01*
X170936166Y-88987500D01*
X170984850Y-88990039D01*
X171033533Y-88992579D01*
X171033533Y-88441400D01*
X170931933Y-88441400D01*
X170931933Y-88646488D01*
X170781650Y-88643039D01*
X170722830Y-88641340D01*
X170678530Y-88639156D01*
X170646340Y-88636255D01*
X170623849Y-88632404D01*
X170608645Y-88627368D01*
X170605947Y-88626028D01*
X170582321Y-88610422D01*
X170563613Y-88593778D01*
X170550247Y-88567961D01*
X170546422Y-88535470D01*
X170552139Y-88503618D01*
X170563633Y-88483454D01*
X170578297Y-88469212D01*
X170595134Y-88458534D01*
X170616708Y-88450929D01*
X170645584Y-88445905D01*
X170684326Y-88442974D01*
X170735501Y-88441643D01*
X170783495Y-88441400D01*
X170931933Y-88441400D01*
X171033533Y-88441400D01*
X171033533Y-88373667D01*
X170819170Y-88373667D01*
X170741923Y-88373975D01*
G36*
X169428444Y-88674490D02*
X169396027Y-88740798D01*
X169366075Y-88802454D01*
X169339386Y-88857783D01*
X169316760Y-88905111D01*
X169298995Y-88942763D01*
X169286891Y-88969066D01*
X169281247Y-88982345D01*
X169280933Y-88983523D01*
X169288629Y-88987829D01*
X169308653Y-88990802D01*
X169332386Y-88991733D01*
X169383840Y-88991733D01*
X169427121Y-88898600D01*
X169470403Y-88805467D01*
X169627551Y-88805642D01*
X169784700Y-88805818D01*
X169823578Y-88896659D01*
X169862455Y-88987500D01*
X169915442Y-88990043D01*
X169942273Y-88990268D01*
X169960287Y-88988358D01*
X169965464Y-88985036D01*
X169961375Y-88975914D01*
X169950976Y-88953113D01*
X169935045Y-88918330D01*
X169914363Y-88873264D01*
X169889708Y-88819612D01*
X169861859Y-88759071D01*
X169848313Y-88729647D01*
X169746600Y-88729647D01*
X169738526Y-88732800D01*
X169715862Y-88735303D01*
X169680943Y-88736996D01*
X169636105Y-88737718D01*
X169628066Y-88737733D01*
X169576769Y-88737127D01*
X169539196Y-88735362D01*
X169516442Y-88732517D01*
X169509533Y-88729046D01*
X169512813Y-88718829D01*
X169521917Y-88695810D01*
X169535743Y-88662638D01*
X169553190Y-88621962D01*
X169570835Y-88581676D01*
X169632136Y-88442993D01*
X169654111Y-88503580D01*
X169667874Y-88539514D01*
X169685692Y-88583273D01*
X169704472Y-88627330D01*
X169711343Y-88642863D01*
X169726149Y-88676664D01*
X169737893Y-88704905D01*
X169745079Y-88723906D01*
X169746600Y-88729647D01*
X169848313Y-88729647D01*
X169831598Y-88693341D01*
X169823414Y-88675576D01*
X169684329Y-88373667D01*
X169575954Y-88373667D01*
X169428444Y-88674490D01*
X169428444Y-88674490D01*
G37*
X169428444Y-88674490D02*
X169396027Y-88740798D01*
X169366075Y-88802454D01*
X169339386Y-88857783D01*
X169316760Y-88905111D01*
X169298995Y-88942763D01*
X169286891Y-88969066D01*
X169281247Y-88982345D01*
X169280933Y-88983523D01*
X169288629Y-88987829D01*
X169308653Y-88990802D01*
X169332386Y-88991733D01*
X169383840Y-88991733D01*
X169427121Y-88898600D01*
X169470403Y-88805467D01*
X169627551Y-88805642D01*
X169784700Y-88805818D01*
X169823578Y-88896659D01*
X169862455Y-88987500D01*
X169915442Y-88990043D01*
X169942273Y-88990268D01*
X169960287Y-88988358D01*
X169965464Y-88985036D01*
X169961375Y-88975914D01*
X169950976Y-88953113D01*
X169935045Y-88918330D01*
X169914363Y-88873264D01*
X169889708Y-88819612D01*
X169861859Y-88759071D01*
X169848313Y-88729647D01*
X169746600Y-88729647D01*
X169738526Y-88732800D01*
X169715862Y-88735303D01*
X169680943Y-88736996D01*
X169636105Y-88737718D01*
X169628066Y-88737733D01*
X169576769Y-88737127D01*
X169539196Y-88735362D01*
X169516442Y-88732517D01*
X169509533Y-88729046D01*
X169512813Y-88718829D01*
X169521917Y-88695810D01*
X169535743Y-88662638D01*
X169553190Y-88621962D01*
X169570835Y-88581676D01*
X169632136Y-88442993D01*
X169654111Y-88503580D01*
X169667874Y-88539514D01*
X169685692Y-88583273D01*
X169704472Y-88627330D01*
X169711343Y-88642863D01*
X169726149Y-88676664D01*
X169737893Y-88704905D01*
X169745079Y-88723906D01*
X169746600Y-88729647D01*
X169848313Y-88729647D01*
X169831598Y-88693341D01*
X169823414Y-88675576D01*
X169684329Y-88373667D01*
X169575954Y-88373667D01*
X169428444Y-88674490D01*
G36*
X168341133Y-88440935D02*
X168461783Y-88443284D01*
X168582433Y-88445634D01*
X168584667Y-88718683D01*
X168586901Y-88991733D01*
X168679800Y-88991733D01*
X168679800Y-88441400D01*
X168925333Y-88441400D01*
X168925333Y-88373667D01*
X168341133Y-88373667D01*
X168341133Y-88440935D01*
X168341133Y-88440935D01*
G37*
X168341133Y-88440935D02*
X168461783Y-88443284D01*
X168582433Y-88445634D01*
X168584667Y-88718683D01*
X168586901Y-88991733D01*
X168679800Y-88991733D01*
X168679800Y-88441400D01*
X168925333Y-88441400D01*
X168925333Y-88373667D01*
X168341133Y-88373667D01*
X168341133Y-88440935D01*
G36*
X166176524Y-88377900D02*
X166135536Y-88403300D01*
X166096672Y-88435843D01*
X166070063Y-88476006D01*
X166056768Y-88520577D01*
X166057847Y-88566344D01*
X166069963Y-88602038D01*
X166096399Y-88637649D01*
X166135256Y-88667904D01*
X166182192Y-88689819D01*
X166208171Y-88696894D01*
X166258997Y-88707392D01*
X166230764Y-88721876D01*
X166200103Y-88742930D01*
X166162709Y-88778186D01*
X166118303Y-88827938D01*
X166066605Y-88892481D01*
X166058678Y-88902833D01*
X165994172Y-88987500D01*
X166052169Y-88990202D01*
X166083104Y-88991237D01*
X166102366Y-88989653D01*
X166115185Y-88983799D01*
X166126795Y-88972024D01*
X166132660Y-88964802D01*
X166146609Y-88947290D01*
X166168157Y-88920140D01*
X166194408Y-88887002D01*
X166222468Y-88851527D01*
X166223611Y-88850081D01*
X166252804Y-88814804D01*
X166282002Y-88782389D01*
X166307859Y-88756381D01*
X166327028Y-88740327D01*
X166327366Y-88740102D01*
X166344786Y-88729536D01*
X166361737Y-88722508D01*
X166382538Y-88718119D01*
X166411506Y-88715467D01*
X166452960Y-88713652D01*
X166454432Y-88713601D01*
X166546200Y-88710460D01*
X166546200Y-88991733D01*
X166591355Y-88991733D01*
X166617705Y-88990752D01*
X166636605Y-88988234D01*
X166642155Y-88986089D01*
X166643455Y-88976605D01*
X166644649Y-88952127D01*
X166645702Y-88914593D01*
X166646579Y-88865942D01*
X166647245Y-88808114D01*
X166647663Y-88743046D01*
X166647800Y-88676458D01*
X166647800Y-88441400D01*
X166546200Y-88441400D01*
X166546200Y-88646245D01*
X166395917Y-88643135D01*
X166339104Y-88641695D01*
X166296415Y-88639865D01*
X166265040Y-88637354D01*
X166242171Y-88633870D01*
X166224998Y-88629122D01*
X166213510Y-88624237D01*
X166182182Y-88601124D01*
X166163036Y-88570729D01*
X166157137Y-88536823D01*
X166165548Y-88503173D01*
X166175088Y-88488083D01*
X166189207Y-88472464D01*
X166205355Y-88460710D01*
X166226057Y-88452293D01*
X166253834Y-88446682D01*
X166291210Y-88443350D01*
X166340707Y-88441766D01*
X166397761Y-88441400D01*
X166546200Y-88441400D01*
X166647800Y-88441400D01*
X166647800Y-88372472D01*
X166176524Y-88377900D01*
X166176524Y-88377900D01*
G37*
X166176524Y-88377900D02*
X166135536Y-88403300D01*
X166096672Y-88435843D01*
X166070063Y-88476006D01*
X166056768Y-88520577D01*
X166057847Y-88566344D01*
X166069963Y-88602038D01*
X166096399Y-88637649D01*
X166135256Y-88667904D01*
X166182192Y-88689819D01*
X166208171Y-88696894D01*
X166258997Y-88707392D01*
X166230764Y-88721876D01*
X166200103Y-88742930D01*
X166162709Y-88778186D01*
X166118303Y-88827938D01*
X166066605Y-88892481D01*
X166058678Y-88902833D01*
X165994172Y-88987500D01*
X166052169Y-88990202D01*
X166083104Y-88991237D01*
X166102366Y-88989653D01*
X166115185Y-88983799D01*
X166126795Y-88972024D01*
X166132660Y-88964802D01*
X166146609Y-88947290D01*
X166168157Y-88920140D01*
X166194408Y-88887002D01*
X166222468Y-88851527D01*
X166223611Y-88850081D01*
X166252804Y-88814804D01*
X166282002Y-88782389D01*
X166307859Y-88756381D01*
X166327028Y-88740327D01*
X166327366Y-88740102D01*
X166344786Y-88729536D01*
X166361737Y-88722508D01*
X166382538Y-88718119D01*
X166411506Y-88715467D01*
X166452960Y-88713652D01*
X166454432Y-88713601D01*
X166546200Y-88710460D01*
X166546200Y-88991733D01*
X166591355Y-88991733D01*
X166617705Y-88990752D01*
X166636605Y-88988234D01*
X166642155Y-88986089D01*
X166643455Y-88976605D01*
X166644649Y-88952127D01*
X166645702Y-88914593D01*
X166646579Y-88865942D01*
X166647245Y-88808114D01*
X166647663Y-88743046D01*
X166647800Y-88676458D01*
X166647800Y-88441400D01*
X166546200Y-88441400D01*
X166546200Y-88646245D01*
X166395917Y-88643135D01*
X166339104Y-88641695D01*
X166296415Y-88639865D01*
X166265040Y-88637354D01*
X166242171Y-88633870D01*
X166224998Y-88629122D01*
X166213510Y-88624237D01*
X166182182Y-88601124D01*
X166163036Y-88570729D01*
X166157137Y-88536823D01*
X166165548Y-88503173D01*
X166175088Y-88488083D01*
X166189207Y-88472464D01*
X166205355Y-88460710D01*
X166226057Y-88452293D01*
X166253834Y-88446682D01*
X166291210Y-88443350D01*
X166340707Y-88441766D01*
X166397761Y-88441400D01*
X166546200Y-88441400D01*
X166647800Y-88441400D01*
X166647800Y-88372472D01*
X166176524Y-88377900D01*
G36*
X165386267Y-88991733D02*
X165479400Y-88991733D01*
X165479400Y-88373667D01*
X165386267Y-88373667D01*
X165386267Y-88991733D01*
X165386267Y-88991733D01*
G37*
X165386267Y-88991733D02*
X165479400Y-88991733D01*
X165479400Y-88373667D01*
X165386267Y-88373667D01*
X165386267Y-88991733D01*
G36*
X164268667Y-88441400D02*
X164709488Y-88441400D01*
X164704700Y-88631900D01*
X164499383Y-88634167D01*
X164294067Y-88636435D01*
X164294067Y-88703867D01*
X164708933Y-88703867D01*
X164708933Y-88915533D01*
X164251733Y-88915533D01*
X164251733Y-88991733D01*
X164802067Y-88991733D01*
X164802067Y-88373667D01*
X164268667Y-88373667D01*
X164268667Y-88441400D01*
X164268667Y-88441400D01*
G37*
X164268667Y-88441400D02*
X164709488Y-88441400D01*
X164704700Y-88631900D01*
X164499383Y-88634167D01*
X164294067Y-88636435D01*
X164294067Y-88703867D01*
X164708933Y-88703867D01*
X164708933Y-88915533D01*
X164251733Y-88915533D01*
X164251733Y-88991733D01*
X164802067Y-88991733D01*
X164802067Y-88373667D01*
X164268667Y-88373667D01*
X164268667Y-88441400D01*
G36*
X178875092Y-86557595D02*
X178879298Y-86564780D01*
X178891944Y-86585094D01*
X178912315Y-86617421D01*
X178939696Y-86660644D01*
X178973373Y-86713646D01*
X179012630Y-86775312D01*
X179056753Y-86844526D01*
X179105026Y-86920170D01*
X179156735Y-87001129D01*
X179211165Y-87086286D01*
X179267601Y-87174525D01*
X179325329Y-87264730D01*
X179383632Y-87355784D01*
X179441797Y-87446571D01*
X179499108Y-87535974D01*
X179554852Y-87622878D01*
X179608311Y-87706166D01*
X179658773Y-87784721D01*
X179705521Y-87857428D01*
X179747842Y-87923169D01*
X179785020Y-87980830D01*
X179816339Y-88029292D01*
X179841087Y-88067441D01*
X179858547Y-88094159D01*
X179868004Y-88108331D01*
X179869405Y-88110258D01*
X179873985Y-88105740D01*
X179881200Y-88090299D01*
X179881670Y-88089091D01*
X179893311Y-88054704D01*
X179906976Y-88007753D01*
X179921646Y-87952330D01*
X179936303Y-87892529D01*
X179949928Y-87832443D01*
X179961501Y-87776165D01*
X179966918Y-87746620D01*
X179973050Y-87709305D01*
X179977777Y-87675129D01*
X179981275Y-87641013D01*
X179983720Y-87603877D01*
X179985289Y-87560643D01*
X179986158Y-87508230D01*
X179986505Y-87443559D01*
X179986537Y-87404234D01*
X179986373Y-87332202D01*
X179985792Y-87274071D01*
X179984616Y-87226812D01*
X179982672Y-87187393D01*
X179979783Y-87152785D01*
X179975775Y-87119958D01*
X179970472Y-87085881D01*
X179966951Y-87065567D01*
X179958889Y-87022911D01*
X179949187Y-86975812D01*
X179938560Y-86927290D01*
X179927725Y-86880370D01*
X179917398Y-86838073D01*
X179908295Y-86803422D01*
X179901132Y-86779439D01*
X179896738Y-86769250D01*
X179887934Y-86766807D01*
X179864323Y-86761365D01*
X179827636Y-86753283D01*
X179779605Y-86742918D01*
X179721961Y-86730631D01*
X179656436Y-86716779D01*
X179584761Y-86701721D01*
X179508669Y-86685816D01*
X179429890Y-86669423D01*
X179350156Y-86652900D01*
X179271198Y-86636607D01*
X179194749Y-86620901D01*
X179122539Y-86606142D01*
X179056300Y-86592689D01*
X178997764Y-86580899D01*
X178948662Y-86571132D01*
X178910726Y-86563747D01*
X178885686Y-86559102D01*
X178875276Y-86557556D01*
X178875092Y-86557595D01*
X178875092Y-86557595D01*
G37*
X178875092Y-86557595D02*
X178879298Y-86564780D01*
X178891944Y-86585094D01*
X178912315Y-86617421D01*
X178939696Y-86660644D01*
X178973373Y-86713646D01*
X179012630Y-86775312D01*
X179056753Y-86844526D01*
X179105026Y-86920170D01*
X179156735Y-87001129D01*
X179211165Y-87086286D01*
X179267601Y-87174525D01*
X179325329Y-87264730D01*
X179383632Y-87355784D01*
X179441797Y-87446571D01*
X179499108Y-87535974D01*
X179554852Y-87622878D01*
X179608311Y-87706166D01*
X179658773Y-87784721D01*
X179705521Y-87857428D01*
X179747842Y-87923169D01*
X179785020Y-87980830D01*
X179816339Y-88029292D01*
X179841087Y-88067441D01*
X179858547Y-88094159D01*
X179868004Y-88108331D01*
X179869405Y-88110258D01*
X179873985Y-88105740D01*
X179881200Y-88090299D01*
X179881670Y-88089091D01*
X179893311Y-88054704D01*
X179906976Y-88007753D01*
X179921646Y-87952330D01*
X179936303Y-87892529D01*
X179949928Y-87832443D01*
X179961501Y-87776165D01*
X179966918Y-87746620D01*
X179973050Y-87709305D01*
X179977777Y-87675129D01*
X179981275Y-87641013D01*
X179983720Y-87603877D01*
X179985289Y-87560643D01*
X179986158Y-87508230D01*
X179986505Y-87443559D01*
X179986537Y-87404234D01*
X179986373Y-87332202D01*
X179985792Y-87274071D01*
X179984616Y-87226812D01*
X179982672Y-87187393D01*
X179979783Y-87152785D01*
X179975775Y-87119958D01*
X179970472Y-87085881D01*
X179966951Y-87065567D01*
X179958889Y-87022911D01*
X179949187Y-86975812D01*
X179938560Y-86927290D01*
X179927725Y-86880370D01*
X179917398Y-86838073D01*
X179908295Y-86803422D01*
X179901132Y-86779439D01*
X179896738Y-86769250D01*
X179887934Y-86766807D01*
X179864323Y-86761365D01*
X179827636Y-86753283D01*
X179779605Y-86742918D01*
X179721961Y-86730631D01*
X179656436Y-86716779D01*
X179584761Y-86701721D01*
X179508669Y-86685816D01*
X179429890Y-86669423D01*
X179350156Y-86652900D01*
X179271198Y-86636607D01*
X179194749Y-86620901D01*
X179122539Y-86606142D01*
X179056300Y-86592689D01*
X178997764Y-86580899D01*
X178948662Y-86571132D01*
X178910726Y-86563747D01*
X178885686Y-86559102D01*
X178875276Y-86557556D01*
X178875092Y-86557595D01*
G36*
X166558737Y-86606250D02*
X166560980Y-86618054D01*
X166565800Y-86644927D01*
X166572914Y-86685246D01*
X166582040Y-86737389D01*
X166592895Y-86799734D01*
X166605196Y-86870661D01*
X166618660Y-86948546D01*
X166633004Y-87031768D01*
X166639345Y-87068628D01*
X166654240Y-87154815D01*
X166668646Y-87237297D01*
X166682244Y-87314312D01*
X166694716Y-87384095D01*
X166705743Y-87444881D01*
X166715007Y-87494908D01*
X166722190Y-87532411D01*
X166726973Y-87555626D01*
X166728058Y-87560190D01*
X166763075Y-87663647D01*
X166812270Y-87760871D01*
X166874148Y-87849711D01*
X166947215Y-87928016D01*
X167028639Y-87992735D01*
X167095354Y-88032601D01*
X167165362Y-88063495D01*
X167241256Y-88086047D01*
X167325627Y-88100885D01*
X167421069Y-88108637D01*
X167512730Y-88110127D01*
X167565598Y-88109350D01*
X167616901Y-88107897D01*
X167662412Y-88105936D01*
X167697908Y-88103639D01*
X167713371Y-88102076D01*
X167794897Y-88088558D01*
X167862947Y-88070242D01*
X167920633Y-88045744D01*
X167971063Y-88013681D01*
X168017350Y-87972668D01*
X168027103Y-87962502D01*
X168070054Y-87911575D01*
X168102218Y-87860704D01*
X168124823Y-87806399D01*
X168139100Y-87745171D01*
X168146277Y-87673531D01*
X168147715Y-87620134D01*
X168147656Y-87595560D01*
X168147033Y-87571564D01*
X168145617Y-87546489D01*
X168143176Y-87518677D01*
X168139481Y-87486471D01*
X168134302Y-87448212D01*
X168127409Y-87402244D01*
X168118572Y-87346910D01*
X168107560Y-87280550D01*
X168094144Y-87201509D01*
X168078094Y-87108127D01*
X168070742Y-87065567D01*
X168055951Y-86980205D01*
X168041923Y-86899616D01*
X168028939Y-86825389D01*
X168017281Y-86759117D01*
X168007229Y-86702390D01*
X167999066Y-86656799D01*
X167993073Y-86623936D01*
X167989531Y-86605392D01*
X167988776Y-86602017D01*
X167986348Y-86597580D01*
X167980737Y-86594123D01*
X167970043Y-86591527D01*
X167952364Y-86589670D01*
X167925799Y-86588430D01*
X167888448Y-86587686D01*
X167838411Y-86587318D01*
X167773786Y-86587203D01*
X167756363Y-86587200D01*
X167696211Y-86587355D01*
X167642006Y-86587790D01*
X167595932Y-86588465D01*
X167560174Y-86589338D01*
X167536916Y-86590368D01*
X167528341Y-86591511D01*
X167528333Y-86591547D01*
X167529735Y-86600464D01*
X167533766Y-86624553D01*
X167540169Y-86662298D01*
X167548683Y-86712187D01*
X167559050Y-86772705D01*
X167571010Y-86842337D01*
X167584304Y-86919571D01*
X167598673Y-87002892D01*
X167608766Y-87061333D01*
X167623830Y-87149197D01*
X167637975Y-87233053D01*
X167650936Y-87311235D01*
X167662447Y-87382074D01*
X167672243Y-87443905D01*
X167680058Y-87495059D01*
X167685627Y-87533869D01*
X167688683Y-87558669D01*
X167689200Y-87566121D01*
X167682382Y-87626331D01*
X167662368Y-87676253D01*
X167629820Y-87715333D01*
X167585399Y-87743014D01*
X167529768Y-87758742D01*
X167463587Y-87761960D01*
X167456366Y-87761570D01*
X167393110Y-87753129D01*
X167340256Y-87735292D01*
X167292983Y-87706080D01*
X167266887Y-87683769D01*
X167252226Y-87669712D01*
X167239366Y-87655987D01*
X167227941Y-87641249D01*
X167217585Y-87624154D01*
X167207934Y-87603358D01*
X167198622Y-87577519D01*
X167189283Y-87545291D01*
X167179552Y-87505331D01*
X167169063Y-87456295D01*
X167157450Y-87396840D01*
X167144349Y-87325621D01*
X167129393Y-87241295D01*
X167112217Y-87142518D01*
X167099291Y-87067613D01*
X167016495Y-86587200D01*
X166554344Y-86587200D01*
X166558737Y-86606250D01*
X166558737Y-86606250D01*
G37*
X166558737Y-86606250D02*
X166560980Y-86618054D01*
X166565800Y-86644927D01*
X166572914Y-86685246D01*
X166582040Y-86737389D01*
X166592895Y-86799734D01*
X166605196Y-86870661D01*
X166618660Y-86948546D01*
X166633004Y-87031768D01*
X166639345Y-87068628D01*
X166654240Y-87154815D01*
X166668646Y-87237297D01*
X166682244Y-87314312D01*
X166694716Y-87384095D01*
X166705743Y-87444881D01*
X166715007Y-87494908D01*
X166722190Y-87532411D01*
X166726973Y-87555626D01*
X166728058Y-87560190D01*
X166763075Y-87663647D01*
X166812270Y-87760871D01*
X166874148Y-87849711D01*
X166947215Y-87928016D01*
X167028639Y-87992735D01*
X167095354Y-88032601D01*
X167165362Y-88063495D01*
X167241256Y-88086047D01*
X167325627Y-88100885D01*
X167421069Y-88108637D01*
X167512730Y-88110127D01*
X167565598Y-88109350D01*
X167616901Y-88107897D01*
X167662412Y-88105936D01*
X167697908Y-88103639D01*
X167713371Y-88102076D01*
X167794897Y-88088558D01*
X167862947Y-88070242D01*
X167920633Y-88045744D01*
X167971063Y-88013681D01*
X168017350Y-87972668D01*
X168027103Y-87962502D01*
X168070054Y-87911575D01*
X168102218Y-87860704D01*
X168124823Y-87806399D01*
X168139100Y-87745171D01*
X168146277Y-87673531D01*
X168147715Y-87620134D01*
X168147656Y-87595560D01*
X168147033Y-87571564D01*
X168145617Y-87546489D01*
X168143176Y-87518677D01*
X168139481Y-87486471D01*
X168134302Y-87448212D01*
X168127409Y-87402244D01*
X168118572Y-87346910D01*
X168107560Y-87280550D01*
X168094144Y-87201509D01*
X168078094Y-87108127D01*
X168070742Y-87065567D01*
X168055951Y-86980205D01*
X168041923Y-86899616D01*
X168028939Y-86825389D01*
X168017281Y-86759117D01*
X168007229Y-86702390D01*
X167999066Y-86656799D01*
X167993073Y-86623936D01*
X167989531Y-86605392D01*
X167988776Y-86602017D01*
X167986348Y-86597580D01*
X167980737Y-86594123D01*
X167970043Y-86591527D01*
X167952364Y-86589670D01*
X167925799Y-86588430D01*
X167888448Y-86587686D01*
X167838411Y-86587318D01*
X167773786Y-86587203D01*
X167756363Y-86587200D01*
X167696211Y-86587355D01*
X167642006Y-86587790D01*
X167595932Y-86588465D01*
X167560174Y-86589338D01*
X167536916Y-86590368D01*
X167528341Y-86591511D01*
X167528333Y-86591547D01*
X167529735Y-86600464D01*
X167533766Y-86624553D01*
X167540169Y-86662298D01*
X167548683Y-86712187D01*
X167559050Y-86772705D01*
X167571010Y-86842337D01*
X167584304Y-86919571D01*
X167598673Y-87002892D01*
X167608766Y-87061333D01*
X167623830Y-87149197D01*
X167637975Y-87233053D01*
X167650936Y-87311235D01*
X167662447Y-87382074D01*
X167672243Y-87443905D01*
X167680058Y-87495059D01*
X167685627Y-87533869D01*
X167688683Y-87558669D01*
X167689200Y-87566121D01*
X167682382Y-87626331D01*
X167662368Y-87676253D01*
X167629820Y-87715333D01*
X167585399Y-87743014D01*
X167529768Y-87758742D01*
X167463587Y-87761960D01*
X167456366Y-87761570D01*
X167393110Y-87753129D01*
X167340256Y-87735292D01*
X167292983Y-87706080D01*
X167266887Y-87683769D01*
X167252226Y-87669712D01*
X167239366Y-87655987D01*
X167227941Y-87641249D01*
X167217585Y-87624154D01*
X167207934Y-87603358D01*
X167198622Y-87577519D01*
X167189283Y-87545291D01*
X167179552Y-87505331D01*
X167169063Y-87456295D01*
X167157450Y-87396840D01*
X167144349Y-87325621D01*
X167129393Y-87241295D01*
X167112217Y-87142518D01*
X167099291Y-87067613D01*
X167016495Y-86587200D01*
X166554344Y-86587200D01*
X166558737Y-86606250D01*
G36*
X175357302Y-87330028D02*
X175335218Y-87439679D01*
X175314116Y-87544588D01*
X175294234Y-87643569D01*
X175275809Y-87735433D01*
X175259079Y-87818994D01*
X175244281Y-87893062D01*
X175231652Y-87956452D01*
X175221429Y-88007974D01*
X175213850Y-88046442D01*
X175209152Y-88070668D01*
X175207572Y-88079450D01*
X175215691Y-88081084D01*
X175238615Y-88082562D01*
X175274216Y-88083828D01*
X175320365Y-88084826D01*
X175374934Y-88085499D01*
X175435795Y-88085792D01*
X175447840Y-88085800D01*
X175688079Y-88085800D01*
X175719833Y-87844500D01*
X176244767Y-87840656D01*
X176300302Y-87961112D01*
X176355838Y-88081567D01*
X176591243Y-88083819D01*
X176662781Y-88084360D01*
X176718923Y-88084418D01*
X176761202Y-88083939D01*
X176791150Y-88082865D01*
X176810299Y-88081140D01*
X176820183Y-88078708D01*
X176822332Y-88075514D01*
X176822272Y-88075352D01*
X176817676Y-88066563D01*
X176805508Y-88043936D01*
X176786323Y-88008489D01*
X176760675Y-87961240D01*
X176729118Y-87903208D01*
X176692207Y-87835410D01*
X176650497Y-87758865D01*
X176604541Y-87674590D01*
X176554894Y-87583605D01*
X176519368Y-87518534D01*
X176087706Y-87518534D01*
X175757733Y-87518534D01*
X175762733Y-87486784D01*
X175765146Y-87470196D01*
X175769444Y-87439330D01*
X175775285Y-87396695D01*
X175782327Y-87344801D01*
X175790230Y-87286154D01*
X175798650Y-87223264D01*
X175799356Y-87217967D01*
X175830980Y-86980900D01*
X175845810Y-87009068D01*
X175853603Y-87024632D01*
X175867420Y-87053007D01*
X175886065Y-87091684D01*
X175908344Y-87138156D01*
X175933063Y-87189915D01*
X175959027Y-87244453D01*
X175985041Y-87299262D01*
X176009910Y-87351836D01*
X176032439Y-87399665D01*
X176051435Y-87440243D01*
X176059290Y-87457150D01*
X176087706Y-87518534D01*
X176519368Y-87518534D01*
X176502111Y-87486927D01*
X176446746Y-87385573D01*
X176415302Y-87328033D01*
X176012709Y-86591434D01*
X175759885Y-86589195D01*
X175507060Y-86586957D01*
X175357302Y-87330028D01*
X175357302Y-87330028D01*
G37*
X175357302Y-87330028D02*
X175335218Y-87439679D01*
X175314116Y-87544588D01*
X175294234Y-87643569D01*
X175275809Y-87735433D01*
X175259079Y-87818994D01*
X175244281Y-87893062D01*
X175231652Y-87956452D01*
X175221429Y-88007974D01*
X175213850Y-88046442D01*
X175209152Y-88070668D01*
X175207572Y-88079450D01*
X175215691Y-88081084D01*
X175238615Y-88082562D01*
X175274216Y-88083828D01*
X175320365Y-88084826D01*
X175374934Y-88085499D01*
X175435795Y-88085792D01*
X175447840Y-88085800D01*
X175688079Y-88085800D01*
X175719833Y-87844500D01*
X176244767Y-87840656D01*
X176300302Y-87961112D01*
X176355838Y-88081567D01*
X176591243Y-88083819D01*
X176662781Y-88084360D01*
X176718923Y-88084418D01*
X176761202Y-88083939D01*
X176791150Y-88082865D01*
X176810299Y-88081140D01*
X176820183Y-88078708D01*
X176822332Y-88075514D01*
X176822272Y-88075352D01*
X176817676Y-88066563D01*
X176805508Y-88043936D01*
X176786323Y-88008489D01*
X176760675Y-87961240D01*
X176729118Y-87903208D01*
X176692207Y-87835410D01*
X176650497Y-87758865D01*
X176604541Y-87674590D01*
X176554894Y-87583605D01*
X176519368Y-87518534D01*
X176087706Y-87518534D01*
X175757733Y-87518534D01*
X175762733Y-87486784D01*
X175765146Y-87470196D01*
X175769444Y-87439330D01*
X175775285Y-87396695D01*
X175782327Y-87344801D01*
X175790230Y-87286154D01*
X175798650Y-87223264D01*
X175799356Y-87217967D01*
X175830980Y-86980900D01*
X175845810Y-87009068D01*
X175853603Y-87024632D01*
X175867420Y-87053007D01*
X175886065Y-87091684D01*
X175908344Y-87138156D01*
X175933063Y-87189915D01*
X175959027Y-87244453D01*
X175985041Y-87299262D01*
X176009910Y-87351836D01*
X176032439Y-87399665D01*
X176051435Y-87440243D01*
X176059290Y-87457150D01*
X176087706Y-87518534D01*
X176519368Y-87518534D01*
X176502111Y-87486927D01*
X176446746Y-87385573D01*
X176415302Y-87328033D01*
X176012709Y-86591434D01*
X175759885Y-86589195D01*
X175507060Y-86586957D01*
X175357302Y-87330028D01*
G36*
X174226910Y-86587496D02*
X174120169Y-86587674D01*
X174028819Y-86588131D01*
X173951319Y-86588995D01*
X173886128Y-86590392D01*
X173831705Y-86592451D01*
X173786509Y-86595297D01*
X173748999Y-86599059D01*
X173717633Y-86603864D01*
X173690871Y-86609838D01*
X173667170Y-86617110D01*
X173644991Y-86625805D01*
X173622791Y-86636052D01*
X173619578Y-86637625D01*
X173560982Y-86675268D01*
X173514857Y-86724185D01*
X173481354Y-86784031D01*
X173460625Y-86854461D01*
X173452821Y-86935132D01*
X173456182Y-87008762D01*
X173474239Y-87109030D01*
X173507168Y-87201697D01*
X173554689Y-87286125D01*
X173608906Y-87353697D01*
X173654120Y-87397826D01*
X173701077Y-87434387D01*
X173751843Y-87464048D01*
X173808484Y-87487478D01*
X173873065Y-87505348D01*
X173947652Y-87518326D01*
X174034309Y-87527082D01*
X174135102Y-87532284D01*
X174162530Y-87533102D01*
X174349359Y-87538003D01*
X174442291Y-88081567D01*
X174672545Y-88083820D01*
X174741748Y-88084397D01*
X174795813Y-88084559D01*
X174836533Y-88084227D01*
X174865701Y-88083318D01*
X174885110Y-88081752D01*
X174896553Y-88079447D01*
X174901821Y-88076322D01*
X174902800Y-88073395D01*
X174901401Y-88063756D01*
X174897373Y-88038903D01*
X174890968Y-88000308D01*
X174882438Y-87949442D01*
X174872035Y-87887778D01*
X174860011Y-87816787D01*
X174846619Y-87737941D01*
X174832109Y-87652712D01*
X174816735Y-87562572D01*
X174800748Y-87468994D01*
X174784401Y-87373448D01*
X174767946Y-87277408D01*
X174757598Y-87217096D01*
X174292529Y-87217096D01*
X174291813Y-87223880D01*
X174287113Y-87228199D01*
X174275622Y-87230371D01*
X174254533Y-87230710D01*
X174221038Y-87229535D01*
X174193716Y-87228228D01*
X174149100Y-87225013D01*
X174105840Y-87220154D01*
X174069539Y-87214371D01*
X174049664Y-87209686D01*
X174000789Y-87187199D01*
X173961117Y-87153996D01*
X173932057Y-87112896D01*
X173915021Y-87066718D01*
X173911419Y-87018282D01*
X173922662Y-86970406D01*
X173926065Y-86962707D01*
X173940782Y-86938837D01*
X173960690Y-86921192D01*
X173988221Y-86908957D01*
X174025806Y-86901320D01*
X174075877Y-86897468D01*
X174123862Y-86896571D01*
X174238157Y-86896233D01*
X174265008Y-87048633D01*
X174273653Y-87098351D01*
X174281217Y-87143085D01*
X174287211Y-87179850D01*
X174291147Y-87205655D01*
X174292529Y-87217096D01*
X174757598Y-87217096D01*
X174751634Y-87182344D01*
X174735717Y-87089729D01*
X174720449Y-87001035D01*
X174706080Y-86917734D01*
X174692864Y-86841297D01*
X174681051Y-86773197D01*
X174670895Y-86714906D01*
X174662647Y-86667895D01*
X174656559Y-86633636D01*
X174652883Y-86613602D01*
X174652268Y-86610484D01*
X174647454Y-86587200D01*
X174226910Y-86587496D01*
X174226910Y-86587496D01*
G37*
X174226910Y-86587496D02*
X174120169Y-86587674D01*
X174028819Y-86588131D01*
X173951319Y-86588995D01*
X173886128Y-86590392D01*
X173831705Y-86592451D01*
X173786509Y-86595297D01*
X173748999Y-86599059D01*
X173717633Y-86603864D01*
X173690871Y-86609838D01*
X173667170Y-86617110D01*
X173644991Y-86625805D01*
X173622791Y-86636052D01*
X173619578Y-86637625D01*
X173560982Y-86675268D01*
X173514857Y-86724185D01*
X173481354Y-86784031D01*
X173460625Y-86854461D01*
X173452821Y-86935132D01*
X173456182Y-87008762D01*
X173474239Y-87109030D01*
X173507168Y-87201697D01*
X173554689Y-87286125D01*
X173608906Y-87353697D01*
X173654120Y-87397826D01*
X173701077Y-87434387D01*
X173751843Y-87464048D01*
X173808484Y-87487478D01*
X173873065Y-87505348D01*
X173947652Y-87518326D01*
X174034309Y-87527082D01*
X174135102Y-87532284D01*
X174162530Y-87533102D01*
X174349359Y-87538003D01*
X174442291Y-88081567D01*
X174672545Y-88083820D01*
X174741748Y-88084397D01*
X174795813Y-88084559D01*
X174836533Y-88084227D01*
X174865701Y-88083318D01*
X174885110Y-88081752D01*
X174896553Y-88079447D01*
X174901821Y-88076322D01*
X174902800Y-88073395D01*
X174901401Y-88063756D01*
X174897373Y-88038903D01*
X174890968Y-88000308D01*
X174882438Y-87949442D01*
X174872035Y-87887778D01*
X174860011Y-87816787D01*
X174846619Y-87737941D01*
X174832109Y-87652712D01*
X174816735Y-87562572D01*
X174800748Y-87468994D01*
X174784401Y-87373448D01*
X174767946Y-87277408D01*
X174757598Y-87217096D01*
X174292529Y-87217096D01*
X174291813Y-87223880D01*
X174287113Y-87228199D01*
X174275622Y-87230371D01*
X174254533Y-87230710D01*
X174221038Y-87229535D01*
X174193716Y-87228228D01*
X174149100Y-87225013D01*
X174105840Y-87220154D01*
X174069539Y-87214371D01*
X174049664Y-87209686D01*
X174000789Y-87187199D01*
X173961117Y-87153996D01*
X173932057Y-87112896D01*
X173915021Y-87066718D01*
X173911419Y-87018282D01*
X173922662Y-86970406D01*
X173926065Y-86962707D01*
X173940782Y-86938837D01*
X173960690Y-86921192D01*
X173988221Y-86908957D01*
X174025806Y-86901320D01*
X174075877Y-86897468D01*
X174123862Y-86896571D01*
X174238157Y-86896233D01*
X174265008Y-87048633D01*
X174273653Y-87098351D01*
X174281217Y-87143085D01*
X174287211Y-87179850D01*
X174291147Y-87205655D01*
X174292529Y-87217096D01*
X174757598Y-87217096D01*
X174751634Y-87182344D01*
X174735717Y-87089729D01*
X174720449Y-87001035D01*
X174706080Y-86917734D01*
X174692864Y-86841297D01*
X174681051Y-86773197D01*
X174670895Y-86714906D01*
X174662647Y-86667895D01*
X174656559Y-86633636D01*
X174652883Y-86613602D01*
X174652268Y-86610484D01*
X174647454Y-86587200D01*
X174226910Y-86587496D01*
G36*
X172321441Y-86587285D02*
X172225905Y-86587530D01*
X172136786Y-86587922D01*
X172055410Y-86588447D01*
X171983104Y-86589091D01*
X171921194Y-86589841D01*
X171871008Y-86590683D01*
X171833871Y-86591604D01*
X171811111Y-86592590D01*
X171804009Y-86593550D01*
X171805390Y-86603581D01*
X171809216Y-86627476D01*
X171815019Y-86662419D01*
X171822333Y-86705594D01*
X171829409Y-86746772D01*
X171837649Y-86794853D01*
X171844773Y-86837213D01*
X171850313Y-86871005D01*
X171853799Y-86893380D01*
X171854800Y-86901288D01*
X171863038Y-86902970D01*
X171886838Y-86904497D01*
X171924829Y-86905843D01*
X171975641Y-86906980D01*
X172037903Y-86907882D01*
X172110244Y-86908522D01*
X172191293Y-86908873D01*
X172244267Y-86908933D01*
X172323656Y-86909067D01*
X172397613Y-86909449D01*
X172464466Y-86910053D01*
X172522544Y-86910852D01*
X172570174Y-86911817D01*
X172605687Y-86912922D01*
X172627409Y-86914140D01*
X172633789Y-86915283D01*
X172635177Y-86925689D01*
X172638908Y-86949215D01*
X172644402Y-86982306D01*
X172650667Y-87019000D01*
X172657351Y-87058892D01*
X172662788Y-87093615D01*
X172666380Y-87119208D01*
X172667544Y-87131183D01*
X172666693Y-87134810D01*
X172663112Y-87137794D01*
X172655305Y-87140196D01*
X172641775Y-87142081D01*
X172621024Y-87143509D01*
X172591556Y-87144543D01*
X172551874Y-87145247D01*
X172500481Y-87145681D01*
X172435881Y-87145909D01*
X172356576Y-87145993D01*
X172312000Y-87146000D01*
X172236252Y-87146125D01*
X172166016Y-87146480D01*
X172103042Y-87147040D01*
X172049077Y-87147777D01*
X172005872Y-87148666D01*
X171975174Y-87149679D01*
X171958734Y-87150790D01*
X171956400Y-87151410D01*
X171957773Y-87162305D01*
X171961486Y-87186258D01*
X171966926Y-87219651D01*
X171973480Y-87258868D01*
X171980538Y-87300291D01*
X171987487Y-87340304D01*
X171993716Y-87375290D01*
X171998611Y-87401631D01*
X171999536Y-87406350D01*
X172008400Y-87450800D01*
X172367633Y-87450800D01*
X172443780Y-87450952D01*
X172514423Y-87451388D01*
X172577822Y-87452074D01*
X172632239Y-87452978D01*
X172675931Y-87454067D01*
X172707160Y-87455310D01*
X172724185Y-87456674D01*
X172726867Y-87457491D01*
X172728259Y-87467877D01*
X172732028Y-87491403D01*
X172737563Y-87524541D01*
X172744253Y-87563764D01*
X172751486Y-87605542D01*
X172758653Y-87646350D01*
X172765141Y-87682658D01*
X172770341Y-87710939D01*
X172773640Y-87727666D01*
X172773733Y-87728084D01*
X172777989Y-87747134D01*
X172379894Y-87747134D01*
X172287361Y-87747164D01*
X172210348Y-87747292D01*
X172147442Y-87747568D01*
X172097229Y-87748047D01*
X172058297Y-87748780D01*
X172029233Y-87749821D01*
X172008622Y-87751221D01*
X171995053Y-87753034D01*
X171987111Y-87755313D01*
X171983384Y-87758110D01*
X171982459Y-87761477D01*
X171982470Y-87761950D01*
X171984106Y-87774766D01*
X171988240Y-87801291D01*
X171994385Y-87838569D01*
X172002053Y-87883639D01*
X172009987Y-87929167D01*
X172036833Y-88081567D01*
X172665483Y-88083738D01*
X172791529Y-88084103D01*
X172901426Y-88084266D01*
X172995956Y-88084216D01*
X173075902Y-88083944D01*
X173142047Y-88083441D01*
X173195174Y-88082698D01*
X173236065Y-88081704D01*
X173265503Y-88080451D01*
X173284271Y-88078929D01*
X173293152Y-88077128D01*
X173294133Y-88076182D01*
X173292722Y-88066567D01*
X173288628Y-88041479D01*
X173282056Y-88002128D01*
X173273213Y-87949723D01*
X173262305Y-87885477D01*
X173249539Y-87810600D01*
X173235120Y-87726302D01*
X173219257Y-87633794D01*
X173202154Y-87534287D01*
X173184018Y-87428992D01*
X173167133Y-87331145D01*
X173148265Y-87221853D01*
X173130244Y-87117375D01*
X173113276Y-87018909D01*
X173097567Y-86927656D01*
X173083322Y-86844813D01*
X173070749Y-86771580D01*
X173060052Y-86709157D01*
X173051437Y-86658741D01*
X173045111Y-86621533D01*
X173041279Y-86598732D01*
X173040133Y-86591518D01*
X173031888Y-86590815D01*
X173008035Y-86590148D01*
X172969903Y-86589525D01*
X172918818Y-86588956D01*
X172856106Y-86588451D01*
X172783094Y-86588019D01*
X172701109Y-86587668D01*
X172611478Y-86587409D01*
X172515527Y-86587250D01*
X172422067Y-86587200D01*
X172321441Y-86587285D01*
X172321441Y-86587285D01*
G37*
X172321441Y-86587285D02*
X172225905Y-86587530D01*
X172136786Y-86587922D01*
X172055410Y-86588447D01*
X171983104Y-86589091D01*
X171921194Y-86589841D01*
X171871008Y-86590683D01*
X171833871Y-86591604D01*
X171811111Y-86592590D01*
X171804009Y-86593550D01*
X171805390Y-86603581D01*
X171809216Y-86627476D01*
X171815019Y-86662419D01*
X171822333Y-86705594D01*
X171829409Y-86746772D01*
X171837649Y-86794853D01*
X171844773Y-86837213D01*
X171850313Y-86871005D01*
X171853799Y-86893380D01*
X171854800Y-86901288D01*
X171863038Y-86902970D01*
X171886838Y-86904497D01*
X171924829Y-86905843D01*
X171975641Y-86906980D01*
X172037903Y-86907882D01*
X172110244Y-86908522D01*
X172191293Y-86908873D01*
X172244267Y-86908933D01*
X172323656Y-86909067D01*
X172397613Y-86909449D01*
X172464466Y-86910053D01*
X172522544Y-86910852D01*
X172570174Y-86911817D01*
X172605687Y-86912922D01*
X172627409Y-86914140D01*
X172633789Y-86915283D01*
X172635177Y-86925689D01*
X172638908Y-86949215D01*
X172644402Y-86982306D01*
X172650667Y-87019000D01*
X172657351Y-87058892D01*
X172662788Y-87093615D01*
X172666380Y-87119208D01*
X172667544Y-87131183D01*
X172666693Y-87134810D01*
X172663112Y-87137794D01*
X172655305Y-87140196D01*
X172641775Y-87142081D01*
X172621024Y-87143509D01*
X172591556Y-87144543D01*
X172551874Y-87145247D01*
X172500481Y-87145681D01*
X172435881Y-87145909D01*
X172356576Y-87145993D01*
X172312000Y-87146000D01*
X172236252Y-87146125D01*
X172166016Y-87146480D01*
X172103042Y-87147040D01*
X172049077Y-87147777D01*
X172005872Y-87148666D01*
X171975174Y-87149679D01*
X171958734Y-87150790D01*
X171956400Y-87151410D01*
X171957773Y-87162305D01*
X171961486Y-87186258D01*
X171966926Y-87219651D01*
X171973480Y-87258868D01*
X171980538Y-87300291D01*
X171987487Y-87340304D01*
X171993716Y-87375290D01*
X171998611Y-87401631D01*
X171999536Y-87406350D01*
X172008400Y-87450800D01*
X172367633Y-87450800D01*
X172443780Y-87450952D01*
X172514423Y-87451388D01*
X172577822Y-87452074D01*
X172632239Y-87452978D01*
X172675931Y-87454067D01*
X172707160Y-87455310D01*
X172724185Y-87456674D01*
X172726867Y-87457491D01*
X172728259Y-87467877D01*
X172732028Y-87491403D01*
X172737563Y-87524541D01*
X172744253Y-87563764D01*
X172751486Y-87605542D01*
X172758653Y-87646350D01*
X172765141Y-87682658D01*
X172770341Y-87710939D01*
X172773640Y-87727666D01*
X172773733Y-87728084D01*
X172777989Y-87747134D01*
X172379894Y-87747134D01*
X172287361Y-87747164D01*
X172210348Y-87747292D01*
X172147442Y-87747568D01*
X172097229Y-87748047D01*
X172058297Y-87748780D01*
X172029233Y-87749821D01*
X172008622Y-87751221D01*
X171995053Y-87753034D01*
X171987111Y-87755313D01*
X171983384Y-87758110D01*
X171982459Y-87761477D01*
X171982470Y-87761950D01*
X171984106Y-87774766D01*
X171988240Y-87801291D01*
X171994385Y-87838569D01*
X172002053Y-87883639D01*
X172009987Y-87929167D01*
X172036833Y-88081567D01*
X172665483Y-88083738D01*
X172791529Y-88084103D01*
X172901426Y-88084266D01*
X172995956Y-88084216D01*
X173075902Y-88083944D01*
X173142047Y-88083441D01*
X173195174Y-88082698D01*
X173236065Y-88081704D01*
X173265503Y-88080451D01*
X173284271Y-88078929D01*
X173293152Y-88077128D01*
X173294133Y-88076182D01*
X173292722Y-88066567D01*
X173288628Y-88041479D01*
X173282056Y-88002128D01*
X173273213Y-87949723D01*
X173262305Y-87885477D01*
X173249539Y-87810600D01*
X173235120Y-87726302D01*
X173219257Y-87633794D01*
X173202154Y-87534287D01*
X173184018Y-87428992D01*
X173167133Y-87331145D01*
X173148265Y-87221853D01*
X173130244Y-87117375D01*
X173113276Y-87018909D01*
X173097567Y-86927656D01*
X173083322Y-86844813D01*
X173070749Y-86771580D01*
X173060052Y-86709157D01*
X173051437Y-86658741D01*
X173045111Y-86621533D01*
X173041279Y-86598732D01*
X173040133Y-86591518D01*
X173031888Y-86590815D01*
X173008035Y-86590148D01*
X172969903Y-86589525D01*
X172918818Y-86588956D01*
X172856106Y-86588451D01*
X172783094Y-86588019D01*
X172701109Y-86587668D01*
X172611478Y-86587409D01*
X172515527Y-86587250D01*
X172422067Y-86587200D01*
X172321441Y-86587285D01*
G36*
X170893230Y-86591626D02*
X170788528Y-86591716D01*
X170699302Y-86591922D01*
X170624095Y-86592283D01*
X170561450Y-86592837D01*
X170509910Y-86593624D01*
X170468018Y-86594683D01*
X170434318Y-86596053D01*
X170407351Y-86597773D01*
X170385661Y-86599881D01*
X170367791Y-86602418D01*
X170352284Y-86605422D01*
X170348762Y-86606214D01*
X170275114Y-86628756D01*
X170215289Y-86659720D01*
X170167879Y-86700133D01*
X170131476Y-86751019D01*
X170120771Y-86772151D01*
X170105276Y-86819402D01*
X170096185Y-86876822D01*
X170093821Y-86938776D01*
X170098508Y-86999628D01*
X170105602Y-87036379D01*
X170135629Y-87125337D01*
X170178447Y-87203550D01*
X170234251Y-87271202D01*
X170303239Y-87328478D01*
X170385606Y-87375561D01*
X170481548Y-87412637D01*
X170516446Y-87422768D01*
X170515712Y-87427573D01*
X170502321Y-87437115D01*
X170479142Y-87449369D01*
X170477982Y-87449920D01*
X170448338Y-87465946D01*
X170421863Y-87485277D01*
X170397606Y-87509548D01*
X170374617Y-87540391D01*
X170351944Y-87579440D01*
X170328637Y-87628330D01*
X170303745Y-87688695D01*
X170276319Y-87762168D01*
X170246000Y-87848654D01*
X170226127Y-87906833D01*
X170208191Y-87959868D01*
X170192899Y-88005626D01*
X170180957Y-88041974D01*
X170173074Y-88066778D01*
X170169956Y-88077907D01*
X170169933Y-88078167D01*
X170178168Y-88080306D01*
X170201956Y-88082007D01*
X170239920Y-88083241D01*
X170290686Y-88083978D01*
X170352876Y-88084188D01*
X170425117Y-88083841D01*
X170429256Y-88083806D01*
X170688579Y-88081567D01*
X170775967Y-87841695D01*
X170804759Y-87762948D01*
X170828616Y-87698553D01*
X170848256Y-87646901D01*
X170864396Y-87606383D01*
X170877756Y-87575389D01*
X170889051Y-87552310D01*
X170899001Y-87535536D01*
X170908323Y-87523458D01*
X170917735Y-87514467D01*
X170924074Y-87509634D01*
X170944859Y-87498910D01*
X170973115Y-87489336D01*
X171003782Y-87481988D01*
X171031804Y-87477942D01*
X171052123Y-87478275D01*
X171058512Y-87481025D01*
X171061751Y-87490994D01*
X171067380Y-87515643D01*
X171075006Y-87552949D01*
X171084235Y-87600890D01*
X171094676Y-87657442D01*
X171105935Y-87720583D01*
X171113483Y-87764067D01*
X171125043Y-87831235D01*
X171135872Y-87893891D01*
X171145591Y-87949864D01*
X171153821Y-87996982D01*
X171160184Y-88033073D01*
X171164300Y-88055967D01*
X171165545Y-88062517D01*
X171170345Y-88085800D01*
X171634243Y-88085800D01*
X171628726Y-88058284D01*
X171626480Y-88045925D01*
X171621581Y-88018143D01*
X171614251Y-87976202D01*
X171604706Y-87921369D01*
X171593168Y-87854907D01*
X171579855Y-87778082D01*
X171564986Y-87692158D01*
X171548781Y-87598401D01*
X171531458Y-87498075D01*
X171513238Y-87392446D01*
X171499218Y-87311100D01*
X171477614Y-87185702D01*
X171013958Y-87185702D01*
X171011753Y-87191061D01*
X171003416Y-87194339D01*
X170986272Y-87196046D01*
X170957643Y-87196696D01*
X170914853Y-87196799D01*
X170913044Y-87196799D01*
X170864670Y-87195685D01*
X170814821Y-87192675D01*
X170770132Y-87188261D01*
X170743320Y-87184197D01*
X170694990Y-87173363D01*
X170659592Y-87161184D01*
X170633128Y-87145926D01*
X170613307Y-87127755D01*
X170586163Y-87087717D01*
X170570779Y-87042615D01*
X170567986Y-86996961D01*
X170578618Y-86955270D01*
X170580710Y-86950990D01*
X170591312Y-86933637D01*
X170604413Y-86920323D01*
X170622316Y-86910463D01*
X170647318Y-86903474D01*
X170681722Y-86898770D01*
X170727828Y-86895767D01*
X170787935Y-86893880D01*
X170807050Y-86893483D01*
X170870922Y-86892687D01*
X170918202Y-86893101D01*
X170949191Y-86894736D01*
X170964189Y-86897603D01*
X170965800Y-86899315D01*
X170967166Y-86910278D01*
X170970870Y-86934408D01*
X170976320Y-86968195D01*
X170982925Y-87008128D01*
X170990094Y-87050698D01*
X170997235Y-87092394D01*
X171003756Y-87129705D01*
X171009066Y-87159121D01*
X171012575Y-87177131D01*
X171012710Y-87177750D01*
X171013958Y-87185702D01*
X171477614Y-87185702D01*
X171375227Y-86591434D01*
X170893230Y-86591626D01*
X170893230Y-86591626D01*
G37*
X170893230Y-86591626D02*
X170788528Y-86591716D01*
X170699302Y-86591922D01*
X170624095Y-86592283D01*
X170561450Y-86592837D01*
X170509910Y-86593624D01*
X170468018Y-86594683D01*
X170434318Y-86596053D01*
X170407351Y-86597773D01*
X170385661Y-86599881D01*
X170367791Y-86602418D01*
X170352284Y-86605422D01*
X170348762Y-86606214D01*
X170275114Y-86628756D01*
X170215289Y-86659720D01*
X170167879Y-86700133D01*
X170131476Y-86751019D01*
X170120771Y-86772151D01*
X170105276Y-86819402D01*
X170096185Y-86876822D01*
X170093821Y-86938776D01*
X170098508Y-86999628D01*
X170105602Y-87036379D01*
X170135629Y-87125337D01*
X170178447Y-87203550D01*
X170234251Y-87271202D01*
X170303239Y-87328478D01*
X170385606Y-87375561D01*
X170481548Y-87412637D01*
X170516446Y-87422768D01*
X170515712Y-87427573D01*
X170502321Y-87437115D01*
X170479142Y-87449369D01*
X170477982Y-87449920D01*
X170448338Y-87465946D01*
X170421863Y-87485277D01*
X170397606Y-87509548D01*
X170374617Y-87540391D01*
X170351944Y-87579440D01*
X170328637Y-87628330D01*
X170303745Y-87688695D01*
X170276319Y-87762168D01*
X170246000Y-87848654D01*
X170226127Y-87906833D01*
X170208191Y-87959868D01*
X170192899Y-88005626D01*
X170180957Y-88041974D01*
X170173074Y-88066778D01*
X170169956Y-88077907D01*
X170169933Y-88078167D01*
X170178168Y-88080306D01*
X170201956Y-88082007D01*
X170239920Y-88083241D01*
X170290686Y-88083978D01*
X170352876Y-88084188D01*
X170425117Y-88083841D01*
X170429256Y-88083806D01*
X170688579Y-88081567D01*
X170775967Y-87841695D01*
X170804759Y-87762948D01*
X170828616Y-87698553D01*
X170848256Y-87646901D01*
X170864396Y-87606383D01*
X170877756Y-87575389D01*
X170889051Y-87552310D01*
X170899001Y-87535536D01*
X170908323Y-87523458D01*
X170917735Y-87514467D01*
X170924074Y-87509634D01*
X170944859Y-87498910D01*
X170973115Y-87489336D01*
X171003782Y-87481988D01*
X171031804Y-87477942D01*
X171052123Y-87478275D01*
X171058512Y-87481025D01*
X171061751Y-87490994D01*
X171067380Y-87515643D01*
X171075006Y-87552949D01*
X171084235Y-87600890D01*
X171094676Y-87657442D01*
X171105935Y-87720583D01*
X171113483Y-87764067D01*
X171125043Y-87831235D01*
X171135872Y-87893891D01*
X171145591Y-87949864D01*
X171153821Y-87996982D01*
X171160184Y-88033073D01*
X171164300Y-88055967D01*
X171165545Y-88062517D01*
X171170345Y-88085800D01*
X171634243Y-88085800D01*
X171628726Y-88058284D01*
X171626480Y-88045925D01*
X171621581Y-88018143D01*
X171614251Y-87976202D01*
X171604706Y-87921369D01*
X171593168Y-87854907D01*
X171579855Y-87778082D01*
X171564986Y-87692158D01*
X171548781Y-87598401D01*
X171531458Y-87498075D01*
X171513238Y-87392446D01*
X171499218Y-87311100D01*
X171477614Y-87185702D01*
X171013958Y-87185702D01*
X171011753Y-87191061D01*
X171003416Y-87194339D01*
X170986272Y-87196046D01*
X170957643Y-87196696D01*
X170914853Y-87196799D01*
X170913044Y-87196799D01*
X170864670Y-87195685D01*
X170814821Y-87192675D01*
X170770132Y-87188261D01*
X170743320Y-87184197D01*
X170694990Y-87173363D01*
X170659592Y-87161184D01*
X170633128Y-87145926D01*
X170613307Y-87127755D01*
X170586163Y-87087717D01*
X170570779Y-87042615D01*
X170567986Y-86996961D01*
X170578618Y-86955270D01*
X170580710Y-86950990D01*
X170591312Y-86933637D01*
X170604413Y-86920323D01*
X170622316Y-86910463D01*
X170647318Y-86903474D01*
X170681722Y-86898770D01*
X170727828Y-86895767D01*
X170787935Y-86893880D01*
X170807050Y-86893483D01*
X170870922Y-86892687D01*
X170918202Y-86893101D01*
X170949191Y-86894736D01*
X170964189Y-86897603D01*
X170965800Y-86899315D01*
X170967166Y-86910278D01*
X170970870Y-86934408D01*
X170976320Y-86968195D01*
X170982925Y-87008128D01*
X170990094Y-87050698D01*
X170997235Y-87092394D01*
X171003756Y-87129705D01*
X171009066Y-87159121D01*
X171012575Y-87177131D01*
X171012710Y-87177750D01*
X171013958Y-87185702D01*
X171477614Y-87185702D01*
X171375227Y-86591434D01*
X170893230Y-86591626D01*
G36*
X168320757Y-86618950D02*
X168323899Y-86637525D01*
X168329381Y-86669390D01*
X168336616Y-86711156D01*
X168345017Y-86759437D01*
X168352642Y-86803100D01*
X168379304Y-86955500D01*
X168614091Y-86957751D01*
X168848878Y-86960001D01*
X168853332Y-86978917D01*
X168855352Y-86989662D01*
X168859913Y-87015220D01*
X168866720Y-87053902D01*
X168875485Y-87104018D01*
X168885913Y-87163878D01*
X168897714Y-87231791D01*
X168910596Y-87306069D01*
X168924268Y-87385020D01*
X168938436Y-87466955D01*
X168952810Y-87550184D01*
X168967098Y-87633017D01*
X168981008Y-87713763D01*
X168994249Y-87790734D01*
X169006528Y-87862238D01*
X169017554Y-87926586D01*
X169027035Y-87982088D01*
X169034679Y-88027054D01*
X169040195Y-88059794D01*
X169043290Y-88078617D01*
X169043866Y-88082578D01*
X169051972Y-88083421D01*
X169074846Y-88084182D01*
X169110323Y-88084830D01*
X169156237Y-88085336D01*
X169210423Y-88085669D01*
X169270717Y-88085799D01*
X169275907Y-88085800D01*
X169344663Y-88085739D01*
X169398306Y-88085478D01*
X169438657Y-88084899D01*
X169467536Y-88083883D01*
X169486763Y-88082312D01*
X169498159Y-88080070D01*
X169503544Y-88077036D01*
X169504738Y-88073094D01*
X169504391Y-88070984D01*
X169502229Y-88059663D01*
X169497551Y-88033560D01*
X169490649Y-87994370D01*
X169481813Y-87943786D01*
X169471335Y-87883505D01*
X169459505Y-87815222D01*
X169446616Y-87740631D01*
X169432959Y-87661427D01*
X169418823Y-87579306D01*
X169404501Y-87495963D01*
X169390284Y-87413093D01*
X169376462Y-87332390D01*
X169363328Y-87255550D01*
X169351172Y-87184268D01*
X169340284Y-87120238D01*
X169330958Y-87065157D01*
X169323483Y-87020719D01*
X169318150Y-86988618D01*
X169315251Y-86970551D01*
X169314800Y-86967189D01*
X169322910Y-86965232D01*
X169345814Y-86963470D01*
X169381373Y-86961971D01*
X169427447Y-86960803D01*
X169481900Y-86960035D01*
X169542590Y-86959735D01*
X169547633Y-86959733D01*
X169622336Y-86959513D01*
X169681209Y-86958823D01*
X169725353Y-86957616D01*
X169755866Y-86955847D01*
X169773848Y-86953471D01*
X169780397Y-86950440D01*
X169780466Y-86950042D01*
X169779052Y-86939069D01*
X169775107Y-86914106D01*
X169769078Y-86877833D01*
X169761412Y-86832929D01*
X169752556Y-86782075D01*
X169750833Y-86772290D01*
X169741813Y-86720727D01*
X169733899Y-86674712D01*
X169727537Y-86636901D01*
X169723173Y-86609950D01*
X169721252Y-86596515D01*
X169721200Y-86595715D01*
X169712745Y-86593968D01*
X169687429Y-86592420D01*
X169645320Y-86591071D01*
X169586488Y-86589922D01*
X169511004Y-86588973D01*
X169418937Y-86588226D01*
X169310357Y-86587681D01*
X169185334Y-86587340D01*
X169043938Y-86587203D01*
X169018366Y-86587200D01*
X168315533Y-86587200D01*
X168320757Y-86618950D01*
X168320757Y-86618950D01*
G37*
X168320757Y-86618950D02*
X168323899Y-86637525D01*
X168329381Y-86669390D01*
X168336616Y-86711156D01*
X168345017Y-86759437D01*
X168352642Y-86803100D01*
X168379304Y-86955500D01*
X168614091Y-86957751D01*
X168848878Y-86960001D01*
X168853332Y-86978917D01*
X168855352Y-86989662D01*
X168859913Y-87015220D01*
X168866720Y-87053902D01*
X168875485Y-87104018D01*
X168885913Y-87163878D01*
X168897714Y-87231791D01*
X168910596Y-87306069D01*
X168924268Y-87385020D01*
X168938436Y-87466955D01*
X168952810Y-87550184D01*
X168967098Y-87633017D01*
X168981008Y-87713763D01*
X168994249Y-87790734D01*
X169006528Y-87862238D01*
X169017554Y-87926586D01*
X169027035Y-87982088D01*
X169034679Y-88027054D01*
X169040195Y-88059794D01*
X169043290Y-88078617D01*
X169043866Y-88082578D01*
X169051972Y-88083421D01*
X169074846Y-88084182D01*
X169110323Y-88084830D01*
X169156237Y-88085336D01*
X169210423Y-88085669D01*
X169270717Y-88085799D01*
X169275907Y-88085800D01*
X169344663Y-88085739D01*
X169398306Y-88085478D01*
X169438657Y-88084899D01*
X169467536Y-88083883D01*
X169486763Y-88082312D01*
X169498159Y-88080070D01*
X169503544Y-88077036D01*
X169504738Y-88073094D01*
X169504391Y-88070984D01*
X169502229Y-88059663D01*
X169497551Y-88033560D01*
X169490649Y-87994370D01*
X169481813Y-87943786D01*
X169471335Y-87883505D01*
X169459505Y-87815222D01*
X169446616Y-87740631D01*
X169432959Y-87661427D01*
X169418823Y-87579306D01*
X169404501Y-87495963D01*
X169390284Y-87413093D01*
X169376462Y-87332390D01*
X169363328Y-87255550D01*
X169351172Y-87184268D01*
X169340284Y-87120238D01*
X169330958Y-87065157D01*
X169323483Y-87020719D01*
X169318150Y-86988618D01*
X169315251Y-86970551D01*
X169314800Y-86967189D01*
X169322910Y-86965232D01*
X169345814Y-86963470D01*
X169381373Y-86961971D01*
X169427447Y-86960803D01*
X169481900Y-86960035D01*
X169542590Y-86959735D01*
X169547633Y-86959733D01*
X169622336Y-86959513D01*
X169681209Y-86958823D01*
X169725353Y-86957616D01*
X169755866Y-86955847D01*
X169773848Y-86953471D01*
X169780397Y-86950440D01*
X169780466Y-86950042D01*
X169779052Y-86939069D01*
X169775107Y-86914106D01*
X169769078Y-86877833D01*
X169761412Y-86832929D01*
X169752556Y-86782075D01*
X169750833Y-86772290D01*
X169741813Y-86720727D01*
X169733899Y-86674712D01*
X169727537Y-86636901D01*
X169723173Y-86609950D01*
X169721252Y-86596515D01*
X169721200Y-86595715D01*
X169712745Y-86593968D01*
X169687429Y-86592420D01*
X169645320Y-86591071D01*
X169586488Y-86589922D01*
X169511004Y-86588973D01*
X169418937Y-86588226D01*
X169310357Y-86587681D01*
X169185334Y-86587340D01*
X169043938Y-86587203D01*
X169018366Y-86587200D01*
X168315533Y-86587200D01*
X168320757Y-86618950D01*
G36*
X165786648Y-86588463D02*
X165686454Y-86588985D01*
X165625450Y-86589386D01*
X165521350Y-86590141D01*
X165432716Y-86590876D01*
X165358084Y-86591648D01*
X165295985Y-86592508D01*
X165244954Y-86593512D01*
X165203525Y-86594713D01*
X165170232Y-86596166D01*
X165143607Y-86597924D01*
X165122184Y-86600040D01*
X165104498Y-86602570D01*
X165089082Y-86605567D01*
X165074470Y-86609085D01*
X165071918Y-86609750D01*
X165002363Y-86633315D01*
X164946308Y-86664739D01*
X164901433Y-86705852D01*
X164865414Y-86758481D01*
X164853723Y-86781547D01*
X164843761Y-86804558D01*
X164837370Y-86825657D01*
X164833812Y-86849640D01*
X164832353Y-86881305D01*
X164832232Y-86921633D01*
X164833211Y-86968351D01*
X164836132Y-87004296D01*
X164841894Y-87035596D01*
X164851400Y-87068379D01*
X164855677Y-87081042D01*
X164870748Y-87119557D01*
X164888795Y-87158397D01*
X164906070Y-87189538D01*
X164907081Y-87191109D01*
X164959574Y-87257419D01*
X165024453Y-87316018D01*
X165097857Y-87363967D01*
X165175923Y-87398329D01*
X165182005Y-87400324D01*
X165212117Y-87409958D01*
X165236860Y-87417888D01*
X165250726Y-87422347D01*
X165250684Y-87427681D01*
X165236692Y-87437929D01*
X165210546Y-87451780D01*
X165210101Y-87451994D01*
X165174133Y-87472802D01*
X165143203Y-87499490D01*
X165114309Y-87535310D01*
X165084452Y-87583513D01*
X165077929Y-87595240D01*
X165071691Y-87609342D01*
X165061042Y-87636368D01*
X165046859Y-87673858D01*
X165030022Y-87719355D01*
X165011407Y-87770400D01*
X164991895Y-87824535D01*
X164972361Y-87879301D01*
X164953685Y-87932239D01*
X164936745Y-87980893D01*
X164922419Y-88022802D01*
X164911585Y-88055509D01*
X164905121Y-88076556D01*
X164903667Y-88083096D01*
X164911792Y-88083765D01*
X164934808Y-88084373D01*
X164970668Y-88084899D01*
X165017329Y-88085322D01*
X165072747Y-88085621D01*
X165134877Y-88085774D01*
X165164017Y-88085790D01*
X165424367Y-88085779D01*
X165457103Y-87994773D01*
X165496790Y-87885159D01*
X165531371Y-87791199D01*
X165561016Y-87712457D01*
X165585897Y-87648496D01*
X165606185Y-87598882D01*
X165622053Y-87563177D01*
X165633670Y-87540947D01*
X165638145Y-87534502D01*
X165667891Y-87506923D01*
X165704126Y-87489409D01*
X165751567Y-87479696D01*
X165752662Y-87479566D01*
X165779264Y-87476984D01*
X165793682Y-87478159D01*
X165800491Y-87484407D01*
X165803600Y-87494223D01*
X165806133Y-87507133D01*
X165811132Y-87534645D01*
X165818230Y-87574665D01*
X165827059Y-87625101D01*
X165837253Y-87683859D01*
X165848445Y-87748846D01*
X165857210Y-87800050D01*
X165906003Y-88085800D01*
X166137202Y-88085800D01*
X166197788Y-88085618D01*
X166252442Y-88085106D01*
X166298996Y-88084310D01*
X166335278Y-88083281D01*
X166359122Y-88082067D01*
X166368357Y-88080717D01*
X166368400Y-88080616D01*
X166366990Y-88071688D01*
X166362897Y-88047277D01*
X166356329Y-88008584D01*
X166347490Y-87956809D01*
X166336587Y-87893155D01*
X166323827Y-87818823D01*
X166309415Y-87735015D01*
X166293558Y-87642931D01*
X166276462Y-87543773D01*
X166258334Y-87438743D01*
X166241400Y-87340733D01*
X166222509Y-87231336D01*
X166215161Y-87188692D01*
X165750333Y-87188692D01*
X165742439Y-87192700D01*
X165720920Y-87195314D01*
X165689022Y-87196595D01*
X165649991Y-87196605D01*
X165607074Y-87195405D01*
X165563516Y-87193056D01*
X165522563Y-87189619D01*
X165487462Y-87185155D01*
X165478218Y-87183562D01*
X165423340Y-87170331D01*
X165382179Y-87152814D01*
X165351682Y-87129062D01*
X165328794Y-87097129D01*
X165322207Y-87084072D01*
X165305950Y-87035277D01*
X165303871Y-86991002D01*
X165315565Y-86953122D01*
X165340628Y-86923510D01*
X165359404Y-86911704D01*
X165373502Y-86905938D01*
X165391186Y-86901611D01*
X165415188Y-86898455D01*
X165448242Y-86896199D01*
X165493080Y-86894574D01*
X165544688Y-86893449D01*
X165698875Y-86890664D01*
X165703255Y-86910382D01*
X165706562Y-86927199D01*
X165711733Y-86955708D01*
X165718174Y-86992406D01*
X165725294Y-87033788D01*
X165732499Y-87076350D01*
X165739197Y-87116589D01*
X165744795Y-87150999D01*
X165748700Y-87176078D01*
X165750320Y-87188320D01*
X165750333Y-87188692D01*
X166215161Y-87188692D01*
X166204467Y-87126640D01*
X166187481Y-87027859D01*
X166171758Y-86936204D01*
X166157505Y-86852887D01*
X166144928Y-86779119D01*
X166134234Y-86716114D01*
X166125629Y-86665082D01*
X166119320Y-86627235D01*
X166115515Y-86603786D01*
X166114400Y-86596010D01*
X166110414Y-86593804D01*
X166097807Y-86591985D01*
X166075607Y-86590540D01*
X166042841Y-86589456D01*
X165998534Y-86588719D01*
X165941716Y-86588317D01*
X165871411Y-86588236D01*
X165786648Y-86588463D01*
X165786648Y-86588463D01*
G37*
X165786648Y-86588463D02*
X165686454Y-86588985D01*
X165625450Y-86589386D01*
X165521350Y-86590141D01*
X165432716Y-86590876D01*
X165358084Y-86591648D01*
X165295985Y-86592508D01*
X165244954Y-86593512D01*
X165203525Y-86594713D01*
X165170232Y-86596166D01*
X165143607Y-86597924D01*
X165122184Y-86600040D01*
X165104498Y-86602570D01*
X165089082Y-86605567D01*
X165074470Y-86609085D01*
X165071918Y-86609750D01*
X165002363Y-86633315D01*
X164946308Y-86664739D01*
X164901433Y-86705852D01*
X164865414Y-86758481D01*
X164853723Y-86781547D01*
X164843761Y-86804558D01*
X164837370Y-86825657D01*
X164833812Y-86849640D01*
X164832353Y-86881305D01*
X164832232Y-86921633D01*
X164833211Y-86968351D01*
X164836132Y-87004296D01*
X164841894Y-87035596D01*
X164851400Y-87068379D01*
X164855677Y-87081042D01*
X164870748Y-87119557D01*
X164888795Y-87158397D01*
X164906070Y-87189538D01*
X164907081Y-87191109D01*
X164959574Y-87257419D01*
X165024453Y-87316018D01*
X165097857Y-87363967D01*
X165175923Y-87398329D01*
X165182005Y-87400324D01*
X165212117Y-87409958D01*
X165236860Y-87417888D01*
X165250726Y-87422347D01*
X165250684Y-87427681D01*
X165236692Y-87437929D01*
X165210546Y-87451780D01*
X165210101Y-87451994D01*
X165174133Y-87472802D01*
X165143203Y-87499490D01*
X165114309Y-87535310D01*
X165084452Y-87583513D01*
X165077929Y-87595240D01*
X165071691Y-87609342D01*
X165061042Y-87636368D01*
X165046859Y-87673858D01*
X165030022Y-87719355D01*
X165011407Y-87770400D01*
X164991895Y-87824535D01*
X164972361Y-87879301D01*
X164953685Y-87932239D01*
X164936745Y-87980893D01*
X164922419Y-88022802D01*
X164911585Y-88055509D01*
X164905121Y-88076556D01*
X164903667Y-88083096D01*
X164911792Y-88083765D01*
X164934808Y-88084373D01*
X164970668Y-88084899D01*
X165017329Y-88085322D01*
X165072747Y-88085621D01*
X165134877Y-88085774D01*
X165164017Y-88085790D01*
X165424367Y-88085779D01*
X165457103Y-87994773D01*
X165496790Y-87885159D01*
X165531371Y-87791199D01*
X165561016Y-87712457D01*
X165585897Y-87648496D01*
X165606185Y-87598882D01*
X165622053Y-87563177D01*
X165633670Y-87540947D01*
X165638145Y-87534502D01*
X165667891Y-87506923D01*
X165704126Y-87489409D01*
X165751567Y-87479696D01*
X165752662Y-87479566D01*
X165779264Y-87476984D01*
X165793682Y-87478159D01*
X165800491Y-87484407D01*
X165803600Y-87494223D01*
X165806133Y-87507133D01*
X165811132Y-87534645D01*
X165818230Y-87574665D01*
X165827059Y-87625101D01*
X165837253Y-87683859D01*
X165848445Y-87748846D01*
X165857210Y-87800050D01*
X165906003Y-88085800D01*
X166137202Y-88085800D01*
X166197788Y-88085618D01*
X166252442Y-88085106D01*
X166298996Y-88084310D01*
X166335278Y-88083281D01*
X166359122Y-88082067D01*
X166368357Y-88080717D01*
X166368400Y-88080616D01*
X166366990Y-88071688D01*
X166362897Y-88047277D01*
X166356329Y-88008584D01*
X166347490Y-87956809D01*
X166336587Y-87893155D01*
X166323827Y-87818823D01*
X166309415Y-87735015D01*
X166293558Y-87642931D01*
X166276462Y-87543773D01*
X166258334Y-87438743D01*
X166241400Y-87340733D01*
X166222509Y-87231336D01*
X166215161Y-87188692D01*
X165750333Y-87188692D01*
X165742439Y-87192700D01*
X165720920Y-87195314D01*
X165689022Y-87196595D01*
X165649991Y-87196605D01*
X165607074Y-87195405D01*
X165563516Y-87193056D01*
X165522563Y-87189619D01*
X165487462Y-87185155D01*
X165478218Y-87183562D01*
X165423340Y-87170331D01*
X165382179Y-87152814D01*
X165351682Y-87129062D01*
X165328794Y-87097129D01*
X165322207Y-87084072D01*
X165305950Y-87035277D01*
X165303871Y-86991002D01*
X165315565Y-86953122D01*
X165340628Y-86923510D01*
X165359404Y-86911704D01*
X165373502Y-86905938D01*
X165391186Y-86901611D01*
X165415188Y-86898455D01*
X165448242Y-86896199D01*
X165493080Y-86894574D01*
X165544688Y-86893449D01*
X165698875Y-86890664D01*
X165703255Y-86910382D01*
X165706562Y-86927199D01*
X165711733Y-86955708D01*
X165718174Y-86992406D01*
X165725294Y-87033788D01*
X165732499Y-87076350D01*
X165739197Y-87116589D01*
X165744795Y-87150999D01*
X165748700Y-87176078D01*
X165750320Y-87188320D01*
X165750333Y-87188692D01*
X166215161Y-87188692D01*
X166204467Y-87126640D01*
X166187481Y-87027859D01*
X166171758Y-86936204D01*
X166157505Y-86852887D01*
X166144928Y-86779119D01*
X166134234Y-86716114D01*
X166125629Y-86665082D01*
X166119320Y-86627235D01*
X166115515Y-86603786D01*
X166114400Y-86596010D01*
X166110414Y-86593804D01*
X166097807Y-86591985D01*
X166075607Y-86590540D01*
X166042841Y-86589456D01*
X165998534Y-86588719D01*
X165941716Y-86588317D01*
X165871411Y-86588236D01*
X165786648Y-86588463D01*
G36*
X163604418Y-86587255D02*
X163498876Y-86587431D01*
X163408345Y-86587744D01*
X163331862Y-86588211D01*
X163268466Y-86588848D01*
X163217195Y-86589671D01*
X163177088Y-86590699D01*
X163147184Y-86591945D01*
X163126521Y-86593428D01*
X163114137Y-86595164D01*
X163109071Y-86597169D01*
X163108833Y-86597784D01*
X163110277Y-86609275D01*
X163114215Y-86634477D01*
X163120161Y-86670432D01*
X163127628Y-86714183D01*
X163134233Y-86752033D01*
X163142522Y-86799470D01*
X163149671Y-86841085D01*
X163155200Y-86874020D01*
X163158628Y-86895422D01*
X163159533Y-86902316D01*
X163167721Y-86903667D01*
X163191168Y-86904925D01*
X163228200Y-86906063D01*
X163277143Y-86907050D01*
X163336323Y-86907859D01*
X163404066Y-86908461D01*
X163478699Y-86908828D01*
X163547722Y-86908933D01*
X163935912Y-86908934D01*
X163954122Y-87013148D01*
X163961119Y-87054294D01*
X163966871Y-87090222D01*
X163970800Y-87117176D01*
X163972330Y-87131396D01*
X163972333Y-87131681D01*
X163971317Y-87135191D01*
X163967275Y-87138078D01*
X163958716Y-87140404D01*
X163944150Y-87142228D01*
X163922084Y-87143610D01*
X163891029Y-87144610D01*
X163849493Y-87145289D01*
X163795986Y-87145707D01*
X163729016Y-87145922D01*
X163647092Y-87145996D01*
X163616733Y-87146000D01*
X163526348Y-87146190D01*
X163447695Y-87146746D01*
X163381653Y-87147647D01*
X163329103Y-87148875D01*
X163290925Y-87150408D01*
X163267999Y-87152227D01*
X163261133Y-87154109D01*
X163262499Y-87164872D01*
X163266203Y-87188808D01*
X163271652Y-87222412D01*
X163278254Y-87262178D01*
X163285416Y-87304602D01*
X163292548Y-87346178D01*
X163299055Y-87383402D01*
X163304347Y-87412768D01*
X163307831Y-87430771D01*
X163308043Y-87431750D01*
X163312256Y-87450800D01*
X163671928Y-87450800D01*
X163748122Y-87450918D01*
X163818814Y-87451256D01*
X163882265Y-87451788D01*
X163936736Y-87452490D01*
X163980487Y-87453336D01*
X164011780Y-87454301D01*
X164028875Y-87455359D01*
X164031600Y-87455998D01*
X164032993Y-87467220D01*
X164036767Y-87491552D01*
X164042310Y-87525437D01*
X164049011Y-87565318D01*
X164056260Y-87607638D01*
X164063445Y-87648840D01*
X164069955Y-87685367D01*
X164075181Y-87713662D01*
X164078510Y-87730168D01*
X164079056Y-87732317D01*
X164079312Y-87735757D01*
X164076879Y-87738621D01*
X164070359Y-87740961D01*
X164058353Y-87742830D01*
X164039461Y-87744280D01*
X164012285Y-87745364D01*
X163975426Y-87746134D01*
X163927485Y-87746644D01*
X163867064Y-87746945D01*
X163792763Y-87747090D01*
X163703183Y-87747133D01*
X163685037Y-87747134D01*
X163604702Y-87747264D01*
X163529778Y-87747638D01*
X163461918Y-87748229D01*
X163402776Y-87749011D01*
X163354003Y-87749958D01*
X163317253Y-87751043D01*
X163294178Y-87752239D01*
X163286425Y-87753484D01*
X163287745Y-87763435D01*
X163291486Y-87787416D01*
X163297216Y-87822766D01*
X163304503Y-87866824D01*
X163312915Y-87916927D01*
X163313912Y-87922817D01*
X163341506Y-88085800D01*
X163970186Y-88085800D01*
X164091483Y-88085694D01*
X164201520Y-88085381D01*
X164299606Y-88084870D01*
X164385051Y-88084170D01*
X164457164Y-88083289D01*
X164515254Y-88082237D01*
X164558631Y-88081023D01*
X164586603Y-88079654D01*
X164598481Y-88078140D01*
X164598867Y-88077799D01*
X164597459Y-88068412D01*
X164593377Y-88043588D01*
X164586835Y-88004576D01*
X164578045Y-87952625D01*
X164567220Y-87888983D01*
X164554574Y-87814900D01*
X164540319Y-87731623D01*
X164524668Y-87640402D01*
X164507834Y-87542486D01*
X164490031Y-87439123D01*
X164480078Y-87381415D01*
X164461599Y-87274322D01*
X164443780Y-87171056D01*
X164426858Y-87072975D01*
X164411066Y-86981438D01*
X164396639Y-86897805D01*
X164383811Y-86823434D01*
X164372816Y-86759684D01*
X164363890Y-86707915D01*
X164357265Y-86669484D01*
X164353178Y-86645752D01*
X164352209Y-86640117D01*
X164343128Y-86587200D01*
X163725931Y-86587200D01*
X163604418Y-86587255D01*
X163604418Y-86587255D01*
G37*
X163604418Y-86587255D02*
X163498876Y-86587431D01*
X163408345Y-86587744D01*
X163331862Y-86588211D01*
X163268466Y-86588848D01*
X163217195Y-86589671D01*
X163177088Y-86590699D01*
X163147184Y-86591945D01*
X163126521Y-86593428D01*
X163114137Y-86595164D01*
X163109071Y-86597169D01*
X163108833Y-86597784D01*
X163110277Y-86609275D01*
X163114215Y-86634477D01*
X163120161Y-86670432D01*
X163127628Y-86714183D01*
X163134233Y-86752033D01*
X163142522Y-86799470D01*
X163149671Y-86841085D01*
X163155200Y-86874020D01*
X163158628Y-86895422D01*
X163159533Y-86902316D01*
X163167721Y-86903667D01*
X163191168Y-86904925D01*
X163228200Y-86906063D01*
X163277143Y-86907050D01*
X163336323Y-86907859D01*
X163404066Y-86908461D01*
X163478699Y-86908828D01*
X163547722Y-86908933D01*
X163935912Y-86908934D01*
X163954122Y-87013148D01*
X163961119Y-87054294D01*
X163966871Y-87090222D01*
X163970800Y-87117176D01*
X163972330Y-87131396D01*
X163972333Y-87131681D01*
X163971317Y-87135191D01*
X163967275Y-87138078D01*
X163958716Y-87140404D01*
X163944150Y-87142228D01*
X163922084Y-87143610D01*
X163891029Y-87144610D01*
X163849493Y-87145289D01*
X163795986Y-87145707D01*
X163729016Y-87145922D01*
X163647092Y-87145996D01*
X163616733Y-87146000D01*
X163526348Y-87146190D01*
X163447695Y-87146746D01*
X163381653Y-87147647D01*
X163329103Y-87148875D01*
X163290925Y-87150408D01*
X163267999Y-87152227D01*
X163261133Y-87154109D01*
X163262499Y-87164872D01*
X163266203Y-87188808D01*
X163271652Y-87222412D01*
X163278254Y-87262178D01*
X163285416Y-87304602D01*
X163292548Y-87346178D01*
X163299055Y-87383402D01*
X163304347Y-87412768D01*
X163307831Y-87430771D01*
X163308043Y-87431750D01*
X163312256Y-87450800D01*
X163671928Y-87450800D01*
X163748122Y-87450918D01*
X163818814Y-87451256D01*
X163882265Y-87451788D01*
X163936736Y-87452490D01*
X163980487Y-87453336D01*
X164011780Y-87454301D01*
X164028875Y-87455359D01*
X164031600Y-87455998D01*
X164032993Y-87467220D01*
X164036767Y-87491552D01*
X164042310Y-87525437D01*
X164049011Y-87565318D01*
X164056260Y-87607638D01*
X164063445Y-87648840D01*
X164069955Y-87685367D01*
X164075181Y-87713662D01*
X164078510Y-87730168D01*
X164079056Y-87732317D01*
X164079312Y-87735757D01*
X164076879Y-87738621D01*
X164070359Y-87740961D01*
X164058353Y-87742830D01*
X164039461Y-87744280D01*
X164012285Y-87745364D01*
X163975426Y-87746134D01*
X163927485Y-87746644D01*
X163867064Y-87746945D01*
X163792763Y-87747090D01*
X163703183Y-87747133D01*
X163685037Y-87747134D01*
X163604702Y-87747264D01*
X163529778Y-87747638D01*
X163461918Y-87748229D01*
X163402776Y-87749011D01*
X163354003Y-87749958D01*
X163317253Y-87751043D01*
X163294178Y-87752239D01*
X163286425Y-87753484D01*
X163287745Y-87763435D01*
X163291486Y-87787416D01*
X163297216Y-87822766D01*
X163304503Y-87866824D01*
X163312915Y-87916927D01*
X163313912Y-87922817D01*
X163341506Y-88085800D01*
X163970186Y-88085800D01*
X164091483Y-88085694D01*
X164201520Y-88085381D01*
X164299606Y-88084870D01*
X164385051Y-88084170D01*
X164457164Y-88083289D01*
X164515254Y-88082237D01*
X164558631Y-88081023D01*
X164586603Y-88079654D01*
X164598481Y-88078140D01*
X164598867Y-88077799D01*
X164597459Y-88068412D01*
X164593377Y-88043588D01*
X164586835Y-88004576D01*
X164578045Y-87952625D01*
X164567220Y-87888983D01*
X164554574Y-87814900D01*
X164540319Y-87731623D01*
X164524668Y-87640402D01*
X164507834Y-87542486D01*
X164490031Y-87439123D01*
X164480078Y-87381415D01*
X164461599Y-87274322D01*
X164443780Y-87171056D01*
X164426858Y-87072975D01*
X164411066Y-86981438D01*
X164396639Y-86897805D01*
X164383811Y-86823434D01*
X164372816Y-86759684D01*
X164363890Y-86707915D01*
X164357265Y-86669484D01*
X164353178Y-86645752D01*
X164352209Y-86640117D01*
X164343128Y-86587200D01*
X163725931Y-86587200D01*
X163604418Y-86587255D01*
G36*
X176942789Y-85500098D02*
X176916045Y-85511401D01*
X176880682Y-85529431D01*
X176838441Y-85553181D01*
X176791064Y-85581645D01*
X176740295Y-85613817D01*
X176687874Y-85648690D01*
X176635545Y-85685257D01*
X176597582Y-85713059D01*
X176504703Y-85788330D01*
X176411366Y-85874736D01*
X176320186Y-85969252D01*
X176233781Y-86068856D01*
X176154768Y-86170523D01*
X176085764Y-86271231D01*
X176029384Y-86367955D01*
X176027270Y-86372004D01*
X176000513Y-86423507D01*
X176282502Y-86854604D01*
X176342369Y-86946107D01*
X176393641Y-87024414D01*
X176436979Y-87090509D01*
X176473042Y-87145373D01*
X176502491Y-87189993D01*
X176525985Y-87225350D01*
X176544185Y-87252429D01*
X176557752Y-87272213D01*
X176567345Y-87285686D01*
X176573625Y-87293832D01*
X176577251Y-87297634D01*
X176578884Y-87298077D01*
X176579200Y-87296666D01*
X176580930Y-87288076D01*
X176585934Y-87264232D01*
X176593934Y-87226438D01*
X176604650Y-87175997D01*
X176617804Y-87114211D01*
X176633116Y-87042383D01*
X176650308Y-86961817D01*
X176669101Y-86873815D01*
X176689215Y-86779681D01*
X176710373Y-86680716D01*
X176732294Y-86578225D01*
X176754701Y-86473509D01*
X176777314Y-86367873D01*
X176799854Y-86262619D01*
X176822042Y-86159050D01*
X176843599Y-86058468D01*
X176864247Y-85962178D01*
X176883707Y-85871481D01*
X176901699Y-85787681D01*
X176917945Y-85712081D01*
X176932166Y-85645983D01*
X176944082Y-85590691D01*
X176953416Y-85547508D01*
X176959887Y-85517736D01*
X176963218Y-85502678D01*
X176963446Y-85501700D01*
X176959170Y-85496529D01*
X176942789Y-85500098D01*
X176942789Y-85500098D01*
G37*
X176942789Y-85500098D02*
X176916045Y-85511401D01*
X176880682Y-85529431D01*
X176838441Y-85553181D01*
X176791064Y-85581645D01*
X176740295Y-85613817D01*
X176687874Y-85648690D01*
X176635545Y-85685257D01*
X176597582Y-85713059D01*
X176504703Y-85788330D01*
X176411366Y-85874736D01*
X176320186Y-85969252D01*
X176233781Y-86068856D01*
X176154768Y-86170523D01*
X176085764Y-86271231D01*
X176029384Y-86367955D01*
X176027270Y-86372004D01*
X176000513Y-86423507D01*
X176282502Y-86854604D01*
X176342369Y-86946107D01*
X176393641Y-87024414D01*
X176436979Y-87090509D01*
X176473042Y-87145373D01*
X176502491Y-87189993D01*
X176525985Y-87225350D01*
X176544185Y-87252429D01*
X176557752Y-87272213D01*
X176567345Y-87285686D01*
X176573625Y-87293832D01*
X176577251Y-87297634D01*
X176578884Y-87298077D01*
X176579200Y-87296666D01*
X176580930Y-87288076D01*
X176585934Y-87264232D01*
X176593934Y-87226438D01*
X176604650Y-87175997D01*
X176617804Y-87114211D01*
X176633116Y-87042383D01*
X176650308Y-86961817D01*
X176669101Y-86873815D01*
X176689215Y-86779681D01*
X176710373Y-86680716D01*
X176732294Y-86578225D01*
X176754701Y-86473509D01*
X176777314Y-86367873D01*
X176799854Y-86262619D01*
X176822042Y-86159050D01*
X176843599Y-86058468D01*
X176864247Y-85962178D01*
X176883707Y-85871481D01*
X176901699Y-85787681D01*
X176917945Y-85712081D01*
X176932166Y-85645983D01*
X176944082Y-85590691D01*
X176953416Y-85547508D01*
X176959887Y-85517736D01*
X176963218Y-85502678D01*
X176963446Y-85501700D01*
X176959170Y-85496529D01*
X176942789Y-85500098D01*
G36*
X178707149Y-85619028D02*
X178572780Y-85707279D01*
X178452274Y-85786729D01*
X178345677Y-85857346D01*
X178253034Y-85919100D01*
X178174392Y-85971959D01*
X178109796Y-86015893D01*
X178059291Y-86050871D01*
X178022924Y-86076862D01*
X178000739Y-86093835D01*
X177992784Y-86101759D01*
X177993133Y-86102357D01*
X178012830Y-86106887D01*
X178046804Y-86114452D01*
X178093759Y-86124774D01*
X178152399Y-86137575D01*
X178221428Y-86152578D01*
X178299550Y-86169503D01*
X178385468Y-86188075D01*
X178477888Y-86208013D01*
X178575512Y-86229042D01*
X178677044Y-86250883D01*
X178781188Y-86273258D01*
X178886649Y-86295889D01*
X178992130Y-86318498D01*
X179096335Y-86340809D01*
X179197967Y-86362541D01*
X179295732Y-86383419D01*
X179388332Y-86403164D01*
X179474472Y-86421498D01*
X179552855Y-86438143D01*
X179622186Y-86452821D01*
X179681168Y-86465256D01*
X179728504Y-86475168D01*
X179762900Y-86482280D01*
X179783059Y-86486314D01*
X179788067Y-86487143D01*
X179783941Y-86476473D01*
X179772684Y-86454292D01*
X179755978Y-86423550D01*
X179735505Y-86387194D01*
X179712946Y-86348174D01*
X179689983Y-86309438D01*
X179668297Y-86273935D01*
X179650932Y-86246681D01*
X179606553Y-86180868D01*
X179564536Y-86122856D01*
X179521729Y-86068828D01*
X179474980Y-86014964D01*
X179421139Y-85957450D01*
X179365378Y-85900773D01*
X179278887Y-85817528D01*
X179196717Y-85745656D01*
X179114707Y-85681875D01*
X179028695Y-85622901D01*
X178956916Y-85578582D01*
X178858132Y-85520027D01*
X178707149Y-85619028D01*
X178707149Y-85619028D01*
G37*
X178707149Y-85619028D02*
X178572780Y-85707279D01*
X178452274Y-85786729D01*
X178345677Y-85857346D01*
X178253034Y-85919100D01*
X178174392Y-85971959D01*
X178109796Y-86015893D01*
X178059291Y-86050871D01*
X178022924Y-86076862D01*
X178000739Y-86093835D01*
X177992784Y-86101759D01*
X177993133Y-86102357D01*
X178012830Y-86106887D01*
X178046804Y-86114452D01*
X178093759Y-86124774D01*
X178152399Y-86137575D01*
X178221428Y-86152578D01*
X178299550Y-86169503D01*
X178385468Y-86188075D01*
X178477888Y-86208013D01*
X178575512Y-86229042D01*
X178677044Y-86250883D01*
X178781188Y-86273258D01*
X178886649Y-86295889D01*
X178992130Y-86318498D01*
X179096335Y-86340809D01*
X179197967Y-86362541D01*
X179295732Y-86383419D01*
X179388332Y-86403164D01*
X179474472Y-86421498D01*
X179552855Y-86438143D01*
X179622186Y-86452821D01*
X179681168Y-86465256D01*
X179728504Y-86475168D01*
X179762900Y-86482280D01*
X179783059Y-86486314D01*
X179788067Y-86487143D01*
X179783941Y-86476473D01*
X179772684Y-86454292D01*
X179755978Y-86423550D01*
X179735505Y-86387194D01*
X179712946Y-86348174D01*
X179689983Y-86309438D01*
X179668297Y-86273935D01*
X179650932Y-86246681D01*
X179606553Y-86180868D01*
X179564536Y-86122856D01*
X179521729Y-86068828D01*
X179474980Y-86014964D01*
X179421139Y-85957450D01*
X179365378Y-85900773D01*
X179278887Y-85817528D01*
X179196717Y-85745656D01*
X179114707Y-85681875D01*
X179028695Y-85622901D01*
X178956916Y-85578582D01*
X178858132Y-85520027D01*
X178707149Y-85619028D01*
G36*
X177844316Y-85287189D02*
X177769132Y-85288698D01*
X177698387Y-85291418D01*
X177635634Y-85295321D01*
X177584424Y-85300383D01*
X177565566Y-85303120D01*
X177508299Y-85313327D01*
X177450939Y-85324709D01*
X177395893Y-85336669D01*
X177345567Y-85348608D01*
X177302369Y-85359930D01*
X177268706Y-85370036D01*
X177246984Y-85378330D01*
X177239598Y-85384050D01*
X177237930Y-85393031D01*
X177233122Y-85417156D01*
X177225469Y-85454988D01*
X177215263Y-85505090D01*
X177202800Y-85566026D01*
X177188373Y-85636357D01*
X177172275Y-85714648D01*
X177154802Y-85799460D01*
X177136248Y-85889357D01*
X177134634Y-85897167D01*
X177116036Y-85987295D01*
X177098530Y-86072359D01*
X177082406Y-86150935D01*
X177067954Y-86221600D01*
X177055464Y-86282931D01*
X177045225Y-86333504D01*
X177037526Y-86371898D01*
X177032659Y-86396688D01*
X177030912Y-86406452D01*
X177030919Y-86406546D01*
X177038041Y-86402228D01*
X177058458Y-86389290D01*
X177091254Y-86368322D01*
X177135514Y-86339916D01*
X177190322Y-86304661D01*
X177254763Y-86263146D01*
X177327921Y-86215963D01*
X177408881Y-86163700D01*
X177496728Y-86106950D01*
X177590545Y-86046300D01*
X177689419Y-85982343D01*
X177792432Y-85915667D01*
X177802633Y-85909062D01*
X177906075Y-85842038D01*
X178005478Y-85777537D01*
X178099923Y-85716160D01*
X178188492Y-85658509D01*
X178270267Y-85605185D01*
X178344329Y-85556788D01*
X178409759Y-85513919D01*
X178465640Y-85477180D01*
X178511053Y-85447171D01*
X178545079Y-85424494D01*
X178566800Y-85409749D01*
X178575298Y-85403537D01*
X178575383Y-85403417D01*
X178568995Y-85397349D01*
X178548304Y-85388677D01*
X178515639Y-85377994D01*
X178473327Y-85365888D01*
X178423695Y-85352950D01*
X178369070Y-85339769D01*
X178311781Y-85326938D01*
X178254155Y-85315044D01*
X178198519Y-85304679D01*
X178162467Y-85298720D01*
X178118381Y-85293784D01*
X178060971Y-85290188D01*
X177993788Y-85287908D01*
X177920386Y-85286917D01*
X177844316Y-85287189D01*
X177844316Y-85287189D01*
G37*
X177844316Y-85287189D02*
X177769132Y-85288698D01*
X177698387Y-85291418D01*
X177635634Y-85295321D01*
X177584424Y-85300383D01*
X177565566Y-85303120D01*
X177508299Y-85313327D01*
X177450939Y-85324709D01*
X177395893Y-85336669D01*
X177345567Y-85348608D01*
X177302369Y-85359930D01*
X177268706Y-85370036D01*
X177246984Y-85378330D01*
X177239598Y-85384050D01*
X177237930Y-85393031D01*
X177233122Y-85417156D01*
X177225469Y-85454988D01*
X177215263Y-85505090D01*
X177202800Y-85566026D01*
X177188373Y-85636357D01*
X177172275Y-85714648D01*
X177154802Y-85799460D01*
X177136248Y-85889357D01*
X177134634Y-85897167D01*
X177116036Y-85987295D01*
X177098530Y-86072359D01*
X177082406Y-86150935D01*
X177067954Y-86221600D01*
X177055464Y-86282931D01*
X177045225Y-86333504D01*
X177037526Y-86371898D01*
X177032659Y-86396688D01*
X177030912Y-86406452D01*
X177030919Y-86406546D01*
X177038041Y-86402228D01*
X177058458Y-86389290D01*
X177091254Y-86368322D01*
X177135514Y-86339916D01*
X177190322Y-86304661D01*
X177254763Y-86263146D01*
X177327921Y-86215963D01*
X177408881Y-86163700D01*
X177496728Y-86106950D01*
X177590545Y-86046300D01*
X177689419Y-85982343D01*
X177792432Y-85915667D01*
X177802633Y-85909062D01*
X177906075Y-85842038D01*
X178005478Y-85777537D01*
X178099923Y-85716160D01*
X178188492Y-85658509D01*
X178270267Y-85605185D01*
X178344329Y-85556788D01*
X178409759Y-85513919D01*
X178465640Y-85477180D01*
X178511053Y-85447171D01*
X178545079Y-85424494D01*
X178566800Y-85409749D01*
X178575298Y-85403537D01*
X178575383Y-85403417D01*
X178568995Y-85397349D01*
X178548304Y-85388677D01*
X178515639Y-85377994D01*
X178473327Y-85365888D01*
X178423695Y-85352950D01*
X178369070Y-85339769D01*
X178311781Y-85326938D01*
X178254155Y-85315044D01*
X178198519Y-85304679D01*
X178162467Y-85298720D01*
X178118381Y-85293784D01*
X178060971Y-85290188D01*
X177993788Y-85287908D01*
X177920386Y-85286917D01*
X177844316Y-85287189D01*
D12*
X170166666Y-80457143D02*
X170214285Y-80504762D01*
X170357142Y-80552381D01*
X170452380Y-80552381D01*
X170595238Y-80504762D01*
X170690476Y-80409524D01*
X170738095Y-80314286D01*
X170785714Y-80123810D01*
X170785714Y-79980952D01*
X170738095Y-79790476D01*
X170690476Y-79695238D01*
X170595238Y-79600000D01*
X170452380Y-79552381D01*
X170357142Y-79552381D01*
X170214285Y-79600000D01*
X170166666Y-79647619D01*
X169214285Y-80552381D02*
X169785714Y-80552381D01*
X169500000Y-80552381D02*
X169500000Y-79552381D01*
X169595238Y-79695238D01*
X169690476Y-79790476D01*
X169785714Y-79838095D01*
X172341666Y-79532143D02*
X172389285Y-79579762D01*
X172532142Y-79627381D01*
X172627380Y-79627381D01*
X172770238Y-79579762D01*
X172865476Y-79484524D01*
X172913095Y-79389286D01*
X172960714Y-79198810D01*
X172960714Y-79055952D01*
X172913095Y-78865476D01*
X172865476Y-78770238D01*
X172770238Y-78675000D01*
X172627380Y-78627381D01*
X172532142Y-78627381D01*
X172389285Y-78675000D01*
X172341666Y-78722619D01*
X171960714Y-78722619D02*
X171913095Y-78675000D01*
X171817857Y-78627381D01*
X171579761Y-78627381D01*
X171484523Y-78675000D01*
X171436904Y-78722619D01*
X171389285Y-78817857D01*
X171389285Y-78913095D01*
X171436904Y-79055952D01*
X172008333Y-79627381D01*
X171389285Y-79627381D01*
X169392857Y-94982143D02*
X169440476Y-95029762D01*
X169583333Y-95077381D01*
X169678571Y-95077381D01*
X169821429Y-95029762D01*
X169916667Y-94934524D01*
X169964286Y-94839286D01*
X170011905Y-94648810D01*
X170011905Y-94505952D01*
X169964286Y-94315476D01*
X169916667Y-94220238D01*
X169821429Y-94125000D01*
X169678571Y-94077381D01*
X169583333Y-94077381D01*
X169440476Y-94125000D01*
X169392857Y-94172619D01*
X168440476Y-95077381D02*
X169011905Y-95077381D01*
X168726191Y-95077381D02*
X168726191Y-94077381D01*
X168821429Y-94220238D01*
X168916667Y-94315476D01*
X169011905Y-94363095D01*
X167821429Y-94077381D02*
X167726190Y-94077381D01*
X167630952Y-94125000D01*
X167583333Y-94172619D01*
X167535714Y-94267857D01*
X167488095Y-94458333D01*
X167488095Y-94696429D01*
X167535714Y-94886905D01*
X167583333Y-94982143D01*
X167630952Y-95029762D01*
X167726190Y-95077381D01*
X167821429Y-95077381D01*
X167916667Y-95029762D01*
X167964286Y-94982143D01*
X168011905Y-94886905D01*
X168059524Y-94696429D01*
X168059524Y-94458333D01*
X168011905Y-94267857D01*
X167964286Y-94172619D01*
X167916667Y-94125000D01*
X167821429Y-94077381D01*
X177392857Y-94982143D02*
X177440476Y-95029762D01*
X177583333Y-95077381D01*
X177678571Y-95077381D01*
X177821429Y-95029762D01*
X177916667Y-94934524D01*
X177964286Y-94839286D01*
X178011905Y-94648810D01*
X178011905Y-94505952D01*
X177964286Y-94315476D01*
X177916667Y-94220238D01*
X177821429Y-94125000D01*
X177678571Y-94077381D01*
X177583333Y-94077381D01*
X177440476Y-94125000D01*
X177392857Y-94172619D01*
X176440476Y-95077381D02*
X177011905Y-95077381D01*
X176726191Y-95077381D02*
X176726191Y-94077381D01*
X176821429Y-94220238D01*
X176916667Y-94315476D01*
X177011905Y-94363095D01*
X176059524Y-94172619D02*
X176011905Y-94125000D01*
X175916667Y-94077381D01*
X175678571Y-94077381D01*
X175583333Y-94125000D01*
X175535714Y-94172619D01*
X175488095Y-94267857D01*
X175488095Y-94363095D01*
X175535714Y-94505952D01*
X176107143Y-95077381D01*
X175488095Y-95077381D01*
X189192857Y-86507143D02*
X189240476Y-86554762D01*
X189383333Y-86602381D01*
X189478571Y-86602381D01*
X189621429Y-86554762D01*
X189716667Y-86459524D01*
X189764286Y-86364286D01*
X189811905Y-86173810D01*
X189811905Y-86030952D01*
X189764286Y-85840476D01*
X189716667Y-85745238D01*
X189621429Y-85650000D01*
X189478571Y-85602381D01*
X189383333Y-85602381D01*
X189240476Y-85650000D01*
X189192857Y-85697619D01*
X188240476Y-86602381D02*
X188811905Y-86602381D01*
X188526191Y-86602381D02*
X188526191Y-85602381D01*
X188621429Y-85745238D01*
X188716667Y-85840476D01*
X188811905Y-85888095D01*
X187335714Y-85602381D02*
X187811905Y-85602381D01*
X187859524Y-86078571D01*
X187811905Y-86030952D01*
X187716667Y-85983333D01*
X187478571Y-85983333D01*
X187383333Y-86030952D01*
X187335714Y-86078571D01*
X187288095Y-86173810D01*
X187288095Y-86411905D01*
X187335714Y-86507143D01*
X187383333Y-86554762D01*
X187478571Y-86602381D01*
X187716667Y-86602381D01*
X187811905Y-86554762D01*
X187859524Y-86507143D01*
X188616666Y-89527381D02*
X188950000Y-89051190D01*
X189188095Y-89527381D02*
X189188095Y-88527381D01*
X188807142Y-88527381D01*
X188711904Y-88575000D01*
X188664285Y-88622619D01*
X188616666Y-88717857D01*
X188616666Y-88860714D01*
X188664285Y-88955952D01*
X188711904Y-89003571D01*
X188807142Y-89051190D01*
X189188095Y-89051190D01*
X188283333Y-88527381D02*
X187616666Y-88527381D01*
X188045238Y-89527381D01*
X183013095Y-95777381D02*
X183013095Y-94777381D01*
X182632142Y-94777381D01*
X182536904Y-94825000D01*
X182489285Y-94872619D01*
X182441666Y-94967857D01*
X182441666Y-95110714D01*
X182489285Y-95205952D01*
X182536904Y-95253571D01*
X182632142Y-95301190D01*
X183013095Y-95301190D01*
X181536904Y-94777381D02*
X182013095Y-94777381D01*
X182060714Y-95253571D01*
X182013095Y-95205952D01*
X181917857Y-95158333D01*
X181679761Y-95158333D01*
X181584523Y-95205952D01*
X181536904Y-95253571D01*
X181489285Y-95348810D01*
X181489285Y-95586905D01*
X181536904Y-95682143D01*
X181584523Y-95729762D01*
X181679761Y-95777381D01*
X181917857Y-95777381D01*
X182013095Y-95729762D01*
X182060714Y-95682143D01*
X185213095Y-95752381D02*
X185213095Y-94752381D01*
X184832142Y-94752381D01*
X184736904Y-94800000D01*
X184689285Y-94847619D01*
X184641666Y-94942857D01*
X184641666Y-95085714D01*
X184689285Y-95180952D01*
X184736904Y-95228571D01*
X184832142Y-95276190D01*
X185213095Y-95276190D01*
X183784523Y-94752381D02*
X183975000Y-94752381D01*
X184070238Y-94800000D01*
X184117857Y-94847619D01*
X184213095Y-94990476D01*
X184260714Y-95180952D01*
X184260714Y-95561905D01*
X184213095Y-95657143D01*
X184165476Y-95704762D01*
X184070238Y-95752381D01*
X183879761Y-95752381D01*
X183784523Y-95704762D01*
X183736904Y-95657143D01*
X183689285Y-95561905D01*
X183689285Y-95323810D01*
X183736904Y-95228571D01*
X183784523Y-95180952D01*
X183879761Y-95133333D01*
X184070238Y-95133333D01*
X184165476Y-95180952D01*
X184213095Y-95228571D01*
X184260714Y-95323810D01*
X187463095Y-95677381D02*
X187463095Y-94677381D01*
X187082142Y-94677381D01*
X186986904Y-94725000D01*
X186939285Y-94772619D01*
X186891666Y-94867857D01*
X186891666Y-95010714D01*
X186939285Y-95105952D01*
X186986904Y-95153571D01*
X187082142Y-95201190D01*
X187463095Y-95201190D01*
X186558333Y-94677381D02*
X185891666Y-94677381D01*
X186320238Y-95677381D01*
X189813095Y-95702381D02*
X189813095Y-94702381D01*
X189432142Y-94702381D01*
X189336904Y-94750000D01*
X189289285Y-94797619D01*
X189241666Y-94892857D01*
X189241666Y-95035714D01*
X189289285Y-95130952D01*
X189336904Y-95178571D01*
X189432142Y-95226190D01*
X189813095Y-95226190D01*
X188670238Y-95130952D02*
X188765476Y-95083333D01*
X188813095Y-95035714D01*
X188860714Y-94940476D01*
X188860714Y-94892857D01*
X188813095Y-94797619D01*
X188765476Y-94750000D01*
X188670238Y-94702381D01*
X188479761Y-94702381D01*
X188384523Y-94750000D01*
X188336904Y-94797619D01*
X188289285Y-94892857D01*
X188289285Y-94940476D01*
X188336904Y-95035714D01*
X188384523Y-95083333D01*
X188479761Y-95130952D01*
X188670238Y-95130952D01*
X188765476Y-95178571D01*
X188813095Y-95226190D01*
X188860714Y-95321429D01*
X188860714Y-95511905D01*
X188813095Y-95607143D01*
X188765476Y-95654762D01*
X188670238Y-95702381D01*
X188479761Y-95702381D01*
X188384523Y-95654762D01*
X188336904Y-95607143D01*
X188289285Y-95511905D01*
X188289285Y-95321429D01*
X188336904Y-95226190D01*
X188384523Y-95178571D01*
X188479761Y-95130952D01*
M02*
