M48
;DRILL file {KiCad 4.0.2-stable} date 2017年04月21日 星期五 11:17:27
;FORMAT={-:-/ absolute / metric / decimal}
FMAT,2
METRIC,TZ
T1C0.400
T2C0.800
%
G90
G05
M71
T1
X162.525Y-88.475
X162.525Y-89.975
X162.575Y-80.85
X162.65Y-86.925
X165.9Y-78.975
X167.Y-94.625
X167.85Y-88.675
X167.85Y-90.025
X167.95Y-83.
X168.625Y-91.825
X169.35Y-82.8
X169.875Y-91.825
X170.4Y-78.575
X170.725Y-94.675
X171.725Y-90.65
X172.5Y-90.075
X173.775Y-89.295
X174.575Y-88.675
X175.075Y-91.725
X175.3Y-78.173
X175.375Y-80.125
X175.9Y-85.825
X176.275Y-84.1
X176.4Y-91.725
X176.525Y-83.15
X176.805Y-85.804
X178.6Y-94.625
X179.325Y-87.6
X179.325Y-92.25
X180.05Y-78.575
X180.05Y-80.075
X182.1Y-83.6
X182.8Y-85.875
X182.8Y-91.775
X185.3Y-85.875
X186.85Y-86.85
X186.9Y-83.125
X186.9Y-85.375
X187.8Y-91.475
X190.025Y-89.075
X190.3Y-87.525
X190.3Y-90.625
T2
X182.25Y-93.575
X184.5Y-93.575
X186.75Y-93.575
X188.5Y-78.275
X188.5Y-80.75
X189.Y-93.575
T0
M30
