G04 #@! TF.FileFunction,Copper,L4,Bot,Signal*
%FSLAX46Y46*%
G04 Gerber Fmt 4.6, Leading zero omitted, Abs format (unit mm)*
G04 Created by KiCad (PCBNEW 4.0.2-stable) date 2017年04月21日 星期五 11:17:21*
%MOMM*%
G01*
G04 APERTURE LIST*
%ADD10C,0.100000*%
%ADD11C,1.998980*%
%ADD12C,0.600000*%
%ADD13C,0.250000*%
%ADD14C,0.254000*%
G04 APERTURE END LIST*
D10*
D11*
X188500000Y-78275000D03*
X188500000Y-80750000D03*
X182250000Y-93575000D03*
X184500000Y-93575000D03*
X186750000Y-93575000D03*
X189000000Y-93575000D03*
D12*
X176275000Y-84100000D03*
X175075000Y-91725000D03*
X168625000Y-91825000D03*
X167850000Y-88675000D03*
X169350000Y-82800000D03*
X162575000Y-80850000D03*
X170400000Y-78575000D03*
X180050000Y-80075000D03*
X180050000Y-78575000D03*
X182800000Y-85875000D03*
X182800000Y-91775000D03*
X186850000Y-86850000D03*
X190300000Y-87525000D03*
X190300000Y-90625000D03*
X190025000Y-89075000D03*
X178600000Y-94625000D03*
X170725000Y-94675000D03*
X167000000Y-94625000D03*
X162525000Y-89975000D03*
X162525000Y-88475000D03*
X165900000Y-78975000D03*
X175375000Y-80125000D03*
X182100000Y-83600000D03*
X187800004Y-91475000D03*
X179325000Y-92250000D03*
X179325000Y-87600000D03*
X185300000Y-85875000D03*
X175299679Y-78173055D03*
X176525000Y-83150000D03*
X176400000Y-91725000D03*
X169875000Y-91825000D03*
X167850000Y-90025000D03*
X167950000Y-82999999D03*
X162650000Y-86925000D03*
X175900002Y-85825000D03*
X186900000Y-83125000D03*
X176804699Y-85804200D03*
X186900000Y-85375000D03*
X171725000Y-90650000D03*
X172500000Y-90075000D03*
X173775000Y-89295247D03*
X174575000Y-88674990D03*
D13*
X176200001Y-85525001D02*
X175900002Y-85825000D01*
X178900001Y-82825001D02*
X176200001Y-85525001D01*
X186600001Y-82825001D02*
X178900001Y-82825001D01*
X186900000Y-83125000D02*
X186600001Y-82825001D01*
X177104698Y-85504201D02*
X176804699Y-85804200D01*
X177533898Y-85075001D02*
X177104698Y-85504201D01*
X186600001Y-85075001D02*
X177533898Y-85075001D01*
X186900000Y-85375000D02*
X186600001Y-85075001D01*
X182250000Y-93575000D02*
X174650000Y-93575000D01*
X174650000Y-93575000D02*
X172024999Y-90949999D01*
X172024999Y-90949999D02*
X171725000Y-90650000D01*
X184500000Y-93575000D02*
X184500000Y-92025000D01*
X184500000Y-92025000D02*
X183400022Y-90925022D01*
X183400022Y-90925022D02*
X173350022Y-90925022D01*
X173350022Y-90925022D02*
X172799999Y-90374999D01*
X172799999Y-90374999D02*
X172500000Y-90075000D01*
X174954764Y-90475011D02*
X174074999Y-89595246D01*
X183650011Y-90475011D02*
X174954764Y-90475011D01*
X186750000Y-93575000D02*
X183650011Y-90475011D01*
X174074999Y-89595246D02*
X173775000Y-89295247D01*
X185450000Y-90025000D02*
X175925000Y-90025000D01*
X175925000Y-90025000D02*
X174575000Y-88675000D01*
X189000000Y-93575000D02*
X185450000Y-90025000D01*
X174575000Y-88675000D02*
X174575000Y-88674990D01*
D14*
G36*
X187330360Y-77491994D02*
X187119751Y-77999199D01*
X187119271Y-78548392D01*
X187328995Y-79055963D01*
X187619975Y-79347452D01*
X187527443Y-79597837D01*
X188500000Y-80570395D01*
X189472557Y-79597837D01*
X189379934Y-79347206D01*
X189669640Y-79058006D01*
X189880249Y-78550801D01*
X189880729Y-78001608D01*
X189671005Y-77494037D01*
X189608078Y-77431000D01*
X190569000Y-77431000D01*
X190569000Y-95569000D01*
X159431000Y-95569000D01*
X159431000Y-91959865D01*
X169193882Y-91959865D01*
X169297339Y-92210252D01*
X169488741Y-92401987D01*
X169738946Y-92505882D01*
X170009865Y-92506118D01*
X170260252Y-92402661D01*
X170451987Y-92211259D01*
X170555882Y-91961054D01*
X170556118Y-91690135D01*
X170452661Y-91439748D01*
X170261259Y-91248013D01*
X170011054Y-91144118D01*
X169740135Y-91143882D01*
X169489748Y-91247339D01*
X169298013Y-91438741D01*
X169194118Y-91688946D01*
X169193882Y-91959865D01*
X159431000Y-91959865D01*
X159431000Y-90784865D01*
X171043882Y-90784865D01*
X171147339Y-91035252D01*
X171338741Y-91226987D01*
X171588946Y-91330882D01*
X171690378Y-91330970D01*
X174292204Y-93932796D01*
X174456362Y-94042483D01*
X174650000Y-94081000D01*
X180965383Y-94081000D01*
X181078995Y-94355963D01*
X181466994Y-94744640D01*
X181974199Y-94955249D01*
X182523392Y-94955729D01*
X183030963Y-94746005D01*
X183375260Y-94402309D01*
X183716994Y-94744640D01*
X184224199Y-94955249D01*
X184773392Y-94955729D01*
X185280963Y-94746005D01*
X185625260Y-94402309D01*
X185966994Y-94744640D01*
X186474199Y-94955249D01*
X187023392Y-94955729D01*
X187530963Y-94746005D01*
X187875260Y-94402309D01*
X188216994Y-94744640D01*
X188724199Y-94955249D01*
X189273392Y-94955729D01*
X189780963Y-94746005D01*
X190169640Y-94358006D01*
X190380249Y-93850801D01*
X190380729Y-93301608D01*
X190171005Y-92794037D01*
X189783006Y-92405360D01*
X189275801Y-92194751D01*
X188726608Y-92194271D01*
X188449402Y-92308810D01*
X188189258Y-92048666D01*
X188376991Y-91861259D01*
X188480886Y-91611054D01*
X188481122Y-91340135D01*
X188377665Y-91089748D01*
X188186263Y-90898013D01*
X187936058Y-90794118D01*
X187665139Y-90793882D01*
X187414752Y-90897339D01*
X187226178Y-91085586D01*
X185807796Y-89667204D01*
X185643638Y-89557517D01*
X185450000Y-89519000D01*
X176134592Y-89519000D01*
X175256031Y-88640439D01*
X175256118Y-88540125D01*
X175152661Y-88289738D01*
X174961259Y-88098003D01*
X174711054Y-87994108D01*
X174440135Y-87993872D01*
X174189748Y-88097329D01*
X173998013Y-88288731D01*
X173894118Y-88538936D01*
X173894052Y-88614350D01*
X173640135Y-88614129D01*
X173389748Y-88717586D01*
X173198013Y-88908988D01*
X173094118Y-89159193D01*
X173093882Y-89430112D01*
X173197339Y-89680499D01*
X173388741Y-89872234D01*
X173638946Y-89976129D01*
X173740378Y-89976217D01*
X174183183Y-90419022D01*
X173559614Y-90419022D01*
X173181031Y-90040439D01*
X173181118Y-89940135D01*
X173077661Y-89689748D01*
X172886259Y-89498013D01*
X172636054Y-89394118D01*
X172365135Y-89393882D01*
X172114748Y-89497339D01*
X171923013Y-89688741D01*
X171819118Y-89938946D01*
X171819092Y-89969081D01*
X171590135Y-89968882D01*
X171339748Y-90072339D01*
X171148013Y-90263741D01*
X171044118Y-90513946D01*
X171043882Y-90784865D01*
X159431000Y-90784865D01*
X159431000Y-90159865D01*
X167168882Y-90159865D01*
X167272339Y-90410252D01*
X167463741Y-90601987D01*
X167713946Y-90705882D01*
X167984865Y-90706118D01*
X168235252Y-90602661D01*
X168426987Y-90411259D01*
X168530882Y-90161054D01*
X168531118Y-89890135D01*
X168427661Y-89639748D01*
X168236259Y-89448013D01*
X167986054Y-89344118D01*
X167715135Y-89343882D01*
X167464748Y-89447339D01*
X167273013Y-89638741D01*
X167169118Y-89888946D01*
X167168882Y-90159865D01*
X159431000Y-90159865D01*
X159431000Y-87734865D01*
X178643882Y-87734865D01*
X178747339Y-87985252D01*
X178938741Y-88176987D01*
X179188946Y-88280882D01*
X179459865Y-88281118D01*
X179710252Y-88177661D01*
X179901987Y-87986259D01*
X180005882Y-87736054D01*
X180006118Y-87465135D01*
X179902661Y-87214748D01*
X179711259Y-87023013D01*
X179461054Y-86919118D01*
X179190135Y-86918882D01*
X178939748Y-87022339D01*
X178748013Y-87213741D01*
X178644118Y-87463946D01*
X178643882Y-87734865D01*
X159431000Y-87734865D01*
X159431000Y-87059865D01*
X161968882Y-87059865D01*
X162072339Y-87310252D01*
X162263741Y-87501987D01*
X162513946Y-87605882D01*
X162784865Y-87606118D01*
X163035252Y-87502661D01*
X163226987Y-87311259D01*
X163330882Y-87061054D01*
X163331118Y-86790135D01*
X163227661Y-86539748D01*
X163036259Y-86348013D01*
X162786054Y-86244118D01*
X162515135Y-86243882D01*
X162264748Y-86347339D01*
X162073013Y-86538741D01*
X161969118Y-86788946D01*
X161968882Y-87059865D01*
X159431000Y-87059865D01*
X159431000Y-85959865D01*
X175218884Y-85959865D01*
X175322341Y-86210252D01*
X175513743Y-86401987D01*
X175763948Y-86505882D01*
X176034867Y-86506118D01*
X176285254Y-86402661D01*
X176362700Y-86325350D01*
X176418440Y-86381187D01*
X176668645Y-86485082D01*
X176939564Y-86485318D01*
X177189951Y-86381861D01*
X177381686Y-86190459D01*
X177485581Y-85940254D01*
X177485669Y-85838822D01*
X177743490Y-85581001D01*
X184684703Y-85581001D01*
X184619118Y-85738946D01*
X184618882Y-86009865D01*
X184722339Y-86260252D01*
X184913741Y-86451987D01*
X185163946Y-86555882D01*
X185434865Y-86556118D01*
X185685252Y-86452661D01*
X185876987Y-86261259D01*
X185980882Y-86011054D01*
X185981118Y-85740135D01*
X185915366Y-85581001D01*
X186248275Y-85581001D01*
X186322339Y-85760252D01*
X186513741Y-85951987D01*
X186763946Y-86055882D01*
X187034865Y-86056118D01*
X187285252Y-85952661D01*
X187476987Y-85761259D01*
X187580882Y-85511054D01*
X187581118Y-85240135D01*
X187477661Y-84989748D01*
X187286259Y-84798013D01*
X187036054Y-84694118D01*
X186923098Y-84694020D01*
X186793639Y-84607518D01*
X186600001Y-84569001D01*
X177871593Y-84569001D01*
X179109593Y-83331001D01*
X186248275Y-83331001D01*
X186322339Y-83510252D01*
X186513741Y-83701987D01*
X186763946Y-83805882D01*
X187034865Y-83806118D01*
X187285252Y-83702661D01*
X187476987Y-83511259D01*
X187580882Y-83261054D01*
X187581118Y-82990135D01*
X187477661Y-82739748D01*
X187286259Y-82548013D01*
X187036054Y-82444118D01*
X186923098Y-82444020D01*
X186793639Y-82357518D01*
X186600001Y-82319001D01*
X178900001Y-82319001D01*
X178706363Y-82357518D01*
X178576757Y-82444118D01*
X178542205Y-82467205D01*
X175865441Y-85143969D01*
X175765137Y-85143882D01*
X175514750Y-85247339D01*
X175323015Y-85438741D01*
X175219120Y-85688946D01*
X175218884Y-85959865D01*
X159431000Y-85959865D01*
X159431000Y-83134864D01*
X167268882Y-83134864D01*
X167372339Y-83385251D01*
X167563741Y-83576986D01*
X167813946Y-83680881D01*
X168084865Y-83681117D01*
X168335252Y-83577660D01*
X168526987Y-83386258D01*
X168569089Y-83284865D01*
X175843882Y-83284865D01*
X175947339Y-83535252D01*
X176138741Y-83726987D01*
X176388946Y-83830882D01*
X176659865Y-83831118D01*
X176910252Y-83727661D01*
X177101987Y-83536259D01*
X177205882Y-83286054D01*
X177206118Y-83015135D01*
X177102661Y-82764748D01*
X176911259Y-82573013D01*
X176661054Y-82469118D01*
X176390135Y-82468882D01*
X176139748Y-82572339D01*
X175948013Y-82763741D01*
X175844118Y-83013946D01*
X175843882Y-83284865D01*
X168569089Y-83284865D01*
X168630882Y-83136053D01*
X168631118Y-82865134D01*
X168527661Y-82614747D01*
X168336259Y-82423012D01*
X168086054Y-82319117D01*
X167815135Y-82318881D01*
X167564748Y-82422338D01*
X167373013Y-82613740D01*
X167269118Y-82863945D01*
X167268882Y-83134864D01*
X159431000Y-83134864D01*
X159431000Y-81902163D01*
X187527443Y-81902163D01*
X187626042Y-82168965D01*
X188235582Y-82395401D01*
X188885377Y-82371341D01*
X189373958Y-82168965D01*
X189472557Y-81902163D01*
X188500000Y-80929605D01*
X187527443Y-81902163D01*
X159431000Y-81902163D01*
X159431000Y-80485582D01*
X186854599Y-80485582D01*
X186878659Y-81135377D01*
X187081035Y-81623958D01*
X187347837Y-81722557D01*
X188320395Y-80750000D01*
X188679605Y-80750000D01*
X189652163Y-81722557D01*
X189918965Y-81623958D01*
X190145401Y-81014418D01*
X190121341Y-80364623D01*
X189918965Y-79876042D01*
X189652163Y-79777443D01*
X188679605Y-80750000D01*
X188320395Y-80750000D01*
X187347837Y-79777443D01*
X187081035Y-79876042D01*
X186854599Y-80485582D01*
X159431000Y-80485582D01*
X159431000Y-78307920D01*
X174618561Y-78307920D01*
X174722018Y-78558307D01*
X174913420Y-78750042D01*
X175163625Y-78853937D01*
X175434544Y-78854173D01*
X175684931Y-78750716D01*
X175876666Y-78559314D01*
X175980561Y-78309109D01*
X175980797Y-78038190D01*
X175877340Y-77787803D01*
X175685938Y-77596068D01*
X175435733Y-77492173D01*
X175164814Y-77491937D01*
X174914427Y-77595394D01*
X174722692Y-77786796D01*
X174618797Y-78037001D01*
X174618561Y-78307920D01*
X159431000Y-78307920D01*
X159431000Y-77431000D01*
X187391461Y-77431000D01*
X187330360Y-77491994D01*
X187330360Y-77491994D01*
G37*
X187330360Y-77491994D02*
X187119751Y-77999199D01*
X187119271Y-78548392D01*
X187328995Y-79055963D01*
X187619975Y-79347452D01*
X187527443Y-79597837D01*
X188500000Y-80570395D01*
X189472557Y-79597837D01*
X189379934Y-79347206D01*
X189669640Y-79058006D01*
X189880249Y-78550801D01*
X189880729Y-78001608D01*
X189671005Y-77494037D01*
X189608078Y-77431000D01*
X190569000Y-77431000D01*
X190569000Y-95569000D01*
X159431000Y-95569000D01*
X159431000Y-91959865D01*
X169193882Y-91959865D01*
X169297339Y-92210252D01*
X169488741Y-92401987D01*
X169738946Y-92505882D01*
X170009865Y-92506118D01*
X170260252Y-92402661D01*
X170451987Y-92211259D01*
X170555882Y-91961054D01*
X170556118Y-91690135D01*
X170452661Y-91439748D01*
X170261259Y-91248013D01*
X170011054Y-91144118D01*
X169740135Y-91143882D01*
X169489748Y-91247339D01*
X169298013Y-91438741D01*
X169194118Y-91688946D01*
X169193882Y-91959865D01*
X159431000Y-91959865D01*
X159431000Y-90784865D01*
X171043882Y-90784865D01*
X171147339Y-91035252D01*
X171338741Y-91226987D01*
X171588946Y-91330882D01*
X171690378Y-91330970D01*
X174292204Y-93932796D01*
X174456362Y-94042483D01*
X174650000Y-94081000D01*
X180965383Y-94081000D01*
X181078995Y-94355963D01*
X181466994Y-94744640D01*
X181974199Y-94955249D01*
X182523392Y-94955729D01*
X183030963Y-94746005D01*
X183375260Y-94402309D01*
X183716994Y-94744640D01*
X184224199Y-94955249D01*
X184773392Y-94955729D01*
X185280963Y-94746005D01*
X185625260Y-94402309D01*
X185966994Y-94744640D01*
X186474199Y-94955249D01*
X187023392Y-94955729D01*
X187530963Y-94746005D01*
X187875260Y-94402309D01*
X188216994Y-94744640D01*
X188724199Y-94955249D01*
X189273392Y-94955729D01*
X189780963Y-94746005D01*
X190169640Y-94358006D01*
X190380249Y-93850801D01*
X190380729Y-93301608D01*
X190171005Y-92794037D01*
X189783006Y-92405360D01*
X189275801Y-92194751D01*
X188726608Y-92194271D01*
X188449402Y-92308810D01*
X188189258Y-92048666D01*
X188376991Y-91861259D01*
X188480886Y-91611054D01*
X188481122Y-91340135D01*
X188377665Y-91089748D01*
X188186263Y-90898013D01*
X187936058Y-90794118D01*
X187665139Y-90793882D01*
X187414752Y-90897339D01*
X187226178Y-91085586D01*
X185807796Y-89667204D01*
X185643638Y-89557517D01*
X185450000Y-89519000D01*
X176134592Y-89519000D01*
X175256031Y-88640439D01*
X175256118Y-88540125D01*
X175152661Y-88289738D01*
X174961259Y-88098003D01*
X174711054Y-87994108D01*
X174440135Y-87993872D01*
X174189748Y-88097329D01*
X173998013Y-88288731D01*
X173894118Y-88538936D01*
X173894052Y-88614350D01*
X173640135Y-88614129D01*
X173389748Y-88717586D01*
X173198013Y-88908988D01*
X173094118Y-89159193D01*
X173093882Y-89430112D01*
X173197339Y-89680499D01*
X173388741Y-89872234D01*
X173638946Y-89976129D01*
X173740378Y-89976217D01*
X174183183Y-90419022D01*
X173559614Y-90419022D01*
X173181031Y-90040439D01*
X173181118Y-89940135D01*
X173077661Y-89689748D01*
X172886259Y-89498013D01*
X172636054Y-89394118D01*
X172365135Y-89393882D01*
X172114748Y-89497339D01*
X171923013Y-89688741D01*
X171819118Y-89938946D01*
X171819092Y-89969081D01*
X171590135Y-89968882D01*
X171339748Y-90072339D01*
X171148013Y-90263741D01*
X171044118Y-90513946D01*
X171043882Y-90784865D01*
X159431000Y-90784865D01*
X159431000Y-90159865D01*
X167168882Y-90159865D01*
X167272339Y-90410252D01*
X167463741Y-90601987D01*
X167713946Y-90705882D01*
X167984865Y-90706118D01*
X168235252Y-90602661D01*
X168426987Y-90411259D01*
X168530882Y-90161054D01*
X168531118Y-89890135D01*
X168427661Y-89639748D01*
X168236259Y-89448013D01*
X167986054Y-89344118D01*
X167715135Y-89343882D01*
X167464748Y-89447339D01*
X167273013Y-89638741D01*
X167169118Y-89888946D01*
X167168882Y-90159865D01*
X159431000Y-90159865D01*
X159431000Y-87734865D01*
X178643882Y-87734865D01*
X178747339Y-87985252D01*
X178938741Y-88176987D01*
X179188946Y-88280882D01*
X179459865Y-88281118D01*
X179710252Y-88177661D01*
X179901987Y-87986259D01*
X180005882Y-87736054D01*
X180006118Y-87465135D01*
X179902661Y-87214748D01*
X179711259Y-87023013D01*
X179461054Y-86919118D01*
X179190135Y-86918882D01*
X178939748Y-87022339D01*
X178748013Y-87213741D01*
X178644118Y-87463946D01*
X178643882Y-87734865D01*
X159431000Y-87734865D01*
X159431000Y-87059865D01*
X161968882Y-87059865D01*
X162072339Y-87310252D01*
X162263741Y-87501987D01*
X162513946Y-87605882D01*
X162784865Y-87606118D01*
X163035252Y-87502661D01*
X163226987Y-87311259D01*
X163330882Y-87061054D01*
X163331118Y-86790135D01*
X163227661Y-86539748D01*
X163036259Y-86348013D01*
X162786054Y-86244118D01*
X162515135Y-86243882D01*
X162264748Y-86347339D01*
X162073013Y-86538741D01*
X161969118Y-86788946D01*
X161968882Y-87059865D01*
X159431000Y-87059865D01*
X159431000Y-85959865D01*
X175218884Y-85959865D01*
X175322341Y-86210252D01*
X175513743Y-86401987D01*
X175763948Y-86505882D01*
X176034867Y-86506118D01*
X176285254Y-86402661D01*
X176362700Y-86325350D01*
X176418440Y-86381187D01*
X176668645Y-86485082D01*
X176939564Y-86485318D01*
X177189951Y-86381861D01*
X177381686Y-86190459D01*
X177485581Y-85940254D01*
X177485669Y-85838822D01*
X177743490Y-85581001D01*
X184684703Y-85581001D01*
X184619118Y-85738946D01*
X184618882Y-86009865D01*
X184722339Y-86260252D01*
X184913741Y-86451987D01*
X185163946Y-86555882D01*
X185434865Y-86556118D01*
X185685252Y-86452661D01*
X185876987Y-86261259D01*
X185980882Y-86011054D01*
X185981118Y-85740135D01*
X185915366Y-85581001D01*
X186248275Y-85581001D01*
X186322339Y-85760252D01*
X186513741Y-85951987D01*
X186763946Y-86055882D01*
X187034865Y-86056118D01*
X187285252Y-85952661D01*
X187476987Y-85761259D01*
X187580882Y-85511054D01*
X187581118Y-85240135D01*
X187477661Y-84989748D01*
X187286259Y-84798013D01*
X187036054Y-84694118D01*
X186923098Y-84694020D01*
X186793639Y-84607518D01*
X186600001Y-84569001D01*
X177871593Y-84569001D01*
X179109593Y-83331001D01*
X186248275Y-83331001D01*
X186322339Y-83510252D01*
X186513741Y-83701987D01*
X186763946Y-83805882D01*
X187034865Y-83806118D01*
X187285252Y-83702661D01*
X187476987Y-83511259D01*
X187580882Y-83261054D01*
X187581118Y-82990135D01*
X187477661Y-82739748D01*
X187286259Y-82548013D01*
X187036054Y-82444118D01*
X186923098Y-82444020D01*
X186793639Y-82357518D01*
X186600001Y-82319001D01*
X178900001Y-82319001D01*
X178706363Y-82357518D01*
X178576757Y-82444118D01*
X178542205Y-82467205D01*
X175865441Y-85143969D01*
X175765137Y-85143882D01*
X175514750Y-85247339D01*
X175323015Y-85438741D01*
X175219120Y-85688946D01*
X175218884Y-85959865D01*
X159431000Y-85959865D01*
X159431000Y-83134864D01*
X167268882Y-83134864D01*
X167372339Y-83385251D01*
X167563741Y-83576986D01*
X167813946Y-83680881D01*
X168084865Y-83681117D01*
X168335252Y-83577660D01*
X168526987Y-83386258D01*
X168569089Y-83284865D01*
X175843882Y-83284865D01*
X175947339Y-83535252D01*
X176138741Y-83726987D01*
X176388946Y-83830882D01*
X176659865Y-83831118D01*
X176910252Y-83727661D01*
X177101987Y-83536259D01*
X177205882Y-83286054D01*
X177206118Y-83015135D01*
X177102661Y-82764748D01*
X176911259Y-82573013D01*
X176661054Y-82469118D01*
X176390135Y-82468882D01*
X176139748Y-82572339D01*
X175948013Y-82763741D01*
X175844118Y-83013946D01*
X175843882Y-83284865D01*
X168569089Y-83284865D01*
X168630882Y-83136053D01*
X168631118Y-82865134D01*
X168527661Y-82614747D01*
X168336259Y-82423012D01*
X168086054Y-82319117D01*
X167815135Y-82318881D01*
X167564748Y-82422338D01*
X167373013Y-82613740D01*
X167269118Y-82863945D01*
X167268882Y-83134864D01*
X159431000Y-83134864D01*
X159431000Y-81902163D01*
X187527443Y-81902163D01*
X187626042Y-82168965D01*
X188235582Y-82395401D01*
X188885377Y-82371341D01*
X189373958Y-82168965D01*
X189472557Y-81902163D01*
X188500000Y-80929605D01*
X187527443Y-81902163D01*
X159431000Y-81902163D01*
X159431000Y-80485582D01*
X186854599Y-80485582D01*
X186878659Y-81135377D01*
X187081035Y-81623958D01*
X187347837Y-81722557D01*
X188320395Y-80750000D01*
X188679605Y-80750000D01*
X189652163Y-81722557D01*
X189918965Y-81623958D01*
X190145401Y-81014418D01*
X190121341Y-80364623D01*
X189918965Y-79876042D01*
X189652163Y-79777443D01*
X188679605Y-80750000D01*
X188320395Y-80750000D01*
X187347837Y-79777443D01*
X187081035Y-79876042D01*
X186854599Y-80485582D01*
X159431000Y-80485582D01*
X159431000Y-78307920D01*
X174618561Y-78307920D01*
X174722018Y-78558307D01*
X174913420Y-78750042D01*
X175163625Y-78853937D01*
X175434544Y-78854173D01*
X175684931Y-78750716D01*
X175876666Y-78559314D01*
X175980561Y-78309109D01*
X175980797Y-78038190D01*
X175877340Y-77787803D01*
X175685938Y-77596068D01*
X175435733Y-77492173D01*
X175164814Y-77491937D01*
X174914427Y-77595394D01*
X174722692Y-77786796D01*
X174618797Y-78037001D01*
X174618561Y-78307920D01*
X159431000Y-78307920D01*
X159431000Y-77431000D01*
X187391461Y-77431000D01*
X187330360Y-77491994D01*
G36*
X173350022Y-91431022D02*
X175784694Y-91431022D01*
X175719118Y-91588946D01*
X175718882Y-91859865D01*
X175822339Y-92110252D01*
X176013741Y-92301987D01*
X176263946Y-92405882D01*
X176534865Y-92406118D01*
X176586301Y-92384865D01*
X178643882Y-92384865D01*
X178747339Y-92635252D01*
X178938741Y-92826987D01*
X179188946Y-92930882D01*
X179459865Y-92931118D01*
X179710252Y-92827661D01*
X179901987Y-92636259D01*
X180005882Y-92386054D01*
X180006118Y-92115135D01*
X179902661Y-91864748D01*
X179711259Y-91673013D01*
X179461054Y-91569118D01*
X179190135Y-91568882D01*
X178939748Y-91672339D01*
X178748013Y-91863741D01*
X178644118Y-92113946D01*
X178643882Y-92384865D01*
X176586301Y-92384865D01*
X176785252Y-92302661D01*
X176976987Y-92111259D01*
X177080882Y-91861054D01*
X177081118Y-91590135D01*
X177015374Y-91431022D01*
X183190430Y-91431022D01*
X183994000Y-92234592D01*
X183994000Y-92290383D01*
X183719037Y-92403995D01*
X183374740Y-92747691D01*
X183033006Y-92405360D01*
X182525801Y-92194751D01*
X181976608Y-92194271D01*
X181469037Y-92403995D01*
X181080360Y-92791994D01*
X180965338Y-93069000D01*
X174859592Y-93069000D01*
X173189730Y-91399138D01*
X173350022Y-91431022D01*
X173350022Y-91431022D01*
G37*
X173350022Y-91431022D02*
X175784694Y-91431022D01*
X175719118Y-91588946D01*
X175718882Y-91859865D01*
X175822339Y-92110252D01*
X176013741Y-92301987D01*
X176263946Y-92405882D01*
X176534865Y-92406118D01*
X176586301Y-92384865D01*
X178643882Y-92384865D01*
X178747339Y-92635252D01*
X178938741Y-92826987D01*
X179188946Y-92930882D01*
X179459865Y-92931118D01*
X179710252Y-92827661D01*
X179901987Y-92636259D01*
X180005882Y-92386054D01*
X180006118Y-92115135D01*
X179902661Y-91864748D01*
X179711259Y-91673013D01*
X179461054Y-91569118D01*
X179190135Y-91568882D01*
X178939748Y-91672339D01*
X178748013Y-91863741D01*
X178644118Y-92113946D01*
X178643882Y-92384865D01*
X176586301Y-92384865D01*
X176785252Y-92302661D01*
X176976987Y-92111259D01*
X177080882Y-91861054D01*
X177081118Y-91590135D01*
X177015374Y-91431022D01*
X183190430Y-91431022D01*
X183994000Y-92234592D01*
X183994000Y-92290383D01*
X183719037Y-92403995D01*
X183374740Y-92747691D01*
X183033006Y-92405360D01*
X182525801Y-92194751D01*
X181976608Y-92194271D01*
X181469037Y-92403995D01*
X181080360Y-92791994D01*
X180965338Y-93069000D01*
X174859592Y-93069000D01*
X173189730Y-91399138D01*
X173350022Y-91431022D01*
M02*
