M48
;DRILL file {KiCad 4.0.2-stable} date 2016年10月18日 星期二 03:38:55
;FORMAT={-:-/ absolute / inch / decimal}
FMAT,2
INCH,TZ
T1C0.016
T2C0.024
T3C0.032
T4C0.098
%
G90
G05
M72
T1
X5.7323Y-3.6781
X5.7323Y-3.7303
X5.7323Y-3.7766
X5.875Y-3.6555
X5.875Y-3.7769
X5.8924Y-3.6935
X5.9175Y-3.8016
X5.9392Y-3.671
X5.9703Y-3.641
X5.9703Y-3.6762
X5.9949Y-3.6108
X6.0787Y-3.7776
X6.0787Y-3.8081
X6.0846Y-3.5945
X6.1063Y-3.8514
X6.1102Y-3.6624
X6.1929Y-3.5325
X6.2618Y-3.9104
X6.3022Y-3.4843
X6.3612Y-3.4843
X6.3652Y-3.7726
X6.3784Y-3.9528
X6.4114Y-3.878
X6.4273Y-3.9528
X6.4684Y-3.9102
X6.4803Y-3.5128
X6.501Y-3.9478
X6.5305Y-3.9754
X6.56Y-3.9291
X6.6398Y-3.9183
X6.7283Y-3.7116
X6.7402Y-3.5591
X6.7697Y-3.7264
X6.7702Y-3.7589
X6.8209Y-3.8652
X6.8278Y-3.9626
X6.8583Y-3.5699
X6.8986Y-3.7835
X6.9439Y-3.5699
X7.0197Y-3.8435
X7.0364Y-3.815
X7.0827Y-3.6122
X7.125Y-3.6033
X7.128Y-3.8081
X7.187Y-3.8061
X7.199Y-3.5992
X7.2205Y-3.5719
X7.2215Y-3.7116
X7.2234Y-3.8494
T2
X6.3022Y-3.6427
X6.3612Y-3.6427
T3
X7.2835Y-3.7795
X7.2835Y-3.8976
T4
X5.79Y-3.91
T0
M30
